<?xml version="1.0" encoding="UTF-8" standalone="no"?><svg xmlns="http://www.w3.org/2000/svg" height="50" style="fill:#000000;fill-opacity:1.0" viewBox="0 0 50 50" width="50">
    <path color="#000" d="M 16.375 -0.03125 A 1.0001 1.0001 0 0 0 16.25 0 A 1.0001 1.0001 0 0 0 15.65625 1.5625 L 17.78125 4.75 C 14.183141 6.6388765 11.600149 9.9005739 11 13.78125 A 1.0001 1.0001 0 0 0 11 13.8125 C 10.998467 13.822594 11.001506 13.833648 11 13.84375 A 1.0001 1.0001 0 0 0 11 13.9375 A 1.0001 1.0001 0 0 0 11 14 A 1.0001 1.0001 0 0 0 11 14.15625 L 11 15.5625 C 10.407407 15.214056 9.7324447 15 9 15 C 6.8026661 15 5 16.802666 5 19 L 5 31 C 5 33.197334 6.8026661 35 9 35 C 9.7324447 35 10.407407 34.785944 11 34.4375 L 11 37 C 11 38.645063 12.354937 40 14 40 L 15 40 L 15 46 C 15 48.197334 16.802666 50 19 50 C 21.197334 50 23 48.197334 23 46 L 23 40 L 27 40 L 27 46 C 27 48.197334 28.802666 50 31 50 C 33.197334 50 35 48.197334 35 46 L 35 40 L 36 40 C 37.645063 40 39 38.645063 39 37 L 39 34.4375 C 39.592593 34.785944 40.267555 35 41 35 C 43.197334 35 45 33.197334 45 31 L 45 19 C 45 16.802666 43.197334 15 41 15 C 40.267555 15 39.592593 15.214056 39 15.5625 L 39 14.1875 A 1.0001 1.0001 0 0 0 39 13.90625 A 1.0001 1.0001 0 0 0 39 13.875 A 1.0001 1.0001 0 0 0 39 13.84375 C 38.417483 9.9365218 35.835562 6.6486949 32.21875 4.75 L 34.34375 1.5625 A 1.0001 1.0001 0 0 0 33.3125 0 A 1.0001 1.0001 0 0 0 32.6875 0.4375 L 30.34375 3.90625 C 28.69397 3.3118073 26.880993 3 25 3 C 23.119007 3 21.30603 3.3118073 19.65625 3.90625 L 17.3125 0.4375 A 1.0001 1.0001 0 0 0 16.375 -0.03125 z M 25 5 C 26.878213 5 28.639154 5.3673319 30.1875 6.03125 A 1.0140613 1.0140613 0 0 0 30.28125 6.0625 C 33.408871 7.4330205 35.689115 10.000469 36.5625 13 L 13.4375 13 C 14.299011 10.041247 16.531049 7.5084242 19.59375 6.125 A 1.0140613 1.0140613 0 0 0 19.78125 6.03125 C 21.336009 5.3603709 23.111269 5 25 5 z M 19.5 8 C 18.667 8 18 8.672 18 9.5 C 18 10.332 18.667 11 19.5 11 C 20.327 11 21 10.332 21 9.5 C 21 8.672 20.327 8 19.5 8 z M 30.5 8 C 29.673 8 29 8.672 29 9.5 C 29 10.332 29.673 11 30.5 11 C 31.333 11 32 10.332 32 9.5 C 32 8.672 31.333 8 30.5 8 z M 13 15 L 37 15 L 37 19 L 37 31 L 37 37 C 37 37.562937 36.562937 38 36 38 L 34.1875 38 L 33.78125 38 L 28.1875 38 A 1.0001 1.0001 0 0 0 27.78125 38 L 16.1875 38 A 1.0001 1.0001 0 0 0 15.78125 38 L 14 38 C 13.437063 38 13 37.562937 13 37 L 13 15 z M 9 17 C 10.116666 17 11 17.883334 11 19 L 11 31 C 11 32.116666 10.116666 33 9 33 C 7.8833339 33 7 32.116666 7 31 L 7 19 C 7 17.883334 7.8833339 17 9 17 z M 41 17 C 42.116666 17 43 17.883334 43 19 L 43 31 C 43 32.116666 42.116666 33 41 33 C 39.883334 33 39 32.116666 39 31 L 39 19 C 39 17.883334 39.883334 17 41 17 z M 17 40 L 21 40 L 21 46 C 21 47.116666 20.116666 48 19 48 C 17.883334 48 17 47.116666 17 46 L 17 40 z M 29 40 L 33 40 L 33 46 C 33 47.116666 32.116666 48 31 48 C 29.883334 48 29 47.116666 29 46 L 29 40 z" enable-background="accumulate" font-family="Bitstream Vera Sans" overflow="visible" style="text-indent:0;text-align:start;line-height:normal;text-transform:none;block-progression:tb;-inkscape-font-specification:Bitstream Vera Sans"/>
</svg>