<?xml version="1.0" encoding="utf-8" standalone="no"?><!-- Generator: Adobe Illustrator 19.1.1, SVG Export Plug-In . SVG Version: 6.00 Build 0)  --><svg xmlns="http://www.w3.org/2000/svg" xmlns:xlink="http://www.w3.org/1999/xlink" enable-background="new 0 0 48 48" id="Layer_1" style="fill:#3366ff" version="1.1" viewBox="0 0 48 48" x="0px" xml:space="preserve" y="0px">
<circle cx="24" cy="24" fill="#4CAF50" r="19"/>
<path d="M24,5v19l8,4l-8.8,15c0.3,0,0.5,0,0.8,0c10.5,0,19-8.5,19-19S34.5,5,24,5z" fill="#FFC107"/>
<path d="M16,28l8-13h16.7C37.5,9,31.2,5,24,5c-6.7,0-12.6,3.5-16,8.8L16,28z" fill="#F44336"/>
<polygon fill="#DD2C00" points="8,13.8 16,28 21,27 "/>
<polygon fill="#F9A825" points="40.6,15 24,15 22.5,19.8 "/>
<polygon fill="#558B2F" points="23.2,43 32,28 28.2,24.9 "/>
<circle cx="24" cy="24" fill="#FFFFFF" r="9"/>
<circle cx="24" cy="24" fill="#2196F3" r="7"/>
</svg>