<?xml version="1.0" encoding="UTF-8" standalone="no"?><svg xmlns="http://www.w3.org/2000/svg" height="50" style="fill:#000000;fill-opacity:1.0" viewBox="0 0 50 50" width="50">
    <path color="#000" d="M 25 0 C 11.204726 0 0 11.204726 0 25 C 0 38.795274 11.204726 50 25 50 C 38.795274 50 50 38.795274 50 25 C 50 11.204726 38.795274 0 25 0 z M 25 2 C 33.954708 2 41.699636 7.1032983 45.5 14.5625 L 29.40625 14.5625 C 28.05425 13.9955 26.557 13.65625 25 13.65625 C 20.181 13.65625 16.06625 16.67625 14.40625 20.90625 L 5.78125 12.375 C 9.8898122 6.1222416 16.949588 2 25 2 z M 5.625 12.59375 C 7.2040082 15.328579 11.002486 21.895651 13.75 26.65625 C 14.533 32.17925 19.262 36.4375 25 36.4375 C 25.448 36.4375 25.8775 36.39475 26.3125 36.34375 L 23.5625 47.9375 C 11.520285 47.195847 2 37.230857 2 25 C 2 20.430765 3.3328817 16.170966 5.625 12.59375 z M 45.59375 14.78125 C 47.122854 17.860852 48 21.324745 48 25 C 48 37.714394 37.714394 48 25 48 C 24.623573 48 24.246966 47.986578 23.875 47.96875 C 25.465061 45.218134 29.147751 38.820171 31.875 34.09375 C 34.608 32.01475 36.375 28.7605 36.375 25.0625 C 36.375 22.4755 35.5175 20.06825 34.0625 18.15625 L 45.59375 14.78125 z M 25 16 C 29.97 16 34 20.029 34 25 C 34 29.971 29.97 34 25 34 C 20.029 34 16 29.971 16 25 C 16 20.029 20.029 16 25 16 z" enable-background="accumulate" font-family="Bitstream Vera Sans" overflow="visible" style="text-indent:0;text-align:start;line-height:normal;text-transform:none;block-progression:tb;-inkscape-font-specification:Bitstream Vera Sans"/>
</svg>