<?xml version="1.0" encoding="UTF-8" standalone="no"?><svg xmlns="http://www.w3.org/2000/svg" height="50" style="fill:#000000;fill-opacity:1.0" viewBox="0 0 50 50" width="50">
    <path color="#000" d="M 25.09375 0.96875 C 18.36859 0.96875 12.289336 3.7219286 7.9375 8.1875 C 7.6267943 7.524818 7.3398319 6.6438169 7.15625 5.4375 A 1.0001 1.0001 0 0 0 5.4375 4.90625 C 3.8345021 6.6765681 3.2306754 9.135877 2.9375 11.125 C 2.6724089 12.923578 2.7104725 14.107396 2.71875 14.375 C 1.6570097 15.930531 0.92261329 17.118238 0.53125 18 C 0.11016292 18.948731 0.0006204696 19.696768 0 20.28125 C 0 20.705135 0.01824787 20.967161 0.0625 21.1875 C 0.08462607 21.297669 0.11094308 21.394598 0.15625 21.5 C 0.1789035 21.5527 0.2137283 21.59936 0.25 21.65625 C 0.2862717 21.71314 0.375 21.84375 0.375 21.84375 A 1.0001 1.0001 0 0 0 0.875 22.125 C 0.62279029 23.216761 0.375 24.494658 0.375 26.03125 C 0.375 30.732375 2.4510403 36.405715 6.5625 40.96875 C 10.67396 45.531785 16.868225 48.9375 24.96875 48.9375 C 34.721806 48.9375 41.096687 43.532001 44.875 37.53125 C 48.653313 31.530499 50 25.045965 50 22.09375 C 50 20.153887 49.659575 18.72041 49.5625 18.3125 A 1.0001 1.0001 0 0 0 48.40625 17.5625 C 48.289894 16.663309 48.32742 16.058096 48.09375 15.0625 C 47.568004 12.822409 46.679211 10.528758 45.1875 8.875 C 45.088053 8.7647494 45.042932 8.6040097 44.9375 8.5 A 1.0001 1.0001 0 0 0 43.3125 8.875 C 42.856117 8.3450042 42.527427 7.8041737 41.90625 7.3125 C 41.270612 6.8093802 40.545506 6.3574671 39.71875 5.9375 C 35.672023 2.8172378 30.594252 0.96875 25.09375 0.96875 z M 25.09375 2.96875 C 27.403952 2.96875 29.623802 3.3407327 31.71875 4 C 31.261037 3.9771696 30.798584 3.9704265 30.3125 3.96875 A 1.0001 1.0001 0 0 0 30.21875 3.96875 A 1.001098 1.001098 0 0 0 30.3125 5.96875 C 31.601038 5.96875 32.695683 6.4401865 33.5 7 C 33.5138 7.00961 33.51763 7.021592 33.53125 7.03125 C 33.099971 7.10804 32.664325 7.1791888 32.375 7.28125 A 1.0001 1.0001 0 0 0 32.3125 9.125 C 34.690592 10.138758 37.096079 11.362347 38.75 12.75 C 39.733193 13.574907 40.308785 14.424681 40.65625 15.34375 C 40.42307 15.26037 40.254659 15.073634 39.9375 15.09375 A 1.0001 1.0001 0 0 0 39.125 16.53125 C 39.932306 18.144142 39.952956 20.210464 39.75 22.34375 C 39.7126 22.3005 39.5625 22.09375 39.5625 22.09375 A 1.0001 1.0001 0 0 0 37.8125 22.9375 C 37.8125 22.9375 38.122684 24.752537 37.96875 27.0625 C 37.90651 27.996559 37.699731 29.002534 37.4375 29.96875 A 1.0001 1.0001 0 0 0 35.875 30.09375 C 35.875 30.09375 34.868835 31.627941 33.25 33.15625 C 31.631165 34.684559 29.45516 36.125 27.21875 36.125 C 24.112151 36.125 22.202275 35.148644 20.8125 34.15625 C 22.38685 33.937713 23.83426 33.547644 24.90625 33.03125 C 25.739099 32.630054 26.39422 32.211649 26.875 31.875 C 27.11539 31.706676 27.326748 31.579818 27.46875 31.46875 C 27.610752 31.357682 27.745677 31.239403 27.6875 31.28125 C 27.927978 31.10869 27.991509 31.094932 28 31.09375 C 28.0085 31.09255 28.07016 31.11353 28.34375 31.1875 C 28.900498 31.338882 29.332526 31.17353 29.71875 30.90625 C 30.104974 30.638971 30.46875 30.140543 30.46875 29.53125 C 30.46875 29.01458 30.266977 28.663357 30.03125 28.3125 C 29.795523 27.961643 29.482 27.617882 29.09375 27.3125 C 28.317249 26.701736 27.246307 26.21875 25.9375 26.21875 C 24.512901 26.21875 23.524386 26.735491 22.8125 27.125 C 22.100614 27.514509 21.665033 27.78125 20.6875 27.78125 C 19.976581 27.78125 18.719663 27.035122 17.75 26.15625 C 17.265169 25.716814 16.829565 25.290154 16.53125 24.9375 C 16.417382 24.802891 16.352831 24.688057 16.28125 24.59375 C 16.29661 24.471615 16.29598 24.349745 16.34375 24.25 C 16.41254 24.106354 16.494112 24.055995 16.75 24 C 17.491207 24.123904 18.177212 24.266807 18.6875 24.375 C 19.262823 24.496982 19.554543 24.573897 20 24.59375 A 1.0001 1.0001 0 0 0 21.03125 23.78125 C 21.235031 22.639702 21.04065 21.62434 20.78125 20.84375 C 20.648208 20.44344 20.565726 20.356856 20.4375 20.09375 C 20.756979 19.796828 21.123766 19.45198 21.625 19.09375 C 22.298052 18.612723 22.8183 18.296158 23.0625 18.125 C 23.454521 17.850774 23.717222 17.521297 23.9375 17.15625 C 24.157778 16.791203 24.34375 16.439488 24.34375 15.875 C 24.34375 15.34032 23.986262 14.874479 23.71875 14.6875 C 23.451238 14.500521 23.1875 14.46875 23.1875 14.46875 A 1.0001 1.0001 0 0 0 23 14.4375 C 23 14.4375 22.494482 14.41629 21.625 14.34375 C 20.0794 14.213624 20.474901 14.217553 19.59375 13.4375 C 19.234643 13.120178 18.777934 12.589717 18.46875 12.25 C 18.50825 12.092773 18.479 12.048497 18.75 11.53125 C 19.173822 10.722306 19.999903 9.535598 21.59375 8.09375 A 1.0001 1.0001 0 0 0 20.9375 6.34375 C 19.176137 6.34375 17.491388 7.245746 16.15625 8.09375 C 15.049943 8.7964132 14.51205 9.3104614 14.25 9.53125 C 13.873886 9.3912484 13.528652 9.1875 12.53125 9.1875 C 10.892902 9.1875 9.8428284 9.5084798 9.21875 9.75 C 13.218061 5.5668968 18.842701 2.96875 25.09375 2.96875 z M 36.09375 6.71875 C 37.048499 6.9791287 37.905212 7.2735007 38.65625 7.625 C 38.667782 7.6340323 38.675987 7.6471951 38.6875 7.65625 C 38.695773 7.6601521 38.710502 7.652338 38.71875 7.65625 A 1.0031688 1.0031688 0 0 0 38.84375 7.75 A 1.0031688 1.0031688 0 0 0 39.03125 7.84375 C 39.039469 7.8479576 39.054308 7.8395321 39.0625 7.84375 C 39.675938 8.1595934 40.224374 8.508427 40.6875 8.875 C 42.687239 10.457833 43.53973 12.359129 43.96875 13.75 A 1.0001 1.0001 0 0 0 45.6875 14.09375 C 45.839015 14.571667 46.041257 15.010041 46.15625 15.5 C 46.672955 17.70157 46.84375 19.915238 46.84375 21.0625 A 1.0001 1.0001 0 0 0 48 22.0625 C 48.000049 22.07829 48 22.07787 48 22.09375 C 48 24.378535 46.724187 30.851751 43.1875 36.46875 C 39.650813 42.085749 33.989694 46.9375 24.96875 46.9375 C 17.427275 46.9375 11.84254 43.820215 8.0625 39.625 C 4.2824597 35.429785 2.375 30.129125 2.375 26.03125 C 2.375 22.909539 3.40625 20.4375 3.40625 20.4375 A 1.0001 1.0001 0 0 0 2.3125 19.0625 C 2.353709 18.955352 2.31777 18.941445 2.375 18.8125 C 2.7116629 18.053981 3.3578585 16.910971 4.53125 15.21875 A 1.0001 1.0001 0 0 0 4.6875 14.625 C 4.6875 14.625 4.641925 13.199627 4.90625 11.40625 C 5.0628168 10.343983 5.403897 9.2255367 5.84375 8.1875 C 6.1024795 8.8950431 6.3904324 9.5120673 6.6875 10 A 1.0001 1.0001 0 0 0 6.6875 10.03125 C 6.6942918 10.04231 6.7119473 10.051571 6.71875 10.0625 A 1.0001 1.0001 0 0 0 7.34375 10.875 C 7.3485077 10.879995 7.3702468 10.870049 7.375 10.875 C 7.9859231 11.511357 8.5625 11.8125 8.5625 11.8125 A 1.0001 1.0001 0 0 0 9.40625 11.78125 C 9.40625 11.78125 10.625134 11.1875 12.53125 11.1875 C 13.494248 11.1875 14.0625 11.46875 14.0625 11.46875 A 1.0001 1.0001 0 0 0 15.15625 11.3125 C 15.15625 11.3125 16.021388 10.541746 17.21875 9.78125 C 17.364608 9.68861 17.533294 9.6207341 17.6875 9.53125 C 17.439942 9.8982128 17.160879 10.286681 17 10.59375 C 16.460072 11.624306 16.34375 12.40625 16.34375 12.40625 A 1.0001 1.0001 0 0 0 16.59375 13.1875 C 16.59375 13.1875 17.53951 14.309681 18.25 14.9375 C 19.024849 15.623447 19.6811 16.195876 21.4375 16.34375 C 21.776548 16.37204 21.767117 16.35987 22 16.375 C 21.9689 16.40763 21.91392 16.494638 21.90625 16.5 C 21.92645 16.48584 21.192448 16.951527 20.46875 17.46875 C 19.745052 17.985973 18.95561 18.559471 18.4375 19.21875 A 1.0001 1.0001 0 0 0 18.34375 20.28125 C 18.487494 20.568738 18.685177 20.89759 18.875 21.46875 C 18.96245 21.731868 18.92716 22.069446 18.96875 22.375 C 18.396159 22.254179 17.678872 22.105853 16.8125 21.96875 A 1.0001 1.0001 0 0 0 16.5 21.96875 C 15.521585 22.1149 14.826662 22.789378 14.53125 23.40625 C 14.235838 24.023122 14.21875 24.560948 14.21875 24.8125 A 1.0001 1.0001 0 0 0 14.28125 25.09375 C 14.35299 25.34779 14.391477 25.363133 14.4375 25.4375 C 14.48352 25.51187 14.50595 25.578213 14.5625 25.65625 C 14.675601 25.812324 14.82397 26.010655 15 26.21875 C 15.35206 26.63494 15.843081 27.145811 16.40625 27.65625 C 17.532587 28.677128 18.973419 29.78125 20.6875 29.78125 C 22.098967 29.78125 23.072136 29.262991 23.78125 28.875 C 24.490364 28.487009 24.941099 28.21875 25.9375 28.21875 C 26.737693 28.21875 27.405251 28.536764 27.875 28.90625 C 27.988774 28.99574 28.040223 29.067136 28.125 29.15625 C 27.985289 29.14705 27.87362 29.10344 27.71875 29.125 C 27.276491 29.18657 26.868522 29.39181 26.5 29.65625 C 26.370573 29.74935 26.340995 29.779385 26.21875 29.875 C 26.096505 29.97061 25.924094 30.106215 25.71875 30.25 C 25.308061 30.53757 24.746776 30.905321 24.03125 31.25 C 22.600198 31.939359 20.620655 32.537179 18.25 32.34375 A 1.0001 1.0001 0 0 0 17.5 34.0625 C 18.307218 34.826358 21.559091 38.125 27.21875 38.125 C 30.27034 38.125 32.819335 36.329691 34.625 34.625 C 35.016609 34.25529 34.928085 34.227732 35.25 33.875 C 35.22269 33.95989 35.250101 34.016248 35.21875 34.09375 A 1.0001 1.0001 0 0 0 36.84375 35.1875 C 36.946833 35.085656 36.997148 34.949308 37.09375 34.84375 C 39.123724 32.625572 39.805694 29.665597 39.96875 27.21875 C 39.98378 26.993265 39.93005 27.029054 39.9375 26.8125 A 1.0001 1.0001 0 0 0 41.28125 26.09375 C 41.83672 23.644363 42.200835 20.966615 41.78125 18.46875 A 1.0001 1.0001 0 0 0 42.96875 17.625 C 43.367056 15.01441 41.975329 12.818597 40.03125 11.1875 C 38.94193 10.273552 37.659453 9.5129067 36.3125 8.8125 A 1.0001 1.0001 0 0 0 36.6875 7.6875 C 36.569974 7.3187725 36.342959 7.0253541 36.09375 6.71875 z" enable-background="accumulate" font-family="Bitstream Vera Sans" overflow="visible" style="text-indent:0;text-align:start;line-height:normal;text-transform:none;block-progression:tb;-inkscape-font-specification:Bitstream Vera Sans"/>
</svg>