<?xml version="1.0" encoding="UTF-8" standalone="no"?><svg xmlns="http://www.w3.org/2000/svg" height="50" style="fill:#000000;fill-opacity:1.0" viewBox="0 0 50 50" width="50">
    <path d="M 4 1 C 1.8026661 1 0 2.8026661 0 5 L 0 43 C 0 45.197334 1.8026661 47 4 47 L 25 47 L 25 45 L 4 45 C 2.8833339 45 2 44.116666 2 43 L 2 5 C 2 3.8833339 2.8833339 3 4 3 L 32 3 C 33.116666 3 34 3.8833339 34 5 L 34 14 L 36 14 L 36 5 C 36 2.8026661 34.197334 1 32 1 L 4 1 z M 4.8125 5 A 1.0001 1.0001 0 0 0 4 6 L 4 39 A 1.0001 1.0001 0 0 0 5 40 L 25 40 L 25 38 L 6 38 L 6 7 L 30 7 L 30 14 L 32 14 L 32 6 A 1.0001 1.0001 0 0 0 31 5 L 5 5 A 1.0001 1.0001 0 0 0 4.90625 5 A 1.0001 1.0001 0 0 0 4.8125 5 z M 29 15 C 27.35503 15 26 16.35503 26 18 L 26 47 C 26 48.64497 27.35503 50 29 50 L 47 50 C 48.64497 50 50 48.64497 50 47 L 50 18 C 50 16.35503 48.64497 15 47 15 L 29 15 z M 29 17 L 47 17 C 47.56503 17 48 17.43497 48 18 L 48 47 C 48 47.56503 47.56503 48 47 48 L 29 48 C 28.43497 48 28 47.56503 28 47 L 28 18 C 28 17.43497 28.43497 17 29 17 z M 30.8125 19 A 1.0001 1.0001 0 0 0 30 20 L 30 42 A 1.0001 1.0001 0 0 0 31 43 L 45 43 A 1.0001 1.0001 0 0 0 46 42 L 46 20 A 1.0001 1.0001 0 0 0 45 19 L 31 19 A 1.0001 1.0001 0 0 0 30.90625 19 A 1.0001 1.0001 0 0 0 30.8125 19 z M 32 21 L 44 21 L 44 41 L 32 41 L 32 21 z M 18 41 C 17.171573 41 16.5 41.671573 16.5 42.5 C 16.5 43.328427 17.171573 44 18 44 C 18.828427 44 19.5 43.328427 19.5 42.5 C 19.5 41.671573 18.828427 41 18 41 z M 38 44 C 37.171573 44 36.5 44.671573 36.5 45.5 C 36.5 46.328427 37.171573 47 38 47 C 38.828427 47 39.5 46.328427 39.5 45.5 C 39.5 44.671573 38.828427 44 38 44 z"/>
</svg>