<?xml version="1.0" encoding="UTF-8" standalone="no"?><svg xmlns="http://www.w3.org/2000/svg" style="fill:#000000;fill-opacity:1.0" viewBox="0 0 50 50">
    <path d="M 22.40625 1 A 1.0001 1.0001 0 0 0 22.34375 1.03125 A 1.0001 1.0001 0 0 0 22.3125 1.03125 C 10.494046 1.3981755 1 11.093486 1 23 C 1 31.029975 5.3144499 38.064909 11.75 41.90625 A 1.0001 1.0001 0 0 0 12.625 42.40625 C 12.633114 42.410608 12.64813 42.401902 12.65625 42.40625 C 14.760486 43.532913 17.058434 44.326953 19.5 44.71875 C 20.641291 44.901892 21.807574 45 23 45 C 27.269702 45 31.249633 43.765966 34.625 41.65625 L 41.84375 47.34375 A 1.0001 1.0001 0 0 0 43.34375 47.03125 L 49.46875 35.59375 A 1.0001 1.0001 0 0 0 48.4375 34.125 L 43.375 34.875 C 43.31236 34.542969 43.074237 33.258957 42.90625 32.375 C 44.251893 29.526734 45 26.356021 45 23 C 45 18.364482 43.549676 14.076842 41.09375 10.53125 A 1.0001 1.0001 0 0 0 41.03125 10.4375 C 39.726801 8.5748108 38.148082 6.9121175 36.34375 5.53125 C 36.327237 5.5186128 36.329049 5.4813415 36.3125 5.46875 A 1.0001 1.0001 0 0 0 35.90625 5.1875 A 1.0001 1.0001 0 0 0 35.8125 5.15625 C 34.169058 3.9725331 32.376179 3.0103892 30.4375 2.3125 A 1.0001 1.0001 0 0 0 30 2.15625 C 27.799132 1.4160623 25.448378 1 23 1 C 22.936828 1 22.875548 0.99946687 22.8125 1 A 1.0001 1.0001 0 0 0 22.5 1 A 1.0001 1.0001 0 0 0 22.40625 1 z M 22.53125 3 C 23.70023 3.3243746 24.940777 3.9266963 26.25 5.15625 L 25.25 4.40625 A 1.0001 1.0001 0 0 0 24.5 4.21875 A 1.0001 1.0001 0 0 0 24.4375 4.25 L 22.53125 4.625 A 1.0001 1.0001 0 0 0 21.9375 5.03125 L 21 6.28125 A 1.0001 1.0001 0 0 0 20.96875 7.4375 L 22.15625 9.1875 L 21.9375 9.75 A 1.0001 1.0001 0 0 0 22.15625 10.8125 L 23.28125 11.9375 A 1.0001 1.0001 0 0 0 24.65625 11.96875 L 27.625 9.34375 A 1.0001 1.0001 0 0 0 27.75 7.96875 L 27.34375 7.4375 L 27.375 6.53125 A 1.0001 1.0001 0 0 0 27.375 6.34375 C 28.081072 7.2069108 28.799303 8.2590588 29.53125 9.625 C 30.986224 12.340237 32.426641 16.257173 33.78125 21.6875 C 33.382986 22.484878 31.089756 26.958214 27.5 31.46875 C 27.288756 31.734178 27.06269 31.987671 26.84375 32.25 L 24.09375 32.03125 L 20.75 30.5625 A 1.0001 1.0001 0 0 0 19.84375 30.59375 L 19.6875 30.6875 L 19.53125 30 A 1.0001 1.0001 0 0 0 18.96875 29.28125 L 11.84375 26.1875 A 1.0001 1.0001 0 0 0 11.34375 26.09375 L 9.15625 26.3125 A 1.0001 1.0001 0 0 0 9.0625 26.3125 L 9.03125 26.25 L 6.84375 22.78125 L 7.21875 21.65625 L 8.21875 21.625 L 9.78125 23.71875 A 1.0001 1.0001 0 0 0 11.5625 23.15625 L 11.59375 21.75 L 13.84375 20.4375 A 1.0001 1.0001 0 0 0 14.03125 20.28125 L 15.78125 18.65625 L 19.125 17.59375 A 1.0001 1.0001 0 0 0 19.59375 16 L 21.46875 15.09375 A 1.0001 1.0001 0 0 0 21.96875 13.875 L 21.4375 12.40625 A 1.0001 1.0001 0 0 0 20.9375 11.875 L 19.28125 11 A 1.0001 1.0001 0 0 0 19 10.90625 L 19.4375 10.65625 A 1.0001 1.0001 0 0 0 19.03125 8.78125 L 16.40625 8.59375 A 1.0001 1.0001 0 0 0 16.15625 8.59375 L 15.1875 8.78125 A 1.0001 1.0001 0 0 0 14.6875 8.28125 L 12.125 7.09375 A 1.0001 1.0001 0 0 0 11.65625 6.96875 A 1.0001 1.0001 0 0 0 11.46875 7 L 10.84375 7.125 C 14.098289 4.6274026 18.130871 3.1010194 22.53125 3 z M 27.40625 3.5 C 28.135273 3.6638786 28.834911 3.8840476 29.53125 4.125 C 35.320684 8.3458242 37.288029 15.520117 38.90625 22.6875 A 1.0001 1.0001 0 0 0 38.9375 22.8125 C 38.941969 22.832342 38.933035 22.855158 38.9375 22.875 A 1.0001 1.0001 0 0 0 39 23.09375 C 39.118883 23.624021 39.226471 24.159175 39.34375 24.6875 C 39.732965 26.441323 41.59375 36.1875 41.59375 36.1875 A 1.0001 1.0001 0 0 0 42.71875 37 L 46.75 36.40625 L 42.15625 45.03125 L 33.78125 38.46875 L 37.84375 37.8125 A 1.0001 1.0001 0 0 0 38.65625 36.6875 C 38.287301 34.06071 37.903305 31.687791 37.5 29.4375 A 1.0001 1.0001 0 0 0 37.4375 29.21875 C 35.64257 19.283204 33.550903 12.833502 31.3125 8.65625 C 30.051198 6.3024399 28.721221 4.6666351 27.40625 3.5 z M 24.40625 6.28125 L 25.34375 6.96875 L 25.3125 7.6875 A 1.0001 1.0001 0 0 0 25.5 8.34375 L 25.59375 8.46875 L 24.03125 9.875 L 24.1875 9.40625 A 1.0001 1.0001 0 0 0 24.09375 8.5 L 23.03125 6.90625 L 23.3125 6.5 L 24.40625 6.28125 z M 11.5625 9.03125 L 12.625 9.53125 A 1.0001 1.0001 0 0 0 13.59375 11.09375 L 15 10.84375 A 1.0001 1.0001 0 0 0 14.90625 10.90625 L 13.84375 11.90625 A 1.0001 1.0001 0 0 0 13.5625 12.78125 L 13.875 14.78125 A 1.0001 1.0001 0 0 0 14.625 15.5625 L 15.75 15.84375 A 1.0001 1.0001 0 0 0 16.65625 15.65625 A 1.0001 1.0001 0 0 0 16.71875 16.25 L 14.96875 16.8125 A 1.0001 1.0001 0 0 0 14.59375 17.03125 L 12.84375 18.6875 L 12.78125 18.71875 L 10.125 20.28125 A 1.0001 1.0001 0 0 0 9.875 20.5 L 9.53125 20.03125 A 1.0001 1.0001 0 0 0 8.6875 19.625 L 6.4375 19.6875 A 1.0001 1.0001 0 0 0 5.53125 20.375 L 5.3125 21 L 5.28125 20.0625 L 5.28125 20.03125 L 5.71875 17.34375 L 7.5 14.84375 L 10.1875 11.84375 A 1.0001 1.0001 0 0 0 10.4375 11.3125 L 10.6875 9.6875 A 1.0001 1.0001 0 0 0 10.65625 9.21875 L 11.5625 9.03125 z M 8.0625 9.71875 L 8.625 10.03125 L 8.5 10.6875 L 5.9375 13.59375 A 1.0001 1.0001 0 0 0 5.84375 13.6875 L 4.34375 15.8125 C 5.2134897 13.551945 6.4820428 11.496461 8.0625 9.71875 z M 38.28125 10.125 C 38.648249 10.560023 38.982769 11.003638 39.3125 11.46875 C 39.3125 11.46875 39.773379 12.312382 40 14.125 C 40.136611 15.217675 40.179565 16.638585 39.9375 18.375 C 39.502347 16.70742 39.00445 15.053849 38.40625 13.4375 C 38.517329 12.189154 38.439714 11.085744 38.28125 10.125 z M 16.3125 12.375 L 15.6875 13.40625 L 15.625 12.96875 L 16.1875 12.4375 L 16.3125 12.375 z M 18.875 13.03125 L 19.6875 13.4375 L 19.78125 13.71875 L 17.21875 14.96875 A 1.0001 1.0001 0 0 0 17.03125 15.0625 L 17.90625 13.625 L 18.875 13.03125 z M 42.0625 17.03125 C 42.657414 18.918335 43 20.911764 43 23 C 43 24.972325 42.719173 26.860276 42.1875 28.65625 C 41.843592 26.883107 41.472579 25.002573 41.3125 24.28125 C 41.193636 23.745781 41.090234 23.199722 40.96875 22.65625 C 41.652299 20.514447 41.958843 18.634979 42.0625 17.03125 z M 3.28125 19.9375 L 3.4375 23.75 A 1.0001 1.0001 0 0 0 3.875 24.5625 L 5.5625 25.625 L 5.71875 25.75 L 7.46875 27.5 L 7.625 27.6875 A 1.0001 1.0001 0 0 0 8.375 27.9375 L 8.5625 28.8125 L 7.8125 32.15625 A 1.0001 1.0001 0 0 0 8.125 33.125 L 9.9375 34.75 L 10.03125 34.84375 L 10.9375 35.9375 A 1.0001 1.0001 0 0 0 11.21875 36.1875 L 13.875 37.59375 L 14.34375 38.8125 A 1.0001 1.0001 0 0 0 14.5 39.09375 L 15.46875 40.28125 C 14.723469 40.417517 13.970813 40.484393 13.21875 40.4375 C 7.1255334 37.012798 3 30.496777 3 23 C 3 21.95489 3.1272339 20.939146 3.28125 19.9375 z M 34.46875 24.5625 C 34.801255 26.068774 35.122248 27.685715 35.4375 29.40625 C 34.99676 30.146309 33.30398 32.8952 30.71875 35.8125 C 27.718939 39.197633 23.633982 42.499422 19.625 42.71875 C 19.594262 42.713551 19.561939 42.724089 19.53125 42.71875 C 18.614746 42.55931 17.743895 42.310674 16.875 42.03125 C 21.67202 40.747777 25.866819 36.702878 29.0625 32.6875 C 31.532282 29.584214 33.340999 26.577687 34.46875 24.5625 z M 11.25 28.125 L 17.71875 30.90625 L 18.0625 32.46875 A 1.0001 1.0001 0 0 0 19.5625 33.125 L 20.4375 32.59375 L 23.375 33.90625 A 1.0001 1.0001 0 0 0 23.71875 33.96875 L 25.1875 34.09375 C 22.875569 36.534081 20.276731 38.625902 17.53125 39.6875 A 1.0004882 1.0004882 0 0 0 17.4375 39.5625 L 16.125 37.96875 L 15.59375 36.53125 A 1.0001 1.0001 0 0 0 15.15625 36 L 12.34375 34.5 L 11.46875 33.46875 A 1.0001 1.0001 0 0 0 11.375 33.375 L 9.875 32.03125 L 10.5625 29.03125 A 1.0001 1.0001 0 0 0 10.5625 28.59375 L 10.46875 28.1875 L 11.25 28.125 z M 35.9375 32.3125 C 36.135022 33.508747 36.342989 34.705952 36.53125 36 L 32.625 36.65625 C 33.998957 35.057562 35.13128 33.503808 35.9375 32.3125 z M 30.75 38.65625 C 30.755182 38.650982 30.776073 38.661519 30.78125 38.65625 L 32.9375 40.34375 C 30.717967 41.615767 28.213389 42.469572 25.5625 42.8125 C 27.482773 41.69573 29.213928 40.217843 30.75 38.65625 z" style="text-indent:0;text-align:start;line-height:normal;text-transform:none;block-progression:tb;-inkscape-font-specification:Sans"/>
</svg>