<?xml version="1.0" encoding="utf-8" standalone="no"?><!-- Generator: Adobe Illustrator 15.0.0, SVG Export Plug-In . SVG Version: 6.00 Build 0)  --><svg xmlns="http://www.w3.org/2000/svg" xmlns:xlink="http://www.w3.org/1999/xlink" contentScriptType="application/ecmascript" contentStyleType="text/css" enable-background="new 0 0 48 48" height="48px" id="????????_1" preserveAspectRatio="xMidYMid meet" style="fill:#000000" version="1.1" viewBox="0 0 48 48" width="48px" x="0px" xml:space="preserve" y="0px" zoomAndPan="magnify">
<path d="M22.807,24.511l-3.488,12.077c-3.03-2.052-6.327-3.744-13.318-0.83l3.408-11.945l0.041-0.019  C16.414,20.908,19.787,22.447,22.807,24.511z" fill="#03A9F4"/>
<path d="M24.633,25.68l-3.447,11.943c3.028,2.069,6.383,3.718,13.365,0.805l3.324-11.643  C30.76,29.24,27.66,27.731,24.633,25.68z" fill="#FFC107"/>
<path d="M23.387,22.337l3.441-11.964C23.8,8.312,20.442,6.656,13.454,9.576L10.011,21.59  c2.775-1.153,4.969-1.682,6.806-1.666C19.604,19.942,21.563,21.102,23.387,22.337z" fill="#FF5722"/>
<path d="M28.643,11.631l-3.44,12.033c3.018,2.063,6.669,3.752,13.359,0.738L42,12.415  C35.021,15.317,31.665,13.688,28.643,11.631z" fill="#7CB342"/>
</svg>