<?xml version="1.0" encoding="UTF-8" standalone="no"?>
<!-- Generator: Adobe Illustrator 15.0.0, SVG Export Plug-In . SVG Version: 6.00 Build 0)  -->

<svg
   xmlns:dc="http://purl.org/dc/elements/1.1/"
   xmlns:cc="http://creativecommons.org/ns#"
   xmlns:rdf="http://www.w3.org/1999/02/22-rdf-syntax-ns#"
   xmlns:svg="http://www.w3.org/2000/svg"
   xmlns="http://www.w3.org/2000/svg"
   xmlns:sodipodi="http://sodipodi.sourceforge.net/DTD/sodipodi-0.dtd"
   xmlns:inkscape="http://www.inkscape.org/namespaces/inkscape"
   contentScriptType="application/ecmascript"
   contentStyleType="text/css"
   enable-background="new 0 0 48 48"
   height="48px"
   id="????????_1"
   preserveAspectRatio="xMidYMid meet"
   style="fill:#000000"
   version="1.1"
   viewBox="0 0 48 48"
   width="48px"
   x="0px"
   xml:space="preserve"
   y="0px"
   zoomAndPan="magnify"
   inkscape:version="0.91 r13725"
   sodipodi:docname="help.svg"><metadata
     id="metadata15"><rdf:RDF><cc:Work
         rdf:about=""><dc:format>image/svg+xml</dc:format><dc:type
           rdf:resource="http://purl.org/dc/dcmitype/StillImage" /></cc:Work></rdf:RDF></metadata><defs
     id="defs13" /><sodipodi:namedview
     pagecolor="#ffffff"
     bordercolor="#666666"
     borderopacity="1"
     objecttolerance="10"
     gridtolerance="10"
     guidetolerance="10"
     inkscape:pageopacity="0"
     inkscape:pageshadow="2"
     inkscape:window-width="1200"
     inkscape:window-height="1857"
     id="namedview11"
     showgrid="false"
     inkscape:zoom="4.9166667"
     inkscape:cx="24"
     inkscape:cy="24"
     inkscape:window-x="-8"
     inkscape:window-y="-8"
     inkscape:window-maximized="1"
     inkscape:current-layer="????????_1" /><circle
     cx="24"
     cy="24"
     id="circle3"
     style="fill:#2196f3"
     r="24" /><g
     id="g5"
     transform="matrix(1.2631579,0,0,1.2631579,-6.3157895,-6.3157895)"><path
       d="m 23.759,31.143 c -0.729,0 -1.331,0.237 -1.798,0.712 -0.469,0.473 -0.702,1.075 -0.702,1.805 0,0.72 0.229,1.313 0.688,1.781 0.458,0.468 1.062,0.702 1.813,0.702 0.751,0 1.354,-0.234 1.813,-0.702 0.458,-0.469 0.687,-1.062 0.687,-1.781 0,-0.729 -0.234,-1.332 -0.702,-1.805 -0.463,-0.468 -1.079,-0.712 -1.799,-0.712 z"
       id="path7"
       inkscape:connector-curvature="0"
       style="fill:#e3f2fd" /><path
       d="M 29.182,14.587 C 27.97,13.529 26.266,13 24.069,13 c -2.175,0 -3.893,0.558 -5.15,1.671 -1.194,1.057 -1.825,2.504 -1.904,4.33 L 17,19 l 0,1 4.5,0 0.007,-0.703 c 0.02,-0.826 0.261,-1.474 0.722,-1.943 0.46,-0.471 1.074,-0.706 1.841,-0.706 1.616,0 2.424,0.872 2.424,2.616 0,0.579 -0.154,1.129 -0.466,1.65 -0.31,0.521 -0.935,1.196 -1.872,2.027 -0.938,0.83 -1.582,1.673 -1.935,2.528 -0.353,0.856 -0.528,2.086 -0.528,3.53 l 3.978,0 0.063,-1.022 c 0.113,-1.011 0.564,-1.893 1.353,-2.646 l 1.259,-1.191 c 0.983,-0.948 1.672,-1.813 2.066,-2.591 0.394,-0.778 0.59,-1.606 0.59,-2.484 C 31,17.137 30.395,15.644 29.182,14.587 Z"
       id="path9"
       inkscape:connector-curvature="0"
       style="fill:#e3f2fd" /></g></svg>