<?xml version="1.0" encoding="UTF-8" standalone="no"?><svg xmlns="http://www.w3.org/2000/svg" enable-background="new 0 0 50 50" style="fill:#000000;fill-opacity:1.0" viewBox="0 0 50 50">
    <path color="#000" d="M 25 0 C 11.204726 0 0 11.204726 0 25 C 0 38.795274 11.204726 50 25 50 C 38.795274 50 50 38.795274 50 25 C 50 11.204726 38.795274 0 25 0 z M 25 2 C 37.714394 2 48 12.285606 48 25 C 48 37.714394 37.714394 48 25 48 C 12.285606 48 2 37.714394 2 25 C 2 12.285606 12.285606 2 25 2 z M 15.90625 14.96875 A 1.0001 1.0001 0 0 0 15.78125 15 A 1.0001 1.0001 0 0 0 15.28125 16.71875 L 23.5625 25 L 15.28125 33.28125 A 1.016466 1.016466 0 1 0 16.71875 34.71875 L 25 26.4375 L 33.28125 34.71875 A 1.016466 1.016466 0 1 0 34.71875 33.28125 L 26.4375 25 L 34.71875 16.71875 A 1.0001 1.0001 0 0 0 33.875 15 A 1.0001 1.0001 0 0 0 33.28125 15.28125 L 25 23.5625 L 16.71875 15.28125 A 1.0001 1.0001 0 0 0 15.90625 14.96875 z" enable-background="accumulate" font-family="Bitstream Vera Sans" overflow="visible" style="text-indent:0;text-align:start;line-height:normal;text-transform:none;block-progression:tb;-inkscape-font-specification:Bitstream Vera Sans"/>
</svg>