<?xml version="1.0" encoding="UTF-8" standalone="no"?><svg xmlns="http://www.w3.org/2000/svg" style="fill:#000000;fill-opacity:0.60784316" viewBox="0 0 32 32">
    <path d="M 4 5 L 4 27 L 19.46875 27 L 20.125 26.34375 C 19.932 25.91375 19.76125 25.469 19.65625 25 L 6 25 L 6 11 L 26 11 L 26 16.53125 C 26.166 16.51925 26.331 16.5 26.5 16.5 C 27.015 16.5 27.516 16.55025 28 16.65625 L 28 5 L 4 5 z M 6 7 L 26 7 L 26 9 L 6 9 L 6 7 z M 9 13 L 9 15 L 11 15 L 11 13 L 9 13 z M 13 13 L 13 15 L 23 15 L 23 13 L 13 13 z M 9 17 L 9 19 L 11 19 L 11 17 L 9 17 z M 13 17 L 13 19 L 20.5 19 C 21.11 18.19 21.89825 17.508 22.78125 17 L 13 17 z M 26.5 18 C 23.474279 18 21 20.474279 21 23.5 C 21 24.649978 21.35949 25.708651 21.96875 26.59375 L 18.28125 30.28125 L 19.71875 31.71875 L 23.40625 28.03125 C 24.291349 28.64051 25.350022 29 26.5 29 C 29.525721 29 32 26.525721 32 23.5 C 32 20.474279 29.525721 18 26.5 18 z M 26.5 20 C 28.444841 20 30 21.555159 30 23.5 C 30 25.444841 28.444841 27 26.5 27 C 24.555159 27 23 25.444841 23 23.5 C 23 21.555159 24.555159 20 26.5 20 z M 9 21 L 9 23 L 11 23 L 11 21 L 9 21 z M 13 21 L 13 23 L 19.03125 23 C 19.07825 22.303 19.2125 21.633 19.4375 21 L 13 21 z" style="text-indent:0;text-align:start;line-height:normal;text-transform:none;block-progression:tb;-inkscape-font-specification:Bitstream Vera Sans"/>
</svg>