<?xml version="1.0" encoding="UTF-8" standalone="no"?><svg xmlns="http://www.w3.org/2000/svg" enable-background="new 0 0 50 50" style="fill:#000000;fill-opacity:1.0" viewBox="0 0 50 50">
    <path d="M 2.8125 0 C 1.2791667 0 0 1.2791667 0 2.8125 L 0 7.8125 A 1.0001 1.0001 0 0 0 0 8 L 0 9 L 0 40 A 1.0001 1.0001 0 0 0 1 41 L 24 41 A 1.0001 1.0001 0 1 0 24 39 L 2 39 L 2 9 L 42 9 L 42 25 A 1.0001 1.0001 0 1 0 44 25 L 44 9 L 44 8 A 1.0001 1.0001 0 0 0 44 7.8125 L 44 2.8125 C 44 1.2791667 42.720833 0 41.1875 0 L 2.8125 0 z M 2.8125 2 L 41.1875 2 C 41.654167 2 42 2.3458333 42 2.8125 L 42 7 L 2 7 L 2 2.8125 C 2 2.3458333 2.3458333 2 2.8125 2 z M 7 15 L 7 17 L 11 17 L 11 15 L 7 15 z M 14 15 L 14 17 L 37 17 L 37 15 L 14 15 z M 7 20 L 7 22 L 11 22 L 11 20 L 7 20 z M 14 20 L 14 22 L 37 22 L 37 20 L 14 20 z M 7 25 L 7 27 L 11 27 L 11 25 L 7 25 z M 14 25 L 14 27 L 28 27 L 28 25 L 14 25 z M 36 26 C 30.488997 26 26 30.488997 26 36 C 26 41.511003 30.488997 46 36 46 C 38.39499 46 40.588106 45.161049 42.3125 43.75 L 48.28125 49.71875 L 49.71875 48.28125 L 43.75 42.3125 C 45.161049 40.588106 46 38.39499 46 36 C 46 30.488997 41.511003 26 36 26 z M 36 28 C 40.430123 28 44 31.569877 44 36 C 44 40.430123 40.430123 44 36 44 C 31.569877 44 28 40.430123 28 36 C 28 31.569877 31.569877 28 36 28 z M 7 30 L 7 32 L 11 32 L 11 30 L 7 30 z M 14 30 L 14 32 L 24 32 L 24 30 L 14 30 z" style="text-indent:0;text-align:start;line-height:normal;text-transform:none;block-progression:tb;-inkscape-font-specification:Bitstream Vera Sans"/>
</svg>