<?xml version="1.0" encoding="UTF-8" standalone="no"?><svg xmlns="http://www.w3.org/2000/svg" height="50" style="fill:#000000;fill-opacity:1.0" viewBox="0 0 50 50" width="50">
    <path color="#000" d="M 34 0 C 25.178164 0 18 7.1771484 18 16 C 18 17.961358 18.382448 19.82447 19.03125 21.5625 L 0.28125 40.28125 L 0 40.59375 L 0 41 L 0 47 L 0 47.40625 L 0.28125 47.71875 L 2.28125 49.71875 L 2.59375 50 L 3 50 L 9 50 L 9.40625 50 L 9.71875 49.71875 L 12.71875 46.71875 L 13 46.40625 L 13 46 L 13 44 L 15 44 L 15.40625 44 L 15.71875 43.71875 L 18.71875 40.71875 L 19 40.40625 L 19 40 L 19 39 L 20 39 L 20.40625 39 L 20.71875 38.71875 L 22.71875 36.71875 L 23 36.40625 L 23 36 L 23 35 L 24 35 L 24.40625 35 L 24.71875 34.71875 L 28.4375 30.96875 C 30.17553 31.617552 32.038642 32 34 32 C 42.821917 32 50 24.821917 50 16 C 50 7.1771484 42.821836 0 34 0 z M 34 2 C 41.740164 2 48 8.2588516 48 16 C 48 23.740083 41.740083 30 34 30 C 32.079192 30 30.259195 29.635487 28.59375 28.9375 A 1.0001 1.0001 0 0 0 28.5625 28.90625 C 23.536551 26.782832 20 21.805062 20 16 C 20 8.2588516 26.259836 2 34 2 z M 34 5 C 31.182441 5.0000043 28.361956 6.0755438 26.21875 8.21875 L 25.5 8.9375 L 26.21875 9.625 L 40.375 23.78125 L 41.0625 24.5 L 41.78125 23.78125 C 46.068651 19.494947 46.068772 12.505174 41.78125 8.21875 C 39.637568 6.0756172 36.817559 4.9999957 34 5 z M 34 7 C 36.301691 7.0000043 38.613682 7.8641328 40.375 9.625 C 43.648621 12.897782 43.748772 17.994434 40.9375 21.53125 L 28.46875 9.0625 C 30.102705 7.7641389 32.023531 6.9999963 34 7 z M 19.875 23.53125 C 21.371185 26.327723 23.672277 28.628815 26.46875 30.125 L 23.5625 33 L 22 33 L 21 33 L 21 34 L 21 35.5625 L 19.5625 37 L 18 37 L 17 37 L 17 38 L 17 39.5625 L 14.5625 42 L 12 42 L 11 42 L 11 43 L 11 45.5625 L 8.5625 48 L 3.4375 48 L 2.4375 47 L 19 30.4375 A 1.0001 1.0001 0 0 0 18.0625 28.71875 A 1.0001 1.0001 0 0 0 17.5625 29 L 2 44.59375 L 2 41.4375 L 19.875 23.53125 z" enable-background="accumulate" font-family="Bitstream Vera Sans" overflow="visible" style="text-indent:0;text-align:start;line-height:normal;text-transform:none;block-progression:tb;-inkscape-font-specification:Bitstream Vera Sans"/>
</svg>