<?xml version="1.0" encoding="UTF-8" standalone="no"?>
<svg
   xmlns:dc="http://purl.org/dc/elements/1.1/"
   xmlns:cc="http://creativecommons.org/ns#"
   xmlns:rdf="http://www.w3.org/1999/02/22-rdf-syntax-ns#"
   xmlns:svg="http://www.w3.org/2000/svg"
   xmlns="http://www.w3.org/2000/svg"
   xmlns:sodipodi="http://sodipodi.sourceforge.net/DTD/sodipodi-0.dtd"
   xmlns:inkscape="http://www.inkscape.org/namespaces/inkscape"
   width="209.9572pt"
   height="131.58966pt"
   viewBox="0 0 209.9572 131.58966"
   version="1.1"
   id="svg2"
   inkscape:version="0.91 r13725"
   sodipodi:docname="robot_del.svg">
  <metadata
     id="metadata124">
    <rdf:RDF>
      <cc:Work
         rdf:about="">
        <dc:format>image/svg+xml</dc:format>
        <dc:type
           rdf:resource="http://purl.org/dc/dcmitype/StillImage" />
        <dc:title></dc:title>
      </cc:Work>
    </rdf:RDF>
  </metadata>
  <defs
     id="defs122" />
  <sodipodi:namedview
     pagecolor="#ffffff"
     bordercolor="#666666"
     borderopacity="1"
     objecttolerance="10"
     gridtolerance="10"
     guidetolerance="10"
     inkscape:pageopacity="0"
     inkscape:pageshadow="2"
     inkscape:window-width="1920"
     inkscape:window-height="1017"
     id="namedview120"
     showgrid="false"
     inkscape:zoom="1.011377"
     inkscape:cx="-276.33924"
     inkscape:cy="-127.86308"
     inkscape:window-x="-8"
     inkscape:window-y="-8"
     inkscape:window-maximized="1"
     inkscape:current-layer="g4227"
     fit-margin-top="0"
     fit-margin-left="0"
     fit-margin-right="0"
     fit-margin-bottom="0" />
  <path
     style="fill:#000000;fill-opacity:1"
     d="m 104.17004,0.00836131 c -2.65424,-0.11598984 -4.379893,0.98332856 -6.146877,2.65781249 -1.35,2.33 -2.291872,4.4012507 -1.121872,7.2312499 1.5,4.0600003 2.419688,8.5690623 0.979688,12.7890623 -2.35,2.36 -5.169376,4.190313 -7.559376,6.520313 -3.18,0.05 -6.780312,-0.840313 -9.520312,1.279687 -8.399999,5.62 -16.820939,11.210625 -25.210938,16.840625 -3.890001,17.9 -7.43875,35.869999 -11.16875,53.799999 -0.55,3.55 -3,6.33 -4.9,9.25 -9.34,-13.36 -12.910938,-30.370624 -10.410938,-46.390624 3.52,-1.47 7.410625,-2.26 10.490625,-4.65 6.06,-4.37 9.189062,-11.91 9.239063,-19.25 0.489999,-8.78 -1.699688,-17.419687 -4.879688,-25.529687 -5.06,-1.08 -10.099687,-2.260313 -15.129687,-3.470313 -1.12,2.51 -2.219688,5.020625 -3.329688,7.540625 -0.88,-1.929999 -1.76,-3.870625 -2.65,-5.790625 -4.26,0.01 -8.519687,-0.150312 -12.779687,-0.270312 -5.8700002,10.09 -10.9606252,21.520937 -9.9406252,33.460937 0.33999992,5.310001 3.3503117,9.979375 7.3203122,13.359375 -2.37,18.17 -0.420312,37.249688 8.179688,53.629694 3.45931,6.79167 7.926102,13.03649 13.15,18.57344 l 9.657812,0 c -0.0047,-3.15424 -1.69e-4,-6.30826 -0.0078,-9.46251 17.24,0.28 34.489372,0.23938 51.709381,0.75938 -0.01064,2.90119 -0.0093,5.80195 -0.01408,8.70313 l 5.120312,0 c 0.193432,-2.90197 0.315808,-5.80666 0.343752,-8.71251 17.229995,0.18 34.469995,0.33969 51.699995,0.27969 8e-4,2.81132 0.002,5.62173 0.002,8.43282 l 2.23438,0 c 0.003,-2.17773 -0.004,-4.35478 0.005,-6.53282 -0.12,-1.86 0.95031,-3.45062 1.82031,-4.99062 2.42,-4.01 4.65031,-8.12876 7.17031,-12.06876 0.09,4.9 0.0597,9.8 0.0297,14.7 -2.91,1.96 -6.60032,4.32907 -6.17031,8.38907 -0.023,0.17148 -0.0283,0.33665 -0.0375,0.50313 l 24.24375,0 c 5.81317,-5.87096 10.84935,-12.5248 14.01407,-20.20313 2.14,-5.41 5.67969,-10.19906 7.27969,-15.839068 3.69,-12.06 4.89968,-24.760623 4.57968,-37.340623 3.37,-3.75 6.63,-8.009375 7.35,-13.159375 0.46,-5.6 -0.0794,-11.490313 -2.90938,-16.470313 -4.49,-8.14 -11.48031,-14.62 -19.07031,-19.8500001 -4.81,1.8500001 -9.66031,3.5790631 -14.47031,5.4390631 0.52,2.73 0.98,5.46 1.4,8.2 l -5.42969,-3.56875 c -3.62,2.29 -7.24031,4.579375 -10.87031,6.859375 0.78,11.13 2.58968,22.829687 9.12968,32.179687 2.95,4.45 7.86125,6.980313 12.88125,8.370313 -0.11,13.219999 -3.44031,26.459687 -10.17031,37.879691 -0.1,-5.330004 -0.0797,-10.659692 -0.0297,-15.979692 l -9.83125,0 c -5.93,-18.849999 -11.77969,-37.729687 -17.72969,-56.579687 -7.58,-0.31 -15.16968,-0.369999 -22.72968,-0.95 -2.56,-3.129999 -5.64031,-5.770312 -9.12031,-7.820312 -0.34,-4.27 -0.64937,-8.619375 0.69063,-12.7593753 1.07,-2.8499992 -0.39969,-5.6806249 -2.12969,-7.8906249 0,0 -1.48013,-1.72698581 -5.25156,-2.09843749 z m 0.23125,12.88906269 1,0.03906 c 0.03,5.3 0.26031,10.590625 0.27031,15.890625 -0.7,-0.18 -2.08031,-0.540312 -2.77031,-0.720312 0.12,-5.1 0.92,-10.149377 1.5,-15.209375 z m 82.85938,2.11875 c 7.77,5.66 14.94968,13.230312 17.42968,22.770312 -2.48,-3.22 -4.81,-6.609687 -8.05,-9.129687 2.58,5.19 4.17063,10.879687 3.69063,16.729687 -2.81,-11.69 -10.91031,-21.669062 -21.07031,-27.889062 2.67,-0.83 5.23,-2.03125 8,-2.48125 z M 31.921603,17.136486 c 2.68,0.79 5.39,1.43 8.1,2.05 1.66,5.34 3.49,10.800313 3.15,16.470313 -0.26,-1.01 -0.780625,-3.020313 -1.040625,-4.020313 l -0.790625,0.01094 c 0.139999,4.27 0.259999,8.63 -1.05,12.75 -0.37,-2.45 -0.719688,-4.900624 -1.129688,-7.340624 -0.94,3.81 -1.879062,7.640312 -3.539062,11.220312 1.93,-10.46 0.95,-21.510623 -3.7,-31.140625 z m -18.990625,0.970313 6.45,0 c 0.59,1.39 1.169687,2.780313 1.729687,4.170312 -0.68,2.420001 0.210313,4.849063 0.470313,7.239063 -1.54,-2.03 -2.98,-4.12875 -4.5,-6.16875 0.39,2.77 1.05,5.499062 1.25,8.289062 -2.01,-4.43 -3.52,-9.059687 -5.4,-13.529687 z m 17.990625,1.7 c 3.13,9.36 5.20875,19.869375 1.61875,29.409375 -1.090001,3.2 -3.450001,5.74125 -6.3,7.48125 -1.95,-2.38 -4.45,-5.040938 -7.85,-4.710938 -2.79,-0.16 -4.899063,1.960625 -6.939063,3.540625 -2.53,-2.21 -5.1696872,-4.749687 -5.7296872,-8.229687 -1.4499992,-9.18 1.8896872,-18.220313 5.8796872,-26.320313 3.14,7.640001 6.000313,15.400001 9.120313,23.05 3.3,-8.109999 6.72,-16.180312 10.2,-24.220312 z m 149.029687,0.809375 c 7.31,5.03 13.40938,12.08125 16.65938,20.38125 1.57,3.91 1.53,8.209375 0.15,12.159375 -2.3,-0.9 -4.72,-2.100313 -7.25,-1.420313 -2.6,0.44 -4.19032,2.720626 -5.77032,4.590625 -5.94,-0.469999 -10.55906,-4.65 -13.58906,-9.5 0.46,2.890001 1.26906,5.700313 2.03906,8.520313 -4.65,-7.07 -6.63,-15.39125 -8,-23.63125 6.85,4.7 13.6,9.560625 20.4,14.340625 -1.37,-8.51 -3.20906,-16.940625 -4.63906,-25.440625 z m -10.62031,4.75 c 2.82,1.45 5.30969,3.450312 7.92969,5.220312 -2.14,-0.24 -4.28969,-0.410312 -6.42969,-0.570312 2.71,3.2 5.68031,6.18 8.42031,9.35 -5.21,-3.42 -10.26062,-7.069688 -15.29062,-10.729688 1.77,-1.12 3.47031,-2.370312 5.37031,-3.270312 z m -60.67031,2.4 c 3.92,2.11 6.79,5.550625 8.9,9.390625 -3.78,3.04 -8.09969,6.099375 -13.17969,6.009375 -4.930001,0.41 -9.470001,-1.989688 -13.350001,-4.779688 2.17,-3.92 4.890624,-7.549374 8.540624,-10.209375 1.869997,2.410001 4.909687,3.030313 7.729687,2.070313 l 1.35938,-2.48125 z m 10.86093,8.070312 c 3.09,0.13 6.16938,0.430938 9.25938,0.560938 -1.2,0.4 -2.40063,0.79875 -3.59063,1.21875 0.88,0.26 2.64094,0.760938 3.51094,1.010937 -2.83,0.12 -5.66062,0.209063 -8.49062,0.439063 2.33,0.85 4.68968,1.600938 7.02968,2.410937 -2.41,0.47 -4.82968,0.939063 -7.17968,1.639063 3.08,0.69 6.22031,1.050625 9.37031,1.290625 -2.1,2.16 -4.20063,4.339375 -6.29063,6.509375 -9.87,-1.03 -19.79875,-0.429063 -29.668747,-1.389063 -6.39,-0.56 -12.810936,-0.57 -19.210938,-0.95 6.540002,-0.509999 13.130938,-0.100312 19.660938,-0.820312 -8.32,-1.23 -16.711248,-1.949375 -25.03125,-3.209375 2.92,-1.97 5.880309,-3.870938 8.820314,-5.810938 3.66,0.32 7.470312,-0.03969 11.020312,0.970313 3.99,2.41 7.970624,5.279687 12.790621,5.629687 6.98,0.91 13.57938,-2.610312 18.45938,-7.320312 -0.11,-0.54 -0.33938,-1.629688 -0.45938,-2.179688 z m 11.66875,9.990625 c 5.67,19.08 11.8,38.040311 17.2,57.170309 -1.98,3.41 -4.47906,6.47907 -6.68906,9.73907 -5.71,-20.120004 -11.25094,-40.280004 -16.76094,-60.450004 2.06,-2.18 4.15,-4.319374 6.25,-6.459375 z m -70.809372,4.309375 c 10.74,0.66 21.490001,1.16 32.250001,1.6 -0.02,11.41 6.48e-4,22.820629 -0.0094,34.240624 -11.44,-0.02 -22.880938,-0.04968 -34.310938,0.02032 0.45,-1.09 0.9,-2.181248 1.35,-3.281248 -1.76,1.12 -3.860313,1.951248 -5.020312,3.781248 -0.780001,1.87 -1.039688,3.899688 -1.429688,5.879688 0.61,-0.6 1.810938,-1.8 2.410938,-2.4 -1.14,6.7 -1.721251,13.459692 -2.68125,20.179692 13.22,0.02 26.450314,0.0706 39.670314,0.19062 0.01,1.27 0.02032,2.54875 0.02032,3.81875 -15.16,-0.22 -30.330001,0.16032 -45.500001,-0.22968 4.53,-21.240006 8.82,-42.540006 13.25,-63.800006 z m 79.150002,0.770313 c 3.33,9.46 6.38969,19 9.72969,28.449999 -1,-8.019999 -4.04938,-15.680624 -4.65938,-23.740624 3.99,12.12 7.61906,24.371256 11.48906,36.531248 -1.92,2.81 -3.87937,5.588752 -5.90937,8.318758 -4.86,-15.880006 -9.79063,-31.739694 -14.44063,-47.679694 3.26,6.81 5.17094,14.200313 8.61094,20.920313 -1.43,-7.63 -3.55031,-15.13 -4.82031,-22.8 z m -44.800001,0.870312 c 6.670001,0.19 13.349691,0.750313 20.029691,0.720313 -1.5,0.36 -2.99907,0.739062 -4.48907,1.139062 3.53,0.67 7.07,1.21 10.6,1.85 1.38,4.01 2.88938,7.970626 4.20938,11.990625 0.19,-0.87 0.58031,-2.600312 0.77031,-3.470312 4.55,16.819999 9.25031,33.589687 13.92031,50.379691 -15.04,-0.22 -30.08032,-0.16907 -45.120309,-0.18907 0.03,-1.29 0.05904,-2.57 0.08906,-3.85 12.789999,0.08 25.580939,-6.2e-4 38.360939,0.25938 -1.91,-7.16 -3.35,-14.450002 -5.5,-21.550002 0.69,0.61 2.08031,1.830624 2.77031,2.440624 0.01,-4.27 -2.54125,-8.170312 -6.93125,-8.770312 0.66,1.11 1.34125,2.220312 2.03125,3.320312 -10.25,-0.19 -20.51093,-0.04128 -30.760937,-0.08125 0.01,-11.400004 -0.01968,-22.789064 0.02032,-34.189063 z m -8.720312,3.139063 c 0.54,0.9 -0.18,3.47 1.5,3.2 2.2,0.72 1.950312,-1.779375 2.320312,-3.159375 -1.28,-0.03 -2.550312,-0.05063 -3.820312,-0.04062 z m 46.610933,1.03125 c -0.81,0.01 -2.42031,0.04 -3.22031,0.05 -0.01,0.74 -0.0297,2.219375 -0.0297,2.959375 0.79,0.03 2.37875,0.110625 3.16875,0.140625 0.03,-1.05 0.0613,-2.1 0.0813,-3.15 z m -120.531247,6.61875 c 1.05,4.04 1.420937,8.21125 2.010937,12.33125 1.16,-3.02 2.46,-6.01125 4.4,-8.63125 -2.21,16.53 2.759688,33.191248 11.179688,47.331246 -2.35,-1.64 -4.66,-3.35062 -7.05,-4.94062 1.56,4.24 3.540312,8.32969 4.970312,12.62969 -13.42,-15.97 -20.6109368,-38.090316 -15.510937,-58.720316 z m 53.684375,4.015625 c -2.7548,0.115225 -5.465625,1.64875 -6.534375,4.365625 -1.740001,2.98 0.02094,6.219687 1.860937,8.629686 3.47,-1.559999 7.289688,-1.950311 10.829688,-0.370312 1.56,-3.199999 2.21,-7.359374 -0.4,-10.209374 -1.44375,-1.736874 -3.613628,-2.505244 -5.75625,-2.415625 z m 49.803122,0.376563 c -2.39624,0.08625 -4.75718,1.208124 -5.96718,3.328124 -1.94,2.73 -1.06,6.270626 0.2,9.090624 3.84,-1.079998 7.84093,-1.309998 11.71093,-0.2 1.72,-2.769998 2.49907,-6.619686 0.23907,-9.329686 -1.355,-2.025 -3.78656,-2.975313 -6.18282,-2.889062 z m -27.849999,0.175 c -0.384688,-0.008 -0.756872,0.05281 -1.046872,0.182812 -0.14,0.43 -0.41,1.29125 -0.55,1.73125 -0.36,1.96 4.000624,2.009065 3.490624,0.03906 0.525,-1.2825 -0.739688,-1.929221 -1.893752,-1.953125 z m 46.859379,0.389062 c -0.23276,0.0174 -0.47969,0.09375 -0.73594,0.24375 -2.2,0.85 -0.67031,4.440312 1.52969,3.320312 1.75,-0.901248 0.83553,-3.685878 -0.79375,-3.564062 z m 61.74375,11.164062 c -1.31,21 -12.69938,41.770314 -31.00938,52.620314 2.71,-3.7 5.53907,-7.31062 8.28907,-10.99062 -2.97,1.8 -6.2,3.08093 -9.6,3.81093 8.44,-6.87 15.36093,-15.52093 19.86093,-25.460936 2.53,-5.13 4.1,-10.649688 6,-16.029688 0.34,2.88 0.60969,5.77 0.97969,8.65 2.17,-4.05 3.61969,-8.41 5.47969,-12.6 z m -58.35938,0.410936 c -0.37,0.34 -1.10031,1.018752 -1.47031,1.368752 -1.24,1.86 2.55969,3.930624 3.12969,1.740624 1.29,-1.38 -0.58938,-2.469376 -1.65938,-3.109376 z m -50.281245,0.318752 c -1.47,0.75 -2.179064,2.05 -1.039064,3.5 1.6,0.3 3.170312,0.1 3.220312,-1.9 -0.63,-1.1 -1.361248,-1.64 -2.181248,-1.6 z M 57.940353,88.87711 c 0.53,4.24 0.459999,8.519696 0.75,12.77969 1.389999,-4.159994 2.180625,-8.48969 3.490625,-12.67969 -0.57,4.25 -0.829375,8.539696 -0.859375,12.82969 -1.87,1.63 -3.770938,3.24938 -5.710938,4.80938 0.81,-5.91 1.499688,-11.82907 2.329688,-17.73907 z m 83.239067,2.518752 c -0.15539,0.0016 -0.29751,0.0091 -0.41875,0.02032 -0.79,0.84 -1.16032,2.450312 -0.0203,3.170312 0.89,0.62 3.35124,-0.06032 2.73124,-1.520312 0.51624,-1.408752 -1.20445,-1.683712 -2.29218,-1.670312 z m 15.16874,3.554688 c 0.74454,0.09451 3.24062,0.503064 5.54375,2.035936 l -4.01093,7.220314 c -3.14,5.62 -6.44031,11.13969 -9.62031,16.72969 -22.93,-0.2 -45.86,-0.44 -68.800003,-0.55 -9.340005,0.13 -18.700315,-0.47969 -28.020314,0.27031 7.53,-1.31 15.18,-1.44 22.8,-1.85 -5.05,-1.16 -10.259063,-1.37062 -15.339063,-2.34062 18.820001,-0.64 37.689689,-0.009 56.52969,-0.20938 6.09,0.04 12.19031,-0.2 18.27031,0.35 -3.36,0.83 -6.78969,1.28 -10.12969,2.15 7.15,0.63 14.33938,0.0603 21.50938,0.22031 1.31,-2.62 2.66937,-5.22 4.05937,-7.8 -1.39,0.52 -2.77937,1.07 -4.15937,1.6 1.85,-2.85 3.37375,-5.29406 5.19375,-8.16406 2.15605,-3.62537 3.96786,-6.395908 6.17343,-9.6625 z m 5.51251,6.70625 c 0.62,3.65 0.73031,7.35938 1.27031,11.00938 1.14,-2.82 1.39,-5.88 1.9,-8.85 -0.06,4.25 0.19031,8.55124 -0.32969,12.78124 -0.99,1.55 -2.49,2.69876 -3.8,3.96876 0.37,-6.27 -1.14062,-12.86938 0.95938,-18.90938 z m -51.31094,1.40157 c 5.28125,0.009 10.56125,0.10405 15.83125,0.48905 -7.08,0.27 -14.09,1.43876 -21.15,1.96876 6.34,1.61 12.90969,1.72031 19.32969,2.82031 -9.96,-0.06 -19.91969,-0.33969 -29.879691,-0.22969 0.01,-1.67 0.01968,-3.35031 0.02968,-5.02031 5.275,0.04 10.557821,-0.037 15.839061,-0.0282 z m -26.753127,0.0141 c 2.942504,0.006 5.885,0.0241 8.825,0.0141 0,1.67 0.0094,3.34031 0.0094,5.02031 -7.07,-0.1 -14.150312,-0.13 -21.220314,-0.45 3.56,-0.28 7.130938,-0.40938 10.660938,-0.95938 -2.81,-0.45 -5.670936,-0.61031 -8.510938,-0.77031 l -0.1,-1.35 c 1.73,0.12 3.460626,0.26031 5.190626,0.42031 -1.23,-0.63 -2.449688,-1.25031 -3.679688,-1.87031 2.94,-0.055 5.882504,-0.0609 8.825,-0.0547 z m 1.57656,22.93437 c -0.475152,-0.0481 -0.972184,0.1222 -1.392184,0.62969 -2.02,1.13 0.810312,3.93031 2.420312,2.47031 1.627504,-0.84748 0.397344,-2.95561 -1.028128,-3.1 z m 36.687507,4.52969 c 0.0531,0.26573 0.13508,0.65831 0.21718,1.05313 l 2.1875,0 c -0.76689,-0.40439 -1.56552,-0.76143 -2.40468,-1.05313 z m -3.52969,0.71094 c -1.05906,0.0349 -2.10705,0.15745 -3.14219,0.34219 l 4.38594,0 c -0.392,-0.16656 -0.80015,-0.2956 -1.24375,-0.34219 z"
     id="path6"
     inkscape:connector-curvature="0" />
  <circle
     style="fill:#ffffff;stroke:#000000;stroke-opacity:1"
     id="path3393"
     cx="132.83897"
     cy="56.92017"
     r="5.8728814" />
  <circle
     style="fill:#ffffff;stroke:#000000;stroke-width:0.80000001;stroke-opacity:1"
     id="path4195"
     cx="147.10172"
     cy="48.809998"
     r="7.8305082" />
  <g
     id="g4227"
     transform="matrix(0.7791066,0,0,0.7791066,213.51519,-43.328491)">
    <circle
       r="23.771187"
       cy="82.265121"
       cx="-72.76268"
       id="path4210"
       style="fill:#ffffff;stroke:#000000;stroke-width:0.80000001;stroke-opacity:1" />
    <rect
       style="fill:#ffffff;stroke:#000000;stroke-width:1.12566578;stroke-opacity:1"
       id="rect4232"
       width="31.882044"
       height="6.1196585"
       x="-88.703705"
       y="79.205292" />
  </g>
</svg>
