<?xml version="1.0" encoding="UTF-8" standalone="no"?>
<svg
   xmlns:dc="http://purl.org/dc/elements/1.1/"
   xmlns:cc="http://creativecommons.org/ns#"
   xmlns:rdf="http://www.w3.org/1999/02/22-rdf-syntax-ns#"
   xmlns:svg="http://www.w3.org/2000/svg"
   xmlns="http://www.w3.org/2000/svg"
   xmlns:sodipodi="http://sodipodi.sourceforge.net/DTD/sodipodi-0.dtd"
   xmlns:inkscape="http://www.inkscape.org/namespaces/inkscape"
   width="220pt"
   height="264pt"
   viewBox="0 0 220 264"
   version="1.1"
   id="svg2"
   inkscape:version="0.91 r13725"
   sodipodi:docname="robot.svg">
  <metadata
     id="metadata124">
    <rdf:RDF>
      <cc:Work
         rdf:about="">
        <dc:format>image/svg+xml</dc:format>
        <dc:type
           rdf:resource="http://purl.org/dc/dcmitype/StillImage" />
      </cc:Work>
    </rdf:RDF>
  </metadata>
  <defs
     id="defs122" />
  <sodipodi:namedview
     pagecolor="#ffffff"
     bordercolor="#666666"
     borderopacity="1"
     objecttolerance="10"
     gridtolerance="10"
     guidetolerance="10"
     inkscape:pageopacity="0"
     inkscape:pageshadow="2"
     inkscape:window-width="1200"
     inkscape:window-height="1857"
     id="namedview120"
     showgrid="false"
     inkscape:zoom="1.430303"
     inkscape:cx="145.20296"
     inkscape:cy="-57.950012"
     inkscape:window-x="3752"
     inkscape:window-y="-8"
     inkscape:window-maximized="1"
     inkscape:current-layer="svg2" />
  <path
     d="m 102.15122,4.1949152 c -1.35,2.33 -2.291586,4.4013031 -1.12159,7.2313028 1.5,4.06 2.41969,8.569062 0.97969,12.789062 -2.349998,2.36 -5.169374,4.190313 -7.559374,6.520313 -3.18,0.05 -6.780312,-0.840313 -9.520312,1.279687 -8.399998,5.62 -16.820937,11.210626 -25.210937,16.840626 -3.89,17.9 -7.43875,35.869999 -11.16875,53.800004 -0.55,3.55 -3,6.33 -4.9,9.25 -9.34,-13.360005 -12.910938,-30.37063 -10.410938,-46.39063 3.52,-1.47 7.410626,-2.26 10.490626,-4.65 6.06,-4.37 9.189062,-11.91 9.239062,-19.25 0.49,-8.78 -1.699688,-17.419687 -4.879688,-25.529687 -5.06,-1.08 -10.099687,-2.260313 -15.129687,-3.470313 -1.12,2.51 -2.219687,5.020626 -3.329687,7.540626 -0.88,-1.93 -1.76,-3.870626 -2.65,-5.790626 -4.26,0.01 -8.519688,-0.150312 -12.779688,-0.270312 -5.8699998,10.09 -10.960625,21.520938 -9.940625,33.460938 0.34,5.31 3.3503122,9.979374 7.320313,13.359374 -2.3700002,18.17 -0.420313,37.249689 8.179687,53.62969 4.36,8.56 10.300313,16.27094 17.370313,22.76094 0.05,17.78 0.0091,35.56937 0.03906,53.35937 0.27,2.36 -1.12,4.30063 -2.45,6.09063 -10.75,14.29 -16.489375,32.13906 -16.609375,49.98906 2.37,0.27 4.780625,0.34062 7.090625,0.99062 1.94,2.5 3.10875,5.57938 5.51875,7.70938 5.08,4.64 13.06,5.74125 19.15,2.48125 3.65,-1.71 6.070938,-5.05 8.160938,-8.35 3.88,0.07 7.749374,0.12 11.609374,0.45 10.92,1.03 21.890937,1.14875 32.810943,2.11875 4.88,0.44 9.78968,0.48094 14.67968,0.61094 3.02,4.41 6.99938,8.46937 12.30938,9.90937 9.33,3.31 20.49031,-1.72906 24.62031,-10.63906 2.45,-4.71 1.90031,-10.20125 1.32031,-15.28125 4.74,0.26 9.92969,-0.24938 13.47969,-3.75938 4.33,-3.47 5.41,-9.29062 4.95,-14.54062 3.82,-0.19 7.94938,-0.89969 10.65938,-3.87969 3.44,-3.26 4.20125,-8.24906 3.43125,-12.73906 1.58,-1.53 3.15875,-3.06031 4.76875,-4.57031 0.95,-6.39 1.45,-13.71 -2.6,-19.2 -4.31,-4.69 -10.80938,-6.38969 -16.85938,-7.47969 1.55,-4.15 1.18031,-8.62 1.17031,-12.95 -0.04,-6.21 -0.0206,-12.42125 0.009,-18.63125 8.4,-7.22 16.07062,-15.71969 20.34062,-26.07969 2.14,-5.41 5.67969,-10.19906 7.27969,-15.839063 3.69,-12.06 4.89969,-24.760624 4.57969,-37.340624 3.37,-3.75 6.63,-8.009375 7.35,-13.159375 0.46,-5.6 -0.0794,-11.490312 -2.90938,-16.470312 -4.49,-8.14 -11.48031,-14.62 -19.07031,-19.85 -4.81,1.85 -9.66031,3.579062 -14.47031,5.439062 0.52,2.73 0.98,5.46 1.4,8.2 l -5.42969,-3.56875 c -3.62,2.29 -7.24031,4.579375 -10.87031,6.859375 0.78,11.13 2.58969,22.829687 9.12969,32.179687 2.95,4.45 7.86125,6.980313 12.88125,8.370313 -0.11,13.22 -3.44032,26.459688 -10.17032,37.879687 -0.1,-5.33 -0.0797,-10.659687 -0.0297,-15.979687 l -9.83125,0 c -5.93,-18.85 -11.77969,-37.729687 -17.72969,-56.579687 -7.58,-0.31 -15.16969,-0.37 -22.72969,-0.95 -2.56,-3.13 -5.64031,-5.770313 -9.12031,-7.820313 -0.34,-4.27 -0.64938,-8.619375 0.69062,-12.759375 1.07,-2.8499997 -0.39968,-5.6806248 -2.12968,-7.8906248 0,0 -1.47938,-1.7260059 -5.25082,-2.0974576 -2.65424,-0.1159898 -4.38053,0.9822957 -6.14751,2.6567796 z m 6.37841,10.2313028 1,0.03906 c 0.03,5.3 0.26032,10.590626 0.27032,15.890626 -0.7,-0.18 -2.08032,-0.540313 -2.77032,-0.720313 0.12,-5.1 0.92,-10.149375 1.5,-15.209373 z m 82.85938,2.11875 c 7.77,5.66 14.94969,13.230312 17.42969,22.770312 -2.48,-3.22 -4.81,-6.609687 -8.05,-9.129687 2.58,5.19 4.17062,10.879687 3.69062,16.729687 -2.81,-11.69 -10.91031,-21.669062 -21.07031,-27.889062 2.67,-0.83 5.23,-2.03125 8,-2.48125 z M 36.049947,18.66528 c 2.68,0.79 5.39,1.43 8.1,2.05 1.66,5.34 3.49,10.800313 3.15,16.470313 -0.26,-1.01 -0.780625,-3.020313 -1.040625,-4.020313 l -0.790625,0.01094 c 0.14,4.27 0.26,8.63 -1.05,12.75 -0.37,-2.45 -0.719688,-4.900625 -1.129688,-7.340625 -0.94,3.81 -1.879062,7.640313 -3.539062,11.220313 1.93,-10.46 0.95,-21.510626 -3.7,-31.140628 z m -18.990625,0.970313 6.45,0 c 0.59,1.39 1.169687,2.780313 1.729687,4.170313 -0.68,2.42 0.210313,4.849062 0.470313,7.239062 -1.54,-2.03 -2.98,-4.12875 -4.5,-6.16875 0.39,2.77 1.05,5.499062 1.25,8.289062 -2.01,-4.43 -3.52,-9.059687 -5.4,-13.529687 z m 17.990625,1.7 c 3.13,9.36 5.20875,19.869375 1.61875,29.409375 -1.09,3.2 -3.45,5.74125 -6.3,7.48125 -1.95,-2.38 -4.45,-5.040938 -7.85,-4.710938 -2.79,-0.16 -4.899062,1.960626 -6.939062,3.540626 -2.53,-2.21 -5.169688,-4.749688 -5.7296882,-8.229688 -1.449999,-9.18 1.8896882,-18.220312 5.8796882,-26.320312 3.14,7.64 6.000312,15.4 9.120312,23.05 3.3,-8.11 6.72,-16.180313 10.2,-24.220313 z m 149.029683,0.809375 c 7.31,5.03 13.40938,12.08125 16.65938,20.38125 1.57,3.91 1.53,8.209375 0.15,12.159375 -2.3,-0.9 -4.72,-2.100313 -7.25,-1.420313 -2.6,0.44 -4.19031,2.720626 -5.77031,4.590626 -5.94,-0.47 -10.55907,-4.65 -13.58907,-9.5 0.46,2.89 1.26907,5.700312 2.03907,8.520312 -4.65,-7.07 -6.63,-15.39125 -8,-23.63125 6.85,4.7 13.6,9.560625 20.4,14.340625 -1.37,-8.51 -3.20907,-16.940625 -4.63907,-25.440625 z m -10.62031,4.75 c 2.82,1.45 5.30969,3.450312 7.92969,5.220312 -2.14,-0.24 -4.28969,-0.410312 -6.42969,-0.570312 2.71,3.2 5.68031,6.18 8.42031,9.35 -5.21,-3.42 -10.26062,-7.069688 -15.29062,-10.729688 1.77,-1.12 3.47031,-2.370312 5.37031,-3.270312 z m -60.67031,2.4 c 3.92,2.11 6.79,5.550625 8.9,9.390625 -3.78,3.04 -8.09969,6.099375 -13.17969,6.009375 -4.93,0.41 -9.469998,-1.989688 -13.349998,-4.779688 2.17,-3.92 4.890628,-7.549374 8.540628,-10.209374 1.87,2.41 4.90968,3.030312 7.72968,2.070312 z m 10.86094,8.070312 c 3.09,0.13 6.16937,0.430938 9.25937,0.560938 -1.2,0.4 -2.40062,0.79875 -3.59062,1.21875 0.88,0.26 2.64093,0.760938 3.51093,1.010938 -2.83,0.12 -5.66062,0.209062 -8.49062,0.439062 2.33,0.85 4.68969,1.600938 7.02969,2.410938 -2.41,0.47 -4.82969,0.939062 -7.17969,1.639062 3.08,0.69 6.22031,1.050625 9.37031,1.290625 -2.1,2.16 -4.20062,4.339375 -6.29062,6.509375 -9.87,-1.03 -19.79875,-0.429062 -29.668754,-1.389062 -6.39,-0.56 -12.810936,-0.57 -19.210937,-0.95 6.540001,-0.51 13.130937,-0.100313 19.660937,-0.820313 -8.32,-1.23 -16.711248,-1.949375 -25.031249,-3.209375 2.92,-1.97 5.88031,-3.870938 8.820313,-5.810938 3.66,0.32 7.470312,-0.03969 11.020312,0.970313 3.99,2.41 7.970628,5.279687 12.790628,5.629687 6.98,0.91 13.57937,-2.610312 18.45937,-7.320312 -0.11,-0.54 -0.33937,-1.629688 -0.45937,-2.179688 z m 11.66875,9.990626 c 5.67,19.08 11.8,38.040311 17.2,57.170314 -1.98,3.41 -4.47907,6.47906 -6.68907,9.73906 -5.71,-20.119999 -11.25093,-40.28 -16.76093,-60.45 2.06,-2.18 4.15,-4.319374 6.25,-6.459374 z M 64.509322,51.66528 c 10.74,0.66 21.49,1.16 32.25,1.6 -0.02,11.41 6.24e-4,22.820629 -0.0094,34.240625 -11.44,-0.02 -22.880937,-0.04969 -34.310937,0.02031 0.45,-1.09 0.9,-2.181248 1.35,-3.281248 -1.76,1.12 -3.860312,1.951248 -5.020312,3.781248 -0.78,1.87 -1.039688,3.899688 -1.429688,5.879688 0.61,-0.6 1.810938,-1.8 2.410938,-2.4 -1.14,6.7 -1.72125,13.459687 -2.68125,20.179687 13.22,0.02 26.450313,0.0706 39.670313,0.19063 0.01,1.27 0.02031,2.54875 0.02031,3.81875 -15.16,-0.22 -30.33,0.16031 -45.5,-0.22969 4.53,-21.240001 8.82,-42.540002 13.25,-63.800002 z m 79.149998,0.770313 c 3.33,9.46 6.38969,19 9.72969,28.45 -1,-8.02 -4.04938,-15.680625 -4.65938,-23.740625 3.99,12.12 7.61907,24.371253 11.48907,36.531249 -1.92,2.81 -3.87938,5.588752 -5.90938,8.318753 -4.86,-15.880001 -9.79062,-31.73969 -14.44062,-47.67969 3.26,6.81 5.17093,14.200313 8.61093,20.920313 -1.43,-7.63 -3.55031,-15.13 -4.82031,-22.8 z m -44.799998,0.870313 c 6.669998,0.19 13.349688,0.750312 20.029688,0.720312 -1.5,0.36 -2.99906,0.739062 -4.48906,1.139062 3.53,0.67 7.07,1.21 10.6,1.85 1.38,4.01 2.88937,7.970626 4.20937,11.990626 0.19,-0.87 0.58031,-2.600313 0.77031,-3.470313 4.55,16.82 9.25032,33.589688 13.92032,50.379687 -15.04,-0.22 -30.08032,-0.16906 -45.120316,-0.18906 0.03,-1.29 0.05906,-2.57 0.08906,-3.85 12.790006,0.08 25.580936,-6.3e-4 38.360936,0.25937 -1.91,-7.16 -3.35,-14.449997 -5.5,-21.549997 0.69,0.61 2.08032,1.830624 2.77032,2.440624 0.01,-4.27 -2.54125,-8.170312 -6.93125,-8.770312 0.66,1.11 1.34125,2.220312 2.03125,3.320312 -10.25,-0.19 -20.51094,-0.04125 -30.760944,-0.08125 0.01,-11.400004 -0.01969,-22.789063 0.02032,-34.189061 z m -8.720312,3.139062 c 0.54,0.9 -0.18,3.47 1.5,3.2 2.2,0.72 1.950312,-1.779375 2.320312,-3.159375 -1.28,-0.03 -2.550312,-0.05063 -3.820312,-0.04062 z m 46.61094,1.03125 c -0.81,0.01 -2.42032,0.04 -3.22032,0.05 -0.01,0.74 -0.0297,2.219375 -0.0297,2.959375 0.79,0.03 2.37875,0.110625 3.16875,0.140625 0.03,-1.05 0.0613,-2.1 0.0813,-3.15 z m -120.531253,6.61875 c 1.05,4.04 1.420938,8.21125 2.010938,12.33125 1.16,-3.02 2.46,-6.01125 4.4,-8.63125 -2.21,16.530001 2.759687,33.191252 11.179687,47.331252 -2.35,-1.64 -4.66,-3.35063 -7.05,-4.94063 1.56,4.24 3.540313,8.32969 4.970313,12.62969 -13.42,-15.97 -20.610938,-38.090311 -15.510938,-58.720312 z m 53.684375,4.015625 c -2.7548,0.115225 -5.465625,1.64875 -6.534375,4.365625 -1.74,2.98 0.02094,6.219688 1.860938,8.629688 3.47,-1.56 7.289687,-1.950313 10.829687,-0.370313 1.56,-3.2 2.21,-7.359375 -0.4,-10.209375 -1.44375,-1.736874 -3.613628,-2.505244 -5.75625,-2.415625 z m 49.803118,0.376563 c -2.39624,0.08625 -4.75718,1.208124 -5.96718,3.328124 -1.94,2.73 -1.06,6.270626 0.2,9.090626 3.84,-1.08 7.84094,-1.31 11.71094,-0.2 1.72,-2.77 2.49906,-6.619688 0.23906,-9.329688 -1.355,-2.025 -3.78656,-2.975312 -6.18282,-2.889062 z m -27.849996,0.175 c -0.384688,-0.008 -0.756872,0.05281 -1.046872,0.182812 -0.14,0.43 -0.41,1.29125 -0.55,1.73125 -0.36,1.96 4.000624,2.009062 3.490624,0.03906 0.525,-1.2825 -0.739688,-1.929218 -1.893752,-1.953122 z m 46.859376,0.389062 c -0.23275,0.0174 -0.47969,0.09375 -0.73594,0.24375 -2.2,0.85 -0.67031,4.440312 1.52969,3.320312 1.75,-0.901249 0.83553,-3.685878 -0.79375,-3.564062 z m 61.74375,11.164062 c -1.31,21 -12.69937,41.77031 -31.00937,52.62031 2.71,-3.7 5.53906,-7.31062 8.28906,-10.99062 -2.97,1.8 -6.2,3.08094 -9.6,3.81094 8.44,-6.87 15.36094,-15.52094 19.86094,-25.46094 2.53,-5.130001 4.1,-10.649689 6,-16.029689 0.34,2.88 0.60968,5.77 0.97968,8.65 2.17,-4.05 3.61969,-8.41 5.47969,-12.600001 z m -58.35937,0.410938 c -0.37,0.34 -1.10032,1.01875 -1.47032,1.36875 -1.24,1.860001 2.55969,3.930625 3.12969,1.740625 1.29,-1.38 -0.58937,-2.469375 -1.65937,-3.109375 z m -50.281252,0.31875 c -1.47,0.75 -2.179064,2.05 -1.039064,3.500001 1.6,0.3 3.170312,0.1 3.220312,-1.900001 -0.63,-1.1 -1.361248,-1.64 -2.181248,-1.6 z m -29.750001,9.460937 c 0.53,4.24 0.46,8.519688 0.75,12.779685 1.39,-4.159997 2.180625,-8.489685 3.490625,-12.679685 -0.57,4.25 -0.829375,8.539688 -0.859375,12.829685 -1.87,1.63 -3.770938,3.24938 -5.710938,4.80938 0.81,-5.91 1.499688,-11.829065 2.329688,-17.739065 z m 83.239063,2.518752 c -0.15539,0.0019 -0.2975,0.0091 -0.41875,0.02031 -0.79,0.84 -1.16031,2.450312 -0.0203,3.170312 0.89,0.62 3.35125,-0.06031 2.73125,-1.520312 0.51624,-1.408752 -1.20446,-1.683712 -2.29219,-1.670312 z m 20.68125,10.260933 c 0.62,3.65 0.73031,7.35938 1.27031,11.00938 1.14,-2.82 1.39,-5.88 1.9,-8.85 -0.06,4.25 0.19031,8.55125 -0.32969,12.78125 -0.99,1.55 -2.49,2.69875 -3.8,3.96875 0.37,-6.27 -1.14062,-12.86938 0.95938,-18.90938 z m -51.31094,1.40156 c 5.28125,0.009 10.56125,0.10407 15.83125,0.48907 -7.08,0.27 -14.09,1.43875 -21.15,1.96875 6.34,1.61 12.90969,1.72031 19.32969,2.82031 -9.96,-0.06 -19.91969,-0.33969 -29.879688,-0.22969 0.01,-1.67 0.01969,-3.35031 0.02969,-5.02031 5.274998,0.04 10.557818,-0.0369 15.839058,-0.0281 z m -26.753124,0.0141 c 2.942504,0.006 5.885,0.0241 8.825,0.0141 0,1.67 0.0094,3.34031 0.0094,5.02031 -7.07,-0.1 -14.150312,-0.13 -21.220313,-0.45 3.56,-0.28 7.130937,-0.40937 10.660937,-0.95937 -2.81,-0.45 -5.670937,-0.61031 -8.510937,-0.77031 l -0.1,-1.35 c 1.73,0.12 3.460625,0.26031 5.190625,0.42031 -1.23,-0.63 -2.449687,-1.25031 -3.679687,-1.87031 2.939999,-0.055 5.882503,-0.0609 8.824999,-0.0547 z m 74.084374,1.13439 c -3.14,5.62 -6.44031,11.13969 -9.62031,16.72969 -22.93,-0.2 -45.86,-0.44 -68.8,-0.55 -9.340003,0.13 -18.700313,-0.47969 -28.020313,0.27031 7.53,-1.31 15.18,-1.44 22.8,-1.85 -5.05,-1.16 -10.259062,-1.37062 -15.339062,-2.34062 18.819999,-0.64 37.689685,-0.009 56.529685,-0.20938 6.09,0.04 12.19031,-0.2 18.27031,0.35 -3.36,0.83 -6.78968,1.28 -10.12968,2.15 7.15,0.63 14.33937,0.0603 21.50937,0.22032 1.31,-2.62 2.66938,-5.22 4.05938,-7.8 -1.39,0.52 -2.77938,1.07 -4.15938,1.6 1.85,-2.85 3.37349,-5.29303 5.19349,-8.16303 2.15605,-3.62537 3.9689,-6.396575 6.17447,-9.663166 0.74453,0.09451 3.23934,0.503416 5.54248,2.036289 m -3.36981,11.010197 c 0.09,4.9 0.0597,9.8 0.0297,14.7 -2.91,1.96 -6.60031,4.32906 -6.17031,8.38906 -0.55,4.09 2.94969,6.75094 6.17969,8.36094 -0.13,5.11 0.52031,10.31 -0.57969,15.35 -1.84,7.44 -1.38969,15.15906 -2.02969,22.73906 -0.98,-5.2 -1.58062,-10.45031 -2.04062,-15.72031 -0.65,7.14 -0.87969,14.3 -1.32969,21.45 -0.82,-3.5 -1.11062,-7.09875 -1.79062,-10.61875 -0.47,3.16 -0.59938,6.36 -0.90938,9.55 -0.3,-3.34 -0.40969,-6.7 -0.37969,-10.05 0.06,-15.7 -0.0303,-31.39063 0.0297,-47.09063 -0.12,-1.86 0.95031,-3.45062 1.82031,-4.99062 2.42,-4.01 4.65032,-8.12875 7.17032,-12.06875 z M 42.559322,123.65591 c 17.24,0.28 34.489373,0.23937 51.709376,0.75937 -0.09,24.52 0.06125,49.04 -0.06875,73.55 -17.209997,-0.06 -34.410311,3.1e-4 -51.620311,-0.0297 0,-24.76 0.03969,-49.51968 -0.02031,-74.27968 z m 57.159376,0.75 c 17.230002,0.18 34.470002,0.33968 51.700002,0.27968 0.01,24.42 -0.0191,48.83 0.0109,73.25 -18.29,0.02 -36.58031,-0.0106 -54.870308,0.009 l 0,-54.31875 c -0.02,-3.1 0.159376,-6.20063 0.509376,-9.29063 0.37,3.95 0.401248,7.92 0.981248,11.85 0.96,-7.22 1.598752,-14.49968 1.668752,-21.77968 z m -10.217192,3.12968 c -0.475152,-0.0481 -0.972184,0.12219 -1.392184,0.62969 -2.02,1.13 0.810312,3.93031 2.420312,2.47031 1.627504,-0.84749 0.397344,-2.95562 -1.028128,-3.1 z m 36.687504,4.52969 c 0.11,0.55 0.34,1.63969 0.45,2.17969 5.53,4.99 8.56062,12.65 8.69062,20 -1.56,-6.27 -2.88,-13.03906 -7.5,-17.88906 -1.49,-1.44 -2.98031,-3.34969 -5.17031,-3.57969 -9.41,0.31 -18.14,6.75 -21.5,15.5 -3.079998,7.88 -1.770622,17.4 3.60938,24 2.47,3.13 5.95031,6.30875 10.27031,5.56875 -2.64,-1.87 -5.56,-3.45906 -7.7,-5.93906 -5.04,-5.7 -7.26031,-14.12 -4.62031,-21.4 2.72,-9.32 12.03125,-15.61 21.58125,-15.8 0.33,0.34 0.99906,1.01 1.33906,1.35 -2.81,0.44 -5.77,0.82937 -7.9,2.90937 0.9,0.08 2.68969,0.24031 3.57969,0.32031 0.74,1.57 1.21031,3.24 1.72031,4.9 1.88,-0.74 3.41094,-2.08937 4.86094,-3.45937 -0.37,-1.18 -0.73125,-2.36063 -1.08125,-3.54063 5.19,6.42 6.31062,14.75063 8.44062,22.44063 -5.14,8.67 -12.23937,17.27906 -22.60937,19.43906 1.95,0.56 3.84906,1.37094 5.88906,1.56094 4.65,-1.02 8.60031,-3.84125 12.32031,-6.68125 1.11,1.06 2.22938,2.11 3.30938,3.2 -4.8,1.94 -10.10875,2.01125 -14.86875,4.08125 5.83,1.1 11.76906,-0.28125 17.03906,-2.83125 2.14,1.74 4.24062,3.64125 6.89062,4.58125 -3.64,-3.74 -7.85968,-6.84 -11.87968,-10.15 2.41,-1.76 4.35968,-4.04063 5.97968,-6.54063 0.17,-2.44 -1.08,-4.93 -0.15,-7.3 0.38,3.02 1.08032,6.00969 1.12032,9.07969 -0.39,0.13 -1.17094,0.40063 -1.56094,0.54063 0.09,0.76 0.27,2.27906 0.35,3.03906 0.99,-0.48 1.8,-1.23875 2.65,-1.91875 -0.13,0.56 -0.39031,1.69 -0.52031,2.25 -2.33,0.23 -4.65907,0.45 -6.98907,0.7 4.13,3.4 8.27938,6.76969 12.35938,10.22969 2.17,-4.11 4.37,-8.22 6.5,-12.35 l -6.72031,0.27031 c -1.57,-8.46 -3.22,-16.93094 -5.75,-25.16094 l 1.32187,-2.49062 c 0.16658,4.38602 0.62029,8.7312 2.24844,12.90156 0.95,-3.83 1.70062,-7.71094 1.94062,-11.66094 -1.23,-2.3 -2.64093,-4.51031 -4.31093,-6.52031 0.0271,1.66807 0.0508,3.3377 0.10937,5.00156 -0.53352,-0.78433 -1.09075,-1.55314 -1.67812,-2.30156 l 0.2,3.98125 c -2.33,-5.56 -6.42094,-10.48094 -12.26094,-12.51094 z m 5.29062,1.62031 c 2.03,2.24 4.12969,4.40969 6.17969,6.62969 0.48,-0.73 0.95031,-1.46937 1.42031,-2.20937 -2.29,-1.86 -4.94,-3.20032 -7.6,-4.42032 z m 37.62969,5.35 c -0.06,5.95 -0.0206,11.9 0.009,17.85 -0.73,-2.6 -1.44907,-5.20968 -2.28907,-7.77968 -1.76,6.11 -1.26968,12.51031 -1.82968,18.77031 -0.45,-8.93 0.25875,-17.89063 -0.0813,-26.84063 1.4,-0.65 2.80062,-1.32 4.19062,-2 z m -80.129686,0.79063 c -1.05,0.48 -2.409688,2.56969 -0.779688,3.17969 1.48,1.74 2.649376,-0.75969 3.859376,-1.52969 -1.01,-0.57 -1.999688,-1.19 -3.079688,-1.65 z m 24.329686,0.55 c -1.65,0.26 -3.42,0.27937 -4.8,1.35937 0.27,0.91 0.58,1.79969 0.95,2.67969 -1.45,2.06 -3.33062,3.74031 -5.14062,5.47031 -0.73,3.01 -1.62969,6.10032 -1.47969,9.22032 1.02,1.5 2.38969,2.71031 3.67969,3.97031 0.05,1.79 0.1,3.58906 0.15,5.38906 3.57,2.46 7.56093,4.67969 9.56093,8.72969 4.78,-1.5 8.62032,-4.86 11.77032,-8.65 -2.84,-1.06 -5.69,-2.17969 -8.75,-2.32969 -1.87,-2.9 -7.36094,-2.62906 -7.16094,-6.68906 -0.38,-0.06 -1.14906,-0.17125 -1.53906,-0.23125 0.29,-0.77 0.87875,-2.30906 1.16875,-3.08906 1.51,-1.05 2.92125,-2.22969 4.28125,-3.47969 1.55,-0.46 3.09937,-0.91063 4.65937,-1.34063 -0.16,-0.29 -0.48937,-0.86937 -0.65937,-1.15937 1.57,-0.67 2.91968,-1.70063 4.07968,-2.94063 -1.56,-0.83 -3.11093,-1.66062 -4.66093,-2.49062 -0.95,1.34 -1.81,2.75 -2.6,4.2 -0.25,-0.83 -0.5,-1.65969 -0.75,-2.47969 1.65,-1.57 3.23,-3.22 4.6,-5.05 -2.34,0.8 -4.61,1.77 -6.95,2.55 -0.1,-0.91 -0.30938,-2.72906 -0.40938,-3.63906 z m -47.060936,0.20625 c -4.941249,0.08 -9.848749,1.82281 -13.518749,5.23281 -4.9,4.11 -7.380938,10.50031 -7.360938,16.82031 l 42.470313,0 c -0.03,-6.56 -2.640312,-13.18937 -7.870313,-17.30937 -3.805,-3.24 -8.779062,-4.82375 -13.720313,-4.74375 z m 54.360936,2.4125 c -1.84,2.9 3.36,0.35 0,0 z m 23.97969,1.06094 c -0.57,4.31 1.32062,8.35 1.54062,12.6 0.2,4.56 -2.28062,8.82968 -1.54062,13.42968 5.14,-7.76 4.97,-18.23968 0,-26.02968 z m -55.489064,8.25468 c -0.427656,0.0425 -0.827496,0.26438 -1.1,0.73438 -1.91,1.83 2.05,4.15031 3,1.87031 0.915,-1.245 -0.617032,-2.73218 -1.9,-2.60469 z m -22.324999,11.39219 c -6.99,-0.002 -13.980625,0.0378 -20.965625,0.13281 13.4,4.74 28.559687,4.92063 41.929688,-0.009 -6.985,-0.075 -13.974063,-0.12094 -20.964063,-0.12344 z m 22.770311,0.95469 c -0.202384,0.004 -0.41656,0.0816 -0.645312,0.25781 -2.05,0.11 -1.77,3.12063 0.1,3.19063 1.1,0.48 2.01,-0.71063 2.55,-1.49063 -0.487496,-0.62562 -1.127696,-1.97708 -2.004688,-1.95781 z m 77.704692,11.06875 c 4.02,0.1 8.01937,0.62969 11.90937,1.67969 -8.38,3.81 -14.59969,10.87968 -19.77969,18.27968 -10.3,14.93 -18.08062,31.40032 -25.34062,47.97032 -17.23,0.02 -34.47,0.58031 -51.7,0.42031 0.72,0.13 2.180936,0.38875 2.910936,0.51875 l -0.1,0.97031 c -15.269996,-0.54 -30.500311,-1.88969 -45.770311,-2.42969 18.45,-1.4 37.000003,0.19969 55.449999,-1.02031 -23.629996,-1.35 -47.229999,-3.12 -70.849999,-4.6 1.47,-10.9 5.069687,-21.49969 10.579687,-31.02969 -0.85,5.31 -2.939375,10.3 -4.059375,15.55 1.84,-2.86 3.26875,-5.95968 5.16875,-8.77968 -0.32,1.25 -0.67,2.48968 -1.05,3.72968 0.19,0.36 0.580312,1.08063 0.770312,1.44063 -2.15,5.64 -3.439374,11.55969 -4.259374,17.52969 7.78,0.73 15.599374,0.74937 23.409374,0.90937 15.66,0.98 31.349689,1.35094 47.029691,2.01094 8.39,0.74 16.82062,0.80937 25.24062,0.90937 3.62,-8.07 7.16063,-16.22968 11.79063,-23.77968 -0.44,2.03 -1.00125,4.02937 -1.48125,6.05937 4,-6.05 7.35062,-12.49906 11.19062,-18.63906 -1.47,4.5 -3.23969,8.90875 -4.67969,13.41875 8.18,-13.52 15.71032,-27.43875 23.62032,-41.11875 z m -78.170316,1.35937 c -2.88,0.57 -1.160312,4.65032 1.179688,3.47032 2.02,-1.07 0.750312,-3.54032 -1.179688,-3.47032 z m 92.729686,2.14063 c -0.68,0.84 -2.02937,2.50906 -2.70937,3.33906 1.74,-0.54 3.48968,-1.06937 5.22968,-1.60937 -1.7,1.91 -3.42,3.78937 -5.1,5.70937 1.53,-0.64 3.06,-1.29969 4.6,-1.92969 -2.16,2.45 -4.52,4.71938 -6.75,7.10938 2.26,-0.85 4.48,-1.78 6.75,-2.6 -3.61,4.08 -7.75,7.65062 -11.35,11.74062 4.52,-2.56 8.74938,-5.58968 13.15938,-8.32968 -5.98,6.1 -12.25938,11.91937 -18.15938,18.10937 4.17,-2.42 7.82,-5.61031 11.9,-8.17031 -9.45,9.29 -19.01968,18.46062 -28.32968,27.89062 l -0.3,-0.32031 c 3.7,-4.5 7.58906,-8.84906 11.03906,-13.53906 -7.65,6.71 -14.76031,14.02969 -22.42031,20.72969 6.39,-14.31 13.47125,-28.42032 22.48125,-41.27032 5.26,-6.94 11.22937,-14.34937 19.95937,-16.85937 z m -92.19687,10.14531 c -0.308288,-0.006 -0.647504,0.12719 -1.012504,0.45469 -2.33,0.58 -0.140312,2.54906 0.279688,3.83906 0.84,-0.66 1.700312,-1.29906 2.470312,-2.03906 -0.172496,-0.975 -0.812656,-2.23735 -1.737496,-2.25469 z m 36.50625,10.67344 c -4.46,1.06 -9.02938,1.53125 -13.55938,2.18125 10.73,0.49 21.47,-0.08 32.2,-0.35 -7.87,11.14 -14.10031,23.32906 -19.47031,35.83906 -9.57,-0.26 -19.13031,-1.15 -28.720312,-1.05 -20.940004,-1.32 -41.940001,-1.65937 -62.900001,-2.85937 1.76,-11.3 6.17,-22.21032 13.2,-31.27032 10,-0.26 20.01,-0.0706 30,-0.34062 -3.88,-0.96 -7.87,-1.36938 -11.8,-2.10938 20.350001,0.08 40.700003,0.16938 61.050003,-0.0406 z m -43.32969,3.56094 c -3.400001,5.28 -6.709688,10.62031 -10.079688,15.92031 4.47,-0.06 8.93,-0.0503 13.4,-0.0203 -3.82,4.9 -7.97,9.54 -11.85,14.4 8.59,-6.42 17.12,-12.94032 25.55,-19.57032 -3.49,-0.06 -6.980312,-0.0494 -10.470312,-0.009 4.2,-3.67 8.660624,-7.04125 12.89062,-10.68125 -6.479996,-0.07 -12.96062,-0.009 -19.44062,-0.0391 z"
     id="path6"
     inkscape:connector-curvature="0"
     sodipodi:nodetypes="cccccccccccccccccccccccccccccccccccccccccccccccccccccccccccccccccccccccccccccccccccccccccccccccccccccccccccccccccccccccccccccccccccccccccccccccccccccccccccccccccccccccccccccccccccccccccccccccccccccccccsccccssccccscccccsccsccccccccccccccccccccccccccccccccccccccccccccccccccccccccccccccccccccccccccccccccccccccccccccccccccccccccccccccccccccccccccccccccccccccccccccccccccccccccccccccccccccccccccccccccccccccccccsccccsccccccsccsccccccccccccccccccccccccccccccccccccccccccccccccccccccccccccccccccccccccccccccc"
     style="fill:#000000;fill-opacity:1.0" />
</svg>
