<?xml version="1.0" encoding="UTF-8" standalone="no"?><svg xmlns="http://www.w3.org/2000/svg" height="50" style="fill:#000000;fill-opacity:1.0" viewBox="0 0 50 50" width="50">
    <path color="#000" d="M 25 0 C 11.204726 0 0 11.204726 0 25 C 0 38.795274 11.204726 50 25 50 C 38.795274 50 50 38.795274 50 25 C 50 11.204726 38.795274 0 25 0 z M 25 2 C 37.714394 2 48 12.285606 48 25 C 48 37.714394 37.714394 48 25 48 C 12.285606 48 2 37.714394 2 25 C 2 12.285606 12.285606 2 25 2 z M 23.78125 12.90625 C 23.56625 12.90625 23.4375 13.035 23.4375 13.25 L 23.4375 15.875 C 23.4375 16.09 23.56525 16.25 23.78125 16.25 L 26.21875 16.25 C 26.43275 16.25 26.5625 16.09 26.5625 15.875 L 26.5625 13.25 C 26.5625 13.035 26.43375 12.90625 26.21875 12.90625 L 23.78125 12.90625 z M 23.71875 20.125 C 23.587969 20.175578 23.5 20.3075 23.5 20.46875 L 23.5 36.9375 C 23.5 37.1525 23.62875 37.28125 23.84375 37.28125 L 26.15625 37.28125 C 26.37125 37.28125 26.5 37.1535 26.5 36.9375 L 26.5 20.46875 C 26.5 20.25375 26.37225 20.125 26.15625 20.125 L 23.84375 20.125 C 23.79025 20.125 23.762344 20.108141 23.71875 20.125 z" enable-background="accumulate" font-family="Bitstream Vera Sans" overflow="visible" style="text-indent:0;text-align:start;line-height:normal;text-transform:none;block-progression:tb;-inkscape-font-specification:Bitstream Vera Sans"/>
</svg>