<?xml version="1.0" encoding="UTF-8" standalone="no"?><svg xmlns="http://www.w3.org/2000/svg" enable-background="new 0 0 50 50" style="fill:#000000;fill-opacity:1.0" viewBox="0 0 50 50">
    <path color="#000" d="M 21 0 C 15.378788 0 10.267217 1.0159889 6.46875 2.71875 C 4.5695164 3.5701306 2.9843148 4.6017466 1.84375 5.8125 C 0.75845872 6.9645784 0.064257985 8.3179398 0 9.78125 A 1.0001 1.0001 0 0 0 0 9.9375 C -0.00026891808 9.958914 0 9.9785385 0 10 L 0 19.8125 A 1.0001 1.0001 0 0 0 0 20 L 0 29.8125 A 1.0001 1.0001 0 0 0 0 30 L 0 39 C 0 40.55 0.70318519 41.976747 1.84375 43.1875 C 2.9843148 44.398253 4.5695164 45.429869 6.46875 46.28125 C 10.267217 47.984011 15.378788 49 21 49 C 23.131746 49 25.18328 48.90527 27.15625 48.59375 A 1.0001 1.0001 0 1 0 26.84375 46.625 C 25.01672 46.913478 23.068254 47 21 47 C 15.621212 47 10.732783 46.015989 7.28125 44.46875 C 5.5554836 43.695131 4.2031852 42.789247 3.3125 41.84375 C 2.4218148 40.898253 2 39.95 2 39 L 2 34.34375 C 3.1278662 35.487615 4.6512827 36.466523 6.46875 37.28125 C 10.267217 38.984011 15.378788 40 21 40 C 21.9 40 22.743582 40.01643 23.625 39.90625 A 1.0077822 1.0077822 0 0 0 23.375 37.90625 C 22.656418 37.996073 21.9 38 21 38 C 15.621212 38 10.732783 37.015989 7.28125 35.46875 C 5.5554836 34.695131 4.2031852 33.789247 3.3125 32.84375 C 2.4218148 31.898253 2 30.95 2 30 A 1.0001 1.0001 0 0 0 2 29.8125 L 2 24.34375 C 3.1278662 25.487615 4.6512827 26.466523 6.46875 27.28125 C 10.267217 28.984011 15.378788 30 21 30 C 26.621212 30 31.732783 28.984011 35.53125 27.28125 C 37.348718 26.466523 38.872134 25.487615 40 24.34375 L 40 25 A 1.0001 1.0001 0 1 0 42 25 L 42 10 C 42 9.9678077 42.000604 9.9383351 42 9.90625 A 1.0001 1.0001 0 0 0 42 9.8125 C 41.999599 9.8018412 42.000468 9.7918966 42 9.78125 A 1.0001 1.0001 0 0 0 41.96875 9.71875 C 41.887088 8.28075 41.22531 6.9473485 40.15625 5.8125 C 39.015685 4.6017466 37.430484 3.5701306 35.53125 2.71875 C 31.732783 1.0159889 26.621212 0 21 0 z M 21 2 C 26.378788 2 31.267217 2.9840111 34.71875 4.53125 C 36.444516 5.3048694 37.796815 6.2107534 38.6875 7.15625 C 39.578185 8.1017466 40 9.05 40 10 C 40 10.95 39.578185 11.898253 38.6875 12.84375 C 37.796815 13.789247 36.444516 14.695131 34.71875 15.46875 C 31.267217 17.015989 26.378788 18 21 18 C 15.621212 18 10.732783 17.015989 7.28125 15.46875 C 5.5554836 14.695131 4.2031852 13.789247 3.3125 12.84375 C 2.4218148 11.898253 2 10.95 2 10 A 1.0001 1.0001 0 0 0 2 9.90625 C 2.026229 8.9868195 2.450373 8.071431 3.3125 7.15625 C 4.2031852 6.2107534 5.5554836 5.3048694 7.28125 4.53125 C 10.732783 2.9840111 15.621212 2 21 2 z M 2 14.34375 C 3.1278662 15.487615 4.6512827 16.466523 6.46875 17.28125 C 10.267217 18.984011 15.378788 20 21 20 C 26.621212 20 31.732783 18.984011 35.53125 17.28125 C 37.348718 16.466523 38.872134 15.487615 40 14.34375 L 40 20 C 40 20.95 39.578185 21.898253 38.6875 22.84375 C 37.796815 23.789247 36.444516 24.695131 34.71875 25.46875 C 31.267217 27.015989 26.378788 28 21 28 C 15.621212 28 10.732783 27.015989 7.28125 25.46875 C 5.5554836 24.695131 4.2031852 23.789247 3.3125 22.84375 C 2.4218148 21.898253 2 20.95 2 20 A 1.0001 1.0001 0 0 0 2 19.8125 L 2 14.34375 z M 36.9375 28 L 36.8125 28.84375 L 36.40625 31.28125 C 36.068368 31.402665 35.746335 31.547417 35.4375 31.6875 L 33.375 30.1875 L 32.6875 29.6875 L 32.09375 30.28125 L 30.28125 32.09375 L 29.6875 32.6875 L 30.1875 33.375 L 31.59375 35.375 C 31.44026 35.674953 31.3203 35.985434 31.21875 36.3125 L 28.84375 36.71875 L 28 36.84375 L 28 37.6875 L 28 40.1875 L 28 41.03125 L 28.84375 41.1875 L 31.1875 41.59375 C 31.307573 41.927898 31.424072 42.256691 31.5625 42.5625 L 30.1875 44.625 L 29.71875 45.3125 L 30.28125 45.90625 L 32.09375 47.71875 L 32.6875 48.28125 L 33.375 47.8125 L 35.4375 46.40625 C 35.769934 46.559512 36.087395 46.714712 36.40625 46.8125 L 36.8125 49.25 L 36.9375 50.09375 L 37.8125 50.09375 L 40.3125 50.09375 L 41.15625 50.09375 L 41.28125 49.25 L 41.6875 46.8125 C 42.034716 46.687732 42.371143 46.550469 42.6875 46.40625 L 44.75 47.8125 L 45.4375 48.28125 L 46 47.71875 L 47.8125 45.90625 L 48.40625 45.28125 L 47.90625 44.59375 L 46.40625 42.625 C 46.553242 42.301779 46.717402 41.997582 46.8125 41.6875 L 49.1875 41.1875 L 50 41 L 50 40.1875 L 50 37.6875 L 50 36.84375 L 49.15625 36.71875 L 46.71875 36.3125 C 46.593982 35.965284 46.456719 35.628857 46.3125 35.3125 L 47.71875 33.25 L 48.1875 32.5625 L 47.59375 32 L 45.90625 30.28125 L 45.28125 29.6875 L 44.59375 30.1875 L 42.625 31.6875 C 42.301779 31.540508 41.997582 31.376348 41.6875 31.28125 L 41.28125 28.84375 L 41.15625 28 L 40.3125 28 L 37.8125 28 L 36.9375 28 z M 38.625 30 L 39.4375 30 L 39.8125 32.15625 L 39.90625 32.78125 L 40.53125 32.96875 C 41.23125 33.16875 41.820677 33.338785 42.25 33.625 L 42.84375 34.03125 L 43.40625 33.59375 L 45.125 32.34375 L 45.59375 32.8125 L 44.375 34.625 L 44.03125 35.125 L 44.3125 35.65625 C 44.592624 36.216498 44.855439 36.853412 45.03125 37.46875 L 45.21875 38.09375 L 45.84375 38.1875 L 48 38.5625 L 48 39.375 L 45.90625 39.8125 L 45.3125 39.9375 L 45.125 40.53125 C 44.925 41.23125 44.754965 41.820677 44.46875 42.25 L 44.0625 42.84375 L 44.5 43.40625 L 45.78125 45.125 L 45.1875 45.71875 L 43.375 44.46875 L 42.875 44.15625 L 42.34375 44.40625 C 41.783502 44.686374 41.146588 44.949189 40.53125 45.125 L 39.90625 45.3125 L 39.8125 45.9375 L 39.4375 48.09375 L 38.625 48.09375 L 38.28125 45.9375 L 38.1875 45.3125 L 37.5625 45.125 C 36.8625 44.925 36.273073 44.754965 35.84375 44.46875 L 35.28125 44.09375 L 34.75 44.46875 L 32.9375 45.71875 L 32.28125 45.0625 L 33.53125 43.25 L 33.84375 42.78125 L 33.59375 42.25 C 33.313626 41.689752 33.050811 41.052838 32.875 40.4375 L 32.6875 39.8125 L 32.0625 39.71875 L 30 39.375 L 30 38.53125 L 32.0625 38.1875 L 32.78125 38.0625 L 32.875 37.34375 C 32.9486 36.828541 33.202365 36.243327 33.53125 35.75 L 33.90625 35.1875 L 33.53125 34.625 L 32.3125 32.90625 L 32.90625 32.3125 L 34.71875 33.625 L 35.21875 33.96875 L 35.75 33.6875 C 36.310248 33.407376 36.947162 33.144561 37.5625 32.96875 L 38.1875 32.78125 L 38.28125 32.15625 L 38.625 30 z M 39 35 C 36.790196 35 35 36.790196 35 39 C 35 41.209804 36.790196 43 39 43 C 41.209804 43 43 41.209804 43 39 C 43 36.790196 41.209804 35 39 35 z M 39 37 C 40.190196 37 41 37.809804 41 39 C 41 40.190196 40.190196 41 39 41 C 37.809804 41 37 40.190196 37 39 C 37 37.809804 37.809804 37 39 37 z" enable-background="accumulate" font-family="Bitstream Vera Sans" overflow="visible" style="text-indent:0;text-align:start;line-height:normal;text-transform:none;block-progression:tb;-inkscape-font-specification:Bitstream Vera Sans"/>
</svg>