<?xml version="1.0" encoding="UTF-8" standalone="no"?><svg xmlns="http://www.w3.org/2000/svg" enable-background="new 0 0 50 50" style="fill:#000000;fill-opacity:1.0" viewBox="0 0 50 50">
    <path color="#000" d="M 6 0 L 6 1 L 6 49 L 6 50 L 7 50 L 43 50 L 44 50 L 44 49 L 44 15 L 44 14.59375 L 43.71875 14.28125 L 29.71875 0.28125 L 29.40625 0 L 29 0 L 7 0 L 6 0 z M 8 2 L 28 2 L 28 15 L 28 16 L 29 16 L 42 16 L 42 48 L 8 48 L 8 2 z M 30 3.4375 L 40.5625 14 L 30 14 L 30 3.4375 z M 25 20 C 24.4 20 24 20.4 24 21 L 24 30.8125 C 24 32.0125 23.60625 33 21.40625 33 C 18.30625 33 17 33.6875 17 35.6875 C 17 36.9875 17.30625 39 21.40625 39 C 25.20625 39 26 36.09375 26 34.59375 L 26 25.1875 C 29.6 25.1875 29.20625 26.60625 31.90625 26.90625 C 32.50625 27.00625 33 26.6 33 26 L 33 23 C 33 22.5 32.59375 22 32.09375 22 C 29.09375 21.7 29.7 20 26 20 L 25 20 z" enable-background="accumulate" font-family="Bitstream Vera Sans" overflow="visible" style="text-indent:0;text-align:start;line-height:normal;text-transform:none;block-progression:tb;-inkscape-font-specification:Bitstream Vera Sans"/>
</svg>