<?xml version="1.0" encoding="UTF-8" standalone="no"?>
<svg
   xmlns:dc="http://purl.org/dc/elements/1.1/"
   xmlns:cc="http://creativecommons.org/ns#"
   xmlns:rdf="http://www.w3.org/1999/02/22-rdf-syntax-ns#"
   xmlns:svg="http://www.w3.org/2000/svg"
   xmlns="http://www.w3.org/2000/svg"
   xmlns:sodipodi="http://sodipodi.sourceforge.net/DTD/sodipodi-0.dtd"
   xmlns:inkscape="http://www.inkscape.org/namespaces/inkscape"
   height="50"
   style="fill:#000000;fill-opacity:1.0"
   viewBox="0 0 50 50"
   width="50"
   id="svg2"
   version="1.1"
   inkscape:version="0.91 r13725"
   sodipodi:docname="auto-reconnect.svg">
  <metadata
     id="metadata10">
    <rdf:RDF>
      <cc:Work
         rdf:about="">
        <dc:format>image/svg+xml</dc:format>
        <dc:type
           rdf:resource="http://purl.org/dc/dcmitype/StillImage" />
      </cc:Work>
    </rdf:RDF>
  </metadata>
  <defs
     id="defs8" />
  <sodipodi:namedview
     pagecolor="#ffffff"
     bordercolor="#666666"
     borderopacity="1"
     objecttolerance="10"
     gridtolerance="10"
     guidetolerance="10"
     inkscape:pageopacity="0"
     inkscape:pageshadow="2"
     inkscape:window-width="717"
     inkscape:window-height="721"
     id="namedview6"
     showgrid="false"
     inkscape:zoom="4.72"
     inkscape:cx="25"
     inkscape:cy="25"
     inkscape:window-x="0"
     inkscape:window-y="0"
     inkscape:window-maximized="0"
     inkscape:current-layer="svg2" />
  <path
     color="#000"
     d="M 39.90625 5.96875 A 1.0001 1.0001 0 0 0 39.78125 6 A 1.0001 1.0001 0 0 0 39 7 L 39 13.6875 C 38.79507 13.43207 38.592962 13.179445 38.375 12.9375 C 35.081942 9.2866616 30.299299 7 25 7 C 15.069709 7 7 15.069709 7 25 C 7 34.930291 15.069709 43 25 43 C 34.930291 43 43 34.930291 43 25 A 1.0001 1.0001 0 1 0 41 25 C 41 33.849709 33.849709 41 25 41 C 16.150291 41 9 33.849709 9 25 C 9 16.150291 16.150291 9 25 9 C 29.722701 9 33.946058 11.034088 36.875 14.28125 C 37.082376 14.511444 37.273219 14.754803 37.46875 15 L 31 15 A 1.0001 1.0001 0 1 0 31 17 L 40 17 L 41 17 L 41 16 L 41 7 A 1.0001 1.0001 0 0 0 39.90625 5.96875 z"
     enable-background="accumulate"
     font-family="Bitstream Vera Sans"
     overflow="visible"
     style="text-indent:0;text-align:start;line-height:normal;text-transform:none;block-progression:tb;-inkscape-font-specification:Bitstream Vera Sans"
     id="path4" />
  <text
     xml:space="preserve"
     style="font-style:normal;font-weight:normal;font-size:28.66830444px;line-height:125%;font-family:sans-serif;letter-spacing:0px;word-spacing:0px;fill:#000000;fill-opacity:1.0;stroke:none;stroke-width:1px;stroke-linecap:butt;stroke-linejoin:miter;stroke-opacity:1;"
     x="15.967717"
     y="34.015438"
     id="text4138"
     sodipodi:linespacing="125%"
     transform="scale(0.99106703,1.0090135)"><tspan
       sodipodi:role="line"
       id="tspan4140"
       x="15.967717"
       y="34.015438">A</tspan></text>
</svg>
