<?xml version="1.0" encoding="UTF-8" standalone="no"?><svg xmlns="http://www.w3.org/2000/svg" height="50" style="fill:#000000;fill-opacity:1.0" viewBox="0 0 50 50" width="50">
    <path color="#000" d="M 21 0 C 15.3545 0 10.230156 1.0122381 6.4375 2.71875 C 4.5411719 3.5720059 2.9801672 4.6031002 1.84375 5.8125 C 0.76240536 6.9632904 0.064612699 8.3230316 0 9.78125 A 1.0001 1.0001 0 0 0 0 9.9375 C -0.00027047539 9.9588265 0 9.9786316 0 10 L 0 19.8125 A 1.0001 1.0001 0 0 0 0 20 L 0 29.8125 A 1.0001 1.0001 0 0 0 0 30 L 0 39 C 0 40.54327 0.70733284 41.9781 1.84375 43.1875 C 2.9801672 44.3969 4.5411719 45.427994 6.4375 46.28125 C 10.230156 47.987762 15.3545 49 21 49 C 23.959766 49 26.78933 48.730662 29.34375 48.21875 A 1.0051139 1.0051139 0 1 0 28.9375 46.25 C 26.52192 46.734088 23.832234 47 21 47 C 15.5975 47 10.726594 45.987738 7.28125 44.4375 C 5.5585781 43.662381 4.1998328 42.756819 3.3125 41.8125 C 2.4251672 40.868181 2 39.94323 2 39 L 2 34.34375 C 3.1223185 35.486391 4.6228131 36.464729 6.4375 37.28125 C 10.230156 38.987762 15.3545 40 21 40 C 22.068945 40 23.13064 39.9779 24.15625 39.90625 A 1.0030471 1.0030471 0 1 0 24 37.90625 C 23.02161 37.974601 22.023055 38 21 38 C 15.5975 38 10.726594 36.987738 7.28125 35.4375 C 5.5585781 34.662381 4.1998328 33.756819 3.3125 32.8125 C 2.4251672 31.868181 2 30.94323 2 30 A 1.0001 1.0001 0 0 0 2 29.8125 L 2 24.34375 C 3.1223185 25.486391 4.6228131 26.464729 6.4375 27.28125 C 10.230156 28.987762 15.3545 30 21 30 A 1.0001 1.0001 0 1 0 21 28 C 15.5975 28 10.726594 26.987738 7.28125 25.4375 C 5.5585781 24.662381 4.1998328 23.756819 3.3125 22.8125 C 2.4251672 21.868181 2 20.94323 2 20 A 1.0001 1.0001 0 0 0 2 19.8125 L 2 14.34375 C 3.1223185 15.486391 4.6228131 16.464729 6.4375 17.28125 C 10.230156 18.987762 15.3545 20 21 20 C 26.6455 20 31.769844 18.987762 35.5625 17.28125 C 37.377187 16.464729 38.877682 15.486391 40 14.34375 L 40 20 A 1.0001 1.0001 0 1 0 42 20 L 42 10 C 42 9.9679475 42.000608 9.9382079 42 9.90625 A 1.0001 1.0001 0 0 0 42 9.8125 C 41.999597 9.8018796 42.00047 9.7918595 42 9.78125 A 1.0001 1.0001 0 0 0 41.96875 9.71875 C 41.886646 8.2854063 41.221422 6.9460797 40.15625 5.8125 C 39.019833 4.6031002 37.458828 3.5720059 35.5625 2.71875 C 31.769844 1.0122381 26.6455 0 21 0 z M 21 2 C 26.4025 2 31.273406 3.0122619 34.71875 4.5625 C 36.441422 5.3376191 37.800167 6.2431811 38.6875 7.1875 C 39.574833 8.1318189 40 9.0567701 40 10 C 40 10.94323 39.574833 11.868181 38.6875 12.8125 C 37.800167 13.756819 36.441422 14.662381 34.71875 15.4375 C 31.273406 16.987738 26.4025 18 21 18 C 15.5975 18 10.726594 16.987738 7.28125 15.4375 C 5.5585781 14.662381 4.1998328 13.756819 3.3125 12.8125 C 2.4251672 11.868181 2 10.94323 2 10 A 1.0001 1.0001 0 0 0 2 9.90625 C 2.0264271 8.9943602 2.4536179 8.101541 3.3125 7.1875 C 4.1998328 6.2431811 5.5585781 5.3376191 7.28125 4.5625 C 10.726594 3.0122619 15.5975 2 21 2 z M 37.5 22 C 35.98109 22 34.792503 22.780338 33.125 23.625 C 31.457497 24.469662 29.261754 25.497853 25.78125 26.25 L 25 26.40625 L 25 27.21875 C 25 35.589357 27.998812 41.282254 31 44.84375 C 34.001188 48.405246 37.0625 49.90625 37.0625 49.90625 L 37.53125 50.125 L 37.96875 49.875 C 37.96875 49.875 50 43.43711 50 27.21875 L 50 26.40625 L 49.21875 26.25 C 45.738246 25.497853 43.542503 24.469662 41.875 23.625 C 40.207497 22.780338 39.01891 22 37.5 22 z M 37.5 24 C 38.22509 24 39.235753 24.528412 40.96875 25.40625 C 42.543425 26.203891 44.802599 27.168986 47.9375 27.9375 C 47.60219 41.579461 38.780689 47.086713 37.5 47.8125 C 36.929434 47.511575 34.887452 46.395678 32.5 43.5625 C 29.842031 40.408299 27.236334 35.403277 27.0625 27.9375 C 30.197401 27.168986 32.456575 26.203891 34.03125 25.40625 C 35.764247 24.528412 36.77491 24 37.5 24 z" enable-background="accumulate" font-family="Bitstream Vera Sans" overflow="visible" style="text-indent:0;text-align:start;line-height:normal;text-transform:none;block-progression:tb;-inkscape-font-specification:Bitstream Vera Sans"/>
</svg>