<?xml version="1.0" encoding="UTF-8" standalone="no"?><svg xmlns="http://www.w3.org/2000/svg" enable-background="new 0 0 50 50" style="fill:#000000;fill-opacity:1.0" viewBox="0 0 50 50">
    <path color="#000" d="M 25 0 C 11.254545 0 0 11.254545 0 25 C 0 38.745455 11.254545 50 25 50 C 38.745455 50 50 38.745455 50 25 C 50 11.254545 38.745455 0 25 0 z M 25 2 C 37.654545 2 48 12.345455 48 25 C 48 37.654545 37.654545 48 25 48 C 12.345455 48 2 37.654545 2 25 C 2 12.345455 12.345455 2 25 2 z M 28 11.09375 C 21.639153 11.09375 18.607814 11.684238 16.53125 12.28125 C 14.454686 12.878262 13.558025 13.40625 11 13.40625 L 11 15.40625 C 13.841975 15.40625 15.139064 14.771738 17.0625 14.21875 C 18.985936 13.665762 21.760847 13.09375 28 13.09375 C 32.669298 13.09375 34.890385 13.701132 35.75 14.21875 C 36.179808 14.477559 36.284732 14.661307 36.34375 14.8125 C 36.40277 14.963693 36.40625 15.139583 36.40625 15.40625 C 36.40625 16.142614 36 16.6875 36 16.6875 A 1.0001 1.0001 0 0 0 36.4375 18.25 C 36.4375 18.25 36.827905 18.371101 37.21875 18.6875 C 37.609595 19.003899 37.90625 19.395139 37.90625 19.90625 C 37.90625 20.978799 36.9375 21.25 36.9375 21.25 A 1.0001 1.0001 0 0 0 36.84375 23.09375 C 36.84375 23.09375 37.90625 23.614951 37.90625 24.6875 C 37.90625 25.820833 36.78125 26.15625 36.78125 26.15625 A 1.0001 1.0001 0 0 0 36.125 27.25 C 36.125 27.25 36.3125 28.554167 36.3125 29.1875 C 36.3125 29.520833 35.855556 30.40625 34.5 30.40625 C 32.028205 30.40625 30.275021 29.907503 27.21875 29.5 C 26.429769 29.40896 25.719564 29.4908 25.125 29.8125 C 24.530436 30.134234 24.118709 30.699474 23.9375 31.28125 C 23.575082 32.444801 23.86301 33.674732 24.375 34.8125 A 1.0001 1.0001 0 0 0 24.40625 34.84375 C 24.96687 36.015956 25.565247 37.2173 25.875 38.3125 C 26.184753 39.4077 26.223152 40.293031 25.75 41.09375 A 1.0001 1.0001 0 0 0 25.71875 41.09375 C 25.485402 41.502109 24.803139 42.027815 24.4375 42.09375 C 24.254681 42.12672 24.214068 42.08332 24.1875 42.0625 C 24.162203 42.042673 24.057386 41.900798 24 41.5 C 23.9989 41.48834 24.0011 41.48038 24 41.46875 C 23.673589 38.125097 22.319992 35.994032 20.8125 34.5 C 19.306392 33.007339 17.724948 32.075871 16.78125 30.96875 C 15.888736 29.888339 15.141523 28.675541 14.3125 27.65625 C 13.483477 26.636959 12.433333 25.6875 11 25.6875 L 11 27.6875 C 11.566667 27.6875 12.054023 28.050541 12.75 28.90625 C 13.445977 29.761959 14.211264 31.030411 15.21875 32.25 A 1.0001 1.0001 0 0 0 15.25 32.25 C 16.507773 33.736459 18.118987 34.66173 19.40625 35.9375 C 20.693513 37.21327 21.720359 38.751264 22 41.6875 A 1.0001 1.0001 0 0 0 22 41.71875 C 22.09561 42.515494 22.417193 43.192699 22.96875 43.625 C 23.520307 44.057301 24.201569 44.135783 24.78125 44.03125 C 25.940611 43.822185 26.902098 43.085391 27.46875 42.09375 C 28.295598 40.694469 28.202747 39.1298 27.8125 37.75 C 27.426146 36.383962 26.755494 35.119726 26.21875 34 C 25.830745 33.137768 25.731168 32.236449 25.84375 31.875 C 25.90004 31.694276 25.93519 31.662641 26.0625 31.59375 C 26.185609 31.52713 26.489517 31.451553 26.96875 31.5 C 26.98079 31.5016 26.988 31.4984 27 31.5 C 29.922895 31.89189 31.782954 32.40625 34.5 32.40625 C 36.744444 32.40625 38.3125 30.854167 38.3125 29.1875 C 38.3125 28.516024 38.21861 28.066406 38.15625 27.625 C 38.885685 27.212363 39.90625 26.419608 39.90625 24.6875 C 39.90625 23.593652 39.410306 22.807112 38.90625 22.25 C 39.421907 21.73005 39.90625 20.980014 39.90625 19.90625 C 39.90625 18.617361 39.127905 17.689851 38.46875 17.15625 C 38.262919 16.989625 38.248917 17.018408 38.0625 16.90625 C 38.226772 16.486905 38.40625 16.022664 38.40625 15.40625 C 38.40625 15.172917 38.406607 14.655057 38.1875 14.09375 C 37.968393 13.532443 37.513942 12.972441 36.78125 12.53125 C 35.315865 11.648868 32.830702 11.09375 28 11.09375 z" enable-background="accumulate" font-family="Bitstream Vera Sans" overflow="visible" style="text-indent:0;text-align:start;line-height:normal;text-transform:none;block-progression:tb;-inkscape-font-specification:Bitstream Vera Sans"/>
</svg>