<?xml version="1.0" encoding="UTF-8" standalone="no"?><svg xmlns="http://www.w3.org/2000/svg" height="26" style="fill:#000000;fill-opacity:0.60784316" viewBox="0 0 26 26" width="26">
    <path d="M 9.9375 4 C 8.2815 4 6.691 5.344 6.375 7 L 4.09375 19 C 3.77775 20.656 4.87525 22 6.53125 22 L 20 22 C 21.656 22 23.2455 20.656 23.5625 19 L 25.875 7 C 26.191 5.344 25.0935 4 23.4375 4 L 9.9375 4 z M 8.1875 8 L 23.65625 8 L 21.5625 19 C 21.4575 19.551 20.926 20 20.375 20 L 6.90625 20 C 6.35525 20 5.98875 19.551 6.09375 19 L 8.1875 8 z M 0 9 L 0 11 L 4.0625 11 L 4.4375 9 L 0 9 z M 9.90625 10 A 1.0001 1.0001 0 0 0 9.03125 10.8125 L 8.03125 15.8125 A 1.0001 1.0001 0 0 0 9.03125 17 L 20.03125 17 A 1.0001 1.0001 0 0 0 21 16.1875 L 21.96875 11.1875 A 1.0001 1.0001 0 0 0 21 10 L 10 10 A 1.0001 1.0001 0 0 0 9.90625 10 z M 10.8125 12 L 19.78125 12 L 19.1875 15 L 10.21875 15 L 10.8125 12 z M 0 13 L 0 15 L 3.3125 15 L 3.6875 13 L 0 13 z M 0 17 L 0 19 L 2.5625 19 L 2.9375 17 L 0 17 z"/>
</svg>