<?xml version="1.0" encoding="UTF-8" standalone="no"?><svg xmlns="http://www.w3.org/2000/svg" height="50" style="fill:#000000;fill-opacity:1.0" viewBox="0 0 50 50" width="50">
    <path color="#000" d="M 18.5 8 C 16.304545 8 14.353627 9.6235063 13.875 11.78125 L 8.09375 37.78125 C 7.8544821 38.859917 8.0710647 39.926346 8.6875 40.71875 C 9.3039353 41.511154 10.308523 42 11.40625 42 L 39.5 42 C 41.695455 42 43.646373 40.376494 44.125 38.21875 L 49.90625 12.21875 C 50.145518 11.140083 49.928935 10.073654 49.3125 9.28125 C 48.696065 8.4888464 47.691477 8 46.59375 8 L 18.5 8 z M 18.5 10 L 46.59375 10 C 47.146023 10 47.489185 10.204904 47.71875 10.5 C 47.948315 10.795096 48.064232 11.209917 47.9375 11.78125 L 47.4375 14 L 15.40625 14 L 15.8125 12.21875 C 16.065873 11.076494 17.395455 10 18.5 10 z M 14.96875 16 L 47 16 L 42.1875 37.78125 C 41.934127 38.923506 40.604545 40 39.5 40 L 11.40625 40 C 10.853977 40 10.510815 39.795096 10.28125 39.5 C 10.051685 39.204904 9.9357679 38.790083 10.0625 38.21875 L 14.96875 16 z M 0 18 L 0 20 L 9.78125 20 L 10.21875 18 L 0 18 z M 18.375 19 A 1.0001 1.0001 0 0 0 17.59375 19.75 L 15.84375 26.75 A 1.0001 1.0001 0 0 0 16.8125 28 L 40.5 28 A 1.0001 1.0001 0 0 0 41.46875 27.25 L 43.21875 20.25 A 1.0001 1.0001 0 0 0 42.21875 19 L 18.5625 19 A 1.0001 1.0001 0 0 0 18.46875 19 A 1.0001 1.0001 0 0 0 18.375 19 z M 19.34375 21 L 40.9375 21 L 39.71875 26 L 18.125 26 L 19.34375 21 z M 0 26 L 0 28 L 8 28 L 8.4375 26 L 0 26 z M 0 34 L 0 36 L 6.21875 36 L 6.65625 34 L 0 34 z" enable-background="accumulate" font-family="Bitstream Vera Sans" overflow="visible" style="text-indent:0;text-align:start;line-height:normal;text-transform:none;block-progression:tb;-inkscape-font-specification:Bitstream Vera Sans"/>
</svg>