<?xml version="1.0" encoding="UTF-8" standalone="no"?><svg xmlns="http://www.w3.org/2000/svg" enable-background="new 0 0 50 50" style="fill:#000000;fill-opacity:1.0" viewBox="0 0 50 50">
    <path d="M 25 1 C 11.757011 1 1 11.757011 1 25 C 1 38.242989 11.757011 49 25 49 C 38.242989 49 49 38.242989 49 25 C 49 11.757011 38.242989 1 25 1 z M 25 3 C 37.162109 3 47 12.837891 47 25 C 47 37.162109 37.162109 47 25 47 C 12.837891 47 3 37.162109 3 25 C 3 12.837891 12.837891 3 25 3 z M 21 10 L 21 13 L 16 13 L 16 37 L 21 37 L 21 40 L 23 40 L 23 37 L 25 37 L 25 40 L 27 40 L 27 37 C 29.300921 36.934247 34.8125 36.26534 34.8125 30.1875 C 34.8125 25.9875 31.1875 24.60625 29.6875 24.40625 L 29.6875 24.3125 C 30.3875 24.1125 33.90625 23.00625 33.90625 18.90625 C 33.90625 13.796328 29.059525 13.090933 27 13 L 27 10 L 25 10 L 25 13 L 23 13 L 23 10 L 21 10 z M 18.3125 14.90625 L 26.1875 14.90625 C 29.7875 14.90625 31.59375 16.40625 31.59375 19.40625 C 31.59375 20.00625 31.5125 20.5 31.3125 21 C 31.1125 21.5 30.7125 21.9125 30.3125 22.3125 C 29.8125 22.7125 29.29375 22.9875 28.59375 23.1875 C 27.89375 23.3875 27.0875 23.5 26.1875 23.5 L 18.3125 23.5 L 18.3125 14.90625 z M 18.3125 25.5 L 26.1875 25.5 C 28.1875 25.5 29.80625 25.8875 30.90625 26.6875 C 32.00625 27.4875 32.5 28.6875 32.5 30.1875 C 32.5 31.1875 32.3 31.99375 32 32.59375 C 31.6 33.19375 31.19375 33.69375 30.59375 34.09375 C 29.99375 34.49375 29.39375 34.80625 28.59375 34.90625 C 27.89375 35.00625 27.0875 35.09375 26.1875 35.09375 L 18.3125 35.09375 L 18.3125 25.5 z"/>
</svg>