<?xml version="1.0" encoding="UTF-8" standalone="no"?><svg xmlns="http://www.w3.org/2000/svg" enable-background="new 0 0 26 26" style="fill:#000000;fill-opacity:0.60784316" version="1" viewBox="0 0 26 26">
    <path d="M 9 5 L 9 7 L 7 7 L 7 20 L 9 20 L 9 22 L 11 22 L 11 20 L 13 20 L 13 22 L 15 22 L 15 19.90625 C 15.267468 19.871098 15.553111 19.855731 15.8125 19.8125 C 16.4125 19.6125 16.90625 19.39375 17.40625 19.09375 C 17.80625 18.79375 18.2 18.40625 18.5 17.90625 C 18.8 17.40625 18.90625 16.8875 18.90625 16.1875 C 18.90625 15.3875 18.5875 14.69375 18.1875 14.09375 C 17.6875 13.49375 17.0875 13.10625 16.1875 12.90625 C 16.8875 12.60625 17.3875 12.2125 17.6875 11.8125 C 17.9875 11.4125 18.1875 10.8875 18.1875 10.1875 C 18.1875 9.5875 18.10625 9.0875 17.90625 8.6875 C 17.70625 8.2875 17.4 7.8875 17 7.6875 C 16.6 7.4875 16.19375 7.2875 15.59375 7.1875 C 15.396667 7.1546529 15.200627 7.1230531 15 7.09375 L 15 5 L 13 5 L 13 7 L 11 7 L 11 5 L 9 5 z M 10 9 L 12.90625 9 C 13.20625 9 13.4875 8.99375 13.6875 9.09375 C 13.9875 9.09375 14.20625 9.2125 14.40625 9.3125 C 14.60625 9.4125 14.80625 9.4875 14.90625 9.6875 C 15.00625 9.8875 15.09375 10.10625 15.09375 10.40625 C 15.09375 11.00625 14.99375 11.39375 14.59375 11.59375 C 14.19375 11.89375 13.7875 12 13.1875 12 L 10 12 L 10 9 z M 10 14 L 13.5 14 C 14.2 14 14.8125 14.2 15.3125 14.5 C 15.8125 14.8 16 15.39375 16 16.09375 C 16 16.39375 15.9125 16.8 15.8125 17 C 15.6125 17.3 15.3875 17.49375 15.1875 17.59375 C 14.9875 17.69375 14.70625 17.80625 14.40625 17.90625 C 14.10625 18.00625 13.70625 18 13.40625 18 L 10 18 L 10 14 z"/>
</svg>