<?xml version="1.0" encoding="UTF-8" standalone="no"?><svg xmlns="http://www.w3.org/2000/svg" height="50" style="fill:#000000;fill-opacity:1.0" viewBox="0 0 50 50" width="50">
    <path color="#000" d="M 17 0 C 12.81114 0 9.7658283 1.4098509 7.8125 3.40625 C 5.8591717 5.4026491 5 7.9165831 5 10.15625 C 5 13.591973 6.7671656 16.177287 9.125 17.75 C 11.482834 19.322713 14.40754 20 17 20 C 18.431554 20 19.960967 19.779563 21.4375 19.3125 C 23.921185 21.914246 27.733912 23 31 23 C 33.601792 23 36.519219 22.275181 38.875 20.65625 C 41.230781 19.037319 43 16.438908 43 12.96875 C 43 7.4565778 38.186542 3 31 3 C 29.292975 3 27.798397 3.2470076 26.46875 3.65625 C 24.363702 1.4230139 21.061812 0 17 0 z M 17 2 C 20.740177 2 23.519491 3.2315878 25.1875 5.125 A 1.0001 1.0001 0 0 0 25.625 5.65625 C 26.533756 6.903128 27 8.3811861 27 9.96875 C 27 12.783592 25.688719 14.667681 23.75 16 C 23.146431 16.414782 22.480399 16.776646 21.78125 17.0625 A 1.0001 1.0001 0 0 0 20.875 17.375 C 19.583362 17.789963 18.23844 18 17 18 C 14.77046 18 12.186666 17.385537 10.25 16.09375 C 8.3133344 14.801963 7 12.928527 7 10.15625 C 7 8.4309169 7.6885783 6.3771009 9.25 4.78125 C 10.811422 3.1853991 13.24786 2 17 2 z M 31 5 C 37.399458 5 41 8.5909222 41 12.96875 C 41 15.783592 39.688719 17.667681 37.75 19 C 35.811281 20.332319 33.220208 21 31 21 C 28.455664 21 25.476009 20.172833 23.46875 18.5 C 23.957535 18.253438 24.421573 17.967852 24.875 17.65625 C 27.230781 16.037319 29 13.438908 29 9.96875 C 29 8.2946804 28.538339 6.7278214 27.71875 5.34375 C 28.682214 5.1118474 29.766417 5 31 5 z M 4 17 C 1.8927791 17 0 18.47076 0 20.5 C 0 22.52924 1.8927791 24 4 24 C 6.1072209 24 8 22.52924 8 20.5 C 8 18.47076 6.1072209 17 4 17 z M 46 18 C 43.892779 18 42 19.47076 42 21.5 C 42 23.52924 43.892779 25 46 25 C 48.107221 25 50 23.52924 50 21.5 C 50 19.47076 48.107221 18 46 18 z M 4 19 C 5.2064875 19 6 19.767816 6 20.5 C 6 21.232184 5.2064875 22 4 22 C 2.7935125 22 2 21.232184 2 20.5 C 2 19.767816 2.7935125 19 4 19 z M 46 20 C 47.206487 20 48 20.767816 48 21.5 C 48 22.232184 47.206487 23 46 23 C 44.793513 23 44 22.232184 44 21.5 C 44 20.767816 44.793513 20 46 20 z M 12.4375 24 C 9.5190513 24.05228 7.4982071 25.277565 6.65625 27.15625 C 5.8800698 28.888165 6.056375 30.963237 6.5625 33.09375 C 6.2684958 33.507141 6.0706981 34.028435 6.15625 34.71875 C 6.252299 35.498473 6.4578848 36.089474 6.8125 36.53125 C 6.9649861 36.721216 7.1852358 36.727218 7.375 36.84375 C 7.5023676 37.442751 7.6535418 38.038571 7.90625 38.53125 C 8.0678908 38.846384 8.2185575 39.128003 8.40625 39.375 C 8.452204 39.43547 8.547668 39.47414 8.59375 39.53125 C 8.59853 40.1571 8.612115 40.696649 8.5625 41.34375 C 8.4164934 41.658194 8.0675092 41.975169 7.375 42.3125 C 6.6427321 42.669198 5.6544646 43.005546 4.625 43.4375 C 3.5955354 43.869454 2.5074099 44.377906 1.625 45.25 C 0.74259015 46.122094 0.09616585 47.372911 0 48.9375 L -0.0625 50 L 1 50 L 24 50 L 24.9375 50 L 25.0625 50 L 26 50 L 49 50 L 50.0625 50 L 50 48.9375 C 49.90389 47.373868 49.254163 46.122378 48.375 45.25 C 47.495837 44.377622 46.431878 43.869644 45.40625 43.4375 C 44.380622 43.005356 43.385374 42.669108 42.65625 42.3125 C 41.966714 41.975255 41.615022 41.659586 41.46875 41.34375 C 41.41928 40.69717 41.43253 40.157803 41.4375 39.53125 C 41.48314 39.47354 41.579756 39.43585 41.625 39.375 C 41.809793 39.126468 41.967974 38.81507 42.125 38.5 C 42.369297 38.009822 42.500967 37.435055 42.625 36.84375 C 42.814764 36.727218 43.035014 36.721216 43.1875 36.53125 C 43.542115 36.089474 43.747702 35.498473 43.84375 34.71875 C 43.92311 34.07096 43.76126 33.561917 43.5 33.15625 C 43.795877 32.171093 44.092513 30.734603 43.96875 29.1875 C 43.89676 28.287569 43.678323 27.383018 43.09375 26.59375 C 42.561046 25.874514 41.676302 25.37029 40.625 25.15625 C 39.855412 24.354345 38.718993 24 37.4375 24 C 34.519051 24.05228 32.498207 25.277565 31.65625 27.15625 C 30.88007 28.888165 31.056375 30.963237 31.5625 33.09375 C 31.268496 33.507141 31.070698 34.028435 31.15625 34.71875 C 31.2523 35.498473 31.457885 36.089474 31.8125 36.53125 C 31.964986 36.721216 32.185236 36.727218 32.375 36.84375 C 32.502368 37.442751 32.653542 38.038571 32.90625 38.53125 C 33.067891 38.846384 33.218558 39.128003 33.40625 39.375 C 33.4522 39.43547 33.547668 39.47414 33.59375 39.53125 C 33.59855 40.1571 33.61212 40.696649 33.5625 41.34375 C 33.416493 41.658194 33.067509 41.975169 32.375 42.3125 C 31.642732 42.669198 30.654465 43.005546 29.625 43.4375 C 28.595535 43.869454 27.50741 44.377906 26.625 45.25 C 25.74259 46.122094 25.096166 47.372911 25 48.9375 C 24.90389 47.373868 24.254163 46.122378 23.375 45.25 C 22.495837 44.377622 21.431878 43.869644 20.40625 43.4375 C 19.380622 43.005356 18.385374 42.669108 17.65625 42.3125 C 16.966714 41.975255 16.615022 41.659586 16.46875 41.34375 C 16.41928 40.69717 16.43253 40.157803 16.4375 39.53125 C 16.48314 39.47354 16.579756 39.43585 16.625 39.375 C 16.809793 39.126468 16.967974 38.81507 17.125 38.5 C 17.369297 38.009822 17.500967 37.435055 17.625 36.84375 C 17.814764 36.727218 18.035014 36.721216 18.1875 36.53125 C 18.542115 36.089474 18.747702 35.498473 18.84375 34.71875 C 18.92311 34.07096 18.76126 33.561917 18.5 33.15625 C 18.795877 32.171093 19.092513 30.734603 18.96875 29.1875 C 18.89676 28.287569 18.678323 27.383018 18.09375 26.59375 C 17.561046 25.874514 16.676302 25.37029 15.625 25.15625 C 14.855412 24.354345 13.718993 24 12.4375 24 z M 2 26 C 0.8954305 26 0 26.671573 0 27.5 C 0 28.328427 0.8954305 29 2 29 C 3.1045695 29 4 28.328427 4 27.5 C 4 26.671573 3.1045695 26 2 26 z M 12.4375 26 C 12.45524 26 12.45125 25.999832 12.46875 26 C 13.601649 26.01088 14.241921 26.357587 14.34375 26.53125 L 14.59375 26.96875 L 15.09375 27.03125 C 15.852236 27.134204 16.191042 27.406299 16.46875 27.78125 C 16.746458 28.156201 16.947367 28.685806 17 29.34375 C 17.105267 30.659638 16.68677 32.298882 16.4375 33.03125 L 16.1875 33.8125 L 16.8125 34.1875 C 16.83916 34.220513 16.895745 34.29943 16.875 34.46875 C 16.81233 34.977501 16.675293 35.183082 16.625 35.25 L 15.90625 35.3125 L 15.8125 36.15625 C 15.7646 36.595284 15.569449 37.172139 15.34375 37.625 C 15.230901 37.85143 15.092175 38.032282 15 38.15625 C 14.953915 38.218234 14.891859 38.262746 14.875 38.28125 L 14.4375 38.53125 L 14.4375 39.15625 C 14.4375 40.001226 14.40592 40.699918 14.5 41.71875 L 14.5 41.84375 L 14.5625 42 C 14.96558 43.058656 15.866186 43.646201 16.78125 44.09375 C 17.696314 44.541299 18.695878 44.889769 19.625 45.28125 C 20.554122 45.672731 21.386226 46.109471 21.96875 46.6875 C 22.3306 47.046558 22.571842 47.48164 22.75 48 L 2.25 48 C 2.4286369 47.482058 2.6677864 47.046715 3.03125 46.6875 C 3.6163714 46.109219 4.4418396 45.672796 5.375 45.28125 C 6.3081604 44.889704 7.3319867 44.540927 8.25 44.09375 C 9.1680133 43.646573 10.064674 43.059891 10.46875 42 L 10.53125 41.84375 L 10.53125 41.71875 C 10.62527 40.700544 10.59375 40.000963 10.59375 39.15625 L 10.59375 38.53125 L 10.125 38.28125 C 10.148715 38.299253 10.142544 38.291016 10.0625 38.25 C 10.036216 38.227215 10.029803 38.19547 10 38.15625 C 9.90463 38.030747 9.8036092 37.851366 9.6875 37.625 C 9.4552816 37.172268 9.2344925 36.586956 9.1875 36.15625 L 9.09375 35.3125 L 8.375 35.25 C 8.324707 35.18308 8.1876695 34.977501 8.125 34.46875 C 8.1041015 34.30012 8.1599809 34.22107 8.1875 34.1875 L 8.78125 33.84375 L 8.59375 33.09375 C 8.0370315 31.000128 7.9727071 29.145315 8.5 27.96875 C 9.0243869 26.798669 10.026129 26.051236 12.4375 26 z M 37.4375 26 C 37.45524 26 37.45125 25.999832 37.46875 26 C 38.601649 26.01088 39.241921 26.357587 39.34375 26.53125 L 39.59375 26.96875 L 40.09375 27.03125 C 40.852236 27.134204 41.191042 27.406299 41.46875 27.78125 C 41.746458 28.156201 41.947367 28.685806 42 29.34375 C 42.105267 30.659638 41.68677 32.298882 41.4375 33.03125 L 41.1875 33.8125 L 41.8125 34.1875 C 41.83916 34.220513 41.895745 34.29943 41.875 34.46875 C 41.81233 34.977501 41.675293 35.183082 41.625 35.25 L 40.90625 35.3125 L 40.8125 36.15625 C 40.7646 36.595284 40.569449 37.172139 40.34375 37.625 C 40.230901 37.85143 40.092175 38.032282 40 38.15625 C 39.953915 38.218234 39.891859 38.262746 39.875 38.28125 L 39.4375 38.53125 L 39.4375 39.15625 C 39.4375 40.001226 39.40592 40.699918 39.5 41.71875 L 39.5 41.84375 L 39.5625 42 C 39.96558 43.058656 40.866186 43.646201 41.78125 44.09375 C 42.696314 44.541299 43.695878 44.889769 44.625 45.28125 C 45.554122 45.672731 46.386226 46.109471 46.96875 46.6875 C 47.3306 47.046558 47.571842 47.48164 47.75 48 L 27.25 48 C 27.428637 47.482058 27.667786 47.046715 28.03125 46.6875 C 28.616371 46.109219 29.44184 45.672796 30.375 45.28125 C 31.30816 44.889704 32.331987 44.540927 33.25 44.09375 C 34.168013 43.646573 35.064674 43.059891 35.46875 42 L 35.53125 41.84375 L 35.53125 41.71875 C 35.62527 40.700544 35.59375 40.000963 35.59375 39.15625 L 35.59375 38.53125 L 35.125 38.28125 C 35.148715 38.299254 35.142544 38.291015 35.0625 38.25 C 35.036216 38.227215 35.029803 38.195469 35 38.15625 C 34.90463 38.030747 34.803609 37.851366 34.6875 37.625 C 34.455282 37.172268 34.234493 36.586956 34.1875 36.15625 L 34.09375 35.3125 L 33.375 35.25 C 33.32471 35.18308 33.187669 34.977501 33.125 34.46875 C 33.1041 34.30012 33.159981 34.22107 33.1875 34.1875 L 33.78125 33.84375 L 33.59375 33.09375 C 33.037032 31.000128 32.972707 29.145315 33.5 27.96875 C 34.024387 26.798669 35.026129 26.051236 37.4375 26 z M 48 27 C 46.895431 27 46 27.671573 46 28.5 C 46 29.328427 46.895431 30 48 30 C 49.104569 30 50 29.328427 50 28.5 C 50 27.671573 49.104569 27 48 27 z" enable-background="accumulate" font-family="Bitstream Vera Sans" overflow="visible" style="text-indent:0;text-align:start;line-height:normal;text-transform:none;block-progression:tb;-inkscape-font-specification:Bitstream Vera Sans"/>
</svg>