<?xml version="1.0" encoding="UTF-8" standalone="no"?><svg xmlns="http://www.w3.org/2000/svg" enable-background="new 0 0 50 50" style="fill:#000000;fill-opacity:1.0" viewBox="0 0 50 50">
    <path color="#000" d="M 3 5 C 1.3545455 5 0 6.3545455 0 8 L 0 31 L 0 32 A 1.0001 1.0001 0 0 0 0 32.09375 L 0 42 C 0 43.645455 1.3545455 45 3 45 L 47 45 C 48.645455 45 50 43.645455 50 42 L 50 32.15625 A 1.0001 1.0001 0 0 0 50 32 L 50 31 L 50 8 C 50 6.3545455 48.645455 5 47 5 L 3 5 z M 3 7 L 47 7 C 47.554545 7 48 7.4454545 48 8 L 48 31 L 2 31 L 2 8 C 2 7.4454545 2.4454545 7 3 7 z M 2 33 L 48 33 L 48 42 C 48 42.554545 47.554545 43 47 43 L 3 43 C 2.4454545 43 2 42.554545 2 42 L 2 33 z M 7 35 C 5.3549901 35 4 36.354991 4 38 C 4 39.645009 5.3549901 41 7 41 C 8.6450099 41 10 39.645009 10 38 C 10 36.354991 8.6450099 35 7 35 z M 14 35 C 12.35499 35 11 36.35499 11 38 C 11 39.64501 12.35499 41 14 41 C 15.64501 41 17 39.64501 17 38 C 17 36.35499 15.64501 35 14 35 z M 19.8125 35 A 1.0001 1.0001 0 0 0 19 36 L 19 40 A 1.0001 1.0001 0 0 0 20 41 L 45 41 A 1.0001 1.0001 0 0 0 46 40 L 46 36 A 1.0001 1.0001 0 0 0 45 35 L 20 35 A 1.0001 1.0001 0 0 0 19.90625 35 A 1.0001 1.0001 0 0 0 19.8125 35 z M 7 37 C 7.5641291 37 8 37.435871 8 38 C 8 38.564129 7.5641291 39 7 39 C 6.4358709 39 6 38.564129 6 38 C 6 37.435871 6.4358709 37 7 37 z M 14 37 C 14.564128 37 15 37.435872 15 38 C 15 38.564128 14.564128 39 14 39 C 13.435872 39 13 38.564128 13 38 C 13 37.435872 13.435872 37 14 37 z M 21 37 L 44 37 L 44 39 L 21 39 L 21 37 z" enable-background="accumulate" font-family="Bitstream Vera Sans" overflow="visible" style="text-indent:0;text-align:start;line-height:normal;text-transform:none;block-progression:tb;-inkscape-font-specification:Bitstream Vera Sans"/>
</svg>