<?xml version="1.0" encoding="UTF-8" standalone="no"?><svg xmlns="http://www.w3.org/2000/svg" enable-background="new 0 0 50 50" style="fill:#000000;fill-opacity:1.0" viewBox="0 0 50 50">
    <path color="#000" d="M 15.5 1 A 1.0001 1.0001 0 0 0 15.0625 1.15625 L 0.46875 10.5625 A 1.0001 1.0001 0 0 0 0.40625 12.1875 L 9.34375 18.96875 L 0.40625 25.6875 A 1.0001 1.0001 0 0 0 0.5 27.375 L 9 32.375 L 9 39.09375 A 1.0001 1.0001 0 0 0 9.4375 39.9375 L 24.4375 49.84375 A 1.0001 1.0001 0 0 0 25.5625 49.84375 L 40.5625 40.03125 A 1.0001 1.0001 0 0 0 41 39.1875 L 41 32.4375 L 49.5 27.34375 A 1.0001 1.0001 0 0 0 49.65625 25.75 L 41.25 18.625 L 49.625 11.78125 A 1.0001 1.0001 0 0 0 49.53125 10.15625 L 35.34375 1.15625 A 1.0001 1.0001 0 0 0 34.65625 1 A 1.0001 1.0001 0 0 0 34.15625 1.21875 L 25.03125 8.8125 L 16.25 1.25 A 1.0001 1.0001 0 0 0 15.5 1 z M 15.53125 3.25 L 23.34375 9.96875 L 11.03125 17.78125 L 2.75 11.46875 L 15.53125 3.25 z M 34.875 3.25 L 47.28125 11.09375 L 39.59375 17.375 L 26.75 9.9375 L 34.875 3.25 z M 25 11.28125 L 37.75 18.625 L 24.96875 26.625 L 12.875 19 L 25 11.28125 z M 39.59375 19.8125 L 47.3125 26.375 L 39.6875 30.9375 L 39.59375 30.96875 A 1.0001 1.0001 0 0 0 39.34375 31.125 L 34.6875 33.90625 L 26.75 27.875 L 39.59375 19.8125 z M 11.0625 20.21875 L 23.25 27.875 L 15.53125 33.90625 L 2.8125 26.40625 L 11.0625 20.21875 z M 25.03125 29.0625 L 34 35.90625 A 1.0001 1.0001 0 0 0 35.125 35.96875 L 39 33.65625 L 39 38.65625 L 25 47.78125 L 11 38.53125 L 11 33.5625 L 15.09375 35.96875 A 1.0001 1.0001 0 0 0 16.21875 35.875 L 25.03125 29.0625 z" enable-background="accumulate" font-family="Bitstream Vera Sans" overflow="visible" style="text-indent:0;text-align:start;line-height:normal;text-transform:none;block-progression:tb;-inkscape-font-specification:Bitstream Vera Sans"/>
</svg>