<?xml version="1.0" encoding="UTF-8" standalone="no"?><svg xmlns="http://www.w3.org/2000/svg" style="fill:#000000;fill-opacity:0.60784316" viewBox="0 0 32 32">
    <path d="M 16 4 C 11.169 4 6.99475 6.876 5.09375 11 L 7.34375 11 C 8.42075 9.145 10.0765 7.6665 12.0625 6.8125 C 11.3985 7.9395 10.857 9.365 10.5 11 L 12.59375 11 C 13.35275 7.961 14.723 6 16 6 C 17.277 6 18.64725 7.961 19.40625 11 L 21.5 11 C 21.143 9.365 20.6015 7.9395 19.9375 6.8125 C 21.9235 7.6665 23.57925 9.145 24.65625 11 L 26.90625 11 C 25.00525 6.876 20.831 4 16 4 z M 4 13 L 5.5 19 L 6.96875 19 C 6.96875 19 8.00725 15.36675 8.03125 15.09375 L 8.0625 15.09375 C 8.0735 15.34175 9.09375 19 9.09375 19 L 10.5 19 L 12 13 L 10.71875 13 C 10.71875 13 9.85375 16.5915 9.84375 16.8125 L 9.8125 16.8125 C 9.7855 16.5305 8.8125 13 8.8125 13 L 7.4375 13 C 7.4375 13 6.29125 16.62875 6.28125 16.84375 C 6.26625 16.55675 5.40625 13 5.40625 13 L 4 13 z M 12 13 L 13.5 19 L 14.96875 19 C 14.96875 19 16.00825 15.36675 16.03125 15.09375 L 16.0625 15.09375 C 16.0735 15.34175 17.09375 19 17.09375 19 L 18.5 19 L 20 13 L 18.71875 13 C 18.71875 13 17.85375 16.5915 17.84375 16.8125 L 17.8125 16.8125 C 17.7855 16.5305 16.8125 13 16.8125 13 L 15.4375 13 C 15.4375 13 14.29125 16.62875 14.28125 16.84375 C 14.26625 16.55675 13.40625 13 13.40625 13 L 12 13 z M 20 13 L 21.5 19 L 22.96875 19 C 22.96875 19 24.00825 15.36675 24.03125 15.09375 L 24.0625 15.09375 C 24.0735 15.34175 25.09375 19 25.09375 19 L 26.5 19 L 28 13 L 26.71875 13 C 26.71875 13 25.85375 16.5915 25.84375 16.8125 L 25.8125 16.8125 C 25.7855 16.5305 24.8125 13 24.8125 13 L 23.4375 13 C 23.4375 13 22.29125 16.62875 22.28125 16.84375 C 22.26625 16.55675 21.40625 13 21.40625 13 L 20 13 z M 5.09375 21 C 6.99475 25.124 11.169 28 16 28 C 20.831 28 25.00525 25.124 26.90625 21 L 24.65625 21 C 23.57925 22.855 21.9235 24.3335 19.9375 25.1875 C 20.6015 24.0605 21.143 22.635 21.5 21 L 19.40625 21 C 18.64725 24.039 17.278 26 16 26 C 14.722 26 13.35275 24.039 12.59375 21 L 10.5 21 C 10.857 22.635 11.3985 24.0605 12.0625 25.1875 C 10.0765 24.3335 8.42075 22.855 7.34375 21 L 5.09375 21 z"/>
</svg>