<?xml version="1.0" encoding="UTF-8" standalone="no"?><svg xmlns="http://www.w3.org/2000/svg" height="50" style="fill:#000000;fill-opacity:1.0" viewBox="0 0 50 50" width="50">
    <path d="M 25 0 C 13.738842 0 4.2155165 7.4656852 1.09375 17.71875 A 1.0001 1.0001 0 1 0 3 18.28125 C 3.819361 15.590158 5.133612 13.109688 6.8125 10.9375 C 8.7293945 11.989992 10.952205 12.865328 13.4375 13.53125 C 13.074011 14.903012 12.760167 16.34005 12.53125 17.84375 A 1.0001 1.0001 0 1 0 14.5 18.15625 C 14.721639 16.700354 15.023012 15.314081 15.375 14 C 18.049486 14.570594 20.952109 14.908023 24 14.96875 L 24 18 L 26 18 L 26 14.96875 C 29.051232 14.907577 31.948931 14.573384 34.625 14 C 34.976983 15.314076 35.278213 16.700355 35.5 18.15625 A 1.0001 1.0001 0 1 0 37.46875 17.84375 C 37.23968 16.340049 36.92599 14.903017 36.5625 13.53125 C 39.041503 12.864758 41.273647 11.98873 43.1875 10.9375 C 44.866388 13.109688 46.180639 15.590158 47 18.28125 A 1.0001 1.0001 0 1 0 48.90625 17.71875 C 45.784484 7.4656852 36.261158 0 25 0 z M 24 2.09375 L 24 12.96875 C 21.145867 12.907572 18.428449 12.586866 15.9375 12.0625 C 16.673708 9.855058 17.594245 7.9263982 18.625 6.375 C 20.24057 3.9433916 22.088049 2.4735585 24 2.09375 z M 26 2.09375 C 27.911451 2.4735485 29.759301 3.9433482 31.375 6.375 C 32.405838 7.9264258 33.326369 9.8550655 34.0625 12.0625 C 31.568603 12.584899 28.855017 12.907843 26 12.96875 L 26 2.09375 z M 19 2.8125 C 18.282429 3.5252202 17.583329 4.3249927 16.96875 5.25 C 15.785341 7.0311588 14.792283 9.1942406 14 11.625 C 11.783316 11.033834 9.8141097 10.25963 8.125 9.375 C 11.012671 6.2545977 14.770505 3.9546287 19 2.8125 z M 31 2.8125 C 35.23713 3.9566902 38.985212 6.2773112 41.875 9.40625 C 40.191944 10.283394 38.20523 11.008085 36 11.59375 C 35.209177 9.1744097 34.210186 7.0243159 33.03125 5.25 C 32.416643 4.3250074 31.717654 3.5252188 31 2.8125 z M 1 20.96875 L 3.8125 29.5 L 5.71875 29.5 L 7.90625 22.96875 L 7.9375 22.96875 L 10.0625 29.5 L 11.96875 29.5 L 14.90625 20.96875 L 13 20.96875 L 11.03125 27.5 L 11 27.5 L 8.90625 20.96875 L 7 20.96875 L 4.84375 27.5 L 4.8125 27.5 L 2.90625 20.96875 L 1 20.96875 z M 18.0625 20.96875 L 20.84375 29.5 L 22.78125 29.5 L 24.96875 22.96875 L 25 22.96875 L 27.125 29.5 L 29 29.5 L 31.9375 20.96875 L 30.0625 20.96875 L 28.0625 27.5 L 28.03125 27.5 L 25.96875 20.96875 L 24.0625 20.96875 L 21.90625 27.5 L 21.875 27.5 L 19.9375 20.96875 L 18.0625 20.96875 z M 35.09375 20.96875 L 37.90625 29.5 L 39.84375 29.5 L 42 22.96875 L 42.03125 22.96875 L 44.15625 29.5 L 46.0625 29.5 L 49 20.96875 L 47.09375 20.96875 L 45.125 27.5 L 45.09375 27.5 L 43 20.96875 L 41.09375 20.96875 L 38.9375 27.5 L 37 20.96875 L 35.09375 20.96875 z M 36.5 30.90625 A 1.0001 1.0001 0 0 0 35.5 31.84375 C 35.278213 33.299645 34.976983 34.685924 34.625 36 C 31.947252 35.427908 29.051963 35.092064 26 35.03125 L 26 32 L 24 32 L 24 35.03125 C 20.94844 35.092424 18.051002 35.426612 15.375 36 C 15.023012 34.685919 14.721639 33.299646 14.5 31.84375 A 1.0001 1.0001 0 0 0 13.34375 31 A 1.0001 1.0001 0 0 0 12.53125 32.15625 C 12.760167 33.65995 13.074011 35.096988 13.4375 36.46875 C 10.958603 37.135245 8.7262908 38.011281 6.8125 39.0625 C 5.133612 36.890312 3.819361 34.409842 3 31.71875 A 1.0001 1.0001 0 0 0 1.8125 31 A 1.0001 1.0001 0 0 0 1.09375 32.28125 C 4.2155165 42.534315 13.738842 50 25 50 C 36.261158 50 45.784484 42.534315 48.90625 32.28125 A 1.0001 1.0001 0 1 0 47 31.71875 C 46.180639 34.409842 44.866388 36.890312 43.1875 39.0625 C 41.27055 38.009998 39.047904 37.134669 36.5625 36.46875 C 36.92599 35.096983 37.23968 33.659951 37.46875 32.15625 A 1.0001 1.0001 0 0 0 36.5 30.90625 z M 24 37.03125 L 24 47.90625 C 22.088049 47.526442 20.24057 46.056609 18.625 43.625 C 17.594245 42.073602 16.673708 40.144942 15.9375 37.9375 C 18.43132 37.415105 21.144656 37.092156 24 37.03125 z M 26 37.03125 C 28.853803 37.092429 31.57147 37.41313 34.0625 37.9375 C 33.326369 40.144935 32.405838 42.073574 31.375 43.625 C 29.759301 46.056651 27.911451 47.526451 26 47.90625 L 26 37.03125 z M 36 38.375 C 38.216799 38.966168 40.185853 39.740379 41.875 40.625 C 38.987329 43.745402 35.229495 46.045371 31 47.1875 C 31.717654 46.474781 32.416643 45.674993 33.03125 44.75 C 34.214714 42.968869 35.207785 40.805767 36 38.375 z M 14 38.40625 C 14.790891 40.825582 15.789868 42.975656 16.96875 44.75 C 17.583329 45.675007 18.282429 46.47478 19 47.1875 C 14.76287 46.04331 11.014788 43.722689 8.125 40.59375 C 9.8080102 39.716597 11.794881 38.991912 14 38.40625 z" style="text-indent:0;text-align:start;line-height:normal;text-transform:none;block-progression:tb;-inkscape-font-specification:Bitstream Vera Sans"/>
</svg>