<?xml version="1.0" encoding="UTF-8" standalone="no"?><svg xmlns="http://www.w3.org/2000/svg" height="50" style="fill:#000000;fill-opacity:1.0" viewBox="0 0 50 50" width="50">
    <path color="#000" d="M 41 0 C 40.205077 0 39.537373 0.42846826 39.03125 0.9375 C 38.525127 1.4465317 38.092446 2.0913303 37.625 2.8125 C 36.690108 4.2548394 35.637129 6.0470187 34.125 7.84375 C 31.121737 11.412267 26.419093 14.951046 17.1875 15 C 17.122966 15.000342 17.064979 15 17 15 L 16.90625 15 L 6.3125 15 C 2.8494714 15 0 17.808194 0 21.25 L 0 24.75 C 0 27.150615 1.39247 29.235002 3.40625 30.28125 C 3.418342 30.287532 3.4253629 30.306293 3.4375 30.3125 A 1.0001 1.0001 0 0 0 3.46875 30.34375 C 3.9386821 30.675513 4.828966 32.160634 5.625 34.71875 C 6.421034 37.276866 7.2401734 40.868112 8.125 45.5 C 8.294623 46.387432 8.573603 47.286402 9.25 47.96875 C 9.926397 48.651098 10.950825 49 12.15625 49 L 15.625 49 C 16.664757 49 17.592551 48.643882 18.1875 47.96875 C 18.782449 47.293618 19 46.420851 19 45.53125 C 19 44.67359 18.838309 43.92533 18.46875 43.28125 C 18.099191 42.63717 17.584426 42.115168 16.96875 41.5 C 16.94497 41.47626 16.263082 40.398023 15.8125 38.5 C 15.404333 36.780647 15.09078 34.27885 15.03125 31 L 16.84375 31 L 17 31 C 17.032093 31 17.061765 30.999917 17.09375 31 C 26.447015 31.024172 31.164241 34.576863 34.15625 38.15625 C 35.657371 39.952064 36.695174 41.743695 37.625 43.1875 C 38.089913 43.909402 38.522179 44.55211 39.03125 45.0625 C 39.540321 45.57289 40.203556 46 41 46 L 41.09375 46 C 41.484582 46 41.902402 45.797096 42.15625 45.53125 C 42.410098 45.265404 42.547753 44.957906 42.6875 44.59375 C 42.966995 43.865438 43.186505 42.853391 43.375 41.25 C 43.67843 38.668936 43.894497 34.457968 43.96875 28 L 44 28 C 46.748761 28 49 25.749818 49 23 C 49 20.250182 46.748761 18 44 18 L 43.9375 18 C 43.85294 11.542214 43.635833 7.3333556 43.3125 4.75 C 43.11164 3.1451778 42.911893 2.1326604 42.625 1.40625 C 42.481554 1.0430448 42.313863 0.7309225 42.0625 0.46875 C 41.811137 0.2065775 41.395901 0 41 0 z M 40.75 2.15625 C 40.919113 2.5916563 41.155468 3.4956699 41.34375 5 C 41.661327 7.5373674 41.896518 11.938511 41.96875 18.78125 A 1.001098 1.001098 0 0 0 41.96875 18.875 C 41.968854 18.885081 41.968647 18.896158 41.96875 18.90625 A 1.001098 1.001098 0 0 0 41.96875 19.1875 C 41.980505 20.431225 42 21.582641 42 23 C 42 32.482088 41.732761 37.956782 41.375 41 C 41.19612 42.521609 40.976724 43.447062 40.8125 43.875 C 40.71694 43.83911 40.641033 43.86031 40.4375 43.65625 C 40.128379 43.346328 39.753228 42.809348 39.3125 42.125 C 38.431045 40.756305 37.321004 38.797936 35.6875 36.84375 C 32.533174 33.070181 27.297612 29.288806 18 29.03125 L 18 16.96875 C 27.249154 16.711078 32.481906 12.928046 35.65625 9.15625 C 37.300121 7.2029813 38.424392 5.2451606 39.3125 3.875 C 39.756554 3.1899197 40.159248 2.6550308 40.46875 2.34375 C 40.634069 2.1774805 40.661926 2.2025225 40.75 2.15625 z M 6.3125 17 L 16 17 L 16 29 L 14.1875 29 L 13.78125 29 L 6.3125 29 C 3.9135286 29 2 27.104194 2 24.75 L 2 21.25 C 2 18.895806 3.9135286 17 6.3125 17 z M 43.96875 20 L 44 20 C 45.667239 20 47 21.331818 47 23 C 47 24.668182 45.667239 26 44 26 C 44.006607 24.992489 44 24.114266 44 23 C 44 21.885479 43.976311 21.0076 43.96875 20 z M 6.34375 31 L 13.03125 31 C 13.091533 34.424406 13.424805 37.072361 13.875 38.96875 C 14.369668 41.052477 14.841276 42.185994 15.5625 42.90625 C 16.157824 43.501082 16.521559 43.93758 16.71875 44.28125 C 16.915941 44.62492 17 44.91191 17 45.53125 C 17 46.108649 16.856801 46.464132 16.6875 46.65625 C 16.518199 46.848368 16.268243 47 15.625 47 L 12.15625 47 C 11.308675 47 10.948853 46.794902 10.6875 46.53125 C 10.426147 46.267598 10.226127 45.817568 10.09375 45.125 C 9.2025766 40.459888 8.370466 36.821884 7.53125 34.125 C 7.1452313 32.8845 6.7556162 31.858718 6.34375 31 z" enable-background="accumulate" font-family="Bitstream Vera Sans" overflow="visible" style="text-indent:0;text-align:start;line-height:normal;text-transform:none;block-progression:tb;-inkscape-font-specification:Bitstream Vera Sans"/>
</svg>