<?xml version="1.0" encoding="UTF-8" standalone="no"?><svg xmlns="http://www.w3.org/2000/svg" style="fill:#000000;fill-opacity:0.60784316" viewBox="0 0 32 32">
    <path color="#000" d="M 30 4.65625 L 28.71875 5.03125 L 5.8125 12 L 3 12 L 2 12 L 2 13 L 2 19 L 2 20 L 3 20 L 5.8125 20 L 7.78125 20.59375 L 7.75 20.6875 L 7.75 20.71875 C 7.1079958 22.831899 8.2967012 25.179177 10.5 25.84375 C 10.5092 25.84655 10.522 25.84105 10.53125 25.84375 C 12.653271 26.488523 15.003004 25.314785 15.65625 23.09375 L 15.6875 23 L 28.71875 26.96875 L 30 27.34375 L 30 26 L 30 6 L 30 4.65625 z M 28 7.34375 L 28 24.65625 L 6.28125 18.03125 L 6.15625 18 L 6 18 L 4 18 L 4 14 L 6 14 L 6.15625 14 L 6.28125 13.96875 L 28 7.34375 z M 9.6875 21.1875 L 13.78125 22.40625 L 13.75 22.5 L 13.75 22.53125 C 13.40636 23.699627 12.163861 24.27191 11.09375 23.9375 C 9.9253729 23.59386 9.3218404 22.382611 9.65625 21.3125 L 9.65625 21.28125 L 9.6875 21.1875 z" font-family="Bitstream Vera Sans" overflow="visible" style="text-indent:0;text-align:start;line-height:normal;text-transform:none;block-progression:tb;-inkscape-font-specification:Bitstream Vera Sans"/>
</svg>