<?xml version="1.0" encoding="UTF-8" standalone="no"?><svg xmlns="http://www.w3.org/2000/svg" height="50" style="fill:#000000;fill-opacity:1.0" viewBox="0 0 50 50" width="50">
    <path d="M 13.9375 -0.03125 A 1.0001 1.0001 0 0 0 13.8125 0 A 1.0001 1.0001 0 0 0 13.0625 1.34375 C 13.0625 1.34375 14.601519 5.1648666 18.6875 5.875 C 18.666646 5.9169727 18.645006 5.9575682 18.625 6 L 18 6 A 1.0001 1.0001 0 0 0 17.96875 6 C 17.96875 6 17.530125 6.023045 17 6.1875 C 16.469875 6.3519547 15.791853 6.6687846 15.03125 7.25 C 13.948767 8.0771797 12.757621 9.459005 11.75 11.65625 L 9.84375 8.5 A 1.0001 1.0001 0 0 0 9.3125 8.0625 L 3.3125 6.0625 A 1.0001 1.0001 0 0 0 2.8125 6 A 1.0001 1.0001 0 0 0 2.6875 7.9375 L 8.34375 9.8125 L 10.84375 14 C 10.807515 14.115554 10.785261 14.224913 10.75 14.34375 C 9.5641574 15.403996 8.5796106 16.633948 7.8125 18.03125 A 1.0001 1.0001 0 0 0 7.625 18.0625 L 2.625 20.0625 A 1.0001 1.0001 0 0 0 2.0625 20.625 L 0.0625 25.625 A 1.0097184 1.0097184 0 0 0 1.9375 26.375 L 3.78125 21.78125 L 6.71875 20.59375 C 6.2506591 22.087898 6 23.722109 6 25.5 C 6 30.142598 7.1695676 33.943743 8.9375 37.03125 L 7.09375 43.46875 L 2.28125 48.28125 A 1.016466 1.016466 0 1 0 3.71875 49.71875 L 8.71875 44.71875 A 1.0001 1.0001 0 0 0 8.96875 44.28125 L 10.40625 39.25 C 11.916951 41.284135 13.665447 42.939562 15.40625 44.25 C 20.075291 47.76475 24.75 48.96875 24.75 48.96875 A 1.0001 1.0001 0 0 0 25.25 48.96875 C 25.25 48.96875 29.923083 47.8155 34.59375 44.3125 C 36.33516 43.006443 38.083094 41.35196 39.59375 39.3125 L 41.03125 44.28125 A 1.0001 1.0001 0 0 0 41.28125 44.71875 L 46.28125 49.71875 A 1.016466 1.016466 0 1 0 47.71875 48.28125 L 42.90625 43.46875 L 41.0625 37.09375 C 42.830229 33.995167 44 30.166667 44 25.5 C 44 23.727698 43.74463 22.087004 43.28125 20.59375 L 46.21875 21.78125 L 48.0625 26.375 A 1.0097184 1.0097184 0 0 0 49.9375 25.625 L 47.9375 20.625 A 1.0001 1.0001 0 0 0 47.375 20.0625 L 42.375 18.0625 A 1.0001 1.0001 0 0 0 42.1875 18 C 41.375716 16.515889 40.316664 15.221514 39.0625 14.15625 L 41.65625 9.8125 L 47.3125 7.9375 A 1.0001 1.0001 0 0 0 46.84375 6 A 1.0001 1.0001 0 0 0 46.6875 6.0625 L 40.6875 8.0625 A 1.0001 1.0001 0 0 0 40.15625 8.5 L 38.1875 11.78125 C 37.169688 9.5035946 35.980288 8.0946321 34.90625 7.25 C 34.166757 6.6684573 33.483883 6.3539879 32.96875 6.1875 C 32.453617 6.0210121 32.03125 6 32.03125 6 A 1.0001 1.0001 0 0 0 32 6 L 31.3125 6 C 31.291627 5.9585628 31.27161 5.916012 31.25 5.875 C 35.382167 5.1928405 36.9375 1.34375 36.9375 1.34375 A 1.0001 1.0001 0 0 0 35.84375 0 A 1.0001 1.0001 0 0 0 35.0625 0.65625 C 35.0625 0.65625 33.907407 4 30 4 A 1.0001 1.0001 0 0 0 29.84375 4.03125 C 28.584168 2.7986455 26.901944 2 25 2 C 23.05588 2 21.322933 2.7719966 20.0625 4 A 1.0001 1.0001 0 0 0 20 4 C 16.092593 4 14.9375 0.65625 14.9375 0.65625 A 1.0001 1.0001 0 0 0 14.03125 -0.03125 A 1.0001 1.0001 0 0 0 13.9375 -0.03125 z M 25 4 C 26.607632 4 28.055161 4.7973605 29 6 L 20.96875 6 C 21.865333 4.8103455 23.305983 4 25 4 z M 18 8 L 18.03125 8 L 30.3125 8 A 1.0001 1.0001 0 0 0 31.15625 8 L 31.96875 8 L 32 8 C 32.01129 7.9994664 32.06107 8.00239 32.34375 8.09375 C 32.650492 8.192887 33.108243 8.3815427 33.65625 8.8125 C 34.625337 9.5745975 35.86335 11.275969 36.90625 14.25 A 1.0001 1.0001 0 0 0 36.96875 14.53125 C 36.595008 14.682721 36.137818 14.833966 35.34375 15.03125 C 33.429989 15.506719 30.186508 16 25 16 C 19.813492 16 16.534714 15.50756 14.59375 15.03125 C 13.841417 14.846628 13.399866 14.706494 13.03125 14.5625 A 1.0001 1.0001 0 0 0 13.09375 13.96875 C 14.082117 11.186986 15.254231 9.5807881 16.21875 8.84375 C 16.783147 8.4124654 17.267625 8.1949203 17.59375 8.09375 C 17.897603 7.9994889 17.987673 7.9996421 18 8 z M 38.28125 16.125 C 40.589968 18.320558 42 21.413186 42 25.5 C 42 32.453268 39.258643 37.209126 35.9375 40.5 C 35.958238 40.336115 36 40.169208 36 40 C 36 37.802706 34.197294 36 32 36 C 29.802706 36 28 37.802706 28 40 C 28 42.048937 29.569235 43.716491 31.5625 43.9375 C 29.247372 45.391153 27.177581 46.225156 26 46.625 L 26 23.90625 C 29.176037 23.445327 31.680924 20.851393 31.96875 17.625 C 33.568253 17.438194 34.864926 17.211936 35.84375 16.96875 C 36.899369 16.706484 37.609539 16.43159 38.09375 16.21875 C 38.174452 16.183277 38.211455 16.158588 38.28125 16.125 z M 11.71875 16.15625 C 11.759201 16.17466 11.768793 16.199951 11.8125 16.21875 C 12.304208 16.430237 13.057982 16.706905 14.125 16.96875 C 15.115387 17.21179 16.424469 17.43803 18.03125 17.625 C 18.319076 20.851393 20.823963 23.445327 24 23.90625 L 24 46.625 C 22.833993 46.225507 20.774263 45.389194 18.46875 43.9375 C 20.447533 43.702612 22 42.038511 22 40 C 22 37.802706 20.197294 36 18 36 C 15.802706 36 14 37.802706 14 40 C 14 40.148357 14.046497 40.293174 14.0625 40.4375 C 12.896958 39.277913 11.803501 37.957346 10.875 36.40625 C 9.1632395 33.546688 8 29.973769 8 25.5 C 8 21.445658 9.3555706 18.430393 11.71875 16.15625 z M 20.0625 17.8125 C 21.508169 17.919995 23.098351 18 25 18 C 26.909473 18 28.490111 17.920688 29.9375 17.8125 C 29.55442 20.117273 27.576676 21.909066 25.1875 22 A 1.0001 1.0001 0 0 0 24.8125 22 C 22.423324 21.909066 20.44558 20.117273 20.0625 17.8125 z M 15 22 C 12.250421 22 10 24.250421 10 27 C 10 29.749579 12.250421 32 15 32 C 17.749579 32 20 29.749579 20 27 C 20 24.250421 17.749579 22 15 22 z M 35 22 C 32.250421 22 30 24.250421 30 27 C 30 29.749579 32.250421 32 35 32 C 37.749579 32 40 29.749579 40 27 C 40 24.250421 37.749579 22 35 22 z M 15 24 C 16.668699 24 18 25.331301 18 27 C 18 28.668699 16.668699 30 15 30 C 13.331301 30 12 28.668699 12 27 C 12 25.331301 13.331301 24 15 24 z M 35 24 C 36.668699 24 38 25.331301 38 27 C 38 28.668699 36.668699 30 35 30 C 33.331301 30 32 28.668699 32 27 C 32 25.331301 33.331301 24 35 24 z M 18 38 C 19.116414 38 20 38.883586 20 40 C 20 41.116414 19.116414 42 18 42 C 16.883586 42 16 41.116414 16 40 C 16 38.883586 16.883586 38 18 38 z M 32 38 C 33.116414 38 34 38.883586 34 40 C 34 41.116414 33.116414 42 32 42 C 30.883586 42 30 41.116414 30 40 C 30 38.883586 30.883586 38 32 38 z" style="text-indent:0;text-align:start;line-height:normal;text-transform:none;block-progression:tb;-inkscape-font-specification:Bitstream Vera Sans"/>
</svg>