<?xml version="1.0" encoding="UTF-8" standalone="no"?><svg xmlns="http://www.w3.org/2000/svg" style="fill:#000000;fill-opacity:0.60784316" viewBox="0 0 32 32">
    <path d="M 11.9375 4.65625 L 10.0625 5.34375 C 10.0625 5.34375 10.56596 6.5381739 11.71875 7.5625 C 11.686395 7.5855228 11.657485 7.600286 11.625 7.625 C 11.110164 8.0166734 10.613657 8.6504653 10.1875 9.59375 L 9.21875 8.34375 L 9.0625 8.15625 L 8.8125 8.03125 L 6.375 7.0625 L 5.625 8.9375 L 7.8125 9.8125 L 9 11.34375 C 8.82336 11.563347 8.6558364 11.795236 8.5 12.03125 L 5.9375 12.5 L 5.5625 12.5625 L 5.3125 12.875 L 3.8125 14.84375 L 5.375 16.0625 L 6.65625 14.40625 L 7.4375 14.28125 C 7.1645168 15.143566 7 16.051443 7 17 C 7 18.551782 7.3632519 19.884567 7.9375 21.03125 L 7.1875 23.3125 L 4.4375 25.15625 L 5.5625 26.84375 L 8.5625 24.84375 L 8.84375 24.65625 L 8.9375 24.3125 L 9.34375 23.0625 C 10.001157 23.807011 10.716381 24.441911 11.4375 24.9375 C 13.600856 26.424266 15.75 26.96875 15.75 26.96875 L 16 27.03125 L 16.25 26.96875 C 16.25 26.96875 18.399144 26.424266 20.5625 24.9375 C 21.283619 24.441911 21.998843 23.807011 22.65625 23.0625 L 23.0625 24.3125 L 23.15625 24.65625 L 23.4375 24.84375 L 26.4375 26.84375 L 27.5625 25.15625 L 24.8125 23.3125 L 24.0625 21.03125 C 24.636748 19.884567 25 18.551782 25 17 C 25 16.053703 24.864782 15.137643 24.59375 14.28125 L 25.34375 14.40625 L 26.625 16.0625 L 28.1875 14.84375 L 26.6875 12.875 L 26.4375 12.5625 L 26.0625 12.5 L 23.5 12.03125 C 23.342279 11.794402 23.179019 11.564109 23 11.34375 L 24.1875 9.8125 L 26.375 8.9375 L 25.625 7.0625 L 23.1875 8.03125 L 22.9375 8.15625 L 22.78125 8.34375 L 21.8125 9.625 C 21.374917 8.6650703 20.851631 8.023002 20.34375 7.625 C 20.324317 7.6097715 20.300618 7.6083227 20.28125 7.59375 C 21.445411 6.5664002 21.9375 5.34375 21.9375 5.34375 L 20.0625 4.65625 C 20.0625 4.65625 19.565925 6.1577645 17.90625 6.75 C 17.413251 6.2823375 16.73337 6 16 6 C 15.267242 6 14.586657 6.2826282 14.09375 6.75 C 12.434075 6.1577645 11.9375 4.65625 11.9375 4.65625 z M 13.1875 9 L 13.21875 9 L 18.78125 9 C 18.84397 9.021422 18.943781 9.069977 19.09375 9.1875 C 19.297302 9.3470137 19.619575 10.068352 19.90625 10.625 C 19.188193 10.797451 17.981645 11 16 11 C 13.97122 11 12.719265 10.801426 12 10.625 C 11.98569 10.6215 11.98264 10.6285 11.96875 10.625 C 12.286158 9.8958873 12.602215 9.4025034 12.84375 9.21875 C 12.999401 9.1003347 13.115723 9.0232836 13.1875 9 z M 10.78125 12.34375 C 10.983671 12.41624 11.173195 12.48234 11.5 12.5625 C 12.411485 12.786074 13.84378 13 16 13 C 18.15622 13 19.563322 12.78672 20.46875 12.5625 C 20.806272 12.478916 21.011992 12.418963 21.21875 12.34375 C 22.324081 13.579222 23 15.203948 23 17 C 23 20.121265 21.274144 22.050266 19.4375 23.3125 C 18.503498 23.954393 17.644096 24.344354 17 24.59375 L 17 14 L 15 14 L 15 24.59375 C 14.355904 24.344354 13.496502 23.954393 12.5625 23.3125 C 10.725856 22.050266 9 20.121265 9 17 C 9 15.210452 9.6787594 13.581262 10.78125 12.34375 z" style="text-indent:0;text-align:start;line-height:normal;text-transform:none;block-progression:tb;-inkscape-font-specification:Bitstream Vera Sans"/>
</svg>