<?xml version="1.0" encoding="UTF-8" standalone="no"?><svg xmlns="http://www.w3.org/2000/svg" height="50" style="fill:#000000;fill-opacity:1.0" viewBox="0 0 50 50" width="50">
    <path color="#000" d="M 1.8125 2 A 1.001098 1.001098 0 0 0 1.71875 2.03125 C 0.74787928 2.1684335 0 2.9912681 0 4 C 0 5.1045695 0.8954305 6 2 6 C 3.1045695 6 4 5.1045695 4 4 L 8.65625 4 C 9.9029181 4 10.550094 4.2559363 11.03125 4.6875 C 11.504539 5.1120075 11.886117 5.8339589 12.21875 6.9375 L 20.21875 39.21875 C 20.52072 40.364828 20.822066 41.542307 21.65625 42.5 C 22.003827 42.899039 22.441239 43.223124 22.96875 43.46875 C 22.3844 44.164633 22 45.027332 22 46 C 22 48.197294 23.802706 50 26 50 C 28.197294 50 30 48.197294 30 46 C 30 45.267569 29.785949 44.592593 29.4375 44 L 35.5625 44 C 35.214051 44.592593 35 45.267569 35 46 C 35 48.197294 36.802706 50 39 50 C 41.197294 50 43 48.197294 43 46 C 43 44.972133 42.582315 44.054785 41.9375 43.34375 A 1 1 0 0 0 41 42 L 25.71875 42 C 24.177626 42 23.547066 41.672057 23.125 41.1875 C 22.707564 40.708258 22.451429 39.866259 22.15625 38.75 L 22.15625 38.71875 L 21.46875 36 L 39.8125 36 A 0.99359934 0.99359934 0 0 0 40.75 35.34375 L 47.9375 16.34375 A 0.99359934 0.99359934 0 0 0 47 15 L 16.28125 15 L 14.15625 6.46875 A 0.99359934 0.99359934 0 0 0 14.15625 6.40625 C 13.774049 5.1182498 13.278844 3.9981863 12.375 3.1875 C 11.471156 2.3768137 10.204582 2 8.65625 2 L 2 2 A 0.99359934 0.99359934 0 0 0 1.90625 2 A 1.001098 1.001098 0 0 0 1.8125 2 z M 16.78125 17 L 45.5625 17 L 39.125 34 L 21 34 L 16.78125 17 z M 26 44 C 27.116414 44 28 44.883586 28 46 C 28 47.116414 27.116414 48 26 48 C 24.883586 48 24 47.116414 24 46 C 24 44.883586 24.883586 44 26 44 z M 39 44 C 40.116414 44 41 44.883586 41 46 C 41 47.116414 40.116414 48 39 48 C 37.883586 48 37 47.116414 37 46 C 37 44.883586 37.883586 44 39 44 z" enable-background="accumulate" font-family="Bitstream Vera Sans" overflow="visible" style="text-indent:0;text-align:start;line-height:normal;text-transform:none;block-progression:tb;-inkscape-font-specification:Bitstream Vera Sans"/>
</svg>