<?xml version="1.0" encoding="UTF-8" standalone="no"?><svg xmlns="http://www.w3.org/2000/svg" style="fill:#000000;fill-opacity:0.60784316" viewBox="0 0 32 32">
    <path d="M 4 5 L 4 6 L 4 26 L 4 27 L 5 27 L 17.0625 27 L 16.375 30.46875 L 16.0625 31.9375 L 17.53125 31.625 L 21.0625 30.9375 L 21.375 30.875 L 21.59375 30.65625 L 31.125 21.125 C 32.286959 19.963041 32.286959 18.036959 31.125 16.875 C 30.544021 16.294021 29.769064 16 29 16 C 28.657888 16 28.32685 16.071757 28 16.1875 L 28 6 L 28 5 L 27 5 L 5 5 L 4 5 z M 6 7 L 26 7 L 26 9 L 6 9 L 6 7 z M 6 11 L 26 11 L 26 17.75 L 18.75 25 L 6 25 L 6 11 z M 9 14 L 9 16 L 11 16 L 11 14 L 9 14 z M 13 14 L 13 16 L 23 16 L 23 14 L 13 14 z M 9 18 L 9 20 L 11 20 L 11 18 L 9 18 z M 13 18 L 13 20 L 19 20 L 19 18 L 13 18 z M 29 18 C 29.252936 18 29.519729 18.08223 29.71875 18.28125 C 30.116791 18.679291 30.116791 19.289459 29.71875 19.6875 L 20.375 29.03125 L 18.59375 29.40625 L 18.96875 27.625 L 28.3125 18.28125 C 28.511521 18.082229 28.747064 18 29 18 z" style="text-indent:0;text-align:start;line-height:normal;text-transform:none;block-progression:tb;-inkscape-font-specification:Bitstream Vera Sans"/>
</svg>