<?xml version="1.0" encoding="UTF-8" standalone="no"?><svg xmlns="http://www.w3.org/2000/svg" enable-background="new 0 0 50 50" style="fill:#000000;fill-opacity:1.0" viewBox="0 0 50 50">
    <path d="M 2.8125 0 C 1.2791667 0 0 1.2791667 0 2.8125 L 0 7.8125 A 1.0001 1.0001 0 0 0 0 8 L 0 9 L 0 40 A 1.0001 1.0001 0 0 0 1 41 L 24 41 A 1.0001 1.0001 0 1 0 24 39 L 2 39 L 2 9 L 42 9 L 42 22 A 1.0001 1.0001 0 1 0 44 22 L 44 9 L 44 8 A 1.0001 1.0001 0 0 0 44 7.8125 L 44 2.8125 C 44 1.2791667 42.720833 0 41.1875 0 L 2.8125 0 z M 2.8125 2 L 41.1875 2 C 41.654167 2 42 2.3458333 42 2.8125 L 42 7 L 2 7 L 2 2.8125 C 2 2.3458333 2.3458333 2 2.8125 2 z M 7 15 L 7 17 L 11 17 L 11 15 L 7 15 z M 14 15 L 14 17 L 37 17 L 37 15 L 14 15 z M 7 20 L 7 22 L 11 22 L 11 20 L 7 20 z M 14 20 L 14 22 L 37 22 L 37 20 L 14 20 z M 45.90625 24.90625 C 44.85625 24.90625 43.8 25.29375 43 26.09375 L 42.3125 26.8125 L 42.34375 26.84375 L 26.90625 42.28125 A 1.0001 1.0001 0 0 0 26.625 42.71875 L 24.9375 48.71875 A 1.0001 1.0001 0 0 0 26.15625 49.96875 L 32.15625 48.375 A 1.0001 1.0001 0 0 0 32.59375 48.09375 L 48.40625 32.40625 A 1.0001 1.0001 0 0 0 48.6875 32.03125 A 1.0001 1.0001 0 0 0 48.6875 32 L 48.8125 31.90625 C 50.4125 30.30625 50.4125 27.69375 48.8125 26.09375 C 48.0125 25.29375 46.95625 24.90625 45.90625 24.90625 z M 7 25 L 7 27 L 11 27 L 11 25 L 7 25 z M 14 25 L 14 27 L 37 27 L 37 25 L 14 25 z M 43.75 28.25 L 46.75 31.25 L 31.40625 46.5 L 28.46875 43.65625 L 28.5 43.53125 L 43.75 28.25 z M 7 30 L 7 32 L 11 32 L 11 30 L 7 30 z M 14 30 L 14 32 L 33 32 L 33 30 L 14 30 z" style="text-indent:0;text-align:start;line-height:normal;text-transform:none;block-progression:tb;-inkscape-font-specification:Bitstream Vera Sans"/>
</svg>