<?xml version="1.0" encoding="UTF-8" standalone="no"?><svg xmlns="http://www.w3.org/2000/svg" height="50" style="fill:#000000;fill-opacity:1.0" version="1" viewBox="0 0 50 50" width="50">
    <path d="M 19 0 C 8.6218855 0 0 7.4926136 0 16.90625 C 0 21.460255 2.0442573 25.588885 5.3125 28.625 C 4.8327813 30.041537 3.8134487 31.171716 2.71875 32.0625 C 2.1105841 32.55738 1.5169429 32.983517 1.03125 33.40625 C 0.78840357 33.617616 0.56815626 33.803292 0.375 34.09375 C 0.18184374 34.384208 -0.00965104 34.88128 0.125 35.375 L 0.25 35.75 L 0.59375 35.96875 C 1.6324159 36.557327 2.8945243 36.657329 4.21875 36.5625 C 5.5429757 36.46767 6.9726194 36.135976 8.375 35.75 C 10.310467 35.217303 11.963724 34.586037 13.34375 34.03125 C 16.093799 40.390671 22.995004 44.8125 31 44.8125 C 32.385327 44.8125 33.707195 44.592799 34.9375 44.40625 C 36.333123 45.040553 38.826396 46.080452 41.53125 46.8125 C 44.33899 47.572393 47.211235 48.141758 49.28125 46.96875 L 49.65625 46.75 L 49.75 46.375 C 49.883302 45.886227 49.71801 45.4175 49.53125 45.125 C 49.344494 44.8325 49.145212 44.622669 48.90625 44.40625 C 48.428326 43.973413 47.824219 43.534808 47.21875 43.03125 C 46.129566 42.125394 45.107265 40.984785 44.59375 39.59375 C 47.850149 36.559237 49.90625 32.450901 49.90625 27.90625 C 49.90625 20.487121 44.499507 14.159024 37.09375 11.90625 C 34.708719 4.9705482 27.45857 0 19 0 z M 19 2 C 28.421886 2 35.90625 8.7123106 35.90625 16.90625 C 35.90625 25.092614 28.328136 31.8125 18.90625 31.8125 C 17.553869 31.8125 16.225417 31.71308 15.03125 31.4375 L 14.71875 31.34375 L 14.40625 31.46875 C 14.289211 31.518266 14.044489 31.629464 13.90625 31.6875 C 13.884227 31.696746 13.835031 31.678059 13.8125 31.6875 A 1.0001 1.0001 0 0 0 13.1875 31.96875 C 11.772639 32.549866 9.9082533 33.275538 7.84375 33.84375 C 6.5211306 34.207774 5.1820243 34.482329 4.0625 34.5625 C 3.5662632 34.59804 3.3586164 34.44892 2.96875 34.40625 C 3.2896787 34.157065 3.5598294 33.957749 3.96875 33.625 C 5.3024182 32.53976 6.9414441 30.968582 7.46875 28.625 L 7.59375 28.03125 L 7.15625 27.625 C 3.955634 24.895063 2 21.095139 2 16.90625 C 2 8.7198864 9.5781145 2 19 2 z M 37.65625 14.1875 C 37.843726 14.25848 38.03492 14.329486 38.21875 14.40625 C 38.091413 14.574052 38 14.773106 38 15 C 38 15.552285 38.447715 16 39 16 C 39.460237 16 39.821078 15.673247 39.9375 15.25 C 42.154464 16.47487 44.00617 18.13485 45.375 20.09375 C 45.255362 20.043147 45.138071 20 45 20 C 44.447715 20 44 20.447715 44 21 C 44 21.552285 44.447715 22 45 22 C 45.530627 22 45.966769 21.58474 46 21.0625 C 46.459554 21.845166 46.857631 22.678938 47.15625 23.53125 C 47.075026 23.675838 47 23.822354 47 24 C 47 24.374639 47.226327 24.672456 47.53125 24.84375 C 47.769404 25.837824 47.90625 26.856969 47.90625 27.90625 C 47.90625 28.28315 47.874897 28.661144 47.84375 29.03125 C 47.370893 29.110676 47 29.504568 47 30 C 47 30.38959 47.237377 30.709931 47.5625 30.875 C 46.875863 33.875332 45.174791 36.556796 42.75 38.625 L 42.28125 39.03125 L 42.4375 39.65625 C 42.944471 41.633435 44.189857 43.040282 45.375 44.09375 C 45.255362 44.043147 45.138071 44 45 44 C 44.447715 44 44 44.447715 44 45 C 44 45.102877 44.033648 45.187848 44.0625 45.28125 C 43.426671 45.193736 42.770035 45.066489 42.0625 44.875 C 39.923047 44.295974 37.836569 43.472243 36.4375 42.875 C 36.762623 42.709931 37 42.38959 37 42 C 37 41.447715 36.552285 41 36 41 C 35.447715 41 35 41.447715 35 42 C 35 42.138071 35.043147 42.255362 35.09375 42.375 L 34.9375 42.40625 C 33.645118 42.605078 32.304762 42.8125 31 42.8125 C 30.853964 42.8125 30.707622 42.815714 30.5625 42.8125 C 30.82224 42.631884 31 42.340341 31 42 C 31 41.447715 30.552285 41 30 41 C 29.447715 41 29 41.447715 29 42 C 29 42.276142 29.100286 42.537786 29.28125 42.71875 C 27.776903 42.585991 26.328527 42.297063 24.96875 41.84375 C 24.889324 41.370893 24.495432 41 24 41 C 23.763432 41 23.546227 41.081426 23.375 41.21875 C 22.562605 40.860216 21.792684 40.463135 21.0625 40 C 21.58474 39.966769 22 39.530627 22 39 C 22 38.447715 21.552285 38 21 38 C 20.447715 38 20 38.447715 20 39 C 20 39.113706 20.027539 39.210654 20.0625 39.3125 C 19.046372 38.559611 18.131698 37.687151 17.34375 36.75 C 17.519481 36.903303 17.748482 37 18 37 C 18.552285 37 19 36.552285 19 36 C 19 35.447715 18.552285 35 18 35 C 17.447715 35 17 35.447715 17 36 C 17 36.226894 17.091413 36.425948 17.21875 36.59375 C 16.523147 35.744072 15.915442 34.842019 15.4375 33.875 C 15.593823 33.795633 15.716882 33.676979 15.8125 33.53125 C 16.83584 33.693026 17.875955 33.8125 18.90625 33.8125 C 19.376942 33.8125 19.849674 33.780305 20.3125 33.75 C 20.490619 33.913978 20.738808 34 21 34 C 21.325391 34 21.598635 33.834396 21.78125 33.59375 C 23.302815 33.386047 24.770573 33.042761 26.15625 32.53125 C 26.075026 32.675838 26 32.822354 26 33 C 26 33.552285 26.447715 34 27 34 C 27.552285 34 28 33.552285 28 33 C 28 32.539763 27.673247 32.178922 27.25 32.0625 C 28.052595 31.711213 28.827223 31.320062 29.5625 30.875 C 29.698274 30.943934 29.837305 31 30 31 C 30.552285 31 31 30.552285 31 30 C 31 29.975634 30.970463 29.961429 30.96875 29.9375 C 31.798518 29.329414 32.577137 28.661208 33.28125 27.9375 C 33.625362 27.831203 33.863005 27.544401 33.9375 27.1875 C 34.564757 26.464032 35.165201 25.716896 35.65625 24.90625 C 35.768194 24.949583 35.872758 25 36 25 C 36.552285 25 37 24.552285 37 24 C 37 23.649985 36.803552 23.366167 36.53125 23.1875 C 37.404371 21.250287 37.90625 19.131845 37.90625 16.90625 C 37.90625 15.981179 37.814872 15.07038 37.65625 14.1875 z M 42 17 C 41.447715 17 41 17.447715 41 18 C 41 18.552285 41.447715 19 42 19 C 42.552285 19 43 18.552285 43 18 C 43 17.447715 42.552285 17 42 17 z M 39 20 C 38.447715 20 38 20.447715 38 21 C 38 21.552285 38.447715 22 39 22 C 39.552285 22 40 21.552285 40 21 C 40 20.447715 39.552285 20 39 20 z M 42 23 C 41.447715 23 41 23.447715 41 24 C 41 24.552285 41.447715 25 42 25 C 42.552285 25 43 24.552285 43 24 C 43 23.447715 42.552285 23 42 23 z M 39 26 C 38.447715 26 38 26.447715 38 27 C 38 27.552285 38.447715 28 39 28 C 39.552285 28 40 27.552285 40 27 C 40 26.447715 39.552285 26 39 26 z M 45 26 C 44.447715 26 44 26.447715 44 27 C 44 27.552285 44.447715 28 45 28 C 45.552285 28 46 27.552285 46 27 C 46 26.447715 45.552285 26 45 26 z M 36 29 C 35.447715 29 35 29.447715 35 30 C 35 30.552285 35.447715 31 36 31 C 36.552285 31 37 30.552285 37 30 C 37 29.447715 36.552285 29 36 29 z M 42 29 C 41.447715 29 41 29.447715 41 30 C 41 30.552285 41.447715 31 42 31 C 42.552285 31 43 30.552285 43 30 C 43 29.447715 42.552285 29 42 29 z M 33 32 C 32.447715 32 32 32.447715 32 33 C 32 33.552285 32.447715 34 33 34 C 33.552285 34 34 33.552285 34 33 C 34 32.447715 33.552285 32 33 32 z M 39 32 C 38.447715 32 38 32.447715 38 33 C 38 33.552285 38.447715 34 39 34 C 39.552285 34 40 33.552285 40 33 C 40 32.447715 39.552285 32 39 32 z M 45 32 C 44.447715 32 44 32.447715 44 33 C 44 33.552285 44.447715 34 45 34 C 45.552285 34 46 33.552285 46 33 C 46 32.447715 45.552285 32 45 32 z M 24 35 C 23.447715 35 23 35.447715 23 36 C 23 36.552285 23.447715 37 24 37 C 24.552285 37 25 36.552285 25 36 C 25 35.447715 24.552285 35 24 35 z M 30 35 C 29.447715 35 29 35.447715 29 36 C 29 36.552285 29.447715 37 30 37 C 30.552285 37 31 36.552285 31 36 C 31 35.447715 30.552285 35 30 35 z M 36 35 C 35.447715 35 35 35.447715 35 36 C 35 36.552285 35.447715 37 36 37 C 36.552285 37 37 36.552285 37 36 C 37 35.447715 36.552285 35 36 35 z M 42 35 C 41.447715 35 41 35.447715 41 36 C 41 36.552285 41.447715 37 42 37 C 42.552285 37 43 36.552285 43 36 C 43 35.447715 42.552285 35 42 35 z M 27 38 C 26.447715 38 26 38.447715 26 39 C 26 39.552285 26.447715 40 27 40 C 27.552285 40 28 39.552285 28 39 C 28 38.447715 27.552285 38 27 38 z M 33 38 C 32.447715 38 32 38.447715 32 39 C 32 39.552285 32.447715 40 33 40 C 33.552285 40 34 39.552285 34 39 C 34 38.447715 33.552285 38 33 38 z M 39 38 C 38.447715 38 38 38.447715 38 39 C 38 39.552285 38.447715 40 39 40 C 39.552285 40 40 39.552285 40 39 C 40 38.447715 39.552285 38 39 38 z M 42 41 C 41.447715 41 41 41.447715 41 42 C 41 42.552285 41.447715 43 42 43 C 42.552285 43 43 42.552285 43 42 C 43 41.447715 42.552285 41 42 41 z M 45.8125 44.4375 C 45.855262 44.473525 45.895287 44.527392 45.9375 44.5625 C 46.350424 44.905922 46.649649 45.117896 46.96875 45.375 C 46.634139 45.406542 46.265565 45.408529 45.875 45.40625 C 45.936441 45.276582 46 45.153022 46 45 C 46 44.788056 45.924977 44.59925 45.8125 44.4375 z" style="text-indent:0;text-align:start;line-height:normal;text-transform:none;block-progression:tb;-inkscape-font-specification:Bitstream Vera Sans"/>
</svg>