<?xml version="1.0" encoding="UTF-8" standalone="no"?><svg xmlns="http://www.w3.org/2000/svg" style="fill:#000000;fill-opacity:1.0" viewBox="0 0 50 50">
    <path color="#000" d="M 11 4 C 7.1456661 4 4 7.1456661 4 11 L 4 39 C 4 42.854334 7.1456661 46 11 46 L 39 46 C 42.854334 46 46 42.854334 46 39 L 46 11 C 46 7.1456661 42.854334 4 39 4 L 11 4 z M 11 6 L 39 6 C 41.773666 6 44 8.2263339 44 11 L 44 39 C 44 41.773666 41.773666 44 39 44 L 11 44 C 8.2263339 44 6 41.773666 6 39 L 6 11 C 6 8.2263339 8.2263339 6 11 6 z" font-family="Bitstream Vera Sans" overflow="visible" style="text-indent:0;text-align:start;line-height:normal;text-transform:none;block-progression:tb;-inkscape-font-specification:Bitstream Vera Sans"/>
</svg>