<?xml version="1.0" encoding="UTF-8" standalone="no"?><svg xmlns="http://www.w3.org/2000/svg" height="50" style="fill:#000000;fill-opacity:1.0" viewBox="0 0 50 50" width="50">
    <path d="M 32.59375 4 C 31.816068 4 31.05353 4.2842603 30.46875 4.875 L 3.875 31.75 C 2.7062508 32.930675 2.706467 34.88057 3.875 36.0625 L 13.4375 45.71875 A 1.010601 1.010601 0 0 0 14.15625 46 L 17.1875 46 L 22.625 46 L 22.71875 46 L 41 46 A 1.010601 1.010601 0 1 0 41 44 L 25.03125 44 L 47.125 21.6875 C 48.29241 20.506689 48.295388 18.5573 47.125 17.375 L 34.75 4.875 C 34.16522 4.2842603 33.371432 4 32.59375 4 z M 32.59375 6 C 32.845568 6 33.11228 6.1102397 33.3125 6.3125 L 45.6875 18.8125 C 45.947367 19.075012 46.013957 19.422338 45.9375 19.75 C 45.821078 19.326753 45.460237 19 45 19 C 44.447715 19 44 19.447715 44 20 C 44 20.541456 44.431444 20.982916 44.96875 21 L 43 22.96875 C 42.982916 22.431444 42.541456 22 42 22 C 41.447715 22 41 22.447715 41 23 C 41 23.541456 41.431444 23.982916 41.96875 24 L 40 26 C 40 25.447715 39.552285 25 39 25 C 38.447715 25 38 25.447715 38 26 C 38 26.552285 38.447715 27 39 27 L 37 29 C 37 28.447715 36.552285 28 36 28 C 35.447715 28 35 28.447715 35 29 C 35 29.552285 35.447715 30 36 30 C 36.021658 30 36.041184 30.001356 36.0625 30 L 33.96875 32.09375 C 33.972297 32.059493 34 32.035195 34 32 C 34 31.447715 33.552285 31 33 31 C 32.81268 31 32.649872 31.066631 32.5 31.15625 L 30.8125 29.5625 C 30.924977 29.40075 31 29.211944 31 29 C 31 28.447715 30.552285 28 30 28 C 29.748482 28 29.519481 28.096697 29.34375 28.25 L 27.71875 26.71875 C 27.899714 26.537786 28 26.276143 28 26 C 28 25.447715 27.552285 25 27 25 C 26.699233 25 26.43332 25.13361 26.25 25.34375 L 24.59375 23.78125 C 24.834396 23.598635 25 23.325391 25 23 C 25 22.447715 24.552285 22 24 22 C 23.649985 22 23.366167 22.196448 23.1875 22.46875 L 21.4375 20.875 C 21.762623 20.709931 22 20.38959 22 20 C 22 19.447715 21.552285 19 21 19 C 20.585786 19 20.245558 19.266085 20.09375 19.625 L 19.53125 19.09375 A 1.010601 1.010601 0 0 0 19.375 18.96875 L 31.90625 6.3125 C 32.10647 6.1102397 32.341932 6 32.59375 6 z M 33 7 C 32.447715 7 32 7.4477153 32 8 C 32 8.5522847 32.447715 9 33 9 C 33.552285 9 34 8.5522847 34 8 C 34 7.4477153 33.552285 7 33 7 z M 30 10 C 29.447715 10 29 10.447715 29 11 C 29 11.552285 29.447715 12 30 12 C 30.552285 12 31 11.552285 31 11 C 31 10.447715 30.552285 10 30 10 z M 36 10 C 35.447715 10 35 10.447715 35 11 C 35 11.552285 35.447715 12 36 12 C 36.552285 12 37 11.552285 37 11 C 37 10.447715 36.552285 10 36 10 z M 27 13 C 26.447715 13 26 13.447715 26 14 C 26 14.552285 26.447715 15 27 15 C 27.552285 15 28 14.552285 28 14 C 28 13.447715 27.552285 13 27 13 z M 33 13 C 32.447715 13 32 13.447715 32 14 C 32 14.552285 32.447715 15 33 15 C 33.552285 15 34 14.552285 34 14 C 34 13.447715 33.552285 13 33 13 z M 39 13 C 38.447715 13 38 13.447715 38 14 C 38 14.552285 38.447715 15 39 15 C 39.552285 15 40 14.552285 40 14 C 40 13.447715 39.552285 13 39 13 z M 24 16 C 23.447715 16 23 16.447715 23 17 C 23 17.552285 23.447715 18 24 18 C 24.552285 18 25 17.552285 25 17 C 25 16.447715 24.552285 16 24 16 z M 30 16 C 29.447715 16 29 16.447715 29 17 C 29 17.552285 29.447715 18 30 18 C 30.552285 18 31 17.552285 31 17 C 31 16.447715 30.552285 16 30 16 z M 36 16 C 35.447715 16 35 16.447715 35 17 C 35 17.552285 35.447715 18 36 18 C 36.552285 18 37 17.552285 37 17 C 37 16.447715 36.552285 16 36 16 z M 42 16 C 41.447715 16 41 16.447715 41 17 C 41 17.552285 41.447715 18 42 18 C 42.552285 18 43 17.552285 43 17 C 43 16.447715 42.552285 16 42 16 z M 27 19 C 26.447715 19 26 19.447715 26 20 C 26 20.552285 26.447715 21 27 21 C 27.552285 21 28 20.552285 28 20 C 28 19.447715 27.552285 19 27 19 z M 33 19 C 32.447715 19 32 19.447715 32 20 C 32 20.552285 32.447715 21 33 21 C 33.552285 21 34 20.552285 34 20 C 34 19.447715 33.552285 19 33 19 z M 39 19 C 38.447715 19 38 19.447715 38 20 C 38 20.552285 38.447715 21 39 21 C 39.552285 21 40 20.552285 40 20 C 40 19.447715 39.552285 19 39 19 z M 17.96875 20.40625 A 1.010601 1.010601 0 0 0 18.15625 20.59375 L 32.34375 33.75 L 22.1875 44 L 17.125 44 L 14.59375 44 L 5.3125 34.625 C 4.911033 34.21893 4.9132492 33.590825 5.3125 33.1875 L 17.96875 20.40625 z M 30 22 C 29.447715 22 29 22.447715 29 23 C 29 23.552285 29.447715 24 30 24 C 30.552285 24 31 23.552285 31 23 C 31 22.447715 30.552285 22 30 22 z M 36 22 C 35.447715 22 35 22.447715 35 23 C 35 23.552285 35.447715 24 36 24 C 36.552285 24 37 23.552285 37 23 C 37 22.447715 36.552285 22 36 22 z M 33 25 C 32.447715 25 32 25.447715 32 26 C 32 26.552285 32.447715 27 33 27 C 33.552285 27 34 26.552285 34 26 C 34 25.447715 33.552285 25 33 25 z" style="text-indent:0;text-align:start;line-height:normal;text-transform:none;block-progression:tb;-inkscape-font-specification:Bitstream Vera Sans"/>
</svg>