<?xml version="1.0" encoding="UTF-8" standalone="no"?><svg xmlns="http://www.w3.org/2000/svg" height="50" style="fill:#000000;fill-opacity:1.0" viewBox="0 0 50 50" width="50">
    <path color="#000" d="M 29 8.53125 C 23.784882 8.53125 19.372258 11.650957 17.25 16.0625 C 16.120721 15.285822 14.812373 14.71875 13.34375 14.71875 C 9.6186448 14.71875 6.6461092 17.6699 6.4375 21.34375 C 2.7116509 22.688873 0 26.164595 0 30.34375 C 0 35.672129 4.3269841 40 9.65625 40 L 41.09375 40 C 45.999109 40 50 35.997204 50 31.09375 C 50 26.542883 46.507903 22.927021 42.09375 22.40625 C 42.10944 22.165177 42.15625 21.937552 42.15625 21.6875 C 42.15625 14.436094 36.250387 8.53125 29 8.53125 z M 29 10.53125 C 35.169613 10.53125 40.15625 15.516906 40.15625 21.6875 C 40.15625 22.142598 40.12028 22.594543 40.0625 23.0625 L 39.90625 24.1875 L 41.03125 24.1875 L 41.09375 24.1875 C 44.918544 24.1875 48 27.268956 48 31.09375 C 48 34.916296 44.918391 38 41.09375 38 L 9.65625 38 C 5.4075159 38 2 34.591371 2 30.34375 C 2 26.807381 4.3841655 23.833261 7.625 22.9375 L 8.375 22.75 L 8.34375 21.9375 C 8.33875 21.797485 8.34375 21.725319 8.34375 21.71875 C 8.34375 18.941236 10.565073 16.71875 13.34375 16.71875 C 14.732666 16.71875 15.999111 17.278692 16.90625 18.1875 L 18 19.3125 L 18.53125 17.84375 C 20.103851 13.593873 24.192878 10.53125 29 10.53125 z M 30.90625 21.96875 A 1.0001 1.0001 0 0 0 30.78125 22 A 1.0001 1.0001 0 0 0 30.28125 23.71875 L 33.5625 27 L 15.4375 27 L 18.71875 23.71875 A 1.0001 1.0001 0 0 0 17.875 22 A 1.0001 1.0001 0 0 0 17.28125 22.28125 L 12.34375 27.1875 A 1.001098 1.001098 0 0 0 12.28125 27.25 L 12.28125 27.28125 A 1.001098 1.001098 0 0 0 12.09375 27.5 L 11.59375 28 L 12.0625 28.46875 A 1.001098 1.001098 0 0 0 12.125 28.53125 L 12.1875 28.625 A 1.001098 1.001098 0 0 0 12.25 28.6875 L 12.28125 28.71875 A 1.001098 1.001098 0 0 0 12.46875 28.875 L 17.28125 33.71875 A 1.016466 1.016466 0 1 0 18.71875 32.28125 L 15.4375 29 L 33.5625 29 L 30.28125 32.28125 A 1.016466 1.016466 0 1 0 31.71875 33.71875 L 36.71875 28.71875 L 37.40625 28 L 36.71875 27.28125 L 31.71875 22.28125 A 1.0001 1.0001 0 0 0 30.90625 21.96875 z" enable-background="accumulate" font-family="Bitstream Vera Sans" overflow="visible" style="text-indent:0;text-align:start;line-height:normal;text-transform:none;block-progression:tb;-inkscape-font-specification:Bitstream Vera Sans"/>
</svg>