<?xml version="1.0" encoding="UTF-8" standalone="no"?><svg xmlns="http://www.w3.org/2000/svg" enable-background="new 0 0 50 50" style="fill:#000000;fill-opacity:1.0" viewBox="0 0 50 50">
    <path d="M 6 0 L 6 1 L 6 49 L 6 50 L 7 50 L 43 50 L 44 50 L 44 49 L 44 1 L 44 0 L 43 0 L 28 0 L 22 0 L 7 0 L 6 0 z M 8 2 L 22 2 L 22 23.25 C 21.841945 23.334042 21.690378 23.434622 21.5625 23.5625 C 21.185469 23.939531 21 24.477778 21 25 L 21 27 C 21 27.522222 21.185469 28.060469 21.5625 28.4375 C 21.619974 28.494974 21.685661 28.545157 21.75 28.59375 C 21.569266 29.105949 21.40853 29.521058 21.0625 30.59375 C 20.808642 31.38071 20.539422 32.20563 20.34375 32.96875 C 20.148078 33.73187 20 34.391667 20 35 C 20 37.745455 22.254545 40 25 40 C 27.745455 40 30 37.745455 30 35 C 30 34.391667 29.851922 33.73187 29.65625 32.96875 C 29.460578 32.20563 29.191358 31.38071 28.9375 30.59375 C 28.59147 29.521058 28.430734 29.105949 28.25 28.59375 C 28.314339 28.545157 28.380026 28.494974 28.4375 28.4375 C 28.814531 28.060469 29 27.522222 29 27 L 29 25 C 29 24.477778 28.814531 23.939531 28.4375 23.5625 C 28.309622 23.434622 28.158055 23.334042 28 23.25 L 28 2 L 42 2 L 42 48 L 8 48 L 8 2 z M 24 2 L 25 2 L 25 4 L 26 4 L 26 8 L 25 8 L 25 10 L 26 10 L 26 14 L 25 14 L 25 16 L 26 16 L 26 20 L 25 20 L 25 22 L 26 22 L 26 23 L 24 23 L 24 19 L 25 19 L 25 17 L 24 17 L 24 13 L 25 13 L 25 11 L 24 11 L 24 7 L 25 7 L 25 5 L 24 5 L 24 2 z M 23 25 L 27 25 L 27 27 L 23 27 L 23 25 z M 23.71875 29 L 26.28125 29 C 26.434895 29.422827 26.68208 30.039448 27.0625 31.21875 C 27.308642 31.98179 27.539422 32.76937 27.71875 33.46875 C 27.898078 34.16813 28 34.808333 28 35 C 28 36.654545 26.654545 38 25 38 C 23.345455 38 22 36.654545 22 35 C 22 34.808333 22.101922 34.16813 22.28125 33.46875 C 22.460578 32.76937 22.691358 31.98179 22.9375 31.21875 C 23.31792 30.039448 23.565105 29.422827 23.71875 29 z M 25 33.5 C 24.171573 33.5 23.5 34.171573 23.5 35 C 23.5 35.828427 24.171573 36.5 25 36.5 C 25.828427 36.5 26.5 35.828427 26.5 35 C 26.5 34.171573 25.828427 33.5 25 33.5 z" style="text-indent:0;text-align:start;line-height:normal;text-transform:none;block-progression:tb;-inkscape-font-specification:Bitstream Vera Sans"/>
</svg>