<?xml version="1.0" encoding="UTF-8" standalone="no"?><svg xmlns="http://www.w3.org/2000/svg" height="50" style="fill:#000000;fill-opacity:1.0" viewBox="0 0 50 50" width="50">
    <path color="#000" d="M 2.84375 3 C 1.2832271 3 0 4.2843509 0 5.84375 L 0 10.8125 A 1.0001 1.0001 0 0 0 0 10.9375 L 0 11 L 0 12 L 0 46 A 1.0001 1.0001 0 0 0 1 47 L 49 47 A 1.0001 1.0001 0 0 0 50 46 L 50 11 A 1.0001 1.0001 0 0 0 50 10.90625 L 50 5.84375 C 50 4.2843509 48.716773 3 47.15625 3 L 2.84375 3 z M 2.84375 5 L 47.15625 5 C 47.635727 5 48 5.3651491 48 5.84375 L 48 10 L 2 10 L 2 5.84375 C 2 5.3651491 2.3642729 5 2.84375 5 z M 2 12 L 48 12 L 48 45 L 2 45 L 2 12 z M 14.90625 19.9375 A 1.0001 1.0001 0 0 0 14.375 21.65625 L 19.59375 27.03125 L 14.21875 32.25 A 1.0054782 1.0054782 0 1 0 15.625 33.6875 L 21.6875 27.75 L 22.40625 27.0625 L 21.71875 26.34375 L 15.78125 20.25 A 1.0001 1.0001 0 0 0 15.09375 19.9375 A 1.0001 1.0001 0 0 0 14.90625 19.9375 z M 22.8125 32 A 1.001098 1.001098 0 0 0 23 34 L 36 34 A 1.0001 1.0001 0 1 0 36 32 L 23 32 A 1.0001 1.0001 0 0 0 22.90625 32 A 1.001098 1.001098 0 0 0 22.8125 32 z" enable-background="accumulate" font-family="Bitstream Vera Sans" overflow="visible" style="text-indent:0;text-align:start;line-height:normal;text-transform:none;block-progression:tb;-inkscape-font-specification:Bitstream Vera Sans"/>
</svg>