<?xml version="1.0" encoding="UTF-8" standalone="no"?><svg xmlns="http://www.w3.org/2000/svg" height="50" style="fill:#000000;fill-opacity:0.60784316" viewBox="0 0 50 50" width="50">
    <path d="M 17 2 C 14.238576 2 12 4.2385763 12 7 C 12 9.7614237 14.238576 12 17 12 C 19.761424 12 22 9.7614237 22 7 C 22 4.2385763 19.761424 2 17 2 z M 32.8125 2 C 30.051076 2 27.8125 4.2385763 27.8125 7 C 27.8125 9.7614237 30.051076 12 32.8125 12 C 35.573924 12 37.8125 9.7614237 37.8125 7 C 37.8125 4.2385763 35.573924 2 32.8125 2 z M 17 13 C 15.888 13 14.8565 13.25675 13.9375 13.71875 C 15.8135 15.18375 17.03125 17.47225 17.03125 20.03125 C 17.03125 22.53625 15.8715 24.782 14.0625 26.25 C 15.5185 27.006 16.79125 28.058 17.78125 29.375 C 17.30525 28.353 17.03125 27.23125 17.03125 26.03125 C 17.03125 22.05825 19.95 18.743 23.75 18.125 C 22.947 15.147 20.253 13 17 13 z M 32.8125 13 C 29.5735 13 26.8785 15.13475 26.0625 18.09375 C 29.9805 18.60775 33.03125 21.97425 33.03125 26.03125 C 33.03125 27.15225 32.793 28.2195 32.375 29.1875 C 33.35 27.9525 34.57475 26.93775 35.96875 26.21875 C 34.17075 24.75075 33.03125 22.52725 33.03125 20.03125 C 33.03125 17.52025 34.185 15.2805 36 13.8125 C 35.044 13.3025 33.9855 13 32.8125 13 z M 9.03125 14.03125 C 5.7175415 14.03125 3.03125 16.717542 3.03125 20.03125 C 3.03125 23.344959 5.7175415 26.03125 9.03125 26.03125 C 12.344959 26.03125 15.03125 23.344959 15.03125 20.03125 C 15.03125 16.717542 12.344959 14.03125 9.03125 14.03125 z M 41.03125 14.03125 C 37.717542 14.03125 35.03125 16.717542 35.03125 20.03125 C 35.03125 23.344959 37.717542 26.03125 41.03125 26.03125 C 44.344959 26.03125 47.03125 23.344959 47.03125 20.03125 C 47.03125 16.717542 44.344959 14.03125 41.03125 14.03125 z M 25.03125 20.03125 C 21.717542 20.03125 19.03125 22.717542 19.03125 26.03125 C 19.03125 29.344959 21.717542 32.03125 25.03125 32.03125 C 28.344959 32.03125 31.03125 29.344959 31.03125 26.03125 C 31.03125 22.717542 28.344959 20.03125 25.03125 20.03125 z M 9 27 C 4.038 27 0 31.037 0 36 L 0 39.5 C 0 39.814 0.15425 40.1235 0.40625 40.3125 C 0.63825 40.4865 2.844 42 9 42 C 11.133 42 12.7945 41.8095 14.0625 41.5625 C 14.1895 38.4875 15.56475 35.7325 17.71875 33.8125 C 16.74275 29.8995 13.211 27 9 27 z M 41 27 C 36.803 27 33.27225 29.88825 32.28125 33.78125 C 34.46325 35.70525 35.874 38.49275 36 41.59375 C 37.261 41.83475 38.898 42 41 42 C 47.155 42 49.36175 40.4865 49.59375 40.3125 C 49.84575 40.1245 50 39.815 50 39.5 L 50 36 C 50 31.037 45.963 27 41 27 z M 25.03125 33.03125 C 20.06925 33.03125 16.03125 37.06825 16.03125 42.03125 L 16.03125 45.53125 C 16.03125 45.84625 16.1855 46.1245 16.4375 46.3125 C 16.6695 46.4865 18.87525 48.03125 25.03125 48.03125 C 31.18725 48.03125 33.394 46.4865 33.625 46.3125 C 33.877 46.1235 34.03125 45.84525 34.03125 45.53125 L 34.03125 42.03125 C 34.03125 37.06825 29.99425 33.03125 25.03125 33.03125 z"/>
</svg>