<?xml version="1.0" encoding="UTF-8" standalone="no"?><svg xmlns="http://www.w3.org/2000/svg" height="50" style="fill:#000000;fill-opacity:1.0" version="1" viewBox="0 0 50 50" width="50">
    <path d="M 17 2 C 13.698136 2 11 4.6981362 11 8 C 11 9.9837427 11.975134 11.750036 13.46875 12.84375 C 12.666756 13.24647 11.935923 13.766507 11.3125 14.40625 C 10.584472 14.148424 9.8142365 14 9 14 C 5.1458513 14 2 17.145852 2 21 C 2 23.449982 3.271259 25.623558 5.1875 26.875 C 2.1320721 28.318806 0 31.41551 0 35 L 0 39.5 A 1.0001 1.0001 0 0 0 0.40625 40.3125 C 0.40625 40.3125 1.1133012 40.812115 2.46875 41.21875 C 3.8241988 41.625385 5.9166667 42 9 42 C 12.083333 42 14.175801 41.625385 15.53125 41.21875 C 15.705903 41.166354 15.847003 41.116716 16 41.0625 L 16 45.5 A 1.0001 1.0001 0 0 0 16.40625 46.3125 C 16.40625 46.3125 17.113301 46.812115 18.46875 47.21875 C 19.824199 47.625385 21.916667 48 25 48 C 28.083333 48 30.175801 47.625385 31.53125 47.21875 C 32.886699 46.812115 33.59375 46.3125 33.59375 46.3125 A 1.0001 1.0001 0 0 0 34 45.5 L 34 41.0625 C 34.152997 41.116716 34.294097 41.166354 34.46875 41.21875 C 35.824199 41.625385 37.916667 42 41 42 C 44.083333 42 46.175801 41.625385 47.53125 41.21875 C 48.886699 40.812115 49.59375 40.3125 49.59375 40.3125 A 1.0001 1.0001 0 0 0 50 39.5 L 50 35 C 50 31.41551 47.867928 28.318806 44.8125 26.875 C 46.728741 25.623558 48 23.449982 48 21 C 48 17.145852 44.854148 14 41 14 C 40.128047 14 39.302471 14.174945 38.53125 14.46875 C 37.900863 13.810036 37.158794 13.256395 36.34375 12.84375 C 37.837366 11.750036 38.8125 9.9837427 38.8125 8 C 38.8125 4.6981362 36.114364 2 32.8125 2 C 29.510636 2 26.8125 4.6981362 26.8125 8 C 26.8125 9.9837427 27.787634 11.750036 29.28125 12.84375 C 26.984764 13.975307 25.305697 16.154733 24.90625 18.78125 C 24.506223 16.150919 22.832348 13.97451 20.53125 12.84375 C 22.024866 11.750036 23 9.9837427 23 8 C 23 4.6981362 20.301864 2 17 2 z M 17 4 C 19.220984 4 21 5.7790164 21 8 C 21 10.220984 19.220984 12 17 12 C 14.779016 12 13 10.220984 13 8 C 13 5.7790164 14.779016 4 17 4 z M 32.8125 4 C 35.033484 4 36.8125 5.7790164 36.8125 8 C 36.8125 10.220984 35.033484 12 32.8125 12 C 30.591516 12 28.8125 10.220984 28.8125 8 C 28.8125 5.7790164 30.591516 4 32.8125 4 z M 17 14 C 20.370085 14 23 16.629915 23 20 L 23 20.3125 C 20.123532 21.18269 18 23.846794 18 27 C 18 29.449982 19.271259 31.623558 21.1875 32.875 C 19.934478 33.467101 18.859078 34.33854 18 35.40625 L 18 35 C 18 31.41551 15.867928 28.318806 12.8125 26.875 C 14.728741 25.623558 16 23.449982 16 21 C 16 18.719489 14.885334 16.685824 13.1875 15.40625 C 14.22477 14.51847 15.51432 14 17 14 z M 32.8125 14 C 34.33805 14 35.668385 14.536392 36.71875 15.46875 C 35.07203 16.751712 34 18.759987 34 21 C 34 23.449982 35.271259 25.623558 37.1875 26.875 C 34.132072 28.318806 32 31.41551 32 35 L 32 35.40625 C 31.140922 34.33854 30.065522 33.467101 28.8125 32.875 C 30.728741 31.623558 32 29.449982 32 27 C 32 23.776493 29.787558 21.056455 26.8125 20.25 L 26.8125 20 C 26.8125 16.629915 29.442415 14 32.8125 14 z M 9 16 C 9.7775055 16 10.501685 16.186982 11.15625 16.5 C 12.836439 17.303479 14 19.004237 14 21 C 14 23.773268 11.773268 26 9 26 C 6.2267317 26 4 23.773268 4 21 C 4 18.226732 6.2267317 16 9 16 z M 41 16 C 43.773268 16 46 18.226732 46 21 C 46 23.773268 43.773268 26 41 26 C 38.226732 26 36 23.773268 36 21 C 36 19.152805 36.989469 17.553248 38.46875 16.6875 C 38.476682 16.682858 38.49204 16.6921 38.5 16.6875 A 1.0001 1.0001 0 0 0 38.90625 16.5 C 38.93981 16.48441 38.966034 16.452364 39 16.4375 A 1.0001 1.0001 0 0 0 39.0625 16.40625 C 39.661247 16.154162 40.306683 16 41 16 z M 25 22 C 27.773268 22 30 24.226732 30 27 C 30 29.773268 27.773268 32 25 32 C 22.226732 32 20 29.773268 20 27 C 20 24.226732 22.226732 22 25 22 z M 9 28 C 12.854545 28 16 31.145455 16 35 L 16 38.84375 C 15.850492 38.93532 15.793086 39.033949 14.96875 39.28125 C 13.824199 39.624615 11.916667 40 9 40 C 6.0833333 40 4.1758012 39.624615 3.03125 39.28125 C 2.2069144 39.033949 2.1495083 38.935324 2 38.84375 L 2 35 C 2 31.145455 5.1454545 28 9 28 z M 41 28 C 44.854545 28 48 31.145455 48 35 L 48 38.84375 C 47.850492 38.93532 47.793086 39.033949 46.96875 39.28125 C 45.824199 39.624615 43.916667 40 41 40 C 38.083333 40 36.175801 39.624615 35.03125 39.28125 C 34.206914 39.033949 34.149508 38.935324 34 38.84375 L 34 35 C 34 31.145455 37.145455 28 41 28 z M 25 34 C 28.854545 34 32 37.145455 32 41 L 32 44.84375 C 31.850492 44.93532 31.793086 45.033949 30.96875 45.28125 C 29.824199 45.624615 27.916667 46 25 46 C 22.083333 46 20.175801 45.624615 19.03125 45.28125 C 18.206914 45.033949 18.149508 44.935324 18 44.84375 L 18 41 C 18 37.145455 21.145455 34 25 34 z" style="text-indent:0;text-align:start;line-height:normal;text-transform:none;block-progression:tb;-inkscape-font-specification:Bitstream Vera Sans"/>
</svg>