<?xml version="1.0" encoding="UTF-8" standalone="no"?><svg xmlns="http://www.w3.org/2000/svg" height="50" style="fill:#000000;fill-opacity:1.0" viewBox="0 0 50 50" width="50">
    <path color="#000" d="M 19 0 L 19 6 L 21 8 L 21 2 L 36 2 L 36 13 L 36 14 L 37 14 L 48 14 L 48 40 L 33 40 L 33 42 L 50 42 L 50 12.59375 L 37.40625 0 L 19 0 z M 38 3.40625 L 46.59375 12 L 38 12 L 38 3.40625 z M 0 8 L 0 9 L 0 49 L 0 50 L 1 50 L 30 50 L 31 50 L 31 49 L 31 21 L 31 20.59375 L 30.71875 20.28125 L 18.71875 8.28125 L 18.40625 8 L 18 8 L 1 8 L 0 8 z M 2 10 L 17 10 L 17 21 L 17 22 L 18 22 L 29 22 L 29 48 L 2 48 L 2 10 z M 19 11.4375 L 27.5625 20 L 19 20 L 19 11.4375 z" enable-background="accumulate" font-family="Bitstream Vera Sans" overflow="visible" style="text-indent:0;text-align:start;line-height:normal;text-transform:none;block-progression:tb;-inkscape-font-specification:Bitstream Vera Sans"/>
</svg>