<?xml version="1.0" encoding="UTF-8" standalone="no"?><svg xmlns="http://www.w3.org/2000/svg" style="fill:#000000;fill-opacity:0.60784316" viewBox="0 0 32 32">
    <path d="M 12 4 L 12 5 L 12 10 L 12 11 L 13 11 L 15 11 L 15 15 L 6 15 L 5 15 L 5 16 L 5 21 L 3 21 L 2 21 L 2 22 L 2 27 L 2 28 L 3 28 L 9 28 L 10 28 L 10 27 L 10 22 L 10 21 L 9 21 L 7 21 L 7 17 L 15 17 L 15 21 L 13 21 L 12 21 L 12 22 L 12 27 L 12 28 L 13 28 L 19 28 L 20 28 L 20 27 L 20 22 L 20 21 L 19 21 L 17 21 L 17 17 L 25 17 L 25 21 L 23 21 L 22 21 L 22 22 L 22 27 L 22 28 L 23 28 L 29 28 L 30 28 L 30 27 L 30 22 L 30 21 L 29 21 L 27 21 L 27 16 L 27 15 L 26 15 L 17 15 L 17 11 L 19 11 L 20 11 L 20 10 L 20 5 L 20 4 L 19 4 L 13 4 L 12 4 z M 14 6 L 18 6 L 18 9 L 14 9 L 14 6 z M 4 23 L 8 23 L 8 26 L 4 26 L 4 23 z M 14 23 L 18 23 L 18 26 L 14 26 L 14 23 z M 24 23 L 28 23 L 28 26 L 24 26 L 24 23 z" style="text-indent:0;text-align:start;line-height:normal;text-transform:none;block-progression:tb;-inkscape-font-specification:Bitstream Vera Sans"/>
</svg>