<?xml version="1.0" encoding="UTF-8" standalone="no"?><svg xmlns="http://www.w3.org/2000/svg" height="50" style="fill:#000000;fill-opacity:1.0" viewBox="0 0 50 50" width="50">
    <path d="M 16 0 L 16 1 L 16 11 L 16 12 L 17 12 L 24 12 L 24 22 L 7 22 L 6 22 L 6 23 L 6 35 L 1 35 L 0 35 L 0 36 L 0 46 L 0 47 L 1 47 L 13 47 L 14 47 L 14 46 L 14 36 L 14 35 L 13 35 L 8 35 L 8 24 L 24 24 L 24 35 L 19 35 L 18 35 L 18 36 L 18 46 L 18 47 L 19 47 L 31 47 L 32 47 L 32 46 L 32 36 L 32 35 L 31 35 L 26 35 L 26 24 L 42 24 L 42 35 L 37 35 L 36 35 L 36 36 L 36 46 L 36 47 L 37 47 L 49 47 L 50 47 L 50 46 L 50 36 L 50 35 L 49 35 L 44 35 L 44 23 L 44 22 L 43 22 L 26 22 L 26 12 L 33 12 L 34 12 L 34 11 L 34 1 L 34 0 L 33 0 L 17 0 L 16 0 z M 18 2 L 32 2 L 32 10 L 25.21875 10 A 1.0001 1.0001 0 0 0 24.90625 9.96875 A 1.0001 1.0001 0 0 0 24.8125 10 L 18 10 L 18 2 z M 2 37 L 6.8125 37 L 7.21875 37 L 12 37 L 12 45 L 2 45 L 2 37 z M 20 37 L 30 37 L 30 45 L 20 45 L 20 37 z M 38 37 L 42.8125 37 L 43.21875 37 L 48 37 L 48 45 L 38 45 L 38 37 z" style="text-indent:0;text-align:start;line-height:normal;text-transform:none;block-progression:tb;-inkscape-font-specification:Bitstream Vera Sans"/>
</svg>