<?xml version="1.0" encoding="UTF-8" standalone="no"?><svg xmlns="http://www.w3.org/2000/svg" height="50" style="fill:#000000;fill-opacity:1.0" viewBox="0 0 50 50" width="50">
    <path color="#000" d="M 20.09375 0 A 1.0001 1.0001 0 0 0 19.21875 0.84375 L 18.25 6.8125 C 17.081459 7.1525283 15.957482 7.5844193 14.90625 8.15625 L 10 4.65625 A 1.0001 1.0001 0 0 0 8.71875 4.75 L 4.8125 8.65625 A 1.0001 1.0001 0 0 0 4.71875 9.9375 L 8.15625 14.875 C 7.572271 15.940241 7.098685 17.060233 6.75 18.25 L 0.84375 19.21875 A 1.0001 1.0001 0 0 0 0 20.21875 L 0 25.71875 A 1.0001 1.0001 0 0 0 0.8125 26.6875 L 6.78125 27.75 C 7.1271339 28.924816 7.5768347 30.039623 8.15625 31.09375 L 4.65625 36 A 1.0001 1.0001 0 0 0 4.75 37.28125 L 8.65625 41.1875 A 1.0001 1.0001 0 0 0 9.9375 41.28125 L 14.84375 37.8125 C 15.90505 38.394764 17.036354 38.841554 18.21875 39.1875 L 19.21875 45.15625 A 1.0001 1.0001 0 0 0 20.21875 46 L 25.71875 46 A 1.0001 1.0001 0 0 0 26 45.9375 L 26 49 A 1.0001 1.0001 0 0 0 27 50 L 49 50 A 1.0001 1.0001 0 0 0 50 49 L 50 33 A 1.0001 1.0001 0 0 0 50 32.90625 L 50 31.84375 C 50 30.284351 48.716773 29 47.15625 29 L 38.78125 29 C 38.931971 28.586891 39.0913 28.152003 39.21875 27.75 L 45.15625 26.6875 A 1.0001 1.0001 0 0 0 46 25.71875 L 46 20.21875 A 1.0001 1.0001 0 0 0 45.15625 19.21875 L 39.15625 18.25 C 38.814276 17.09254 38.348623 15.978586 37.78125 14.9375 L 41.28125 9.9375 A 1.0001 1.0001 0 0 0 41.1875 8.65625 L 37.28125 4.75 A 1.0001 1.0001 0 0 0 36 4.65625 L 31.09375 8.1875 C 30.041899 7.607442 28.925435 7.160151 27.75 6.8125 L 26.6875 0.8125 A 1.0001 1.0001 0 0 0 25.71875 0 L 20.21875 0 A 1.0001 1.0001 0 0 0 20.09375 0 z M 21.0625 2 L 24.875 2 L 25.875 7.6875 A 1.0001 1.0001 0 0 0 26.59375 8.46875 C 28.056163 8.8331823 29.433559 9.4283879 30.6875 10.1875 A 1.0001 1.0001 0 0 0 31.78125 10.15625 L 36.46875 6.78125 L 39.15625 9.46875 L 35.84375 14.21875 A 1.0001 1.0001 0 0 0 35.78125 15.3125 C 36.532741 16.563424 37.104656 17.919561 37.46875 19.375 A 1.0001 1.0001 0 0 0 38.28125 20.125 L 44 21.0625 L 44 24.875 L 38.28125 25.875 A 1.0001 1.0001 0 0 0 37.46875 26.625 C 37.350932 27.100566 36.970421 28.161564 36.65625 29 L 28.84375 29 C 28.82234 29 28.802553 28.999519 28.78125 29 C 30.358787 27.479752 31.34375 25.350818 31.34375 23 C 31.34375 18.410455 27.590576 14.65625 23 14.65625 C 18.409424 14.65625 14.65625 18.410455 14.65625 23 C 14.65625 27.58971 18.41029 31.34375 23 31.34375 C 24.147644 31.34375 25.25259 31.111168 26.25 30.6875 C 26.088252 31.043547 26 31.430185 26 31.84375 L 26 32.8125 A 1.0001 1.0001 0 0 0 26 32.9375 L 26 33 L 26 34 L 26 38.46875 L 24.875 44 L 21.0625 44 L 20.125 38.34375 A 1.0001 1.0001 0 0 0 19.375 37.53125 C 17.911129 37.170437 16.510352 36.601836 15.25 35.84375 A 1.0001 1.0001 0 0 0 14.15625 35.875 L 9.46875 39.15625 L 6.78125 36.46875 L 10.09375 31.8125 A 1.0001 1.0001 0 0 0 10.125 30.71875 C 9.3589659 29.453903 8.8019556 28.095002 8.4375 26.625 A 1.0001 1.0001 0 0 0 7.625 25.875 L 2 24.875 L 2 21.0625 L 7.625 20.125 A 1.0001 1.0001 0 0 0 8.4375 19.375 C 8.8062259 17.900097 9.3929214 16.514087 10.15625 15.25 A 1.0001 1.0001 0 0 0 10.125 14.15625 L 6.8125 9.46875 L 9.53125 6.78125 L 14.1875 10.09375 A 1.0001 1.0001 0 0 0 15.28125 10.15625 C 16.536024 9.4017027 17.908908 8.8291722 19.375 8.46875 A 1.0001 1.0001 0 0 0 20.125 7.65625 L 21.0625 2 z M 23 16.65625 C 26.509424 16.65625 29.34375 19.491545 29.34375 23 C 29.34375 26.508455 26.509424 29.34375 23 29.34375 C 19.49171 29.34375 16.65625 26.50829 16.65625 23 C 16.65625 19.491545 19.490576 16.65625 23 16.65625 z M 28.84375 31 L 37.0625 31 A 1.0001 1.0001 0 0 0 37.65625 31 L 37.75 31 L 47.15625 31 C 47.635727 31 48 31.365149 48 31.84375 L 48 32 L 28 32 L 28 31.84375 C 28 31.365149 28.364273 31 28.84375 31 z M 28 34 L 48 34 L 48 48 L 28 48 L 28 38.59375 A 1.0001 1.0001 0 0 0 28 38.09375 L 28 34 z M 37 34.59375 L 36.28125 35.28125 L 32.9375 38.625 L 31.65625 37.53125 L 30.90625 36.875 L 29.59375 38.40625 L 30.34375 39.03125 L 32.34375 40.75 L 33.0625 41.375 L 33.71875 40.71875 L 37.71875 36.71875 L 38.40625 36 L 37 34.59375 z M 37 39.59375 L 36.28125 40.28125 L 32.9375 43.625 L 31.65625 42.53125 L 30.90625 41.875 L 29.59375 43.40625 L 30.34375 44.03125 L 32.34375 45.75 L 33.0625 46.375 L 33.71875 45.71875 L 37.71875 41.71875 L 38.40625 41 L 37 39.59375 z" enable-background="accumulate" font-family="Bitstream Vera Sans" overflow="visible" style="text-indent:0;text-align:start;line-height:normal;text-transform:none;block-progression:tb;-inkscape-font-specification:Bitstream Vera Sans"/>
</svg>