<?xml version="1.0" encoding="UTF-8" standalone="no"?><svg xmlns="http://www.w3.org/2000/svg" height="50" style="fill:#000000;fill-opacity:1.0" viewBox="0 0 50 50" width="50">
    <path color="#000" d="M 25 1.21875 C 17.830848 1.21875 12 7.0495981 12 14.21875 L 12 20 L 8 20 C 6.3549372 20 5 21.354937 5 23 L 5 47 C 5 48.645063 6.3549372 50 8 50 L 42 50 C 43.645063 50 45 48.645063 45 47 L 45 23 C 45 21.354937 43.645063 20 42 20 L 38 20 L 38 14.21875 C 38 7.0495981 32.169152 1.21875 25 1.21875 z M 25 3.21875 C 31.088848 3.21875 36 8.1299019 36 14.21875 L 36 20 L 14 20 L 14 14.21875 C 14 8.1299019 18.911152 3.21875 25 3.21875 z M 8 22 L 42 22 C 42.562937 22 43 22.437063 43 23 L 43 47 C 43 47.562937 42.562937 48 42 48 L 8 48 C 7.4370628 48 7 47.562937 7 47 L 7 23 C 7 22.437063 7.4370628 22 8 22 z M 13 33 C 11.895431 33 11 33.895431 11 35 C 11 36.104569 11.895431 37 13 37 C 14.104569 37 15 36.104569 15 35 C 15 33.895431 14.104569 33 13 33 z M 21 33 C 19.895431 33 19 33.895431 19 35 C 19 36.104569 19.895431 37 21 37 C 22.104569 37 23 36.104569 23 35 C 23 33.895431 22.104569 33 21 33 z M 29 33 C 27.895431 33 27 33.895431 27 35 C 27 36.104569 27.895431 37 29 37 C 30.104569 37 31 36.104569 31 35 C 31 33.895431 30.104569 33 29 33 z M 37 33 C 35.895431 33 35 33.895431 35 35 C 35 36.104569 35.895431 37 37 37 C 38.104569 37 39 36.104569 39 35 C 39 33.895431 38.104569 33 37 33 z" enable-background="accumulate" font-family="Bitstream Vera Sans" overflow="visible" style="text-indent:0;text-align:start;line-height:normal;text-transform:none;block-progression:tb;-inkscape-font-specification:Bitstream Vera Sans"/>
</svg>