<?xml version="1.0" encoding="UTF-8" standalone="no"?><svg xmlns="http://www.w3.org/2000/svg" height="50" style="fill:#000000;fill-opacity:1.0" viewBox="0 0 50 50" width="50">
    <path color="#000" d="M 3 3 C 1.3549372 3 0 4.3549372 0 6 L 0 10 L 0 16 L 0 27 A 1.0001 1.0001 0 0 0 0 27.09375 L 0 40 L 0 44 C 0 45.645063 1.3549372 47 3 47 L 47 47 C 48.645063 47 50 45.645063 50 44 L 50 27.15625 A 1.0001 1.0001 0 0 0 50 27 L 50 16 L 50 10 C 50 8.3549372 48.645063 7 47 7 L 18.03125 7 C 18.034467 7.0043661 18.021642 7 18 7 C 17.967808 6.9776841 17.877597 6.9017991 17.71875 6.71875 C 17.474368 6.437136 17.189184 5.9699412 16.875 5.46875 C 16.560816 4.9675588 16.227636 4.4386492 15.8125 3.96875 C 15.397364 3.4988508 14.818754 3 14 3 L 3 3 z M 3 5 L 14 5 C 13.93925 5 14.06504 5.00115 14.3125 5.28125 C 14.559957 5.5613508 14.843559 6.0324412 15.15625 6.53125 C 15.468941 7.0300588 15.812289 7.562864 16.21875 8.03125 C 16.625211 8.499636 17.178927 9 18 9 L 47 9 C 47.562937 9 48 9.4370628 48 10 L 48 13.1875 C 47.684236 13.073242 47.353003 13 47 13 L 3 13 C 2.6469969 13 2.3157637 13.073242 2 13.1875 L 2 10 L 2 6 C 2 5.4370628 2.4370628 5 3 5 z M 3 15 L 47 15 C 47.562937 15 48 15.437063 48 16 L 48 27 A 1.0001 1.0001 0 0 0 48 27.09375 L 48 44 C 48 44.562937 47.562937 45 47 45 L 3 45 C 2.4370628 45 2 44.562937 2 44 L 2 40 L 2 27.15625 A 1.0001 1.0001 0 0 0 2 27 L 2 16 C 2 15.437063 2.4370628 15 3 15 z" enable-background="accumulate" font-family="Bitstream Vera Sans" overflow="visible" style="text-indent:0;text-align:start;line-height:normal;text-transform:none;block-progression:tb;-inkscape-font-specification:Bitstream Vera Sans"/>
</svg>