<?xml version="1.0" encoding="UTF-8" standalone="no"?><svg xmlns="http://www.w3.org/2000/svg" height="50" style="fill:#000000;fill-opacity:1.0" viewBox="0 0 50 50" width="50">
    <path color="#000" d="M 43.125 2 C 41.87925 2.00025 40.638 2.4875 39.6875 3.4375 L 38.875 4.25 L 45.75 11.125 C 45.745 11.129 46.5625 10.3125 46.5625 10.3125 C 48.4635 8.4115 48.4615 5.3375 46.5625 3.4375 C 45.611 2.4865 44.37075 1.99975 43.125 2 z M 37.34375 6.03125 A 1.0001 1.0001 0 0 0 36.75 6.34375 L 4.3125 38.8125 A 1.0001 1.0001 0 0 0 4.03125 39.25 L 2.03125 46.75 A 1.0001 1.0001 0 0 0 3.25 47.96875 L 10.75 45.96875 A 1.0001 1.0001 0 0 0 11.1875 45.6875 L 43.65625 13.25 A 1.0054782 1.0054782 0 1 0 42.25 11.8125 L 9.96875 44.09375 L 5.90625 40.03125 L 38.1875 7.75 A 1.0001 1.0001 0 0 0 37.4375 6.03125 A 1.0001 1.0001 0 0 0 37.34375 6.03125 z" enable-background="accumulate" font-family="Bitstream Vera Sans" overflow="visible" style="text-indent:0;text-align:start;line-height:normal;text-transform:none;block-progression:tb;-inkscape-font-specification:Bitstream Vera Sans"/>
</svg>