<?xml version="1.0" encoding="UTF-8" standalone="no"?><svg xmlns="http://www.w3.org/2000/svg" enable-background="new 0 0 50 50" style="fill:#000000;fill-opacity:1.0" viewBox="0 0 50 50">
    <path color="#000" d="M 25 3 C 12.86158 3 3 12.86158 3 25 C 3 37.13842 12.86158 47 25 47 C 37.13842 47 47 37.13842 47 25 C 47 12.86158 37.13842 3 25 3 z M 25 5 C 36.05754 5 45 13.94246 45 25 C 45 36.05754 36.05754 45 25 45 C 13.94246 45 5 36.05754 5 25 C 5 13.94246 13.94246 5 25 5 z M 13.8125 21 A 1.0001 1.0001 0 0 0 13 22 L 13 28 A 1.0001 1.0001 0 0 0 14 29 L 36 29 A 1.0001 1.0001 0 0 0 37 28 L 37 22 A 1.0001 1.0001 0 0 0 36 21 L 14 21 A 1.0001 1.0001 0 0 0 13.90625 21 A 1.0001 1.0001 0 0 0 13.8125 21 z M 15 23 L 35 23 L 35 27 L 15 27 L 15 23 z" enable-background="accumulate" font-family="Bitstream Vera Sans" overflow="visible" style="text-indent:0;text-align:start;line-height:normal;text-transform:none;block-progression:tb;-inkscape-font-specification:Bitstream Vera Sans"/>
</svg>