<?xml version="1.0" encoding="UTF-8" standalone="no"?><svg xmlns="http://www.w3.org/2000/svg" enable-background="new 0 0 50 50" style="fill:#000000;fill-opacity:1.0" viewBox="0 0 50 50">
    <path color="#000" d="M 25 2 C 12.309296 2 2 12.309296 2 25 C 2 37.690704 12.309296 48 25 48 C 37.690704 48 48 37.690704 48 25 C 48 12.309296 37.690704 2 25 2 z M 25 4 C 36.609824 4 46 13.390176 46 25 C 46 36.609824 36.609824 46 25 46 C 13.390176 46 4 36.609824 4 25 C 4 20.089685 5.6830305 15.5737 8.5 12 L 25 12 L 25 10 L 10.3125 10 C 11.054029 9.2738583 11.845029 8.6104398 12.6875 8 L 25 8 L 25 6 L 16.09375 6 C 18.79965 4.7311149 21.810307 4 25 4 z M 9.90625 14 L 12.5 15.90625 L 11.90625 16.71875 L 23 24.8125 C 22.994239 24.874345 23 24.93665 23 25 C 23 26.104569 23.895431 27 25 27 C 25.977056 27 26.793967 26.301254 26.96875 25.375 L 36.40625 22.25 L 35.78125 20.34375 L 26.3125 23.53125 C 25.958886 23.215545 25.511339 23 25 23 L 25 22 L 22.5625 22 L 19.8125 20 L 25 20 L 25 18 L 17.0625 18 L 14.34375 16 L 25 16 L 25 14 L 9.90625 14 z" enable-background="accumulate" font-family="Bitstream Vera Sans" overflow="visible" style="text-indent:0;text-align:start;line-height:normal;text-transform:none;block-progression:tb;-inkscape-font-specification:Bitstream Vera Sans"/>
</svg>