<?xml version="1.0" encoding="UTF-8" standalone="no"?><svg xmlns="http://www.w3.org/2000/svg" style="fill:#000000;fill-opacity:1.0" viewBox="0 0 50 50">
    <path color="#000" d="M 24.90625 1.96875 A 1.0001 1.0001 0 0 0 24.78125 2 A 1.0001 1.0001 0 0 0 24 3 L 24 25 A 1.0001 1.0001 0 1 0 26 25 L 26 3 A 1.0001 1.0001 0 0 0 24.90625 1.96875 z M 15.9375 3.90625 A 1.0001 1.0001 0 0 0 15.59375 4 C 7.5831904 7.5980075 2 15.658998 2 25 C 2 37.690466 12.309534 48 25 48 C 37.690466 48 48 37.690466 48 25 C 48 15.658998 42.41681 7.5980075 34.40625 4 A 1.0074188 1.0074188 0 1 0 33.59375 5.84375 C 40.90519 9.1277425 46 16.455002 46 25 C 46 36.609534 36.609534 46 25 46 C 13.390466 46 4 36.609534 4 25 C 4 16.455002 9.0948096 9.1277425 16.40625 5.84375 A 1.0001 1.0001 0 0 0 16.03125 3.90625 A 1.0001 1.0001 0 0 0 15.9375 3.90625 z" font-family="Sans" overflow="visible" style="text-indent:0;text-align:start;line-height:normal;text-transform:none;block-progression:tb;-inkscape-font-specification:Sans"/>
</svg>