<?xml version="1.0" encoding="UTF-8" standalone="no"?><svg xmlns="http://www.w3.org/2000/svg" height="50" style="fill:#000000;fill-opacity:1.0" viewBox="0 0 50 50" width="50">
    <path color="#000" d="M 0.78125 -0.03125 A 1.040104 1.040104 0 0 0 -0.03125 1 L -0.03125 49 A 1.040104 1.040104 0 0 0 1 50.03125 L 31 50.03125 A 1.040104 1.040104 0 0 0 32.03125 49 L 32.03125 39 L 29.96875 39 L 29.96875 47.96875 L 2.03125 47.96875 L 2.03125 2.03125 L 29.96875 2.03125 L 29.96875 11 L 32.03125 11 L 32.03125 1 A 1.040104 1.040104 0 0 0 31 -0.03125 L 1 -0.03125 A 1.040104 1.040104 0 0 0 0.78125 -0.03125 z M 38.90625 15.09375 A 1.0001 1.0001 0 0 0 38.40625 16.8125 L 45.5625 24 L 16 24 A 1.0001 1.0001 0 0 0 15.90625 24 A 1.001098 1.001098 0 0 0 16 26 L 45.5625 26 L 38.40625 33.1875 A 1.0001 1.0001 0 1 0 39.8125 34.59375 L 48.71875 25.71875 L 49.40625 25 L 48.71875 24.28125 L 39.8125 15.40625 A 1.0001 1.0001 0 0 0 39 15.09375 A 1.0001 1.0001 0 0 0 38.90625 15.09375 z" enable-background="accumulate" font-family="Bitstream Vera Sans" overflow="visible" style="text-indent:0;text-align:start;line-height:normal;text-transform:none;block-progression:tb;-inkscape-font-specification:Bitstream Vera Sans"/>
</svg>