<?xml version="1.0" encoding="UTF-8" standalone="no"?><svg xmlns="http://www.w3.org/2000/svg" height="50" style="fill:#000000;fill-opacity:1.0" viewBox="0 0 50 50" width="50">
    <path color="#000" d="M 8.8125 6 A 1.0001 1.0001 0 0 0 8 7 L 8 11 L 1 11 A 1.0001 1.0001 0 0 0 0.90625 11 A 1.0001 1.0001 0 0 0 0 12 L 0 44 A 1.0001 1.0001 0 0 0 1 45 L 49 45 A 1.0001 1.0001 0 0 0 50 44 L 50 12 A 1.0001 1.0001 0 0 0 49 11 L 42 11 L 42 7 A 1.0001 1.0001 0 0 0 41 6 L 33 6 A 1.0001 1.0001 0 0 0 32.90625 6 A 1.0001 1.0001 0 0 0 32 7 L 32 11 L 18 11 L 18 7 A 1.0001 1.0001 0 0 0 17 6 L 9 6 A 1.0001 1.0001 0 0 0 8.90625 6 A 1.0001 1.0001 0 0 0 8.8125 6 z M 10 8 L 16 8 L 16 11 L 10 11 L 10 8 z M 34 8 L 40 8 L 40 11 L 34 11 L 34 8 z M 2 13 L 32.8125 13 L 33.21875 13 L 40.8125 13 L 41.21875 13 L 48 13 L 48 43 L 2 43 L 2 13 z" enable-background="accumulate" font-family="Bitstream Vera Sans" overflow="visible" style="text-indent:0;text-align:start;line-height:normal;text-transform:none;block-progression:tb;-inkscape-font-specification:Bitstream Vera Sans"/>
</svg>