<?xml version="1.0" encoding="UTF-8" standalone="no"?>
<svg
   xmlns:dc="http://purl.org/dc/elements/1.1/"
   xmlns:cc="http://creativecommons.org/ns#"
   xmlns:rdf="http://www.w3.org/1999/02/22-rdf-syntax-ns#"
   xmlns:svg="http://www.w3.org/2000/svg"
   xmlns="http://www.w3.org/2000/svg"
   xmlns:sodipodi="http://sodipodi.sourceforge.net/DTD/sodipodi-0.dtd"
   xmlns:inkscape="http://www.inkscape.org/namespaces/inkscape"
   enable-background="new 0 0 50 50"
   style="fill:#000000;fill-opacity:1.0"
   version="1"
   viewBox="0 0 50 50"
   id="svg2"
   inkscape:version="0.91 r13725"
   sodipodi:docname="extract_run.svg">
  <metadata
     id="metadata10">
    <rdf:RDF>
      <cc:Work
         rdf:about="">
        <dc:format>image/svg+xml</dc:format>
        <dc:type
           rdf:resource="http://purl.org/dc/dcmitype/StillImage" />
        <dc:title></dc:title>
      </cc:Work>
    </rdf:RDF>
  </metadata>
  <defs
     id="defs8" />
  <sodipodi:namedview
     pagecolor="#ffffff"
     bordercolor="#666666"
     borderopacity="1"
     objecttolerance="10"
     gridtolerance="10"
     guidetolerance="10"
     inkscape:pageopacity="0"
     inkscape:pageshadow="2"
     inkscape:window-width="1200"
     inkscape:window-height="1857"
     id="namedview6"
     showgrid="false"
     inkscape:zoom="13.350176"
     inkscape:cx="31.269815"
     inkscape:cy="46.507512"
     inkscape:window-x="-8"
     inkscape:window-y="-8"
     inkscape:window-maximized="1"
     inkscape:current-layer="g4195" />
  <path
     style="text-indent:0;text-align:start;line-height:normal;text-transform:none;block-progression:tb;-inkscape-font-specification:Bitstream Vera Sans;fill:#000000;fill-opacity:1.0"
     d="M 0.71875 1 A 1.0043849 1.0043849 0 0 0 0.21875 2.75 C 0.47586571 3.5173679 1 5.5093403 1 8.6875 C 1 10.656199 0.74648958 11.894221 0.53125 12.59375 C 0.42795071 12.929472 0.34253679 13.129201 0.28125 13.25 A 1.0001 1.0001 0 0 0 0.0625 13.625 A 1.0001 1.0001 0 0 0 0 13.8125 A 1.0001 1.0001 0 0 0 0.0625 14.375 A 1.0001 1.0001 0 0 0 0.125 14.5 C 0.25182481 14.81757 1 16.873709 1 20.6875 C 1 22.656199 0.74648958 23.894221 0.53125 24.59375 C 0.42795071 24.929472 0.34253679 25.129201 0.28125 25.25 A 1.0001 1.0001 0 0 0 0.0625 25.625 A 1.0001 1.0001 0 0 0 0 25.8125 A 1.0001 1.0001 0 0 0 0.0625 26.375 A 1.0001 1.0001 0 0 0 0.125 26.5 C 0.25182481 26.81757 1 28.873709 1 32.6875 C 1 34.656199 0.74648958 35.894221 0.53125 36.59375 C 0.42363021 36.943514 0.34367648 37.16368 0.28125 37.28125 C 0.2188235 37.39882 0.21875 37.375 0.21875 37.375 A 1.0001 1.0001 0 0 0 0.375 38.78125 L 12.25 48.65625 A 1.0001 1.0001 0 0 0 12.34375 48.75 L 12.375 48.78125 A 1.0001 1.0001 0 0 0 12.40625 48.8125 A 1.0004882 1.0004882 0 0 0 12.46875 48.84375 A 1.0001 1.0001 0 0 0 12.5 48.875 A 1.0004882 1.0004882 0 0 0 12.53125 48.875 A 1.0001 1.0001 0 0 0 12.59375 48.90625 A 1.0004882 1.0004882 0 0 0 12.625 48.9375 A 1.0001 1.0001 0 0 0 12.6875 48.9375 A 1.0004882 1.0004882 0 0 0 12.71875 48.96875 A 1.0001 1.0001 0 0 0 12.78125 48.96875 A 1.0004882 1.0004882 0 0 0 12.8125 49 A 1.0001 1.0001 0 0 0 12.875 49 A 1.0004882 1.0004882 0 0 0 12.9375 49 A 1.0001 1.0001 0 0 0 12.96875 49 A 1.0004882 1.0004882 0 0 0 13.03125 49 L 27.248047 49 A 16.313559 16.313559 0 0 1 24.076172 47 L 14.34375 47 C 14.652202 45.914423 15 44.34222 15 42 C 15 39.65778 14.652202 38.085577 14.34375 37 L 18.234375 37 A 16.313559 16.313559 0 0 1 18.03125 35 L 14.34375 35 C 14.652202 33.914423 15 32.34222 15 30 C 15 27.65778 14.652202 26.085577 14.34375 25 L 20.941406 25 A 16.313559 16.313559 0 0 1 22.601562 23 L 14.34375 23 C 14.652202 21.914423 15 20.34222 15 18 C 15 15.65778 14.652202 14.085577 14.34375 13 L 27.78125 13 C 27.914661 13.342006 28 13.707024 28 14.09375 L 28 19.300781 A 16.313559 16.313559 0 0 1 30 18.59375 L 30 14.09375 C 30 13.014315 29.638177 11.984325 29 11.125 L 29 11 L 28.90625 11 C 28.612457 10.628165 28.273626 10.28991 27.875 10 L 18.125 3 L 20.65625 3 L 32.71875 11.625 C 33.560442 12.246025 34 13.109356 34 14.09375 L 34 18.019531 A 16.313559 16.313559 0 0 1 34.322266 18.007812 A 16.313559 16.313559 0 0 1 36 18.097656 L 36 14.09375 C 36 13.724343 35.954767 13.353662 35.875 13 L 47.28125 13 C 47.514694 13.599617 48 15.031938 48 18 C 48 20.968062 47.514694 22.400383 47.28125 23 L 46.0625 23 A 16.313559 16.313559 0 0 1 49.996094 29.822266 C 49.971538 26.86897 49.363902 24.839118 49.0625 24 C 49.370117 23.14358 50 21.053205 50 18 C 50 14.513912 49.230455 12.383091 49 11.8125 A 1.0063276 1.0063276 0 0 0 48.90625 11.5625 A 1.0001 1.0001 0 0 0 48.875 11.53125 A 1.0063276 1.0063276 0 0 0 48.875 11.5 A 1.0001 1.0001 0 0 0 48.84375 11.4375 A 1.0063276 1.0063276 0 0 0 48.8125 11.40625 A 1.0001 1.0001 0 0 0 48.78125 11.34375 A 1.0063276 1.0063276 0 0 0 48.75 11.3125 A 1.0001 1.0001 0 0 0 48.6875 11.28125 A 1.0063276 1.0063276 0 0 0 48.65625 11.25 A 1.0001 1.0001 0 0 0 48.625 11.21875 A 1.0063276 1.0063276 0 0 0 48.59375 11.1875 A 1.0001 1.0001 0 0 0 48.5 11.125 L 34.59375 1.1875 A 1.0001 1.0001 0 0 0 34 1 L 1.0625 1 A 1.0001 1.0001 0 0 0 1 1 A 1.0001 1.0001 0 0 0 0.96875 1 A 1.0001 1.0001 0 0 0 0.90625 1 A 1.0001 1.0001 0 0 0 0.8125 1 A 1.0043849 1.0043849 0 0 0 0.71875 1 z M 3.75 3 L 14.65625 3 L 25.84375 11 L 13.375 11 L 3.75 3 z M 24.125 3 L 33.65625 3 L 44.875 11 L 35 11 L 35 11.125 C 34.687687 10.704461 34.316878 10.321366 33.875 10 L 24.125 3 z M 2.59375 4.625 L 12.1875 12.625 C 12.373992 13.064081 13 14.788156 13 18 C 13 19.975869 12.770485 21.391766 12.53125 22.3125 L 2.25 13.71875 C 2.322344 13.544168 2.3957317 13.42481 2.46875 13.1875 C 2.7535104 12.262029 3 10.818801 3 8.6875 C 3 6.9434831 2.7946105 5.7612745 2.59375 4.625 z M 18.90625 13.96875 A 1.0001 1.0001 0 0 0 18.8125 14 A 1.0001 1.0001 0 0 0 18.0625 15.375 C 18.0625 15.375 18.40625 16.133333 18.40625 18 C 18.40625 19.866667 18.0625 20.625 18.0625 20.625 A 1.0097184 1.0097184 0 0 0 19.9375 21.375 C 19.9375 21.375 20.40625 20.133333 20.40625 18 C 20.40625 15.866667 19.9375 14.625 19.9375 14.625 A 1.0001 1.0001 0 0 0 19 13.96875 A 1.0001 1.0001 0 0 0 18.90625 13.96875 z M 32 14 C 31.447715 14 31 14.447715 31 15 C 31 15.552285 31.447715 16 32 16 C 32.552285 16 33 15.552285 33 15 C 33 14.447715 32.552285 14 32 14 z M 2.6875 16.71875 L 12.15625 24.59375 C 12.315576 24.957138 13 26.685989 13 30 C 13 31.949994 12.7677 33.359055 12.53125 34.28125 L 2.25 25.71875 C 2.322344 25.544168 2.3957317 25.42481 2.46875 25.1875 C 2.7535104 24.262029 3 22.818801 3 20.6875 C 3 19.116648 2.8585402 17.79688 2.6875 16.71875 z M 31.996094 17.976562 A 1.0001 1.0001 0 0 0 31.78125 18 A 1.0001 1.0001 0 0 0 31.251953 18.3125 A 16.313559 16.313559 0 0 1 32.525391 18.126953 A 1.0001 1.0001 0 0 0 31.996094 17.976562 z M 18.90625 25.96875 A 1.0001 1.0001 0 0 0 18.8125 26 A 1.0001 1.0001 0 0 0 18.0625 27.375 C 18.0625 27.375 18.40625 28.133333 18.40625 30 C 18.40625 30.378368 18.383849 30.680494 18.361328 30.970703 A 16.313559 16.313559 0 0 1 19.941406 26.634766 C 19.941294 26.634465 19.9375 26.625 19.9375 26.625 A 1.0001 1.0001 0 0 0 19 25.96875 A 1.0001 1.0001 0 0 0 18.90625 25.96875 z M 2.6875 28.71875 L 12.1875 36.625 C 12.373992 37.064081 13 38.788156 13 42 C 13 43.975869 12.770485 45.391766 12.53125 46.3125 L 2.25 37.71875 C 2.322344 37.544168 2.3957317 37.42481 2.46875 37.1875 C 2.7535104 36.262029 3 34.818801 3 32.6875 C 3 31.116648 2.8585402 29.79688 2.6875 28.71875 z M 18.144531 32.332031 C 18.11468 32.423316 18.0625 32.625 18.0625 32.625 A 1.0097184 1.0097184 0 0 0 18.056641 33.355469 A 16.313559 16.313559 0 0 1 18.144531 32.332031 z M 18.476562 38.123047 A 1.0001 1.0001 0 0 0 18.0625 39.375 C 18.0625 39.375 18.40625 40.133333 18.40625 42 C 18.40625 43.866667 18.0625 44.625 18.0625 44.625 A 1.0097184 1.0097184 0 0 0 19.9375 45.375 C 19.9375 45.375 20.274959 44.391476 20.367188 42.742188 A 16.313559 16.313559 0 0 1 18.476562 38.123047 z M 49.820312 39.376953 A 16.313559 16.313559 0 0 1 47.947266 43.271484 C 47.8312 45.351958 47.476624 46.498168 47.28125 47 L 44.578125 47 A 16.313559 16.313559 0 0 1 41.412109 49 L 48 49 A 1.0001 1.0001 0 0 0 48.90625 48.4375 C 48.90625 48.4375 50 46.07094 50 42 C 50 41.006785 49.920846 40.157058 49.820312 39.376953 z "
     id="path4" />
  <g
     style="fill:#000000;fill-opacity:1.0"
     id="g4195"
     transform="matrix(0.68505693,0,0,0.68505693,17.217693,17.405616)">
    <path
       id="path4187"
       style="color:#000000;line-height:normal;font-family:'Bitstream Vera Sans';-inkscape-font-specification:'Bitstream Vera Sans';text-indent:0;text-align:start;text-transform:none;block-progression:tb;overflow:visible;enable-background:accumulate"
       overflow="visible"
       d="M 25,3 C 12.86158,3 3,12.86158 3,25 3,37.13842 12.86158,47 25,47 37.13842,47 47,37.13842 47,25 47,12.86158 37.13842,3 25,3 Z m 0,2 C 36.05754,5 45,13.94246 45,25 45,36.05754 36.05754,45 25,45 13.94246,45 5,36.05754 5,25 5,13.94246 13.94246,5 25,5 Z"
       inkscape:connector-curvature="0"
       sodipodi:nodetypes="ssssssssss" />
    <g
       style="fill:#000000;fill-opacity:1.0"
       id="g4221"
       transform="matrix(0.62436111,0,0,0.62436111,9.4456445,10.101693)">
      <path
         id="path4213"
         style="color:#000000;line-height:normal;font-family:'Bitstream Vera Sans';-inkscape-font-specification:'Bitstream Vera Sans';text-indent:0;text-align:start;text-transform:none;block-progression:tb;overflow:visible;enable-background:accumulate"
         overflow="visible"
         d="m 21.09375,0 -0.125,0.84375 -1.0625,6.5625 c -1.310863,0.3764383 -2.575738,0.8559223 -3.75,1.5 L 10.75,5.0625 l -0.6875,-0.5 -0.59375,0.59375 -4.25,4.25 L 4.625,10 l 0.5,0.6875 3.78125,5.4375 C 8.2558769,17.301813 7.7599264,18.557268 7.375,19.875 L 0.84375,20.96875 0,21.09375 l 0,0.875 0,6 0,0.8125 0.8125,0.15625 6.53125,1.15625 c 0.3833015,1.317619 0.9095953,2.571149 1.5625,3.75 L 5.0625,39.25 l -0.5,0.6875 0.59375,0.59375 4.25,4.25 L 10,45.375 l 0.6875,-0.5 5.40625,-3.8125 c 1.184692,0.65439 2.457314,1.148135 3.78125,1.53125 l 1.09375,6.5625 0.125,0.84375 0.84375,0 6,0 0.84375,0 0.15625,-0.8125 1.15625,-6.5625 c 1.315346,-0.385795 2.542614,-0.940057 3.71875,-1.59375 l 5.5,3.84375 0.6875,0.5 0.59375,-0.59375 4.25,-4.25 0.59375,-0.59375 -0.5,-0.71875 -3.90625,-5.40625 c 0.63958,-1.164225 1.154526,-2.419583 1.53125,-3.71875 L 49.1875,28.9375 50,28.78125 l 0,-0.8125 0,-6 0,-0.875 -0.84375,-0.125 -6.5625,-1.0625 c -0.379449,-1.309921 -0.917937,-2.545319 -1.5625,-3.71875 l 3.84375,-5.5 0.5,-0.6875 -0.59375,-0.59375 -4.25,-4.25 -0.59375,-0.59375 -0.71875,0.5 -5.375,3.875 C 32.668539,8.2844523 31.411254,7.7906733 30.09375,7.40625 L 28.9375,0.8125 28.78125,0 27.9375,0 l -6,0 -0.84375,0 z m 1.71875,2 4.3125,0 1.09375,6.28125 0.09375,0.625 0.65625,0.15625 c 1.604403,0.3994521 3.093,1.042012 4.46875,1.875 L 34,11.28125 l 0.53125,-0.375 5.15625,-3.71875 3.0625,3.03125 -3.65625,5.25 -0.375,0.53125 0.3125,0.5625 c 0.824486,1.371944 1.444724,2.873589 1.84375,4.46875 l 0.1875,0.625 0.625,0.125 6.3125,1.03125 0,4.3125 -6.3125,1.09375 -0.65625,0.125 -0.15625,0.625 c -0.394922,1.593825 -1.019473,3.097152 -1.84375,4.46875 L 38.71875,34 l 0.375,0.53125 3.71875,5.1875 -3.03125,3.03125 -5.25,-3.65625 L 34,38.71875 33.4375,39.0625 c -1.368241,0.832802 -2.869956,1.469406 -4.46875,1.875 l -0.625,0.15625 -0.125,0.625 L 27.125,48 22.78125,48 21.75,41.75 21.65625,41.09375 21,40.9375 C 19.393889,40.540685 17.883819,39.925173 16.5,39.09375 L 15.96875,38.75 l -0.5625,0.375 -5.1875,3.625 -3.03125,-3.0625 3.65625,-5.125 0.375,-0.53125 -0.3125,-0.5625 C 10.066177,32.080886 9.4005086,30.581151 9,28.96875 l -0.15625,-0.625 -0.625,-0.125 L 2,27.125 2,22.8125 8.21875,21.78125 8.875,21.65625 9.03125,21.03125 C 9.4360125,19.413143 10.069062,17.885885 10.90625,16.5 L 11.25,15.9375 10.875,15.40625 7.25,10.21875 10.28125,7.1875 l 5.15625,3.65625 0.53125,0.40625 0.5625,-0.34375 c 1.377371,-0.827928 2.892878,-1.4495147 4.5,-1.84375 L 21.6875,8.90625 21.78125,8.25 22.8125,2 Z M 25,16 c -4.958516,0 -9,4.041484 -9,9 0,4.958516 4.041484,9 9,9 4.958516,0 9,-4.041484 9,-9 0,-4.958516 -4.041484,-9 -9,-9 z m 0,2 c 3.877484,0 7,3.122516 7,7 0,3.877484 -3.122516,7 -7,7 -3.877484,0 -7,-3.122516 -7,-7 0,-3.877484 3.122516,-7 7,-7 z"
         inkscape:connector-curvature="0" />
    </g>
  </g>
</svg>
