<?xml version="1.0" encoding="UTF-8" standalone="no"?><svg xmlns="http://www.w3.org/2000/svg" height="50" style="fill:#000000;fill-opacity:1.0" viewBox="0 0 50 50" width="50">
    <path color="#000" d="M 3 4 C 1.3549372 4 0 5.3549372 0 7 L 0 11 L 0 40 L 0 43.90625 A 1.0001 1.0001 0 0 0 0.0625 44.59375 C 0.34433454 45.955157 1.56057 47 3 47 L 42 47 C 43.492951 47 44.718361 45.873496 44.9375 44.4375 C 44.947093 44.374641 44.96319 44.314018 44.96875 44.25 A 1.0001 1.0001 0 0 0 44.96875 44.1875 L 45 44.03125 C 45.000114 44.020571 45 44.010704 45 44 L 49.96875 17.1875 L 50 17.09375 L 50 17 C 50 15.354937 48.645063 14 47 14 L 47 11 C 47 9.3549372 45.645063 8 44 8 L 18.03125 8 C 18.034467 8.0043661 18.021642 8 18 8 C 17.967808 7.9776841 17.877597 7.9017991 17.71875 7.71875 C 17.474368 7.437136 17.189184 6.9699412 16.875 6.46875 C 16.560816 5.9675588 16.227636 5.4386492 15.8125 4.96875 C 15.397364 4.4988508 14.818754 4 14 4 L 3 4 z M 3 6 L 14 6 C 13.93925 6 14.06504 6.00115 14.3125 6.28125 C 14.559957 6.5613508 14.843559 7.0324412 15.15625 7.53125 C 15.468941 8.0300588 15.812289 8.562864 16.21875 9.03125 C 16.625211 9.499636 17.178927 10 18 10 L 44 10 C 44.562937 10 45 10.437063 45 11 L 45 14 L 8 14 C 6.4255094 14 5.1718893 15.26371 5.0625 16.8125 L 5.03125 16.8125 L 5 17 L 2 33.1875 L 2 11 L 2 7 C 2 6.4370628 2.4370628 6 3 6 z M 8 16 L 45.8125 16 L 46.21875 16 L 47 16 C 47.562937 16 48 16.437063 48 17 L 43.09375 43.53125 L 43.0625 43.59375 A 1.0001 1.0001 0 0 0 43.03125 43.71875 A 1.0001 1.0001 0 0 0 43 43.84375 A 1.0001 1.0001 0 0 0 43 43.90625 A 1.0001 1.0001 0 0 0 43 43.9375 A 1.0001 1.0001 0 0 0 42.96875 44.09375 C 42.965893 44.124574 42.974211 44.157648 42.96875 44.1875 A 1.0001 1.0001 0 0 0 42.96875 44.3125 C 42.842978 44.720032 42.455556 45 42 45 L 3 45 C 2.4370628 45 2 44.562937 2 44 L 6.96875 17.1875 L 7 17.09375 L 7 17 C 7 16.437063 7.4370628 16 8 16 z" enable-background="accumulate" font-family="Bitstream Vera Sans" overflow="visible" style="text-indent:0;text-align:start;line-height:normal;text-transform:none;block-progression:tb;-inkscape-font-specification:Bitstream Vera Sans"/>
</svg>