<?xml version="1.0" encoding="UTF-8" standalone="no"?><svg xmlns="http://www.w3.org/2000/svg" enable-background="new 0 0 50 50" style="fill:#000000;fill-opacity:1.0" viewBox="0 0 50 50">
    <path d="M 3 0 C 1.3545455 0 0 1.3545455 0 3 L 0 27 C 0 28.645455 1.3545455 30 3 30 L 17 30 L 17 28 L 3 28 C 2.4454545 28 2 27.554545 2 27 L 2 8 L 32 8 L 32 19 L 34 19 L 34 3 C 34 1.3545455 32.645455 0 31 0 L 3 0 z M 4 2 L 6 2 C 6 2.5522847 6.4477153 3 7 3 C 7.5522847 3 8 2.5522847 8 2 L 10 2 C 10 2.5522847 10.447715 3 11 3 C 11.552285 3 12 2.5522847 12 2 L 14 2 C 14 2.5522847 14.447715 3 15 3 C 15.552285 3 16 2.5522847 16 2 L 18 2 C 18 2.5522847 18.447715 3 19 3 C 19.552285 3 20 2.5522847 20 2 L 22 2 C 22 2.5522847 22.447715 3 23 3 C 23.552285 3 24 2.5522847 24 2 L 26 2 C 26 2.5522847 26.447715 3 27 3 C 27.552285 3 28 2.5522847 28 2 L 30 2 C 30 2.5522847 30.447715 3 31 3 C 31.364965 3 31.669139 2.792004 31.84375 2.5 C 31.933114 2.6498631 32 2.8119137 32 3 L 32 6 C 32 5.4477153 31.552285 5 31 5 C 30.447715 5 30 5.4477153 30 6 L 28 6 C 28 5.4477153 27.552285 5 27 5 C 26.447715 5 26 5.4477153 26 6 L 24 6 C 24 5.4477153 23.552285 5 23 5 C 22.447715 5 22 5.4477153 22 6 L 20 6 C 20 5.4477153 19.552285 5 19 5 C 18.447715 5 18 5.4477153 18 6 L 16 6 C 16 5.4477153 15.552285 5 15 5 C 14.447715 5 14 5.4477153 14 6 L 12 6 C 12 5.4477153 11.552285 5 11 5 C 10.447715 5 10 5.4477153 10 6 L 8 6 C 8 5.4477153 7.5522847 5 7 5 C 6.4477153 5 6 5.4477153 6 6 L 4 6 C 4 5.4477153 3.5522847 5 3 5 C 2.4477153 5 2 5.4477153 2 6 L 2 3 C 2 2.8119137 2.066886 2.6498631 2.15625 2.5 C 2.3308608 2.792004 2.6350348 3 3 3 C 3.5522847 3 4 2.5522847 4 2 z M 5 3 C 4.4477153 3 4 3.4477153 4 4 C 4 4.5522847 4.4477153 5 5 5 C 5.5522847 5 6 4.5522847 6 4 C 6 3.4477153 5.5522847 3 5 3 z M 9 3 C 8.4477153 3 8 3.4477153 8 4 C 8 4.5522847 8.4477153 5 9 5 C 9.5522847 5 10 4.5522847 10 4 C 10 3.4477153 9.5522847 3 9 3 z M 13 3 C 12.447715 3 12 3.4477153 12 4 C 12 4.5522847 12.447715 5 13 5 C 13.552285 5 14 4.5522847 14 4 C 14 3.4477153 13.552285 3 13 3 z M 17 3 C 16.447715 3 16 3.4477153 16 4 C 16 4.5522847 16.447715 5 17 5 C 17.552285 5 18 4.5522847 18 4 C 18 3.4477153 17.552285 3 17 3 z M 21 3 C 20.447715 3 20 3.4477153 20 4 C 20 4.5522847 20.447715 5 21 5 C 21.552285 5 22 4.5522847 22 4 C 22 3.4477153 21.552285 3 21 3 z M 25 3 C 24.447715 3 24 3.4477153 24 4 C 24 4.5522847 24.447715 5 25 5 C 25.552285 5 26 4.5522847 26 4 C 26 3.4477153 25.552285 3 25 3 z M 29 3 C 28.447715 3 28 3.4477153 28 4 C 28 4.5522847 28.447715 5 29 5 C 29.552285 5 30 4.5522847 30 4 C 30 3.4477153 29.552285 3 29 3 z M 8 12 C 7.4777778 12 6.9395305 12.185469 6.5625 12.5625 C 6.1854695 12.939531 6 13.477778 6 14 L 6 20 C 6 20.522222 6.1854695 21.060469 6.5625 21.4375 C 6.9395305 21.814531 7.4777778 22 8 22 L 13 22 C 13.522222 22 14.060469 21.814531 14.4375 21.4375 C 14.814531 21.060469 15 20.522222 15 20 L 15 14 C 15 13.477778 14.814531 12.939531 14.4375 12.5625 C 14.060469 12.185469 13.522222 12 13 12 L 8 12 z M 21 12 C 20.477778 12 19.939531 12.185469 19.5625 12.5625 C 19.185469 12.939531 19 13.477778 19 14 L 19 19 L 21 19 L 21 17 C 21.552285 17 22 16.552285 22 16 C 22 15.447715 21.552285 15 21 15 L 21 14 L 22 14 C 22 14.552285 22.447715 15 23 15 C 23.552285 15 24 14.552285 24 14 L 26 14 L 26 16 L 26 18 L 26 19 L 27 19 L 28 19 L 28 18 L 28 14 C 28 13.477778 27.814531 12.939531 27.4375 12.5625 C 27.060469 12.185469 26.522222 12 26 12 L 21 12 z M 26 16 C 26 15.447715 25.552285 15 25 15 C 24.447715 15 24 15.447715 24 16 C 24 16.552285 24.447715 17 25 17 C 25.552285 17 26 16.552285 26 16 z M 8 14 L 10 14 C 10 14.552285 10.447715 15 11 15 C 11.552285 15 12 14.552285 12 14 L 13 14 L 13 15 C 12.447715 15 12 15.447715 12 16 C 12 16.552285 12.447715 17 13 17 L 13 19 C 12.447715 19 12 19.447715 12 20 L 10 20 C 10 19.447715 9.5522847 19 9 19 C 8.4477153 19 8 19.447715 8 20 L 8 16 L 8 14 z M 8 16 C 8 16.552285 8.4477153 17 9 17 C 9.5522847 17 10 16.552285 10 16 C 10 15.447715 9.5522847 15 9 15 C 8.4477153 15 8 15.447715 8 16 z M 11 17 C 10.447715 17 10 17.447715 10 18 C 10 18.552285 10.447715 19 11 19 C 11.552285 19 12 18.552285 12 18 C 12 17.447715 11.552285 17 11 17 z M 23 17 C 22.447715 17 22 17.447715 22 18 C 22 18.552285 22.447715 19 23 19 C 23.552285 19 24 18.552285 24 18 C 24 17.447715 23.552285 17 23 17 z M 20 20 C 19.477778 20 18.939531 20.185469 18.5625 20.5625 C 18.185469 20.939531 18 21.477778 18 22 L 18 48 C 18 48.522222 18.185469 49.060469 18.5625 49.4375 C 18.939531 49.814531 19.477778 50 20 50 L 48 50 C 48.522222 50 49.060469 49.814531 49.4375 49.4375 C 49.814531 49.060469 50 48.522222 50 48 L 50 22 C 50 21.477778 49.814531 20.939531 49.4375 20.5625 C 49.060469 20.185469 48.522222 20 48 20 L 20 20 z M 20 22 L 48 22 L 48 26 L 20 26 L 20 22 z M 20 28 L 24 28 L 28 28 L 32 28 L 36 28 L 40 28 L 44 28 L 48 28 C 47.447715 28 47 28.447715 47 29 C 47 29.552285 47.447715 30 48 30 L 48 32 C 47.447715 32 47 32.447715 47 33 C 47 33.552285 47.447715 34 48 34 L 48 36 C 47.447715 36 47 36.447715 47 37 C 47 37.552285 47.447715 38 48 38 L 48 40 C 47.447715 40 47 40.447715 47 41 C 47 41.552285 47.447715 42 48 42 L 48 44 C 47.447715 44 47 44.447715 47 45 C 47 45.552285 47.447715 46 48 46 L 48 48 L 46 48 L 42 48 L 38 48 L 34 48 L 30 48 L 26 48 L 22 48 L 20 48 L 20 46 C 20.552285 46 21 45.552285 21 45 C 21 44.447715 20.552285 44 20 44 L 20 42 C 20.552285 42 21 41.552285 21 41 C 21 40.447715 20.552285 40 20 40 L 20 38 C 20.552285 38 21 37.552285 21 37 C 21 36.447715 20.552285 36 20 36 L 20 34 C 20.552285 34 21 33.552285 21 33 C 21 32.447715 20.552285 32 20 32 L 20 30 C 20.552285 30 21 29.552285 21 29 C 21 28.447715 20.552285 28 20 28 z M 22 48 C 22.552285 48 23 47.552285 23 47 C 23 46.447715 22.552285 46 22 46 C 21.447715 46 21 46.447715 21 47 C 21 47.552285 21.447715 48 22 48 z M 26 48 C 26.552285 48 27 47.552285 27 47 C 27 46.447715 26.552285 46 26 46 C 25.447715 46 25 46.447715 25 47 C 25 47.552285 25.447715 48 26 48 z M 30 48 C 30.552285 48 31 47.552285 31 47 C 31 46.447715 30.552285 46 30 46 C 29.447715 46 29 46.447715 29 47 C 29 47.552285 29.447715 48 30 48 z M 34 48 C 34.552285 48 35 47.552285 35 47 C 35 46.447715 34.552285 46 34 46 C 33.447715 46 33 46.447715 33 47 C 33 47.552285 33.447715 48 34 48 z M 38 48 C 38.552285 48 39 47.552285 39 47 C 39 46.447715 38.552285 46 38 46 C 37.447715 46 37 46.447715 37 47 C 37 47.552285 37.447715 48 38 48 z M 42 48 C 42.552285 48 43 47.552285 43 47 C 43 46.447715 42.552285 46 42 46 C 41.447715 46 41 46.447715 41 47 C 41 47.552285 41.447715 48 42 48 z M 46 48 C 46.552285 48 47 47.552285 47 47 C 47 46.447715 46.552285 46 46 46 C 45.447715 46 45 46.447715 45 47 C 45 47.552285 45.447715 48 46 48 z M 44 28 C 43.447715 28 43 28.447715 43 29 C 43 29.552285 43.447715 30 44 30 C 44.552285 30 45 29.552285 45 29 C 45 28.447715 44.552285 28 44 28 z M 40 28 C 39.447715 28 39 28.447715 39 29 C 39 29.552285 39.447715 30 40 30 C 40.552285 30 41 29.552285 41 29 C 41 28.447715 40.552285 28 40 28 z M 36 28 C 35.447715 28 35 28.447715 35 29 C 35 29.552285 35.447715 30 36 30 C 36.552285 30 37 29.552285 37 29 C 37 28.447715 36.552285 28 36 28 z M 32 28 C 31.447715 28 31 28.447715 31 29 C 31 29.552285 31.447715 30 32 30 C 32.552285 30 33 29.552285 33 29 C 33 28.447715 32.552285 28 32 28 z M 28 28 C 27.447715 28 27 28.447715 27 29 C 27 29.552285 27.447715 30 28 30 C 28.552285 30 29 29.552285 29 29 C 29 28.447715 28.552285 28 28 28 z M 24 28 C 23.447715 28 23 28.447715 23 29 C 23 29.552285 23.447715 30 24 30 C 24.552285 30 25 29.552285 25 29 C 25 28.447715 24.552285 28 24 28 z M 22 30 C 21.447715 30 21 30.447715 21 31 C 21 31.552285 21.447715 32 22 32 C 22.552285 32 23 31.552285 23 31 C 23 30.447715 22.552285 30 22 30 z M 26 30 C 25.447715 30 25 30.447715 25 31 C 25 31.552285 25.447715 32 26 32 C 26.552285 32 27 31.552285 27 31 C 27 30.447715 26.552285 30 26 30 z M 30 30 C 29.447715 30 29 30.447715 29 31 C 29 31.552285 29.447715 32 30 32 C 30.552285 32 31 31.552285 31 31 C 31 30.447715 30.552285 30 30 30 z M 34 30 C 33.447715 30 33 30.447715 33 31 C 33 31.552285 33.447715 32 34 32 C 34.552285 32 35 31.552285 35 31 C 35 30.447715 34.552285 30 34 30 z M 38 30 C 37.447715 30 37 30.447715 37 31 C 37 31.552285 37.447715 32 38 32 C 38.552285 32 39 31.552285 39 31 C 39 30.447715 38.552285 30 38 30 z M 42 30 C 41.447715 30 41 30.447715 41 31 C 41 31.552285 41.447715 32 42 32 C 42.552285 32 43 31.552285 43 31 C 43 30.447715 42.552285 30 42 30 z M 46 30 C 45.447715 30 45 30.447715 45 31 C 45 31.552285 45.447715 32 46 32 C 46.552285 32 47 31.552285 47 31 C 47 30.447715 46.552285 30 46 30 z M 24 32 C 23.447715 32 23 32.447715 23 33 C 23 33.552285 23.447715 34 24 34 C 24.552285 34 25 33.552285 25 33 C 25 32.447715 24.552285 32 24 32 z M 28 32 C 27.447715 32 27 32.447715 27 33 C 27 33.552285 27.447715 34 28 34 C 28.552285 34 29 33.552285 29 33 C 29 32.447715 28.552285 32 28 32 z M 28 34 L 25 34 C 24.477778 34 23.939531 34.185469 23.5625 34.5625 C 23.185469 34.939531 23 35.477778 23 36 L 23 39 L 23 42 C 23 42.522222 23.185469 43.060469 23.5625 43.4375 C 23.939531 43.814531 24.477778 44 25 44 L 28 44 L 30 44 C 30.522222 44 31.060469 43.814531 31.4375 43.4375 C 31.814531 43.060469 32 42.522222 32 42 C 32.552285 42 33 41.552285 33 41 C 33 40.447715 32.552285 40 32 40 L 32 38 C 32.552285 38 33 37.552285 33 37 C 33 36.447715 32.552285 36 32 36 C 32 35.477778 31.814531 34.939531 31.4375 34.5625 C 31.060469 34.185469 30.522222 34 30 34 L 28 34 z M 28 44 C 27.447715 44 27 44.447715 27 45 C 27 45.552285 27.447715 46 28 46 C 28.552285 46 29 45.552285 29 45 C 29 44.447715 28.552285 44 28 44 z M 23 39 C 23 38.447715 22.552285 38 22 38 C 21.447715 38 21 38.447715 21 39 C 21 39.552285 21.447715 40 22 40 C 22.552285 40 23 39.552285 23 39 z M 32 32 C 31.447715 32 31 32.447715 31 33 C 31 33.552285 31.447715 34 32 34 C 32.552285 34 33 33.552285 33 33 C 33 32.447715 32.552285 32 32 32 z M 36 32 C 35.447715 32 35 32.447715 35 33 C 35 33.552285 35.447715 34 36 34 C 36.552285 34 37 33.552285 37 33 C 37 32.447715 36.552285 32 36 32 z M 40 32 C 39.447715 32 39 32.447715 39 33 C 39 33.552285 39.447715 34 40 34 C 40.552285 34 41 33.552285 41 33 C 41 32.447715 40.552285 32 40 32 z M 40 34 L 38 34 C 37.477778 34 36.939531 34.185469 36.5625 34.5625 C 36.185469 34.939531 36 35.477778 36 36 C 35.447715 36 35 36.447715 35 37 C 35 37.552285 35.447715 38 36 38 L 36 40 C 35.447715 40 35 40.447715 35 41 C 35 41.552285 35.447715 42 36 42 C 36 42.522222 36.185469 43.060469 36.5625 43.4375 C 36.939531 43.814531 37.477778 44 38 44 L 40 44 L 43 44 C 43.522222 44 44.060469 43.814531 44.4375 43.4375 C 44.814531 43.060469 45 42.522222 45 42 L 45 39 L 45 36 C 45 35.477778 44.814531 34.939531 44.4375 34.5625 C 44.060469 34.185469 43.522222 34 43 34 L 40 34 z M 45 39 C 45 39.552285 45.447715 40 46 40 C 46.552285 40 47 39.552285 47 39 C 47 38.447715 46.552285 38 46 38 C 45.447715 38 45 38.447715 45 39 z M 40 44 C 39.447715 44 39 44.447715 39 45 C 39 45.552285 39.447715 46 40 46 C 40.552285 46 41 45.552285 41 45 C 41 44.447715 40.552285 44 40 44 z M 44 32 C 43.447715 32 43 32.447715 43 33 C 43 33.552285 43.447715 34 44 34 C 44.552285 34 45 33.552285 45 33 C 45 32.447715 44.552285 32 44 32 z M 22 34 C 21.447715 34 21 34.447715 21 35 C 21 35.552285 21.447715 36 22 36 C 22.552285 36 23 35.552285 23 35 C 23 34.447715 22.552285 34 22 34 z M 34 34 C 33.447715 34 33 34.447715 33 35 C 33 35.552285 33.447715 36 34 36 C 34.552285 36 35 35.552285 35 35 C 35 34.447715 34.552285 34 34 34 z M 46 34 C 45.447715 34 45 34.447715 45 35 C 45 35.552285 45.447715 36 46 36 C 46.552285 36 47 35.552285 47 35 C 47 34.447715 46.552285 34 46 34 z M 25 36 L 30 36 L 30 42 L 25 42 L 25 36 z M 38 36 L 43 36 L 43 42 L 38 42 L 38 36 z M 34 38 C 33.447715 38 33 38.447715 33 39 C 33 39.552285 33.447715 40 34 40 C 34.552285 40 35 39.552285 35 39 C 35 38.447715 34.552285 38 34 38 z M 22 42 C 21.447715 42 21 42.447715 21 43 C 21 43.552285 21.447715 44 22 44 C 22.552285 44 23 43.552285 23 43 C 23 42.447715 22.552285 42 22 42 z M 34 42 C 33.447715 42 33 42.447715 33 43 C 33 43.552285 33.447715 44 34 44 C 34.552285 44 35 43.552285 35 43 C 35 42.447715 34.552285 42 34 42 z M 46 42 C 45.447715 42 45 42.447715 45 43 C 45 43.552285 45.447715 44 46 44 C 46.552285 44 47 43.552285 47 43 C 47 42.447715 46.552285 42 46 42 z M 24 44 C 23.447715 44 23 44.447715 23 45 C 23 45.552285 23.447715 46 24 46 C 24.552285 46 25 45.552285 25 45 C 25 44.447715 24.552285 44 24 44 z M 32 44 C 31.447715 44 31 44.447715 31 45 C 31 45.552285 31.447715 46 32 46 C 32.552285 46 33 45.552285 33 45 C 33 44.447715 32.552285 44 32 44 z M 36 44 C 35.447715 44 35 44.447715 35 45 C 35 45.552285 35.447715 46 36 46 C 36.552285 46 37 45.552285 37 45 C 37 44.447715 36.552285 44 36 44 z M 44 44 C 43.447715 44 43 44.447715 43 45 C 43 45.552285 43.447715 46 44 46 C 44.552285 46 45 45.552285 45 45 C 45 44.447715 44.552285 44 44 44 z"/>
</svg>