<?xml version="1.0" encoding="UTF-8" standalone="no"?><svg xmlns="http://www.w3.org/2000/svg" height="50" style="fill:#000000;fill-opacity:1.0" viewBox="0 0 50 50" width="50">
    <path color="#000" d="M 0 4 L 0 5 L 0 45 L 0 46 L 1 46 L 49 46 L 50 46 L 50 45 L 50 5 L 50 4 L 49 4 L 1 4 L 0 4 z M 2 6 L 48 6 L 48 44 L 2 44 L 2 6 z M 5 9 L 5 10 L 5 29.5 A 1.0001 1.0001 0 0 0 5 30.4375 L 5 40 L 5 41 L 6 41 L 44 41 L 45 41 L 45 40 L 45 30.75 A 1.0097184 1.0097184 0 0 0 45 30.4375 L 45 10 L 45 9 L 44 9 L 6 9 L 5 9 z M 7 11 L 43 11 L 43 29.09375 L 35.375 26.0625 A 1.0001 1.0001 0 0 0 34.5625 26.09375 L 27.3125 29.71875 L 17.8125 16.40625 A 1.0001 1.0001 0 0 0 16.84375 16 A 1.0001 1.0001 0 0 0 16.25 16.34375 L 7 27.15625 L 7 11 z M 33 15 C 30.802706 15 29 16.802706 29 19 C 29 21.197294 30.802706 23 33 23 C 35.197294 23 37 21.197294 37 19 C 37 16.802706 35.197294 15 33 15 z M 33 17 C 34.116414 17 35 17.883586 35 19 C 35 20.116414 34.116414 21 33 21 C 31.883586 21 31 20.116414 31 19 C 31 17.883586 31.883586 17 33 17 z M 16.90625 18.625 L 26.1875 31.59375 A 1.0001 1.0001 0 0 0 27.4375 31.90625 L 35.03125 28.09375 L 43 31.28125 L 43 39 L 7 39 L 7 30.1875 L 16.90625 18.625 z" enable-background="accumulate" font-family="Bitstream Vera Sans" overflow="visible" style="text-indent:0;text-align:start;line-height:normal;text-transform:none;block-progression:tb;-inkscape-font-specification:Bitstream Vera Sans"/>
</svg>