<?xml version="1.0" encoding="UTF-8" standalone="no"?><svg xmlns="http://www.w3.org/2000/svg" height="50" style="fill:#000000;fill-opacity:1.0" viewBox="0 0 50 50" width="50">
    <path d="M 21 0 C 15.3545 0 10.230156 1.0122381 6.4375 2.71875 C 4.5411719 3.5720059 2.9801672 4.6031002 1.84375 5.8125 C 0.76240536 6.9632904 0.064612699 8.3230316 0 9.78125 A 1.0001 1.0001 0 0 0 0 10 L 0 19.8125 A 1.0001 1.0001 0 0 0 0 20 L 0 29.8125 A 1.0001 1.0001 0 0 0 0 30 L 0 39 C 0 40.54327 0.70733284 41.9781 1.84375 43.1875 C 2.9801672 44.3969 4.5411719 45.427994 6.4375 46.28125 C 10.230156 47.987762 15.3545 49 21 49 C 23.896338 49 26.645541 48.741248 29.15625 48.25 A 1.002073 1.002073 0 0 0 28.78125 46.28125 C 26.405959 46.746002 23.771662 47 21 47 C 15.5975 47 10.726594 45.987738 7.28125 44.4375 C 5.5585781 43.662381 4.1998328 42.756819 3.3125 41.8125 C 2.4251672 40.868181 2 39.94323 2 39 L 2 34.34375 C 3.1223185 35.486391 4.6228131 36.464729 6.4375 37.28125 C 10.230156 38.987762 15.3545 40 21 40 C 22.761896 40 24.459823 39.90724 26.09375 39.71875 A 1.0059637 1.0059637 0 1 0 25.875 37.71875 C 24.318927 37.898259 22.686104 38 21 38 C 15.5975 38 10.726594 36.987738 7.28125 35.4375 C 5.5585781 34.662381 4.1998328 33.756819 3.3125 32.8125 C 2.4251672 31.868181 2 30.94323 2 30 A 1.0001 1.0001 0 0 0 2 29.8125 L 2 24.34375 C 3.1223185 25.486391 4.6228131 26.464729 6.4375 27.28125 C 10.230156 28.987762 15.3545 30 21 30 C 26.6455 30 31.769844 28.987762 35.5625 27.28125 C 37.377187 26.464729 38.877682 25.486391 40 24.34375 L 40 27 A 1.0001 1.0001 0 1 0 42 27 L 42 20 L 42 19.90625 L 42 10 C 42 9.9679475 42.000608 9.9382079 42 9.90625 A 1.0001 1.0001 0 0 0 42 9.8125 C 41.999597 9.8018796 42.00047 9.7918595 42 9.78125 A 1.0001 1.0001 0 0 0 41.96875 9.71875 C 41.886646 8.2854063 41.221422 6.9460797 40.15625 5.8125 C 39.019833 4.6031002 37.458828 3.5720059 35.5625 2.71875 C 31.769844 1.0122381 26.6455 0 21 0 z M 21 2 C 26.4025 2 31.273406 3.0122619 34.71875 4.5625 C 36.441422 5.3376191 37.800167 6.2431811 38.6875 7.1875 C 39.555866 8.1116336 39.982196 9.01518 40 9.9375 C 40.000389 9.9576456 40 9.979838 40 10 C 40 10.94323 39.574833 11.868181 38.6875 12.8125 C 37.800167 13.756819 36.441422 14.662381 34.71875 15.4375 C 31.273406 16.987738 26.4025 18 21 18 C 15.5975 18 10.726594 16.987738 7.28125 15.4375 C 5.5585781 14.662381 4.1998328 13.756819 3.3125 12.8125 C 2.4251672 11.868181 2 10.94323 2 10 A 1.0001 1.0001 0 0 0 2 9.90625 C 2.0264271 8.9943602 2.4536179 8.101541 3.3125 7.1875 C 4.1998328 6.2431811 5.5585781 5.3376191 7.28125 4.5625 C 10.726594 3.0122619 15.5975 2 21 2 z M 2 14.34375 C 3.1223185 15.486391 4.6228131 16.464729 6.4375 17.28125 C 10.230156 18.987762 15.3545 20 21 20 C 26.6455 20 31.769844 18.987762 35.5625 17.28125 C 37.377187 16.464729 38.877682 15.486391 40 14.34375 L 40 19.84375 A 1.0001 1.0001 0 0 0 40 19.9375 L 40 20 C 40 20.94323 39.574833 21.868181 38.6875 22.8125 C 37.800167 23.756819 36.441422 24.662381 34.71875 25.4375 C 31.273406 26.987738 26.4025 28 21 28 C 15.5975 28 10.726594 26.987738 7.28125 25.4375 C 5.5585781 24.662381 4.1998328 23.756819 3.3125 22.8125 C 2.4251672 21.868181 2 20.94323 2 20 A 1.0001 1.0001 0 0 0 2 19.8125 L 2 14.34375 z M 40 29.96875 C 34.479269 29.96875 29.96875 34.479269 29.96875 40 C 29.96875 45.520731 34.479269 50.03125 40 50.03125 C 45.520731 50.03125 50.03125 45.520731 50.03125 40 C 50.03125 34.479269 45.520731 29.96875 40 29.96875 z M 40 32.03125 C 44.420395 32.03125 47.96875 35.579605 47.96875 40 C 47.96875 44.420395 44.420395 47.96875 40 47.96875 C 35.579605 47.96875 32.03125 44.420395 32.03125 40 C 32.03125 35.579605 35.579605 32.03125 40 32.03125 z M 39 35 L 39 39 L 35 39 L 35 41 L 39 41 L 39 45 L 41 45 L 41 41 L 45 41 L 45 39 L 41 39 L 41 35 L 39 35 z" style="text-indent:0;text-align:start;line-height:normal;text-transform:none;block-progression:tb;-inkscape-font-specification:Bitstream Vera Sans"/>
</svg>