<?xml version="1.0" encoding="UTF-8" standalone="no"?><svg xmlns="http://www.w3.org/2000/svg" height="50" style="fill:#000000;fill-opacity:1.0" viewBox="0 0 50 50" width="50">
    <path color="#000" d="M 16.375 9 C 10.115452 9 5 14.056532 5 20.28125 C 5 33.048861 19.486343 39.737709 24.375 43.78125 L 25 44.3125 L 25.625 43.78125 C 30.513657 39.737709 45 33.048861 45 20.28125 C 45 14.056532 39.883642 9 33.625 9 C 30.149687 9 27.086018 10.611908 25 13.0625 C 22.914613 10.611757 19.850313 9 16.375 9 z M 16.375 11 C 19.642305 11 22.480134 12.65201 24.15625 15.15625 L 25 16.40625 L 25.84375 15.15625 C 27.52092 12.651785 30.357695 11 33.625 11 C 38.810358 11 43 15.145968 43 20.28125 C 43 31.180298 30.739443 37.287299 25 41.78125 C 19.260557 37.287299 7 31.180298 7 20.28125 C 7 15.145968 11.188548 11 16.375 11 z" enable-background="accumulate" font-family="Bitstream Vera Sans" overflow="visible" style="text-indent:0;text-align:start;line-height:normal;text-transform:none;block-progression:tb;-inkscape-font-specification:Bitstream Vera Sans"/>
</svg>