<?xml version="1.0" encoding="UTF-8" standalone="no"?><svg xmlns="http://www.w3.org/2000/svg" height="50" style="fill:#000000;fill-opacity:1.0" viewBox="0 0 50 50" width="50">
    <path color="#000" d="M 25 0 C 11.204726 0 0 11.204726 0 25 C 0 38.795274 11.204726 50 25 50 C 38.795274 50 50 38.795274 50 25 C 50 11.204726 38.795274 0 25 0 z M 25 2 C 37.714394 2 48 12.285606 48 25 C 48 37.714394 37.714394 48 25 48 C 12.285606 48 2 37.714394 2 25 C 2 12.285606 12.285606 2 25 2 z M 25.28125 12.5 C 21.55125 12.5 19.07025 14.77575 18.53125 18.21875 C 18.49625 18.43475 18.62775 18.55775 18.84375 18.59375 L 21.09375 19 C 21.30975 19.036 21.464 18.93375 21.5 18.71875 C 21.93 16.53075 23.21075 15.3125 25.21875 15.3125 C 27.26375 15.3125 28.6875 16.61225 28.6875 18.65625 C 28.6875 19.87625 28.254 20.68525 27 22.40625 L 24.59375 25.71875 C 23.84075 26.75975 23.53125 27.5015 23.53125 28.9375 L 23.53125 30.40625 C 23.53125 30.62125 23.69125 30.754 23.90625 30.75 L 26.25 30.75 C 26.465 30.75 26.625 30.62125 26.625 30.40625 L 26.625 29.25 C 26.625 28.031 26.8455 27.5305 27.5625 26.5625 L 29.9375 23.28125 C 31.1575 21.59525 31.78125 20.31575 31.78125 18.59375 C 31.78125 15.04275 29.15325 12.5 25.28125 12.5 z M 23.71875 33.5 C 23.50275 33.5 23.34375 33.62875 23.34375 33.84375 L 23.34375 36.9375 C 23.34375 37.1525 23.50175 37.28125 23.71875 37.28125 L 26.4375 37.28125 C 26.6515 37.28125 26.8125 37.1535 26.8125 36.9375 L 26.8125 33.84375 C 26.8125 33.62975 26.6525 33.5 26.4375 33.5 L 23.71875 33.5 z" enable-background="accumulate" font-family="Bitstream Vera Sans" overflow="visible" style="text-indent:0;text-align:start;line-height:normal;text-transform:none;block-progression:tb;-inkscape-font-specification:Bitstream Vera Sans"/>
</svg>