<?xml version="1.0" encoding="UTF-8" standalone="no"?><svg xmlns="http://www.w3.org/2000/svg" height="50" style="fill:#000000;fill-opacity:1.0" viewBox="0 0 50 50" width="50">
    <path color="#000" d="M 24.8125 0.0625 A 1.0001 1.0001 0 0 0 24.28125 0.375 L 0.375 25.25 A 1.0059637 1.0059637 0 1 0 1.84375 26.625 L 5 23.34375 L 5 49 L 5 50 L 6 50 L 44 50 L 45 50 L 45 49 L 45 23.34375 L 48.15625 26.625 A 1.0059637 1.0059637 0 1 0 49.625 25.25 L 25.71875 0.375 A 1.0001 1.0001 0 0 0 24.8125 0.0625 z M 25 2.5 L 43 21.25 L 43 48 L 32 48 L 32 28 L 32 27 L 31 27 L 19 27 L 18 27 L 18 28 L 18 48 L 7 48 L 7 21.25 L 25 2.5 z M 35 5 L 35 8.03125 L 37 10.09375 L 37 7 L 39 7 L 39 12.1875 L 41 14.28125 L 41 5 L 35 5 z M 20 29 L 30 29 L 30 48 L 20 48 L 20 29 z" enable-background="accumulate" font-family="Bitstream Vera Sans" overflow="visible" style="text-indent:0;text-align:start;line-height:normal;text-transform:none;block-progression:tb;-inkscape-font-specification:Bitstream Vera Sans"/>
</svg>