<?xml version="1.0" encoding="UTF-8" standalone="no"?><svg xmlns="http://www.w3.org/2000/svg" enable-background="new 0 0 50 50" style="fill:#000000;fill-opacity:1.0" viewBox="0 0 50 50">
    <path color="#000" d="M 6 0 L 6 1 L 6 49 L 6 50 L 7 50 L 43 50 L 44 50 L 44 49 L 44 15 L 44 14.59375 L 43.71875 14.28125 L 29.71875 0.28125 L 29.40625 0 L 29 0 L 7 0 L 6 0 z M 8 2 L 28 2 L 28 15 L 28 16 L 29 16 L 42 16 L 42 48 L 8 48 L 8 2 z M 30 3.4375 L 40.5625 14 L 30 14 L 30 3.4375 z M 34 21 C 32.895431 21 32 21.895431 32 23 C 32 24.104569 32.895431 25 34 25 C 35.104569 25 36 24.104569 36 23 C 36 21.895431 35.104569 21 34 21 z M 20.75 24 A 1.0001 1.0001 0 0 0 20.09375 24.40625 L 12.1875 35.40625 A 1.0001 1.0001 0 0 0 13 37 L 28.53125 37 L 28.6875 37 L 28.875 37 L 35 37 A 1.0001 1.0001 0 0 0 35.8125 35.40625 L 29.5 26.625 A 1.0001 1.0001 0 0 0 28.65625 26.1875 A 1.0001 1.0001 0 0 0 27.875 26.625 L 25.59375 29.875 L 21.71875 24.40625 A 1.0001 1.0001 0 0 0 20.75 24 z M 20.90625 26.71875 L 24.5625 31.875 L 24.59375 31.9375 A 1.0001 1.0001 0 0 0 24.59375 31.96875 A 1.0001 1.0001 0 0 0 24.9375 32.46875 A 1.0001 1.0001 0 0 0 25 32.53125 L 26.75 35 L 14.96875 35 L 20.90625 26.71875 z M 28.71875 28.9375 L 33.03125 35 L 29.25 35 L 26.8125 31.59375 L 28.71875 28.9375 z" enable-background="accumulate" font-family="Bitstream Vera Sans" overflow="visible" style="text-indent:0;text-align:start;line-height:normal;text-transform:none;block-progression:tb;-inkscape-font-specification:Bitstream Vera Sans"/>
</svg>