<?xml version="1.0" encoding="UTF-8" standalone="no"?><svg xmlns="http://www.w3.org/2000/svg" height="50" style="fill:#000000;fill-opacity:1.0" viewBox="0 0 50 50" width="50">
    <path color="#000" d="M 1.78125 -0.03125 A 1.040104 1.040104 0 0 0 0.96875 1 L 0.96875 49 A 1.040104 1.040104 0 0 0 2 50.03125 L 32 50.03125 A 1.040104 1.040104 0 0 0 33.03125 49 L 33.03125 39 L 30.96875 39 L 30.96875 47.96875 L 3.03125 47.96875 L 3.03125 2.03125 L 30.96875 2.03125 L 30.96875 11 L 33.03125 11 L 33.03125 1 A 1.040104 1.040104 0 0 0 32 -0.03125 L 2 -0.03125 A 1.040104 1.040104 0 0 0 1.78125 -0.03125 z M 24.78125 15.09375 A 1.0001 1.0001 0 0 0 24.1875 15.40625 L 15.28125 24.28125 L 14.59375 25 L 15.28125 25.71875 L 24.1875 34.59375 A 1.0001 1.0001 0 1 0 25.59375 33.1875 L 18.4375 26 L 48 26 A 1.0001 1.0001 0 1 0 48 24 L 18.4375 24 L 25.59375 16.8125 A 1.0001 1.0001 0 0 0 24.78125 15.09375 z" enable-background="accumulate" font-family="Bitstream Vera Sans" overflow="visible" style="text-indent:0;text-align:start;line-height:normal;text-transform:none;block-progression:tb;-inkscape-font-specification:Bitstream Vera Sans"/>
</svg>