<?xml version="1.0" encoding="UTF-8" standalone="no"?><svg xmlns="http://www.w3.org/2000/svg" style="fill:#000000;fill-opacity:1.0" viewBox="0 0 32 32">
    <path color="#000" d="M 5 5 L 5 6 L 5 26 L 5 27 L 6 27 L 12.5625 27 L 15.28125 29.71875 L 16 30.40625 L 16.71875 29.71875 L 19.4375 27 L 26 27 L 27 27 L 27 26 L 27 6 L 27 5 L 26 5 L 6 5 L 5 5 z M 7 7 L 25 7 L 25 25 L 19 25 L 18.59375 25 L 18.28125 25.28125 L 16 27.5625 L 13.71875 25.28125 L 13.40625 25 L 13 25 L 7 25 L 7 7 z M 15 10 L 15 12 L 17 12 L 17 10 L 15 10 z M 15 14 L 15 22 L 17 22 L 17 14 L 15 14 z" font-family="Bitstream Vera Sans" overflow="visible" style="text-indent:0;text-align:start;line-height:normal;text-transform:none;block-progression:tb;-inkscape-font-specification:Bitstream Vera Sans"/>
</svg>