<?xml version="1.0" encoding="UTF-8" standalone="no"?><svg xmlns="http://www.w3.org/2000/svg" style="fill:#000000;fill-opacity:1.0" viewBox="0 0 50 50">
    <path d="M 3.8125 3 A 1.0001 1.0001 0 0 0 3 4 L 3 46 A 1.0001 1.0001 0 0 0 4 47 L 46 47 A 1.0001 1.0001 0 0 0 47 46 L 47 4 A 1.0001 1.0001 0 0 0 46 3 L 4 3 A 1.0001 1.0001 0 0 0 3.90625 3 A 1.0001 1.0001 0 0 0 3.8125 3 z M 5 5 L 45 5 L 45 45 L 5 45 L 5 5 z M 23.78125 12.90625 C 23.56625 12.90625 23.4375 13.035 23.4375 13.25 L 23.4375 15.875 C 23.4375 16.09 23.56525 16.25 23.78125 16.25 L 26.21875 16.25 C 26.43375 16.25 26.5625 16.09 26.5625 15.875 L 26.5625 13.25 C 26.5625 13.035 26.43375 12.90625 26.21875 12.90625 L 23.78125 12.90625 z M 23.71875 20.125 C 23.587969 20.175578 23.5 20.3075 23.5 20.46875 L 23.5 36.9375 C 23.5 37.1525 23.62875 37.28125 23.84375 37.28125 L 26.15625 37.28125 C 26.37125 37.28125 26.5 37.1525 26.5 36.9375 L 26.5 20.46875 C 26.5 20.25375 26.37225 20.125 26.15625 20.125 L 23.84375 20.125 C 23.79025 20.125 23.762344 20.108141 23.71875 20.125 z"/>
</svg>