<?xml version="1.0" encoding="UTF-8" standalone="no"?><svg xmlns="http://www.w3.org/2000/svg" enable-background="new 0 0 50 50" style="fill:#000000;fill-opacity:1.0" viewBox="0 0 50 50">
    <path color="#000" d="M 6 3 C 4.3 3 3 4.3 3 6 L 3 26 C 3 27.7 4.3 29 6 29 L 6.40625 29 L 8 27 L 6 27 C 5.4 27 5 26.6 5 26 L 5 6 C 5 5.4 5.4 5 6 5 L 26 5 C 26.6 5 27 5.4 27 6 L 27 21 L 24 21 C 22.3 21 21 22.3 21 24 L 21 27 L 16 27 L 17.59375 29 L 21 29 L 21 32.40625 L 23 34.09375 L 23 24 C 23 23.4 23.4 23 24 23 L 44 23 C 44.6 23 45 23.4 45 24 L 45 44 C 45 44.6 44.6 45 44 45 L 24 45 C 23.4 45 23 44.6 23 44 L 23 42 L 21 43.6875 L 21 44 C 21 45.7 22.3 47 24 47 L 44 47 C 45.7 47 47 45.7 47 44 L 47 24 C 47 22.3 45.7 21 44 21 L 29 21 L 29 6 C 29 4.3 27.7 3 26 3 L 6 3 z M 16 8 L 16 10 L 8 10 L 8 12 L 19.90625 12 C 19.59778 14.225204 18.294807 16.05508 16.65625 17.53125 C 14.149016 15.332079 12.875 13.03125 12.875 13.03125 L 11.125 13.96875 C 11.125 13.96875 12.43269 16.378147 15.0625 18.78125 C 14.996012 18.828277 14.941729 18.891511 14.875 18.9375 C 12.232435 20.758727 9.59375 21.65625 9.59375 21.65625 L 10.21875 23.5625 C 10.21875 23.5625 13.123815 22.597523 16.03125 20.59375 C 16.239634 20.450134 16.447469 20.280644 16.65625 20.125 C 17.798492 20.969346 19.123097 21.742989 20.625 22.34375 L 21.375 20.46875 C 20.227919 20.009918 19.198989 19.416286 18.28125 18.78125 C 20.110572 17.049716 21.636364 14.792475 21.9375 12 L 25 12 L 25 10 L 18 10 L 18 8 L 16 8 z M 12 25 L 7 31 L 10 31 L 10 35 L 14 35 L 14 31 L 17 31 L 12 25 z M 33 26.40625 L 27.8125 40.1875 L 30.3125 40.1875 L 31.40625 37 L 36.6875 37 L 37.8125 40.1875 L 40.3125 40.1875 L 35.09375 26.40625 L 33 26.40625 z M 34 29.40625 L 36 35.09375 L 32 35.09375 L 34 29.40625 z M 19 33 L 19 36 L 10 36 L 14 40 L 19 40 L 19 43 L 25 38 L 19 33 z" enable-background="accumulate" font-family="Bitstream Vera Sans" overflow="visible" style="text-indent:0;text-align:start;line-height:normal;text-transform:none;block-progression:tb;-inkscape-font-specification:Bitstream Vera Sans"/>
</svg>