<?xml version="1.0" encoding="UTF-8" standalone="no"?><svg xmlns="http://www.w3.org/2000/svg" height="50" style="fill:#000000;fill-opacity:1.0" viewBox="0 0 50 50" width="50">
    <path color="#000" d="M 39.59375 0.03125 C 36.82475 0.03125 34.206 1.13775 32.25 3.09375 C 31.728 3.61375 26.45175 8.891 26.09375 9.25 C 22.78775 12.555 22.17825 17.577 24.28125 21.5 L 25.78125 20 C 24.41325 16.924 24.981 13.17425 27.5 10.65625 C 27.858 10.29725 33.13325 5.02 33.65625 4.5 C 35.23825 2.918 37.35775 2.03125 39.59375 2.03125 C 41.82875 2.03125 43.919 2.919 45.5 4.5 C 47.082 6.082 47.96875 8.17025 47.96875 10.40625 C 47.96875 12.64225 47.081 14.76275 45.5 16.34375 L 39.34375 22.5 C 37.76275 24.081 35.64225 24.96875 33.40625 24.96875 C 32.21025 24.96875 31.059 24.69375 30 24.21875 L 28.5 25.71875 C 29.991 26.52175 31.66625 26.9375 33.40625 26.9375 C 36.17525 26.9375 38.793 25.86325 40.75 23.90625 L 46.90625 17.75 C 48.86425 15.793 49.96875 13.17425 49.96875 10.40625 C 49.96775 7.63725 48.86425 5.05175 46.90625 3.09375 C 44.94925 1.13675 42.36075 0.03125 39.59375 0.03125 z M 33.875 15 A 1.0001 1.0001 0 0 0 33.28125 15.28125 L 15.28125 33.28125 A 1.016466 1.016466 0 1 0 16.71875 34.71875 L 34.71875 16.71875 A 1.0001 1.0001 0 0 0 33.875 15 z M 16.59375 23.0625 C 13.82575 23.0625 11.207 24.13675 9.25 26.09375 L 3.09375 32.25 C 1.13575 34.207 0.03125 36.82575 0.03125 39.59375 C 0.03125 42.36175 1.13575 44.94725 3.09375 46.90625 C 5.05075 48.86325 7.63925 49.96875 10.40625 49.96875 C 13.17425 49.96875 15.795 48.86325 17.75 46.90625 C 18.272 46.38625 23.54825 41.11 23.90625 40.75 C 27.21225 37.445 27.82275 32.423 25.71875 28.5 L 24.21875 30 C 25.58675 33.076 25.018 36.82575 22.5 39.34375 C 22.141 39.70275 16.86675 44.978 16.34375 45.5 C 14.76275 47.081 12.64225 47.96875 10.40625 47.96875 C 8.17125 47.96775 6.081 47.081 4.5 45.5 C 2.918 43.918 2.03125 41.82975 2.03125 39.59375 C 2.03125 37.35775 2.919 35.23725 4.5 33.65625 L 10.6875 27.5 C 12.2685 25.919 14.35875 25.03125 16.59375 25.03125 C 17.79075 25.03125 18.94 25.30625 20 25.78125 L 21.5 24.28125 C 20.009 23.47825 18.33475 23.0625 16.59375 23.0625 z" enable-background="accumulate" font-family="Bitstream Vera Sans" overflow="visible" style="text-indent:0;text-align:start;line-height:normal;text-transform:none;block-progression:tb;-inkscape-font-specification:Bitstream Vera Sans"/>
</svg>