<?xml version="1.0" encoding="utf-8" standalone="no"?><!-- Generator: Adobe Illustrator 18.1.1, SVG Export Plug-In . SVG Version: 6.00 Build 0)  --><svg xmlns="http://www.w3.org/2000/svg" xmlns:xlink="http://www.w3.org/1999/xlink" enable-background="new 0 0 48 48" id="Layer_1" style="fill:#3366ff" version="1.0" viewBox="0 0 48 48" x="0px" xml:space="preserve" y="0px">
<g>
	
		<rect fill="#616161" height="17" transform="matrix(0.7071 -0.7071 0.7071 0.7071 -15.1544 36.5859)" width="4" x="34.6" y="28.1"/>
	<circle cx="20" cy="20" fill="#616161" r="16"/>
</g>
<rect fill="#37474F" height="12.3" transform="matrix(0.7071 -0.7071 0.7071 0.7071 -15.8392 38.2393)" width="4" x="36.2" y="32.1"/>
<circle cx="20" cy="20" fill="#64B5F6" r="13"/>
<path d="M26.9,14.2c-1.7-2-4.2-3.2-6.9-3.2s-5.2,1.2-6.9,3.2c-0.4,0.4-0.3,1.1,0.1,1.4c0.4,0.4,1.1,0.3,1.4-0.1  C16,13.9,17.9,13,20,13s4,0.9,5.4,2.5c0.2,0.2,0.5,0.4,0.8,0.4c0.2,0,0.5-0.1,0.6-0.2C27.2,15.3,27.2,14.6,26.9,14.2z" fill="#BBDEFB"/>
</svg>