<?xml version="1.0" encoding="UTF-8" standalone="no"?><svg xmlns="http://www.w3.org/2000/svg" height="50" style="fill:#000000;fill-opacity:1.0" viewBox="0 0 50 50" width="50">
    <path color="#000" d="M 21 3 C 11.623004 3 4 10.623004 4 20 C 4 29.376996 11.623004 37 21 37 C 24.709505 37 28.140329 35.803849 30.9375 33.78125 L 44.09375 46.90625 L 46.90625 44.09375 L 33.90625 31.0625 C 36.460556 28.087561 38 24.221313 38 20 C 38 10.623004 30.376996 3 21 3 z M 21 5 C 29.296116 5 36 11.703884 36 20 C 36 28.296116 29.296116 35 21 35 C 12.703884 35 6 28.296116 6 20 C 6 11.703884 12.703884 5 21 5 z" enable-background="accumulate" font-family="Bitstream Vera Sans" overflow="visible" style="text-indent:0;text-align:start;line-height:normal;text-transform:none;block-progression:tb;-inkscape-font-specification:Bitstream Vera Sans"/>
</svg>