<?xml version="1.0" encoding="UTF-8" standalone="no"?><svg xmlns="http://www.w3.org/2000/svg" enable-background="new 0 0 50 50" style="fill:#000000;fill-opacity:1.0" viewBox="0 0 50 50">
    <path color="#000" d="M 12 6 C 10.3 6 9 7.3 9 9 L 9 39 L 11 37 L 11 9 C 11 8.4 11.4 8 12 8 L 38 8 C 38.6 8 39 8.4 39 9 L 39 41 C 39 41.6 38.6 42 38 42 L 16 42 L 14 44 L 38 44 C 39.7 44 41 42.7 41 41 L 41 9 C 41 7.3 39.7 6 38 6 L 12 6 z M 16 25 L 16 27 L 24.59375 27 L 9.09375 42.5 L 10.5 43.90625 L 26 28.40625 L 26 37 L 28 37 L 28 26 L 28 25 L 27 25 L 16 25 z" enable-background="accumulate" font-family="Bitstream Vera Sans" overflow="visible" style="text-indent:0;text-align:start;line-height:normal;text-transform:none;block-progression:tb;-inkscape-font-specification:Bitstream Vera Sans"/>
</svg>