<?xml version="1.0" encoding="UTF-8" standalone="no"?><svg xmlns="http://www.w3.org/2000/svg" enable-background="new 0 0 50 50" style="fill:#000000;fill-opacity:1.0" viewBox="0 0 50 50">
    <path color="#000" d="M 25 3 C 18.364481 3 13 8.3644809 13 15 L 13 20 L 9 20 C 7.3545455 20 6 21.354545 6 23 L 6 47 C 6 48.645455 7.3545455 50 9 50 L 41 50 C 42.645455 50 44 48.645455 44 47 L 44 23 C 44 21.354545 42.645455 20 41 20 L 37 20 L 37 15 C 37 8.3644809 31.635519 3 25 3 z M 25 5 C 30.564481 5 35 9.4355191 35 15 L 35 20 L 15 20 L 15 15 C 15 9.4355191 19.435519 5 25 5 z M 9 22 L 41 22 C 41.554545 22 42 22.445455 42 23 L 42 47 C 42 47.554545 41.554545 48 41 48 L 9 48 C 8.4454545 48 8 47.554545 8 47 L 8 23 C 8 22.445455 8.4454545 22 9 22 z M 25 30 C 23.3 30 22 31.3 22 33 C 22 33.9 22.4 34.6875 23 35.1875 L 23 38 C 23 39.1 23.9 40 25 40 C 26.1 40 27 39.1 27 38 L 27 35.1875 C 27.6 34.6875 28 33.9 28 33 C 28 31.3 26.7 30 25 30 z" enable-background="accumulate" font-family="Bitstream Vera Sans" overflow="visible" style="text-indent:0;text-align:start;line-height:normal;text-transform:none;block-progression:tb;-inkscape-font-specification:Bitstream Vera Sans"/>
</svg>