<?xml version="1.0" encoding="UTF-8" standalone="no"?><svg xmlns="http://www.w3.org/2000/svg" style="fill:#000000;fill-opacity:1.0" viewBox="0 0 50 50">
    <path d="M 25 1 C 11.757011 1 1 11.757011 1 25 C 1 38.242989 11.757011 49 25 49 C 38.242989 49 49 38.242989 49 25 C 49 11.757011 38.242989 1 25 1 z M 25 3 C 37.162109 3 47 12.837891 47 25 C 47 37.162109 37.162109 47 25 47 C 12.837891 47 3 37.162109 3 25 C 3 12.837891 12.837891 3 25 3 z M 25 10 C 20.593562 10 17 13.593562 17 18 L 17 20 L 14 20 A 1.0001 1.0001 0 0 0 13.90625 20 A 1.0001 1.0001 0 0 0 13 21 L 13 37 A 1.0001 1.0001 0 0 0 14 38 L 36 38 A 1.0001 1.0001 0 0 0 37 37 L 37 21 A 1.0001 1.0001 0 0 0 36 20 L 33 20 L 33 18 C 33 13.593562 29.406438 10 25 10 z M 25 12 C 28.325562 12 31 14.674438 31 18 L 31 20 L 19 20 L 19 18 C 19 14.674438 21.674438 12 25 12 z M 15 22 L 35 22 L 35 24 L 15 24 L 15 22 z M 15 26 L 22 26 L 22 28 L 15 28 L 15 26 z M 24 26 L 26 26 L 26 32 L 24 32 L 24 26 z M 28 26 L 35 26 L 35 28 L 28 28 L 28 26 z M 15 30 L 22 30 L 22 32 L 15 32 L 15 30 z M 28 30 L 35 30 L 35 32 L 28 32 L 28 30 z M 15 34 L 35 34 L 35 36 L 15 36 L 15 34 z" style="text-indent:0;text-align:start;line-height:normal;text-transform:none;block-progression:tb;-inkscape-font-specification:Bitstream Vera Sans"/>
</svg>