<?xml version="1.0" encoding="utf-8" standalone="no"?><!-- Generator: Adobe Illustrator 15.0.0, SVG Export Plug-In . SVG Version: 6.00 Build 0)  --><svg xmlns="http://www.w3.org/2000/svg" xmlns:xlink="http://www.w3.org/1999/xlink" contentScriptType="application/ecmascript" contentStyleType="text/css" enable-background="new 0 0 48 48" height="48px" id="????????_1" preserveAspectRatio="xMidYMid meet" style="fill:#3366ff" version="1.1" viewBox="0 0 48 48" width="48px" x="0px" xml:space="preserve" y="0px" zoomAndPan="magnify">
<path d="M24,3C12.42,3,3,12.42,3,24c0,11.579,9.42,21,21,21c11.579,0,21-9.421,21-21C45,12.42,35.579,3,24,3L24,3z" fill="#ECEFF1"/>
<circle cx="24" cy="24" fill="#1E88E5" r="18"/>
<g>
	<rect fill="#FFFFFF" height="2" width="7" x="15" y="28"/>
	<rect fill="#FFFFFF" height="2" width="7" x="26" y="28"/>
	<rect fill="#FFFFFF" height="2" width="7" x="15" y="25"/>
	<rect fill="#FFFFFF" height="2" width="7" x="26" y="25"/>
	<path d="M20,21v-3c0-2.206,1.794-4,4-4c2.205,0,4,1.794,4,4v3h2v-3c0-3.313-2.687-6-6-6s-6,2.687-6,6v3H20z" fill="#FFFFFF"/>
	<rect fill="#FFFFFF" height="2" width="18" x="15" y="22"/>
	<rect fill="#FFFFFF" height="2" width="18" x="15" y="31"/>
</g>
</svg>