<?xml version="1.0" encoding="UTF-8" standalone="no"?><svg xmlns="http://www.w3.org/2000/svg" style="fill:#000000;fill-opacity:1.0" viewBox="0 0 50 50">
    <path color="#000" d="M 26.78125 0 A 1.0001 1.0001 0 0 0 26.6875 0.03125 L 10.6875 5.03125 A 1.0001 1.0001 0 0 0 10 6 L 10 46 A 1.0001 1.0001 0 0 0 10.75 46.96875 L 26.75 50.96875 A 1.0001 1.0001 0 0 0 28 50 L 28 1 A 1.0001 1.0001 0 0 0 26.875 0 A 1.0001 1.0001 0 0 0 26.78125 0 z M 26 2.375 L 26 48.71875 L 12 45.21875 L 12 6.75 L 26 2.375 z M 30 4 L 30 6 L 38 6 L 38 45 L 30 45 L 30 47 L 39 47 A 1.0001 1.0001 0 0 0 40 46 L 40 5 A 1.0001 1.0001 0 0 0 39 4 L 30 4 z M 24 24 C 23.447715 24 23 24.671573 23 25.5 C 23 26.328427 23.447715 27 24 27 C 24.552285 27 25 26.328427 25 25.5 C 25 24.671573 24.552285 24 24 24 z" font-family="Sans" overflow="visible" style="text-indent:0;text-align:start;line-height:normal;text-transform:none;block-progression:tb;-inkscape-font-specification:Sans"/>
</svg>