<?xml version="1.0" encoding="UTF-8" standalone="no"?><svg xmlns="http://www.w3.org/2000/svg" enable-background="new 0 0 50 50" style="fill:#000000;fill-opacity:1.0" viewBox="0 0 50 50">
    <path d="M 7 0 C 6.4 0 6 0.4 6 1 L 6 35 L 8 34 L 8 2 L 42 2 L 42 23 L 38.21875 23 L 32.5 17.375 L 32.5 17.40625 C 32.4938 17.40005 32.47493 17.41235 32.46875 17.40625 C 30.989068 15.935824 28.993829 15 26.90625 15 L 18 15 C 16.89598 15 15.831565 15.617629 15.34375 16.65625 C 15.3308 16.68383 15.29334 16.69053 15.28125 16.71875 L 11.3125 24.65625 C 10.573986 26.133278 11.179222 27.948986 12.65625 28.6875 A 1.0001 1.0001 0 0 0 12.78125 28.75 C 13.08125 28.85 13.477778 29 14 29 C 15.080952 29 16.088326 28.400117 16.65625 27.40625 A 1.0001 1.0001 0 0 0 16.6875 27.34375 L 19.8125 21 L 21.90625 21 L 18.3125 28.65625 L 18.3125 28.6875 C 18.082457 29.155154 17.949996 29.657781 17.875 30.15625 A 1.0001 1.0001 0 0 0 17.75 30.4375 L 16.25 36 L 10 36 C 7.7901961 36 6 37.790196 6 40 L 6 41 A 1.0001 1.0001 0 0 0 7 42 L 19.40625 42 C 20.622917 42 21.630095 41.113537 22.125 40 L 22.6875 38.625 L 30.71875 48.4375 A 1.0001 1.0001 0 0 0 30.78125 48.5 C 31.166519 48.885269 31.492472 49.252167 31.90625 49.5625 C 32.320028 49.872833 32.891667 50.09375 33.5 50.09375 L 36.40625 50.09375 A 1.0001 1.0001 0 0 0 37.28125 48.59375 L 27.1875 30.96875 L 31.625 24.9375 L 34.78125 28.09375 A 1.0001 1.0001 0 0 0 34.875 28.1875 C 35.501971 28.689076 36.233333 29 37 29 L 42 29 L 42 50 L 44 50 L 44 1 C 44 0.4 43.6 0 43 0 L 7 0 z M 32.5 4 C 29.474279 4 27 6.4742784 27 9.5 C 27 12.525721 29.474279 15 32.5 15 C 35.525721 15 38 12.525721 38 9.5 C 38 6.4742784 35.525721 4 32.5 4 z M 32.5 6 C 34.444841 6 36 7.5551588 36 9.5 C 36 11.444841 34.444841 13 32.5 13 C 30.555159 13 29 11.444841 29 9.5 C 29 7.5551588 30.555159 6 32.5 6 z M 18 17 L 26.90625 17 C 28.409954 17 29.975059 17.693809 31.09375 18.8125 L 37.09375 24.71875 A 1.0001 1.0001 0 0 0 37.8125 25 L 42 25 L 42 27 L 37 27 C 36.793822 27 36.527778 26.90837 36.21875 26.6875 L 36.1875 26.65625 C 36.16126 26.63665 36.15233 26.64685 36.125 26.625 L 32.21875 22.6875 A 1.0001 1.0001 0 0 0 30.6875 22.8125 L 25.1875 30.3125 A 1.0001 1.0001 0 0 0 25.125 31.40625 L 34.6875 48.09375 L 33.5 48.09375 C 33.308333 48.09375 33.279972 48.07717 33.09375 47.9375 C 32.921067 47.807988 32.649356 47.525474 32.28125 47.15625 C 32.25239 47.1273 32.2489 47.1239 32.21875 47.09375 L 20.46875 32.78125 A 1.0001 1.0001 0 0 0 20.46875 32.75 C 19.724124 31.856449 19.572635 30.604729 20.09375 29.5625 A 1.0001 1.0001 0 0 0 20.09375 29.53125 L 24.40625 20.4375 A 1.0001 1.0001 0 0 0 23.5 19 L 19.1875 19 A 1.0001 1.0001 0 0 0 18.3125 19.5625 L 14.9375 26.40625 C 14.705424 26.812383 14.319048 27 14 27 C 13.93854 27 13.735932 26.93709 13.53125 26.875 C 13.040711 26.604202 12.839505 26.07099 13.09375 25.5625 L 17.09375 17.5625 A 1.0001 1.0001 0 0 0 17.125 17.5 C 17.257471 17.190901 17.533333 17 18 17 z M 18.875 33.9375 C 18.898666 33.967278 18.913059 34.001921 18.9375 34.03125 L 21.28125 36.875 L 20.28125 39.1875 C 19.976155 39.873963 19.789583 40 19.40625 40 L 8 40 C 8 38.809804 8.8098039 38 10 38 L 17 38 A 1.0001 1.0001 0 0 0 17.96875 37.25 L 18.875 33.9375 z M 6 44 L 6 50 L 8 50 L 8 44 L 6 44 z"/>
</svg>