<?xml version="1.0" encoding="UTF-8" standalone="no"?>
<!-- Generator: Adobe Illustrator 15.0.0, SVG Export Plug-In . SVG Version: 6.00 Build 0)  -->

<svg
   xmlns:dc="http://purl.org/dc/elements/1.1/"
   xmlns:cc="http://creativecommons.org/ns#"
   xmlns:rdf="http://www.w3.org/1999/02/22-rdf-syntax-ns#"
   xmlns:svg="http://www.w3.org/2000/svg"
   xmlns="http://www.w3.org/2000/svg"
   xmlns:sodipodi="http://sodipodi.sourceforge.net/DTD/sodipodi-0.dtd"
   xmlns:inkscape="http://www.inkscape.org/namespaces/inkscape"
   contentScriptType="application/ecmascript"
   contentStyleType="text/css"
   enable-background="new 0 0 48 48"
   height="48px"
   id="????????_1"
   preserveAspectRatio="xMidYMid meet"
   style="fill:#0066ff"
   version="1.1"
   viewBox="0 0 48 48"
   width="48px"
   x="0px"
   xml:space="preserve"
   y="0px"
   zoomAndPan="magnify"
   inkscape:version="0.91 r13725"
   sodipodi:docname="media-playback-start_forced.svg"><metadata
     id="metadata9"><rdf:RDF><cc:Work
         rdf:about=""><dc:format>image/svg+xml</dc:format><dc:type
           rdf:resource="http://purl.org/dc/dcmitype/StillImage" /></cc:Work></rdf:RDF></metadata><defs
     id="defs7" /><sodipodi:namedview
     pagecolor="#ffffff"
     bordercolor="#666666"
     borderopacity="1"
     objecttolerance="10"
     gridtolerance="10"
     guidetolerance="10"
     inkscape:pageopacity="0"
     inkscape:pageshadow="2"
     inkscape:window-width="2560"
     inkscape:window-height="1537"
     id="namedview5"
     showgrid="false"
     inkscape:zoom="4.9166667"
     inkscape:cx="68.93031"
     inkscape:cy="34.393645"
     inkscape:window-x="1192"
     inkscape:window-y="-8"
     inkscape:window-maximized="1"
     inkscape:current-layer="????????_1" /><path
     style="color:#000000;line-height:normal;font-family:'Bitstream Vera Sans';-inkscape-font-specification:'Bitstream Vera Sans';text-indent:0;text-align:start;text-transform:none;block-progression:tb;overflow:visible;fill:#000000;fill-opacity:1.0"
     d="m 7.21875,4.25 0,39.5 c 6.201061,-3.646991 12.391785,-7.310212 18.591797,-10.958984 l -3.923828,0 L 9.21875,40.25 l 0,-32.5 18.732422,11.03125 1.652344,-1.367188 C 22.141846,13.026181 14.686433,8.6276174 7.21875,4.25 Z"
     id="path4"
     inkscape:connector-curvature="0"
     sodipodi:nodetypes="ccccccccc" /><path
     inkscape:connector-curvature="0"
     style="font-style:normal;font-weight:normal;font-size:24.02693176px;line-height:125%;font-family:sans-serif;letter-spacing:0px;word-spacing:0px;fill:#000000;fill-opacity:1.0;stroke:none;stroke-width:1.39999998;stroke-linecap:round;stroke-linejoin:miter;stroke-miterlimit:0;stroke-dasharray:none;stroke-opacity:1"
     d="m 32.802098,16.678154 -10.019531,8.132812 3.515625,0 7.714844,-6.414062 7.714843,6.414062 3.515625,0 -10.019531,-8.132812 -2.421875,0 z m 0,6.425781 -10.019531,8.130859 3.515625,0 7.714844,-6.412109 7.714843,6.412109 3.515625,0 -10.019531,-8.130859 -2.421875,0 z m 0,6.423828 -10.019531,8.132812 3.515625,0 7.714844,-6.412109 7.714843,6.412109 3.515625,0 -10.019531,-8.132812 -2.421875,0 z m 0,6.425781 -10.019531,8.132813 3.515625,0 7.714844,-6.414063 7.714843,6.414063 3.515625,0 -10.019531,-8.132813 -2.421875,0 z"
     id="path4209" /></svg>