<?xml version="1.0" encoding="UTF-8" standalone="no"?><svg xmlns="http://www.w3.org/2000/svg" style="fill:#000000;fill-opacity:1.0" viewBox="0 0 50 50">
    <path color="#000" d="M 12 8 L 12 9 L 12 41 L 12 42 L 13 42 L 21 42 L 22 42 L 22 41 L 22 9 L 22 8 L 21 8 L 13 8 L 12 8 z M 28 8 L 28 9 L 28 41 L 28 42 L 29 42 L 37 42 L 38 42 L 38 41 L 38 9 L 38 8 L 37 8 L 29 8 L 28 8 z M 14 10 L 20 10 L 20 40 L 14 40 L 14 10 z M 30 10 L 36 10 L 36 40 L 30 40 L 30 10 z" font-family="Bitstream Vera Sans" overflow="visible" style="text-indent:0;text-align:start;line-height:normal;text-transform:none;block-progression:tb;-inkscape-font-specification:Bitstream Vera Sans"/>
</svg>