<?xml version="1.0" encoding="UTF-8" standalone="no"?><svg xmlns="http://www.w3.org/2000/svg" enable-background="new 0 0 50 50" style="fill:#000000;fill-opacity:1.0" viewBox="0 0 50 50">
    <path d="M 0.8125 0 A 1.0001 1.0001 0 0 0 0 1 L 0 38 L 2 38 L 2 2 L 24 2 L 24 38 L 26 38 L 26 2 L 37 2 L 37 38 L 39 38 L 39 1 A 1.0001 1.0001 0 0 0 38 0 L 1 0 A 1.0001 1.0001 0 0 0 0.90625 0 A 1.0001 1.0001 0 0 0 0.8125 0 z M 5 6 L 5 8 L 21 8 L 21 6 L 5 6 z M 5 12 L 5 14 L 21 14 L 21 12 L 5 12 z M 28 34 L 28 36 L 35 36 L 35 34 L 28 34 z M 0.8125 39 A 1.0001 1.0001 0 0 0 0 40 L 0 49 A 1.0001 1.0001 0 0 0 1 50 L 49 50 A 1.0001 1.0001 0 0 0 50 49 L 50 40 A 1.0001 1.0001 0 0 0 49 39 L 1 39 A 1.0001 1.0001 0 0 0 0.90625 39 A 1.0001 1.0001 0 0 0 0.8125 39 z M 2 41 L 48 41 L 48 48 L 2 48 L 2 41 z M 5.5 42 C 4.1192881 42 3 43.119288 3 44.5 C 3 45.880712 4.1192881 47 5.5 47 C 6.8807119 47 8 45.880712 8 44.5 C 8 43.119288 6.8807119 42 5.5 42 z" style="text-indent:0;text-align:start;line-height:normal;text-transform:none;block-progression:tb;-inkscape-font-specification:Bitstream Vera Sans"/>
</svg>