<?xml version="1.0" encoding="UTF-8" standalone="no"?><svg xmlns="http://www.w3.org/2000/svg" height="50" style="fill:#000000;fill-opacity:1.0" viewBox="0 0 50 50" width="50">
    <path d="M 24.90625 -0.03125 A 1.0001 1.0001 0 0 0 24.78125 0 A 1.0001 1.0001 0 0 0 24 1 L 24 17.5625 L 18.71875 12.28125 A 1.0001 1.0001 0 0 0 17.78125 12 A 1.0001 1.0001 0 0 0 17.28125 13.71875 L 24.15625 20.5625 A 1.0001 1.0001 0 0 0 24.4375 20.84375 L 25 21.40625 L 25.5625 20.84375 A 1.0001 1.0001 0 0 0 25.78125 20.625 L 32.71875 13.71875 A 1.016466 1.016466 0 1 0 31.28125 12.28125 L 26 17.5625 L 26 1 A 1.0001 1.0001 0 0 0 24.90625 -0.03125 z M 0.71875 22 A 1.0043849 1.0043849 0 0 0 1 24 L 8 24 C 9.3567949 24 10.321094 24.381523 10.96875 25.03125 C 11.616406 25.680977 12 26.653281 12 28 L 12 36.5625 L 7.71875 32.28125 A 1.0001 1.0001 0 0 0 6.90625 31.96875 A 1.0001 1.0001 0 0 0 6.78125 32 A 1.0001 1.0001 0 0 0 6.28125 33.71875 L 12.15625 39.5625 A 1.0001 1.0001 0 0 0 12.21875 39.65625 L 12.28125 39.71875 A 1.0001 1.0001 0 0 0 12.4375 39.84375 L 13 40.40625 L 13.5625 39.84375 A 1.0001 1.0001 0 0 0 13.78125 39.625 L 19.71875 33.71875 A 1.016466 1.016466 0 1 0 18.28125 32.28125 L 14 36.5625 L 14 28 C 14 26.248719 13.447344 24.700773 12.375 23.625 C 11.302656 22.549227 9.7632051 22 8 22 L 1 22 A 1.0001 1.0001 0 0 0 0.90625 22 A 1.001098 1.001098 0 0 0 0.8125 22 A 1.0043849 1.0043849 0 0 0 0.71875 22 z M 42 22 C 40.236795 22 38.697344 22.549227 37.625 23.625 C 36.552656 24.700773 36 26.248719 36 28 L 36 36.5625 L 31.71875 32.28125 A 1.0001 1.0001 0 0 0 30.78125 32 A 1.0001 1.0001 0 0 0 30.28125 33.71875 L 36.15625 39.5625 A 1.0001 1.0001 0 0 0 36.21875 39.65625 L 36.28125 39.71875 A 1.0001 1.0001 0 0 0 36.4375 39.84375 L 37 40.40625 L 37.5625 39.84375 A 1.0001 1.0001 0 0 0 37.78125 39.625 L 43.71875 33.71875 A 1.016466 1.016466 0 1 0 42.28125 32.28125 L 38 36.5625 L 38 28 C 38 26.653281 38.383594 25.680977 39.03125 25.03125 C 39.678906 24.381523 40.643205 24 42 24 L 49 24 A 1.0001 1.0001 0 1 0 49 22 L 42 22 z M 0.90625 39.96875 A 1.0001 1.0001 0 0 0 0.78125 40 A 1.0001 1.0001 0 0 0 0 41 L 0 49 L 0 50 L 1 50 L 49 50 L 50 50 L 50 49 L 50 41 A 1.0001 1.0001 0 1 0 48 41 L 48 48 L 2 48 L 2 41 A 1.0001 1.0001 0 0 0 0.90625 39.96875 z" style="text-indent:0;text-align:start;line-height:normal;text-transform:none;block-progression:tb;-inkscape-font-specification:Bitstream Vera Sans"/>
</svg>