<?xml version="1.0" encoding="UTF-8" standalone="no"?><svg xmlns="http://www.w3.org/2000/svg" height="50" style="fill:#000000;fill-opacity:1.0" viewBox="0 0 50 50" width="50">
    <path color="#000" d="M 3 1 C 1.3550302 1 0 2.3550302 0 4 L 0 33 C 0 34.64497 1.3550302 36 3 36 L 12 36 L 12 34 L 3 34 C 2.4349698 34 2 33.56503 2 33 L 2 4 C 2 3.4349698 2.4349698 3 3 3 L 21 3 C 21.56503 3 22 3.4349698 22 4 L 22 7 L 24 7 L 24 4 C 24 2.3550302 22.64497 1 21 1 L 3 1 z M 4.8125 5 A 1.0001 1.0001 0 0 0 4 6 L 4 28 A 1.0001 1.0001 0 0 0 5 29 L 12 29 L 12 27 L 6 27 L 6 7 L 18 7 L 19 7 L 20 7 L 20 6 A 1.0001 1.0001 0 0 0 19 5 L 5 5 A 1.0001 1.0001 0 0 0 4.90625 5 A 1.0001 1.0001 0 0 0 4.8125 5 z M 16 8 C 14.35503 8 13 9.3550302 13 11 L 13 40 C 13 41.64497 14.35503 43 16 43 L 25 43 L 25 41 L 16 41 C 15.43497 41 15 40.56503 15 40 L 15 11 C 15 10.43497 15.43497 10 16 10 L 34 10 C 34.56503 10 35 10.43497 35 11 L 35 14 L 37 14 L 37 11 C 37 9.3550302 35.64497 8 34 8 L 16 8 z M 17.8125 12 A 1.0001 1.0001 0 0 0 17 13 L 17 35 A 1.0001 1.0001 0 0 0 18 36 L 25 36 L 25 34 L 19 34 L 19 14 L 31 14 L 32 14 L 33 14 L 33 13 A 1.0001 1.0001 0 0 0 32 12 L 18 12 A 1.0001 1.0001 0 0 0 17.90625 12 A 1.0001 1.0001 0 0 0 17.8125 12 z M 29 15 C 27.35503 15 26 16.35503 26 18 L 26 47 C 26 48.64497 27.35503 50 29 50 L 47 50 C 48.64497 50 50 48.64497 50 47 L 50 18 C 50 16.35503 48.64497 15 47 15 L 29 15 z M 29 17 L 47 17 C 47.56503 17 48 17.43497 48 18 L 48 47 C 48 47.56503 47.56503 48 47 48 L 29 48 C 28.43497 48 28 47.56503 28 47 L 28 18 C 28 17.43497 28.43497 17 29 17 z M 30.8125 19 A 1.0001 1.0001 0 0 0 30 20 L 30 42 A 1.0001 1.0001 0 0 0 31 43 L 45 43 A 1.0001 1.0001 0 0 0 46 42 L 46 20 A 1.0001 1.0001 0 0 0 45 19 L 31 19 A 1.0001 1.0001 0 0 0 30.90625 19 A 1.0001 1.0001 0 0 0 30.8125 19 z M 32 21 L 44 21 L 44 41 L 32 41 L 32 21 z M 12 30 C 11.172 30 10.5 30.672 10.5 31.5 C 10.5 32.328 11.172 33 12 33 L 12 30 z M 25 37 C 24.172 37 23.5 37.672 23.5 38.5 C 23.5 39.328 24.172 40 25 40 L 25 37 z M 38 44 C 37.171573 44 36.5 44.671573 36.5 45.5 C 36.5 46.328427 37.171573 47 38 47 C 38.828427 47 39.5 46.328427 39.5 45.5 C 39.5 44.671573 38.828427 44 38 44 z" enable-background="accumulate" font-family="Bitstream Vera Sans" overflow="visible" style="text-indent:0;text-align:start;line-height:normal;text-transform:none;block-progression:tb;-inkscape-font-specification:Bitstream Vera Sans"/>
</svg>