<?xml version="1.0" encoding="utf-8" standalone="no"?><!-- Generator: Adobe Illustrator 15.0.0, SVG Export Plug-In . SVG Version: 6.00 Build 0)  --><svg xmlns="http://www.w3.org/2000/svg" xmlns:xlink="http://www.w3.org/1999/xlink" contentScriptType="application/ecmascript" contentStyleType="text/css" enable-background="new 0 0 48 48" height="48px" id="????????_1" preserveAspectRatio="xMidYMid meet" style="fill:#000000" version="1.1" viewBox="0 0 48 48" width="48px" x="0px" xml:space="preserve" y="0px" zoomAndPan="magnify">
<path d="M6,21v10c0,2.209,1.791,4,4,4h28c2.209,0,4-1.791,4-4V21H6z" fill="#78909C"/>
<path d="M42,21c0,2.209-1.791,4-4,4H10c-2.209,0-4-1.791-4-4l3-11c0.623-1.933,1.791-4,4-4h22  c2.209,0,3.459,1.667,4,4L42,21z" fill="#455A64"/>
<circle cx="35" cy="30" fill="#64DD17" r="2"/>
<g>
	<rect fill="#B0BEC5" height="5" width="2" x="23" y="35"/>
	<rect fill="#B0BEC5" height="2" width="36" x="6" y="40"/>
</g>
<g>
	<circle cx="12" cy="30" fill="#FFEB3B" r="2"/>
	<circle cx="19" cy="30" fill="#FFEB3B" r="2"/>
</g>
<path d="M27.272,11h-6.545C15.907,11,12,13.181,12,18c0,0,0,1,1,1s4,0,5,0s1-1,1-1v-2c0-1.104,0.896-2,2-2h6  c1.104,0,2,0.896,2,2v2c0,0,0,1,1,1s4,0,5,0s1-1,1-1C36,13.181,32.093,11,27.272,11z" fill="#90CAF9"/>
</svg>