<?xml version="1.0" encoding="UTF-8" standalone="no"?><svg xmlns="http://www.w3.org/2000/svg" height="50" style="fill:#000000;fill-opacity:1.0" viewBox="0 0 50 50" width="50">
    <path d="M 35.34375 -0.09375 C 31.796583 -0.09375 28.782004 1.9420504 27.21875 4.875 C 26.456736 4.4239019 25.600817 4.125 24.65625 4.125 C 22.024941 4.125 19.917918 6.1544389 19.65625 8.71875 C 18.882935 9.0245828 18.173821 9.4599533 17.5625 10 A 1.0001 1.0001 0 0 0 17.34375 10 L 7.6875 10 C 6.7552773 10 6.0273614 10.637734 5.84375 11.53125 L 5.8125 11.53125 L 5.8125 11.59375 L 0.125 35.34375 A 1.0001 1.0001 0 0 0 0.09375 35.4375 C 0.040272227 35.616317 0 35.805298 0 36 L 0 48 C 0 49.093063 0.9069372 50 2 50 L 48 50 C 49.093063 50 50 49.093063 50 48 L 50 36 C 50 35.747229 49.931836 35.5052 49.84375 35.28125 L 49.84375 35.21875 C 49.834645 35.197461 49.822319 35.177167 49.8125 35.15625 L 46.46875 21.3125 C 48.555308 20.252181 50 18.079219 50 15.59375 C 50 12.43829 47.640215 9.9490073 44.625 9.4375 C 44.6279 9.352369 44.625 9.2746823 44.625 9.1875 C 44.625 4.0670342 40.464216 -0.09375 35.34375 -0.09375 z M 35.34375 1.90625 C 39.383284 1.90625 42.625 5.1479658 42.625 9.1875 C 42.625 9.4811036 42.60056 9.7809131 42.5625 10.09375 L 42.4375 11.21875 L 43.5625 11.21875 L 43.59375 11.21875 C 46.033482 11.21875 48 13.154976 48 15.59375 C 48 17.479964 46.819079 19.089127 45.15625 19.71875 A 1.0001 1.0001 0 0 0 45.0625 19.75 C 44.601814 19.912867 44.111096 20.000174 43.59375 20 L 22.15625 20 C 19.427476 20 17.25 17.821358 17.25 15.09375 C 17.25 12.822399 18.76709 10.917509 20.84375 10.34375 L 21.59375 10.125 L 21.5625 9.34375 C 21.5584 9.2279687 21.5625 9.1962902 21.5625 9.21875 C 21.5625 7.493853 22.930409 6.125 24.65625 6.125 C 25.519821 6.125 26.312944 6.4676789 26.875 7.03125 L 27.96875 8.125 L 28.5 6.65625 C 29.528581 3.8764439 32.19653 1.90625 35.34375 1.90625 z M 7.75 12 L 16 12 C 15.521252 12.925659 15.25 13.975848 15.25 15.09375 C 15.25 18.902142 18.347024 22 22.15625 22 L 43.59375 22 C 43.924522 22.000111 44.24478 21.955316 44.5625 21.90625 L 47.46875 34 L 2.5 34 L 7.75 12 z M 2 36 L 47.96875 36 A 1.0083877 1.0083877 0 0 0 48 36.0625 L 48 48 L 2 48 L 2 36 z M 40 40 C 38.895 40 38 40.896 38 42 C 38 43.104 38.895 44 40 44 C 41.105 44 42 43.104 42 42 C 42 40.896 41.105 40 40 40 z"/>
</svg>