<?xml version="1.0" encoding="UTF-8" standalone="no"?><svg xmlns="http://www.w3.org/2000/svg" enable-background="new 0 0 50 50" style="fill:#000000;fill-opacity:1.0" viewBox="0 0 50 50">
    <path color="#000" d="M 23.6875 1.03125 C 23.018872 1.011585 22.375893 1.2613003 21.84375 1.65625 C 21.311607 2.0511997 20.834748 2.5696942 20.375 3.21875 C 20.021619 3.7134839 19.675248 3.9241375 19.0625 4.0625 C 18.449752 4.2008625 17.59375 4.1875 16.59375 4.1875 C 15.47629 4.1875 14.669662 4.285779 14 4.53125 C 13.46504 4.7273447 12.978268 5.1093994 12.71875 5.59375 A 1.0077822 1.0077822 0 0 0 12.6875 5.6875 C 12.677572 5.7089986 12.665241 5.7280958 12.65625 5.75 A 1.0077822 1.0077822 0 0 0 12.625 5.8125 C 12.605613 5.866392 12.575917 5.9126429 12.5625 5.96875 C 12.401497 6.6420353 12.63017 7.2068107 12.90625 7.65625 C 13.178083 8.0987693 13.543166 8.4757247 13.90625 8.8125 C 14.324101 9.2303511 15.209149 9.9897667 16.0625 11.34375 C 16.833858 12.567637 17.391169 14.230344 17.34375 16.21875 C 14.029673 17.229767 10.867706 19.638885 8.4375 22.71875 C 5.8013874 26.059566 4 30.133248 4 34.09375 C 4 38.981693 5.5301821 42.462584 9 44.4375 C 12.469818 46.412416 17.593311 47 25 47 C 32.406689 47 37.530182 46.412416 41 44.4375 C 44.469818 42.462584 46 38.981693 46 34.09375 C 46 26.531872 40.074731 19.610721 33.25 16.59375 C 33.728532 16.529496 34.22484 16.485996 34.75 16.5 C 36.431784 16.54485 38.231529 17.049223 39.78125 18.6875 A 1.0001 1.0001 0 1 0 41.21875 17.3125 C 39.404898 15.394999 37.211672 14.669183 35.25 14.53125 C 36.889717 13.844044 38.776737 13.637228 41.03125 14.875 A 1.0001 1.0001 0 1 0 41.96875 13.125 C 40.560774 12.351994 39.228072 12.038028 37.96875 12.03125 C 35.135276 12.016003 32.754473 13.525346 31.1875 14.59375 C 30.960439 10.950959 33.021745 8.0431307 33.28125 7.71875 L 33.3125 7.6875 L 33.34375 7.625 C 33.690592 7.0799627 34.232892 6.3002892 34.46875 5.375 C 34.586679 4.9123554 34.65294 4.3056332 34.25 3.75 C 33.84706 3.1943668 33.166667 3 32.5 3 C 31.25 3 30.121127 3.4266431 29.21875 3.59375 C 28.316373 3.7608569 27.857694 3.7326938 27.40625 3.28125 L 27.40625 3.3125 C 27.40015 3.30611 27.38114 3.31887 27.375 3.3125 C 26.073126 1.9609801 25.018485 1.0703966 23.6875 1.03125 z M 23.625 3.03125 C 23.987743 3.041919 24.778773 3.4499242 25.96875 4.6875 L 26 4.6875 L 26 4.71875 C 27.048556 5.7673062 28.471127 5.7391431 29.59375 5.53125 C 30.441414 5.3742752 31.245994 5.1623032 31.90625 5.0625 C 31.91772 5.137074 31.93458 5.138853 31.84375 5.28125 C 31.75292 5.4236472 31.547241 5.659982 31.21875 5.9375 C 30.561769 6.4925359 29.469418 7.1982559 28.3125 8.25 C 27.841386 8.6818544 27.279143 8.9768259 26.84375 9.03125 C 26.408357 9.0856741 26.161605 9.0001762 25.875 8.65625 L 25.84375 8.65625 C 25.3376 8.022135 24.877914 7.5426806 24.34375 7.21875 C 23.798226 6.8879303 23.150711 6.7196246 22.5625 6.8125 C 21.393779 6.9970349 20.652344 7.8341843 19.75 8.6875 L 19.71875 8.6875 L 19.71875 8.65625 C 19.203386 9.1394039 18.589237 9.3006052 17.65625 8.90625 C 16.868376 8.5732312 15.896386 7.7407482 14.96875 6.375 C 15.314416 6.2831771 15.811965 6.1875 16.59375 6.1875 C 17.59375 6.1875 18.562748 6.211638 19.5 6 C 20.437252 5.7883625 21.353381 5.2802661 22 4.375 L 22.03125 4.375 C 22.421502 3.8240558 22.763393 3.4488003 23.03125 3.25 C 23.299107 3.0511997 23.443628 3.0259155 23.625 3.03125 z M 22.875 8.8125 C 22.999289 8.792875 23.079899 8.765195 23.3125 8.90625 C 23.545101 9.0473053 23.880779 9.3609184 24.3125 9.90625 L 24.3125 9.9375 L 24.34375 9.9375 C 25.057145 10.793574 26.129143 11.120576 27.09375 11 C 28.058357 10.879424 28.958614 10.418146 29.6875 9.75 C 29.794373 9.6528426 29.894652 9.592072 30 9.5 C 29.329566 11.125637 28.795316 13.295649 29.21875 15.78125 C 24.593117 18.027067 20.889879 16.838813 19.46875 16.1875 C 19.50802 14.147094 18.916069 12.400113 18.1875 11.03125 C 19.267402 11.136408 20.322969 10.847607 21.09375 10.125 C 21.983471 9.2847076 22.626422 8.8517491 22.875 8.8125 z M 30.25 17.5 C 37.163323 19.52403 44 26.843667 44 34.09375 C 44 38.605807 42.886432 41.093666 40.03125 42.71875 C 37.176068 44.343834 32.293311 45 25 45 C 17.706689 45 12.823932 44.343834 9.96875 42.71875 C 7.1135679 41.093666 6 38.605807 6 34.09375 C 6 30.754252 7.5861126 26.996684 10 23.9375 C 12.380881 20.920145 15.555103 18.618353 18.5 17.90625 C 20.175749 18.658452 24.801745 20.202617 30.25 17.5 z M 23.5 22 L 23.5 24 C 22 24.2 19.40625 25.39375 19.40625 28.59375 C 19.40625 34.39375 27.8125 31.4125 27.8125 35.8125 C 27.8125 37.3125 27.10625 38.59375 24.40625 38.59375 C 21.60625 38.59375 20.8125 36.3875 20.8125 35.1875 L 19 35.1875 C 19.3 39.0875 22 40.0125 23.5 40.3125 L 23.5 42 L 25.3125 42 L 25.3125 40.3125 C 26.7125 40.2125 29.90625 39.19375 29.90625 35.59375 C 29.90625 32.59375 27.49375 31.7875 25.09375 31.1875 C 23.19375 30.6875 21.40625 30.30625 21.40625 28.40625 C 21.40625 27.60625 21.70625 25.8125 24.40625 25.8125 C 26.30625 25.8125 27.2 27.00625 27.5 28.40625 L 29.3125 28.40625 C 28.8125 26.40625 27.9125 24.59375 25.3125 24.09375 L 25.3125 22 L 23.5 22 z" enable-background="accumulate" font-family="Bitstream Vera Sans" overflow="visible" style="text-indent:0;text-align:start;line-height:normal;text-transform:none;block-progression:tb;-inkscape-font-specification:Bitstream Vera Sans"/>
</svg>