<?xml version="1.0" encoding="UTF-8" standalone="no"?>
<svg
   xmlns:dc="http://purl.org/dc/elements/1.1/"
   xmlns:cc="http://creativecommons.org/ns#"
   xmlns:rdf="http://www.w3.org/1999/02/22-rdf-syntax-ns#"
   xmlns:svg="http://www.w3.org/2000/svg"
   xmlns="http://www.w3.org/2000/svg"
   xmlns:sodipodi="http://sodipodi.sourceforge.net/DTD/sodipodi-0.dtd"
   xmlns:inkscape="http://www.inkscape.org/namespaces/inkscape"
   height="50"
   style="fill:#000000;fill-opacity:1.0"
   viewBox="0 0 50 50"
   width="50"
   id="svg2"
   version="1.1"
   inkscape:version="0.91 r13725"
   sodipodi:docname="network-error.svg">
  <metadata
     id="metadata10">
    <rdf:RDF>
      <cc:Work
         rdf:about="">
        <dc:format>image/svg+xml</dc:format>
        <dc:type
           rdf:resource="http://purl.org/dc/dcmitype/StillImage" />
      </cc:Work>
    </rdf:RDF>
  </metadata>
  <defs
     id="defs8" />
  <sodipodi:namedview
     pagecolor="#ffffff"
     bordercolor="#666666"
     borderopacity="1"
     objecttolerance="10"
     gridtolerance="10"
     guidetolerance="10"
     inkscape:pageopacity="0"
     inkscape:pageshadow="2"
     inkscape:window-width="1200"
     inkscape:window-height="1857"
     id="namedview6"
     showgrid="false"
     inkscape:zoom="13.350176"
     inkscape:cx="26.555151"
     inkscape:cy="25.872561"
     inkscape:window-x="-8"
     inkscape:window-y="-8"
     inkscape:window-maximized="1"
     inkscape:current-layer="g4148" />
  <path
     d="M 10 6.90625 C 7.5438835 6.90625 5.4663207 8.6726987 5 11 L 1 11 A 1.0001 1.0001 0 0 0 0.90625 11 A 1.001098 1.001098 0 0 0 0.8125 11 A 1.0043849 1.0043849 0 0 0 1 13 L 5 13 C 5.4663207 15.327301 7.5438835 17.09375 10 17.09375 C 12.456117 17.09375 14.533679 15.327301 15 13 L 20 13 C 20.466321 15.327301 22.543883 17.09375 25 17.09375 C 27.456117 17.09375 29.533679 15.327301 30 13 L 35 13 C 35.466321 15.327301 37.543883 17.09375 40 17.09375 C 42.456117 17.09375 44.533679 15.327301 45 13 L 49 13 A 1.0001 1.0001 0 1 0 49 11 L 45 11 C 44.533679 8.6726987 42.456117 6.90625 40 6.90625 C 37.543883 6.90625 35.466321 8.6726987 35 11 L 30 11 C 29.533679 8.6726987 27.456117 6.90625 25 6.90625 C 22.543883 6.90625 20.466321 8.6726987 20 11 L 15 11 C 14.533679 8.6726987 12.456117 6.90625 10 6.90625 z M 10 9.09375 C 11.623572 9.09375 12.90625 10.376428 12.90625 12 A 1.0043849 1.0043849 0 0 0 12.90625 12.125 C 12.84184 13.68841 11.581315 14.90625 10 14.90625 C 8.3764279 14.90625 7.09375 13.623572 7.09375 12 C 7.09375 10.376428 8.3764279 9.09375 10 9.09375 z M 25 9.09375 C 26.602443 9.09375 27.873457 10.343971 27.90625 11.9375 C 27.906682 11.958511 27.90625 11.978871 27.90625 12 A 1.0043849 1.0043849 0 0 0 27.90625 12.125 C 27.84184 13.68841 26.581315 14.90625 25 14.90625 C 23.376428 14.90625 22.09375 13.623572 22.09375 12 C 22.09375 10.376428 23.376428 9.09375 25 9.09375 z M 40 9.09375 C 41.623572 9.09375 42.90625 10.376428 42.90625 12 C 42.90625 13.623572 41.623572 14.90625 40 14.90625 C 38.376428 14.90625 37.09375 13.623572 37.09375 12 C 37.09375 10.376428 38.376428 9.09375 40 9.09375 z M 10 32.90625 C 7.5438835 32.90625 5.4663207 34.672699 5 37 L 1 37 A 1.0001 1.0001 0 0 0 0.90625 37 A 1.001098 1.001098 0 0 0 0.8125 37 A 1.0043849 1.0043849 0 0 0 1 39 L 5 39 C 5.4663207 41.327301 7.5438835 43.09375 10 43.09375 C 12.456117 43.09375 14.533679 41.327301 15 39 L 20 39 C 20.466321 41.327301 22.543883 43.09375 25 43.09375 C 27.456117 43.09375 29.533679 41.327301 30 39 L 35 39 C 35.466321 41.327301 37.543883 43.09375 40 43.09375 C 42.456117 43.09375 44.533679 41.327301 45 39 L 49 39 A 1.0001 1.0001 0 1 0 49 37 L 45 37 C 44.533679 34.672699 42.456117 32.90625 40 32.90625 C 37.543883 32.90625 35.466321 34.672699 35 37 L 30 37 C 29.533679 34.672699 27.456117 32.90625 25 32.90625 C 22.543883 32.90625 20.466321 34.672699 20 37 L 15 37 C 14.533679 34.672699 12.456117 32.90625 10 32.90625 z M 10 35.09375 C 11.623572 35.09375 12.90625 36.376428 12.90625 38 A 1.0043849 1.0043849 0 0 0 12.90625 38.125 C 12.84184 39.68841 11.581315 40.90625 10 40.90625 C 8.3764279 40.90625 7.09375 39.623572 7.09375 38 C 7.09375 36.376428 8.3764279 35.09375 10 35.09375 z M 25 35.09375 C 26.602443 35.09375 27.873457 36.343971 27.90625 37.9375 A 1.0043849 1.0043849 0 0 0 27.90625 38.125 C 27.84184 39.68841 26.581315 40.90625 25 40.90625 C 23.376428 40.90625 22.09375 39.623572 22.09375 38 C 22.09375 36.376428 23.376428 35.09375 25 35.09375 z M 40 35.09375 C 41.623572 35.09375 42.90625 36.376428 42.90625 38 A 1.0043849 1.0043849 0 0 0 42.90625 38.125 C 42.84184 39.68841 41.581315 40.90625 40 40.90625 C 38.376428 40.90625 37.09375 39.623572 37.09375 38 C 37.09375 36.376428 38.376428 35.09375 40 35.09375 z"
     style="text-indent:0;text-align:start;line-height:normal;text-transform:none;block-progression:tb;-inkscape-font-specification:Bitstream Vera Sans"
     id="path4" />
  <g
     style="fill:#000000;fill-opacity:1.0"
     id="g4148"
     transform="matrix(0.72072419,0,0,0.72072419,15.8802,16.092065)">
    <circle
       style="fill:#ffffff;fill-opacity:1.0;stroke:none;stroke-opacity:1"
       id="path4151"
       cx="25"
       cy="25"
       r="20.038216" />
    <path
       id="path4140"
       style="color:#000000;line-height:normal;font-family:'Bitstream Vera Sans';-inkscape-font-specification:'Bitstream Vera Sans';text-indent:0;text-align:start;text-transform:none;block-progression:tb;overflow:visible;enable-background:accumulate;fill:#000000;fill-opacity:1.0;stroke:none;stroke-opacity:1"
       overflow="visible"
       d="M 25,3 C 12.86158,3 3,12.86158 3,25 3,37.13842 12.86158,47 25,47 37.13842,47 47,37.13842 47,25 47,12.86158 37.13842,3 25,3 Z m 0,2 C 36.05754,5 45,13.94246 45,25 45,36.05754 36.05754,45 25,45 13.94246,45 5,36.05754 5,25 5,13.94246 13.94246,5 25,5 Z M 13.8125,21 A 1.0001,1.0001 0 0 0 13,22 l 0,6 a 1.0001,1.0001 0 0 0 1,1 l 22,0 a 1.0001,1.0001 0 0 0 1,-1 l 0,-6 a 1.0001,1.0001 0 0 0 -1,-1 l -22,0 a 1.0001,1.0001 0 0 0 -0.09375,0 1.0001,1.0001 0 0 0 -0.09375,0 z M 15,23 l 20,0 0,4 -20,0 0,-4 z"
       inkscape:connector-curvature="0" />
  </g>
</svg>
