<?xml version="1.0" encoding="UTF-8" standalone="no"?>
<!-- Generator: Adobe Illustrator 15.0.0, SVG Export Plug-In . SVG Version: 6.00 Build 0)  -->

<svg
   xmlns:dc="http://purl.org/dc/elements/1.1/"
   xmlns:cc="http://creativecommons.org/ns#"
   xmlns:rdf="http://www.w3.org/1999/02/22-rdf-syntax-ns#"
   xmlns:svg="http://www.w3.org/2000/svg"
   xmlns="http://www.w3.org/2000/svg"
   xmlns:sodipodi="http://sodipodi.sourceforge.net/DTD/sodipodi-0.dtd"
   xmlns:inkscape="http://www.inkscape.org/namespaces/inkscape"
   contentScriptType="application/ecmascript"
   contentStyleType="text/css"
   enable-background="new 0 0 48 48"
   height="48px"
   id="????????_1"
   preserveAspectRatio="xMidYMid meet"
   style="fill:#000000"
   version="1.1"
   viewBox="0 0 48 48"
   width="48px"
   x="0px"
   xml:space="preserve"
   y="0px"
   zoomAndPan="magnify"
   inkscape:version="0.91 r13725"
   sodipodi:docname="network-error.svg"><metadata
     id="metadata29"><rdf:RDF><cc:Work
         rdf:about=""><dc:format>image/svg+xml</dc:format><dc:type
           rdf:resource="http://purl.org/dc/dcmitype/StillImage" /></cc:Work></rdf:RDF></metadata><defs
     id="defs27" /><sodipodi:namedview
     pagecolor="#ffffff"
     bordercolor="#666666"
     borderopacity="1"
     objecttolerance="10"
     gridtolerance="10"
     guidetolerance="10"
     inkscape:pageopacity="0"
     inkscape:pageshadow="2"
     inkscape:window-width="1920"
     inkscape:window-height="1017"
     id="namedview25"
     showgrid="false"
     inkscape:zoom="4.9166667"
     inkscape:cx="24"
     inkscape:cy="24"
     inkscape:window-x="-8"
     inkscape:window-y="-8"
     inkscape:window-maximized="1"
     inkscape:current-layer="????????_1" /><g
     id="g3"
     transform="matrix(1.203388,0,0,1.2033845,-4.8814268,-4.8812387)"><rect
       height="10"
       transform="matrix(0.7071,0.7071,-0.7071,0.7071,19.9895,-10.6232)"
       width="3"
       x="21.318001"
       y="13.818"
       id="rect5"
       style="fill:#ffc107" /><rect
       height="10"
       transform="matrix(0.7071,0.7071,-0.7071,0.7071,26.3534,-13.2593)"
       width="3"
       x="27.681999"
       y="20.181999"
       id="rect7"
       style="fill:#ffc107" /></g><g
     id="g9"
     transform="matrix(1.203388,0,0,1.2033845,-4.8814268,-4.8812387)"><polygon
       points="40,19.435 40,14 34,8 28.564,8 24.322,12.364 35.637,23.678 "
       id="polygon11"
       style="fill:#90a4ae" /><rect
       height="8.0209999"
       transform="matrix(0.707,0.7072,-0.7072,0.707,18.3104,-23.6945)"
       width="4"
       x="35.75"
       y="6.2399998"
       id="rect13"
       style="fill:#90a4ae" /><polygon
       points="19.435,40 14,40 8,34 8,28.564 12.364,24.322 23.678,35.636 "
       id="polygon15"
       style="fill:#90a4ae" /><rect
       height="8.6079998"
       transform="matrix(0.707,0.7072,-0.7072,0.707,29.6155,3.6051)"
       width="4"
       x="8.4569998"
       y="33.238998"
       id="rect17"
       style="fill:#90a4ae" /></g><g
     id="g19"
     transform="matrix(1.203388,0,0,1.2033845,-4.8814268,-4.8812387)"><rect
       height="4.0009999"
       transform="matrix(0.7071,0.7071,-0.7071,0.7071,22.1082,-14.5061)"
       width="20"
       x="18.565001"
       y="17.434"
       id="rect21"
       style="fill:#546e7a" /><rect
       height="4"
       transform="matrix(0.7071,0.7071,-0.7071,0.7071,25.8908,-5.376)"
       width="19.999001"
       x="9.4350004"
       y="26.565001"
       id="rect23"
       style="fill:#546e7a" /></g><g
     style="fill:#d35400"
     id="g4170"
     transform="matrix(0.51739518,0,0,0.51739518,22.463871,23.480821)"><circle
       id="circle4158"
       r="19"
       cy="24"
       cx="24"
       style="fill:#f44336" /><rect
       id="rect4160"
       height="20"
       width="4"
       style="fill:#ffffff"
       transform="matrix(0.7071,0.7071,-0.7071,0.7071,24,-9.9411)"
       y="14"
       x="22" /><rect
       id="rect4162"
       height="20"
       width="4"
       style="fill:#ffffff"
       transform="matrix(-0.7071,0.7071,-0.7071,-0.7071,57.9411,24)"
       y="14"
       x="22" /></g></svg>