<?xml version="1.0" encoding="utf-8" standalone="no"?><!-- Generator: Adobe Illustrator 15.0.0, SVG Export Plug-In . SVG Version: 6.00 Build 0)  --><svg xmlns="http://www.w3.org/2000/svg" xmlns:xlink="http://www.w3.org/1999/xlink" contentScriptType="application/ecmascript" contentStyleType="text/css" enable-background="new 0 0 48 48" height="48px" id="????????_1" preserveAspectRatio="xMidYMid meet" style="fill:#000000" version="1.1" viewBox="0 0 48 48" width="48px" x="0px" xml:space="preserve" y="0px" zoomAndPan="magnify">
<g>
	<polygon fill="#B0BEC5" points="42,14 39,14 39,9 34,9 34,6 42,6  "/>
	<polygon fill="#B0BEC5" points="9,14 6,14 6,6 14,6 14,9 9,9  "/>
	<polygon fill="#B0BEC5" points="42,34 39,34 39,39 34,39 34,42 42,42  "/>
	<polygon fill="#B0BEC5" points="9,34 6,34 6,42 14,42 14,39 9,39  "/>
</g>
<g>
	<path d="M17,24.24c0,1.14-0.206,2.146-0.619,3.025c-0.414,0.879-1.003,1.552-1.764,2.023   C13.856,29.764,12.988,30,12.016,30c-0.975,0-1.837-0.229-2.591-0.686c-0.753-0.457-1.341-1.11-1.761-1.961   c-0.422-0.85-0.644-1.826-0.664-2.93v-0.656c0-1.143,0.205-2.154,0.617-3.029c0.41-0.874,0.999-1.549,1.766-2.023   C10.15,18.238,11.022,18,12,18c0.968,0,1.832,0.236,2.59,0.706c0.759,0.471,1.349,1.14,1.771,2.009   c0.421,0.869,0.634,1.865,0.639,2.988V24.24z M14.196,23.752c0-1.161-0.188-2.043-0.567-2.643c-0.38-0.604-0.925-0.902-1.629-0.902   c-1.381,0-2.111,1.059-2.19,3.176L9.802,24.24c0,1.144,0.185,2.025,0.558,2.64c0.371,0.614,0.923,0.922,1.656,0.922   c0.696,0,1.232-0.3,1.608-0.906c0.377-0.604,0.569-1.473,0.572-2.606V23.752z" fill="#9C27B0"/>
	<path d="M28.975,25.888c-0.037,0.812-0.262,1.53-0.671,2.153c-0.409,0.621-0.982,1.104-1.722,1.445   C25.842,29.828,24.999,30,24.048,30c-1.566,0-2.798-0.5-3.698-1.498c-0.899-1-1.35-2.412-1.35-4.233v-0.577   c0-1.144,0.203-2.144,0.609-3.002s0.991-1.52,1.756-1.988C22.13,18.233,23.013,18,24.017,18c1.444,0,2.607,0.373,3.485,1.117   c0.881,0.746,1.378,1.774,1.498,3.082h-2.863c-0.022-0.709-0.205-1.221-0.55-1.529c-0.344-0.311-0.867-0.466-1.57-0.466   c-0.716,0-1.239,0.261-1.571,0.786c-0.331,0.523-0.507,1.359-0.522,2.508v0.826c0,1.246,0.158,2.136,0.479,2.67   c0.317,0.533,0.867,0.802,1.646,0.802c0.662,0,1.166-0.152,1.516-0.457c0.348-0.305,0.535-0.788,0.555-1.451H28.975z" fill="#9C27B0"/>
	<path d="M35.336,25.755h-1.522V30H31V18h4.593c1.384,0,2.466,0.314,3.247,0.947c0.779,0.631,1.17,1.522,1.17,2.675   c0,0.833-0.164,1.526-0.492,2.075c-0.33,0.55-0.844,0.993-1.544,1.334l2.437,4.846V30h-3.014L35.336,25.755z M33.813,23.53h1.779   c0.533,0,0.938-0.145,1.207-0.435c0.27-0.289,0.403-0.691,0.403-1.209s-0.135-0.926-0.409-1.221   c-0.271-0.294-0.672-0.441-1.201-0.441h-1.779V23.53z" fill="#9C27B0"/>
</g>
</svg>