<?xml version="1.0" encoding="UTF-8" standalone="no"?><svg xmlns="http://www.w3.org/2000/svg" enable-background="new 0 0 50 50" style="fill:#000000;fill-opacity:1.0" viewBox="0 0 50 50">
    <path d="M 4 4 L 4 5 L 4 15 L 6 15 L 6 6 L 15 6 L 15 4 L 5 4 L 4 4 z M 35 4 L 35 6 L 44 6 L 44 15 L 46 15 L 46 5 L 46 4 L 45 4 L 35 4 z M 13 18 C 10.254545 18 8 20.254545 8 23 L 8 27 C 8 29.745455 10.254545 32 13 32 C 15.745455 32 18 29.745455 18 27 L 18 23 C 18 20.254545 15.745455 18 13 18 z M 25 18 C 22.254545 18 20 20.254545 20 23 L 20 27 C 20 29.745455 22.254545 32 25 32 C 27.745455 32 30 29.745455 30 27 L 28 27 C 28 28.654545 26.654545 30 25 30 C 23.345455 30 22 28.654545 22 27 L 22 23 C 22 21.345455 23.345455 20 25 20 C 26.654545 20 28 21.345455 28 23 L 30 23 C 30 20.254545 27.745455 18 25 18 z M 32 18 L 32 19 L 32 25 L 32 26 L 32 32 L 34 32 L 34 26 L 37.4375 26 L 40 32 L 42 32 L 39.3125 25.75 C 40.874979 25.205788 42 23.748397 42 22 C 42 19.790196 40.209804 18 38 18 L 33 18 L 32 18 z M 13 20 C 14.654545 20 16 21.345455 16 23 L 16 27 C 16 28.654545 14.654545 30 13 30 C 11.345455 30 10 28.654545 10 27 L 10 23 C 10 21.345455 11.345455 20 13 20 z M 34 20 L 38 20 C 39.190196 20 40 20.809804 40 22 C 40 23.190196 39.190196 24 38 24 L 34 24 L 34 20 z M 4 35 L 4 45 L 4 46 L 5 46 L 15 46 L 15 44 L 6 44 L 6 35 L 4 35 z M 44 35 L 44 44 L 35 44 L 35 46 L 45 46 L 46 46 L 46 45 L 46 35 L 44 35 z" style="text-indent:0;text-align:start;line-height:normal;text-transform:none;block-progression:tb;-inkscape-font-specification:Bitstream Vera Sans"/>
</svg>