<?xml version="1.0" encoding="UTF-8" standalone="no"?><svg xmlns="http://www.w3.org/2000/svg" style="fill:#000000;fill-opacity:1.0" viewBox="0 0 50 50">
    <path d="M 25 7 C 23.146802 7 21.603316 8.280158 21.15625 10 L 3 10 A 1.0001 1.0001 0 0 0 2.90625 10 A 1.001098 1.001098 0 0 0 2.8125 10 A 1.0043849 1.0043849 0 0 0 3 12 L 21.15625 12 C 21.603316 13.719842 23.146802 15 25 15 C 26.853198 15 28.396684 13.719842 28.84375 12 L 47 12 A 1.0001 1.0001 0 1 0 47 10 L 28.84375 10 C 28.396684 8.280158 26.853198 7 25 7 z M 25 9 C 25.987534 9 26.795967 9.6926877 26.96875 10.625 A 1.0043849 1.0043849 0 0 0 26.96875 11.34375 C 26.807973 12.291348 25.998205 13 25 13 C 23.947616 13 23.093522 12.212692 23 11.1875 A 1.0001 1.0001 0 0 0 23 10.78125 C 23.107614 9.7713289 23.958287 9 25 9 z M 39 21 C 37.146802 21 35.603316 22.280158 35.15625 24 L 3 24 A 1.0001 1.0001 0 0 0 2.90625 24 A 1.001098 1.001098 0 0 0 3 26 L 35.15625 26 C 35.603316 27.719842 37.146802 29 39 29 C 40.853198 29 42.396684 27.719842 42.84375 26 L 47 26 A 1.0001 1.0001 0 1 0 47 24 L 42.84375 24 C 42.396684 22.280158 40.853198 21 39 21 z M 39 23 C 40.03022 23 40.846427 23.756535 40.96875 24.75 A 1.001098 1.001098 0 0 0 40.96875 25.21875 C 40.860069 26.227496 40.040892 27 39 27 C 37.947616 27 37.093522 26.212692 37 25.1875 A 1.0001 1.0001 0 0 0 37 24.78125 C 37.107614 23.771329 37.958287 23 39 23 z M 14 35 C 12.146802 35 10.603316 36.280158 10.15625 38 L 3 38 A 1.0001 1.0001 0 0 0 2.90625 38 A 1.001098 1.001098 0 0 0 2.8125 38 A 1.0043849 1.0043849 0 0 0 3 40 L 10.15625 40 C 10.603316 41.719842 12.146802 43 14 43 C 15.853198 43 17.396684 41.719842 17.84375 40 L 47 40 A 1.0001 1.0001 0 1 0 47 38 L 17.84375 38 C 17.396684 36.280158 15.853198 35 14 35 z M 14 37 C 14.976862 37 15.784363 37.676716 15.96875 38.59375 C 15.970764 38.603768 15.966883 38.614925 15.96875 38.625 A 1.0043849 1.0043849 0 0 0 15.96875 39.3125 A 1.0043849 1.0043849 0 0 0 15.96875 39.34375 C 15.807973 40.291348 14.998205 41 14 41 C 12.947616 41 12.093522 40.212692 12 39.1875 A 1.0001 1.0001 0 0 0 12 38.78125 C 12.107614 37.771329 12.958287 37 14 37 z" style="text-indent:0;text-align:start;line-height:normal;text-transform:none;block-progression:tb;-inkscape-font-specification:Bitstream Vera Sans"/>
</svg>