<?xml version="1.0" encoding="UTF-8" standalone="no"?><svg xmlns="http://www.w3.org/2000/svg" enable-background="new 0 0 50 50" style="fill:#000000;fill-opacity:0.60784316" viewBox="0 0 50 50">
    <path d="M 4.8125 7 A 1.0001 1.0001 0 0 0 4 8 L 4 42 A 1.0001 1.0001 0 0 0 5 43 L 45 43 A 1.0001 1.0001 0 0 0 46 42 L 46 8 A 1.0001 1.0001 0 0 0 45 7 L 5 7 A 1.0001 1.0001 0 0 0 4.90625 7 A 1.0001 1.0001 0 0 0 4.8125 7 z M 6 9 L 44 9 L 44 41 L 6 41 L 6 9 z M 21 12 C 19.354545 12 18 13.354545 18 15 C 18 16.645455 19.354545 18 21 18 L 29 18 C 30.645455 18 32 16.645455 32 15 C 32 13.354545 30.645455 12 29 12 L 21 12 z M 21 14 L 29 14 C 29.554545 14 30 14.445455 30 15 C 30 15.554545 29.554545 16 29 16 L 21 16 C 20.445455 16 20 15.554545 20 15 C 20 14.445455 20.445455 14 21 14 z M 32 28 L 30 31 L 31 31 L 31 34 L 33 34 L 33 31 L 34 31 L 32 28 z M 38 28 L 36 31 L 37 31 L 37 34 L 39 34 L 39 31 L 40 31 L 38 28 z M 30 35 L 30 37 L 40 37 L 40 35 L 30 35 z" style="text-indent:0;text-align:start;line-height:normal;text-transform:none;block-progression:tb;-inkscape-font-specification:Bitstream Vera Sans"/>
</svg>