<?xml version="1.0" encoding="UTF-8" standalone="no"?><svg xmlns="http://www.w3.org/2000/svg" style="fill:#000000;fill-opacity:1.0" viewBox="0 0 50 50">
    <path d="M 3 3 C 1.346 3 0 4.346 0 6 L 0 16 L 0 27 A 1.0001 1.0001 0 0 0 0 27.09375 L 0 44 C 0 45.654 1.346 47 3 47 L 29.34375 47 L 27.78125 45 L 3 45 C 2.449 45 2 44.551 2 44 L 2 27.15625 A 1.0001 1.0001 0 0 0 2 27 L 2 16 C 2 15.436459 2.4355732 15 3 15 L 43 15 C 43.562937 15 44 15.437063 44 16 A 1.0001 1.0001 0 0 0 44 16.09375 L 44 27.1875 L 46 28.5 L 46 16.15625 A 1.0001 1.0001 0 0 0 46 16 L 46 10 C 46 8.346 44.654 7 43 7 L 18.03125 7 C 17.75225 6.899 17.185 5.994 16.875 5.5 C 16.107 4.275 15.317 3 14 3 L 3 3 z M 3 5 L 13.96875 5 C 14.26175 5.09 14.8655 6.0495 15.1875 6.5625 C 15.9415 7.7645 16.718 9 18 9 L 43 9 C 43.551 9 44 9.449 44 10 L 44 13.1875 C 43.684236 13.073242 43.353003 13 43 13 L 3 13 C 2.6468874 13 2.3157944 13.073204 2 13.1875 L 2 6 C 2 5.449 2.449 5 3 5 z M 39 28 C 32.936713 28 28 32.936713 28 39 C 28 45.063287 32.936713 50 39 50 C 45.063287 50 50 45.063287 50 39 C 50 32.936713 45.063287 28 39 28 z M 39 30 C 43.982407 30 48 34.017593 48 39 C 48 43.982407 43.982407 48 39 48 C 34.017593 48 30 43.982407 30 39 C 30 34.017593 34.017593 30 39 30 z M 38.90625 32.96875 A 1.0001 1.0001 0 0 0 38.78125 33 A 1.0001 1.0001 0 0 0 38 34 L 38 38 L 34 38 A 1.0001 1.0001 0 0 0 33.90625 38 A 1.001098 1.001098 0 0 0 34 40 L 38 40 L 38 44 A 1.0001 1.0001 0 1 0 40 44 L 40 40 L 44 40 A 1.0001 1.0001 0 1 0 44 38 L 40 38 L 40 34 A 1.0001 1.0001 0 0 0 38.90625 32.96875 z"/>
</svg>