<?xml version="1.0" encoding="UTF-8" standalone="no"?><svg xmlns="http://www.w3.org/2000/svg" height="50" style="fill:#000000;fill-opacity:1.0" viewBox="0 0 50 50" width="50">
    <path d="M 24.90625 0 A 1.0001 1.0001 0 0 0 24.53125 0.125 L 12.6875 6.59375 A 1.0001 1.0001 0 0 0 12.28125 6.84375 A 1.0001 1.0001 0 0 0 12.1875 6.9375 A 1.0001 1.0001 0 0 0 12.15625 7 A 1.0001 1.0001 0 0 0 12.09375 7.09375 A 1.0001 1.0001 0 0 0 12.0625 7.1875 A 1.0001 1.0001 0 0 0 12.03125 7.28125 A 1.0001 1.0001 0 0 0 12 7.375 A 1.0001 1.0001 0 0 0 12 7.46875 A 1.0001 1.0001 0 0 0 12 7.5 A 1.0001 1.0001 0 0 0 12 7.53125 A 1.0001 1.0001 0 0 0 12 7.6875 L 12 19.53125 A 1.0001 1.0001 0 0 0 12.375 20.3125 L 24.15625 29.96875 A 1.0001 1.0001 0 0 0 25.78125 30 L 37.625 20.3125 A 1.0001 1.0001 0 0 0 38 19.53125 L 38 7.75 A 1.0001 1.0001 0 0 0 38 7.53125 A 1.0001 1.0001 0 0 0 38 7.46875 A 1.0001 1.0001 0 0 0 38 7.4375 A 1.0001 1.0001 0 0 0 37.96875 7.25 A 1.0001 1.0001 0 0 0 37.875 7.0625 A 1.0001 1.0001 0 0 0 37.84375 7 A 1.0001 1.0001 0 0 0 37.8125 6.96875 A 1.0001 1.0001 0 0 0 37.78125 6.90625 A 1.0001 1.0001 0 0 0 37.75 6.90625 A 1.0001 1.0001 0 0 0 37.71875 6.84375 A 1.0001 1.0001 0 0 0 37.6875 6.8125 A 1.0001 1.0001 0 0 0 37.65625 6.75 A 1.0001 1.0001 0 0 0 37.625 6.75 A 1.0001 1.0001 0 0 0 37.5625 6.71875 A 1.0001 1.0001 0 0 0 37.53125 6.71875 A 1.0001 1.0001 0 0 0 37.46875 6.65625 A 1.0001 1.0001 0 0 0 37.3125 6.59375 L 25.46875 0.125 A 1.0001 1.0001 0 0 0 24.90625 0 z M 25 2.125 L 35.03125 7.625 L 25 14 L 14.96875 7.625 L 25 2.125 z M 3.5 9 C 1.6772332 9 0.18164769 10.432345 0.03125 12.21875 C 0.030356709 12.22936 0.032046819 12.239364 0.03125 12.25 A 1.0001 1.0001 0 0 0 0 12.5 A 1.0001 1.0001 0 0 0 0 12.59375 L 0 27.40625 C 0 29.445663 0.21389606 30.70593 0.6875 31.6875 C 1.1611039 32.66907 1.8360059 33.242727 2.4375 33.90625 C 2.9977847 34.524269 5.2337551 37.268625 7.28125 39.78125 C 9.2119021 42.150489 10.802123 44.098905 11 44.34375 L 11 49 A 1.0001 1.0001 0 1 0 13 49 L 13 44 A 1.0001 1.0001 0 0 0 12.78125 43.375 C 12.78125 43.375 10.894505 41.047875 8.84375 38.53125 C 6.7929949 36.014625 4.6269653 33.357481 3.90625 32.5625 C 3.2277441 31.814023 2.7878961 31.44043 2.5 30.84375 C 2.2121039 30.24707 2 29.295837 2 27.40625 L 2 12.65625 A 1.0001 1.0001 0 0 0 2 12.5 A 1.0001 1.0001 0 0 0 2 12.40625 C 2.0464983 11.610276 2.6904066 11 3.5 11 C 4.3199995 11 4.96846 11.626554 5 12.4375 C 5.0008005 12.458082 5 12.479188 5 12.5 A 1.0001 1.0001 0 0 0 5 12.59375 L 5 23.09375 C 4.9382162 23.14726 4.8713032 23.191986 4.8125 23.25 L 4.8125 23.28125 C 3.3664872 24.746457 3.3555569 27.136807 4.8125 28.59375 L 12.71875 36.53125 A 1.016466 1.016466 0 1 0 14.15625 35.09375 L 6.21875 27.1875 C 5.5199758 26.488726 5.5195884 25.354765 6.21875 24.65625 C 6.2738424 24.601107 6.3465328 24.577698 6.40625 24.53125 A 1.0001 1.0001 0 0 0 6.71875 24.28125 C 7.3733437 23.971169 8.1715803 24.108574 8.71875 24.65625 L 16.96875 32.9375 C 19.208021 35.175833 20 37.184899 20 41 L 20 49 A 1.0001 1.0001 0 1 0 22 49 L 22 41 C 22 36.869101 20.907729 34.031667 18.375 31.5 L 10.125 23.25 C 9.3933666 22.51769 8.4356501 22.15625 7.46875 22.15625 C 7.3127622 22.15625 7.1554506 22.167797 7 22.1875 L 7 12.65625 A 1.0001 1.0001 0 0 0 7 12.5 C 7 12.467521 7.0008965 12.438527 7 12.40625 A 1.0001 1.0001 0 0 0 7 12.3125 C 6.998165 12.279465 6.9715111 12.251546 6.96875 12.21875 A 1.0001 1.0001 0 0 0 6.96875 12.1875 C 6.8031738 10.416055 5.3119404 9 3.5 9 z M 46.5 9 C 44.666407 9 43.166202 10.448658 43.03125 12.25 A 1.0001 1.0001 0 0 0 43 12.5 A 1.0001 1.0001 0 0 0 43 12.59375 L 43 22.1875 C 42.844549 22.167797 42.687238 22.15625 42.53125 22.15625 C 41.56435 22.15625 40.606633 22.51769 39.875 23.25 L 31.625 31.5 C 29.092271 34.031667 28 36.869101 28 41 L 28 49 A 1.0001 1.0001 0 1 0 30 49 L 30 41 C 30 37.184899 30.791979 35.175833 33.03125 32.9375 L 41.28125 24.65625 C 41.811722 24.125287 42.576187 23.974758 43.21875 24.25 C 43.243643 24.260663 43.256739 24.300627 43.28125 24.3125 A 1.0001 1.0001 0 0 0 43.375 24.375 A 1.0001 1.0001 0 0 0 43.625 24.53125 C 43.677745 24.573449 43.732204 24.607159 43.78125 24.65625 C 44.480412 25.354765 44.480024 26.488726 43.78125 27.1875 L 35.84375 35.09375 A 1.016466 1.016466 0 1 0 37.28125 36.53125 L 45.1875 28.59375 C 46.644443 27.136807 46.633513 24.746457 45.1875 23.28125 C 45.1813 23.27495 45.1938 23.25628 45.1875 23.25 C 45.128697 23.191986 45.061784 23.14726 45 23.09375 L 45 12.65625 A 1.0001 1.0001 0 0 0 45 12.5 A 1.0001 1.0001 0 0 0 45 12.40625 C 45.046498 11.610276 45.690406 11 46.5 11 C 47.340812 11 48 11.659188 48 12.5 A 1.0001 1.0001 0 0 0 48 12.59375 L 48 27.40625 C 48 29.295837 47.787896 30.24707 47.5 30.84375 C 47.212104 31.44043 46.772256 31.814023 46.09375 32.5625 C 45.373035 33.357481 43.207005 36.014625 41.15625 38.53125 C 39.105495 41.047875 37.21875 43.375 37.21875 43.375 A 1.0001 1.0001 0 0 0 37 44 L 37 49 A 1.0001 1.0001 0 1 0 39 49 L 39 44.34375 C 39.197877 44.098905 40.788098 42.150489 42.71875 39.78125 C 44.766245 37.268625 47.002215 34.524269 47.5625 33.90625 C 48.163994 33.242727 48.838896 32.66907 49.3125 31.6875 C 49.786104 30.70593 50 29.445663 50 27.40625 L 50 12.65625 A 1.0001 1.0001 0 0 0 50 12.5 C 50 12.467521 50.000896 12.438527 50 12.40625 A 1.0001 1.0001 0 0 0 50 12.3125 C 49.998165 12.279465 49.971511 12.251546 49.96875 12.21875 A 1.0001 1.0001 0 0 0 49.96875 12.1875 C 49.803174 10.416055 48.31194 9 46.5 9 z M 14 9.34375 L 24 15.71875 L 24 27.28125 L 14 19.09375 L 14 9.34375 z M 36 9.34375 L 36 19.09375 L 26 27.28125 L 26 15.71875 L 36 9.34375 z" style="text-indent:0;text-align:start;line-height:normal;text-transform:none;block-progression:tb;-inkscape-font-specification:Bitstream Vera Sans"/>
</svg>