<?xml version="1.0" encoding="UTF-8" standalone="no"?><svg xmlns="http://www.w3.org/2000/svg" enable-background="new 0 0 50 50" style="fill:#000000;fill-opacity:1.0" viewBox="0 0 50 50">
    <path color="#000" d="M 21 7 C 19.354545 7 18 8.3545455 18 10 L 18 15 C 18 16.645455 19.354545 18 21 18 L 24 18 L 24 22 L 11 22 C 8.2545455 22 6 24.254545 6 27 L 6 32 L 3 32 C 1.3545455 32 0 33.354545 0 35 L 0 40 C 0 41.645455 1.3545455 43 3 43 L 11 43 C 12.645455 43 14 41.645455 14 40 L 14 35 C 14 33.354545 12.645455 32 11 32 L 8 32 L 8 27 C 8 25.345455 9.3454545 24 11 24 L 24 24 L 24 32 L 21 32 C 19.354545 32 18 33.354545 18 35 L 18 40 C 18 41.645455 19.354545 43 21 43 L 29 43 C 30.645455 43 32 41.645455 32 40 L 32 35 C 32 33.354545 30.645455 32 29 32 L 26 32 L 26 24 L 39 24 C 40.654545 24 42 25.345455 42 27 L 42 32 L 39 32 C 37.354545 32 36 33.354545 36 35 L 36 40 C 36 41.645455 37.354545 43 39 43 L 47 43 C 48.645455 43 50 41.645455 50 40 L 50 35 C 50 33.354545 48.645455 32 47 32 L 44 32 L 44 27 C 44 24.254545 41.745455 22 39 22 L 26 22 L 26 18 L 29 18 C 30.645455 18 32 16.645455 32 15 L 32 10 C 32 8.3545455 30.645455 7 29 7 L 21 7 z M 21 9 L 29 9 C 29.554545 9 30 9.4454545 30 10 L 30 15 C 30 15.554545 29.554545 16 29 16 L 21 16 C 20.445455 16 20 15.554545 20 15 L 20 10 C 20 9.4454545 20.445455 9 21 9 z M 3 34 L 11 34 C 11.554545 34 12 34.445455 12 35 L 12 40 C 12 40.554545 11.554545 41 11 41 L 3 41 C 2.4454545 41 2 40.554545 2 40 L 2 35 C 2 34.445455 2.4454545 34 3 34 z M 21 34 L 29 34 C 29.554545 34 30 34.445455 30 35 L 30 40 C 30 40.554545 29.554545 41 29 41 L 21 41 C 20.445455 41 20 40.554545 20 40 L 20 35 C 20 34.445455 20.445455 34 21 34 z M 39 34 L 47 34 C 47.554545 34 48 34.445455 48 35 L 48 40 C 48 40.554545 47.554545 41 47 41 L 39 41 C 38.445455 41 38 40.554545 38 40 L 38 35 C 38 34.445455 38.445455 34 39 34 z" enable-background="accumulate" font-family="Bitstream Vera Sans" overflow="visible" style="text-indent:0;text-align:start;line-height:normal;text-transform:none;block-progression:tb;-inkscape-font-specification:Bitstream Vera Sans"/>
</svg>