<?xml version="1.0" encoding="UTF-8" standalone="no"?><svg xmlns="http://www.w3.org/2000/svg" enable-background="new 0 0 50 50" style="fill:#000000;fill-opacity:1.0" version="1" viewBox="0 0 50 50">
    <path d="M 14.8125 0 A 1.0001 1.0001 0 0 0 14 1 L 14 2 L 5.90625 2 C 4.30625 2 3 3.30625 3 4.90625 L 3 43 C 3 44.645455 4.30625 46 5.90625 46 L 16 46 L 16 44 L 5.90625 44 C 5.50625 44 5 43.554545 5 43 L 5 4.90625 C 5 4.50625 5.50625 4 5.90625 4 L 14 4 L 14 6 L 8 6 L 7 6 L 7 7 L 7 41 L 7 42 L 8 42 L 16 42 L 16 40 L 9 40 L 9 8 L 14 8 L 14 9 A 1.0001 1.0001 0 0 0 15 10 L 29 10 A 1.0001 1.0001 0 0 0 30 9 L 30 8 L 35 8 L 35 14 L 37 14 L 37 7 L 37 6 L 36 6 L 30 6 L 30 4 L 38.09375 4 C 38.49375 4 39 4.50625 39 4.90625 L 39 14 L 41 14 L 41 4.90625 C 41 3.30625 39.69375 2 38.09375 2 L 30 2 L 30 1 A 1.0001 1.0001 0 0 0 29 0 L 15 0 A 1.0001 1.0001 0 0 0 14.90625 0 A 1.0001 1.0001 0 0 0 14.8125 0 z M 16 2 L 28 2 L 28 8 L 16 8 L 16 2 z M 17.8125 15 A 1.0001 1.0001 0 0 0 17 16 L 17 49 A 1.0001 1.0001 0 0 0 18 50 L 46 50 A 1.0001 1.0001 0 0 0 47 49 L 47 16 A 1.0001 1.0001 0 0 0 46 15 L 18 15 A 1.0001 1.0001 0 0 0 17.90625 15 A 1.0001 1.0001 0 0 0 17.8125 15 z M 19 17 L 45 17 L 45 48 L 19 48 L 19 17 z M 23.71875 23 A 1.0043849 1.0043849 0 0 0 24 25 L 41 25 A 1.0001 1.0001 0 1 0 41 23 L 24 23 A 1.0001 1.0001 0 0 0 23.90625 23 A 1.001098 1.001098 0 0 0 23.8125 23 A 1.0043849 1.0043849 0 0 0 23.71875 23 z M 23.71875 29 A 1.0043849 1.0043849 0 0 0 24 31 L 36 31 A 1.0001 1.0001 0 1 0 36 29 L 24 29 A 1.0001 1.0001 0 0 0 23.90625 29 A 1.001098 1.001098 0 0 0 23.8125 29 A 1.0043849 1.0043849 0 0 0 23.71875 29 z M 23.71875 35 A 1.0043849 1.0043849 0 0 0 24 37 L 41 37 A 1.0001 1.0001 0 1 0 41 35 L 24 35 A 1.0001 1.0001 0 0 0 23.90625 35 A 1.001098 1.001098 0 0 0 23.8125 35 A 1.0043849 1.0043849 0 0 0 23.71875 35 z M 23.71875 41 A 1.0043849 1.0043849 0 0 0 24 43 L 36 43 A 1.0001 1.0001 0 1 0 36 41 L 24 41 A 1.0001 1.0001 0 0 0 23.90625 41 A 1.001098 1.001098 0 0 0 23.8125 41 A 1.0043849 1.0043849 0 0 0 23.71875 41 z" style="text-indent:0;text-align:start;line-height:normal;text-transform:none;block-progression:tb;-inkscape-font-specification:Bitstream Vera Sans"/>
</svg>