<?xml version="1.0" encoding="UTF-8" standalone="no"?><svg xmlns="http://www.w3.org/2000/svg" height="50" style="fill:#000000;fill-opacity:1.0" viewBox="0 0 50 50" width="50">
    <path d="M 34.09375 0 A 1.0001 1.0001 0 0 0 33.5 0.28125 L 28.125 5.65625 C 26.465637 4.2811484 24.954348 3.117603 23.75 2.28125 C 23.057612 1.800425 22.444078 1.4137497 21.9375 1.125 C 21.430922 0.83625033 21.079691 0.63229246 20.625 0.53125 A 1.0001 1.0001 0 0 0 20.3125 0.5 A 1.0001 1.0001 0 0 0 19.6875 0.78125 L 9.65625 10.75 L 9.59375 10.78125 A 1.0001 1.0001 0 0 0 9.375 11 A 1.0001 1.0001 0 0 0 9.375 11.03125 A 1.0001 1.0001 0 0 0 9.3125 11.09375 A 1.0001 1.0001 0 0 0 9.3125 11.125 A 1.0001 1.0001 0 0 0 9.28125 11.1875 A 1.0001 1.0001 0 0 0 9.28125 11.21875 A 1.0001 1.0001 0 0 0 9.25 11.28125 A 1.0001 1.0001 0 0 0 9.25 11.3125 A 1.0001 1.0001 0 0 0 9.21875 11.375 A 1.0001 1.0001 0 0 0 9.21875 11.40625 L 5.625 26.4375 C 5.62043 26.4535 5.62904 26.45325 5.625 26.46875 C 5.4846531 27.00681 5.666044 27.268274 5.78125 27.53125 C 5.8997748 27.801802 6.0534126 28.040714 6.25 28.34375 C 6.6431748 28.949823 7.1798021 29.682981 7.875 30.53125 C 7.9938663 30.676289 8.1545095 30.879836 8.28125 31.03125 L 4.34375 34.96875 A 0.9078908 0.9078908 0 0 0 4.34375 36.25 L 6.84375 38.75 L 0.28125 45.28125 A 1.016466 1.016466 0 1 0 1.71875 46.71875 L 8.25 40.15625 L 9.84375 41.75 L 3.28125 48.28125 A 1.016466 1.016466 0 1 0 4.71875 49.71875 L 11.25 43.15625 L 13.75 45.65625 A 0.9078908 0.9078908 0 0 0 15.03125 45.65625 L 18.90625 41.78125 C 19.06663 41.915425 19.25242 42.062369 19.40625 42.1875 C 20.264325 42.885486 21.033123 43.427832 21.65625 43.8125 C 21.967813 44.004834 22.243579 44.171084 22.53125 44.28125 C 22.780075 44.37654 23.095241 44.433131 23.53125 44.3125 L 23.53125 44.375 L 38.625 40.78125 A 1.0118922 1.0118922 0 0 0 39.375 40.03125 L 49.21875 30.21875 C 49.537038 29.900462 49.543397 29.535649 49.53125 29.34375 C 49.5191 29.151851 49.47882 29.025248 49.4375 28.90625 C 49.35487 28.668254 49.236148 28.47278 49.09375 28.21875 C 48.808955 27.71069 48.393378 27.054564 47.84375 26.28125 C 46.887012 24.935142 45.474221 23.145427 43.84375 21.1875 L 49.71875 15.3125 A 1.0001 1.0001 0 0 0 49.71875 13.90625 L 46.90625 11.09375 A 1.0001 1.0001 0 0 0 46.1875 10.78125 A 1.0001 1.0001 0 0 0 46 10.8125 A 1.0001 1.0001 0 0 0 45.5 11.09375 L 39.8125 16.78125 C 38.801398 15.694864 37.74442 14.55692 36.59375 13.40625 C 35.242487 12.054987 33.906994 10.797117 32.625 9.59375 L 37.71875 4.5 A 1.0001 1.0001 0 0 0 37.71875 3.09375 L 34.90625 0.28125 A 1.0001 1.0001 0 0 0 34.09375 0 z M 34.1875 2.40625 L 35.59375 3.8125 L 30.6875 8.71875 A 1.0001 1.0001 0 0 0 30.28125 9.15625 L 26.5 12.90625 L 24.625 14.8125 L 23.21875 13.40625 L 28.53125 8.09375 A 1.0001 1.0001 0 0 0 29.3125 7.28125 L 34.1875 2.40625 z M 20.625 2.6875 C 20.758412 2.748848 20.781027 2.736748 20.96875 2.84375 C 21.399672 3.0893753 21.936138 3.449575 22.59375 3.90625 C 23.703869 4.677166 25.148405 5.7736267 26.71875 7.0625 L 21.09375 12.6875 A 1.0001 1.0001 0 0 0 21.09375 14.09375 L 23.90625 16.90625 A 1.0001 1.0001 0 0 0 25.3125 16.90625 L 27.90625 14.3125 L 31.21875 11 C 32.508349 12.209438 33.842221 13.467221 35.1875 14.8125 C 36.330911 15.955911 37.388422 17.09249 38.40625 18.1875 L 35.6875 20.90625 L 33.09375 23.5 A 1.0001 1.0001 0 0 0 33.09375 24.90625 L 35.90625 27.71875 A 1.0001 1.0001 0 0 0 37.3125 27.71875 L 42.40625 22.625 C 43.96151 24.490964 45.32634 26.181899 46.21875 27.4375 C 46.744122 28.176686 47.122295 28.792435 47.34375 29.1875 C 47.35115 29.20067 47.33675 29.206 47.34375 29.21875 L 37.90625 38.6875 C 37.716138 38.6073 37.469159 38.453855 37.09375 38.21875 C 36.231215 37.678577 35.012626 36.784777 33.59375 35.625 C 30.755999 33.305447 27.078721 29.984971 23.5 26.40625 C 19.921279 22.827529 16.850943 19.400042 14.65625 16.6875 C 13.558903 15.331229 12.691349 14.146367 12.09375 13.21875 C 11.616567 12.478048 11.470042 12.092786 11.375 11.84375 L 20.625 2.6875 z M 46.1875 13.21875 L 47.59375 14.59375 L 42.15625 20.03125 A 1.0083877 1.0083877 0 0 0 41.40625 20.78125 L 36.59375 25.59375 L 35.21875 24.1875 L 37.09375 22.3125 L 40.21875 19.21875 A 1.0001 1.0001 0 0 0 40.8125 18.5625 L 46.1875 13.21875 z M 10.53125 14.5 C 11.178824 15.488556 12.028203 16.651782 13.09375 17.96875 C 15.349057 20.756208 18.472471 24.191221 22.09375 27.8125 C 25.715029 31.433779 29.400251 34.807053 32.3125 37.1875 C 33.481647 38.14315 34.492778 38.871287 35.375 39.46875 L 23.25 42.40625 C 23.2459 42.40465 23.22329 42.40805 23.21875 42.40625 C 23.12109 42.36688 22.924298 42.27118 22.6875 42.125 C 22.191877 41.819043 21.504425 41.289514 20.6875 40.625 C 20.395741 40.387674 20.069764 40.117526 19.75 39.84375 A 0.91709566 0.91709566 0 0 0 19.4375 39.5625 C 19.431044 39.556886 19.412715 39.568127 19.40625 39.5625 A 0.91709566 0.91709566 0 0 0 19.375 39.53125 C 17.991234 38.324985 16.407181 36.819266 14.8125 35.1875 C 13.069037 33.403491 11.564639 31.740942 10.3125 30.28125 A 0.9078908 0.9078908 0 0 0 10.21875 30.21875 C 9.9640436 29.920838 9.6615792 29.554668 9.4375 29.28125 C 8.7701979 28.467019 8.2287002 27.778302 7.90625 27.28125 C 7.7518694 27.043275 7.6429275 26.858193 7.59375 26.75 L 10.53125 14.5 z M 9.5 32.40625 C 10.652599 33.71585 11.922256 35.107222 13.375 36.59375 C 14.818236 38.07055 16.231547 39.402451 17.53125 40.5625 L 14.375 43.6875 L 11.875 41.21875 A 1.0001 1.0001 0 0 0 11.75 41.09375 L 8.875 38.21875 A 1.0001 1.0001 0 0 0 8.75 38.09375 L 6.3125 35.625 L 9.5 32.40625 z" style="text-indent:0;text-align:start;line-height:normal;text-transform:none;block-progression:tb;-inkscape-font-specification:Bitstream Vera Sans"/>
</svg>