<?xml version="1.0" encoding="UTF-8" standalone="no"?><svg xmlns="http://www.w3.org/2000/svg" enable-background="new 0 0 50 50" style="fill:#000000;fill-opacity:1.0" viewBox="0 0 50 50">
    <path d="M 25 6 C 22.802706 6 21 7.8027056 21 10 C 21 11.185007 21.547244 12.234143 22.375 12.96875 L 15.5 24.875 L 8.71875 21.46875 C 8.8984171 21.015518 9 20.514606 9 20 C 9 17.802706 7.1972944 16 5 16 C 2.8027056 16 1 17.802706 1 20 C 1 22.176444 2.7685989 23.966238 4.9375 24 L 8 37.09375 L 8 43 A 1.0001 1.0001 0 0 0 9 44 L 41 44 A 1.0001 1.0001 0 0 0 42 43 L 42 37.09375 L 45.0625 24 C 47.231401 23.966238 49 22.176444 49 20 C 49 17.802706 47.197294 16 45 16 C 42.802706 16 41 17.802706 41 20 C 41 20.469342 41.099226 20.924137 41.25 21.34375 L 34.40625 24.78125 L 27.59375 13 C 28.440435 12.264715 29 11.200588 29 10 C 29 7.8027056 27.197294 6 25 6 z M 25 8 C 26.116414 8 27 8.883586 27 10 C 27 10.665036 26.677018 11.231506 26.1875 11.59375 A 1.0001 1.0001 0 0 0 26.0625 11.59375 A 1.0001 1.0001 0 0 0 25.40625 11.96875 C 25.275245 11.995091 25.139552 12 25 12 C 24.76974 12 24.548492 11.975714 24.34375 11.90625 A 1.0001 1.0001 0 0 0 24.28125 11.875 C 24.269046 11.870384 24.262084 11.848594 24.25 11.84375 A 1.0001 1.0001 0 0 0 24.21875 11.84375 C 24.205765 11.838321 24.200338 11.818192 24.1875 11.8125 A 1.0001 1.0001 0 0 0 24 11.71875 C 23.403058 11.375351 23 10.747535 23 10 C 23 8.883586 23.883586 8 25 8 z M 24.15625 13.90625 C 24.425083 13.963915 24.714791 14 25 14 C 25.274662 14 25.552919 13.959834 25.8125 13.90625 L 33.125 26.59375 A 1.0001 1.0001 0 0 0 34.4375 27 L 42.40625 23 C 42.628383 23.192906 42.864547 23.359079 43.125 23.5 L 40.21875 36 L 9.78125 36 L 6.875 23.5 C 7.0898092 23.383775 7.2795122 23.245831 7.46875 23.09375 L 15.4375 27.09375 A 1.0001 1.0001 0 0 0 16.78125 26.6875 L 24.15625 13.90625 z M 5 18 C 6.116414 18 7 18.883586 7 20 C 7 20.378656 6.8966503 20.731553 6.71875 21.03125 C 6.7162444 21.035471 6.6900358 21.02705 6.6875 21.03125 A 1.0001 1.0001 0 0 0 6.375 21.40625 A 1.0001 1.0001 0 0 0 6.375 21.4375 C 6.1784882 21.625288 5.9496725 21.780244 5.6875 21.875 C 5.6782805 21.878332 5.6655349 21.871799 5.65625 21.875 A 1.0001 1.0001 0 0 0 5.28125 21.96875 A 1.0001 1.0001 0 0 0 5.25 21.96875 C 5.2286266 21.971382 5.2090914 21.99803 5.1875 22 C 5.1251249 22.00569 5.0640296 22 5 22 C 3.883586 22 3 21.116414 3 20 C 3 18.883586 3.883586 18 5 18 z M 45 18 C 46.116414 18 47 18.883586 47 20 C 47 21.116414 46.116414 22 45 22 C 44.892463 22 44.790135 21.984565 44.6875 21.96875 A 1.0083877 1.0083877 0 0 0 44.40625 21.90625 C 44.062312 21.800813 43.766284 21.601154 43.53125 21.34375 A 1.0001 1.0001 0 0 0 43.28125 21 C 43.111796 20.705433 43 20.368879 43 20 C 43 18.883586 43.883586 18 45 18 z M 10 38 L 40 38 L 40 42 L 10 42 L 10 38 z" style="text-indent:0;text-align:start;line-height:normal;text-transform:none;block-progression:tb;-inkscape-font-specification:Bitstream Vera Sans"/>
</svg>