<?xml version="1.0" encoding="UTF-8" standalone="no"?><svg xmlns="http://www.w3.org/2000/svg" enable-background="new 0 0 50 50" style="fill:#000000;fill-opacity:1.0" viewBox="0 0 50 50">
    <path color="#000" d="M 16.8125 3.09375 A 1.0001 1.0001 0 0 0 16.25 3.40625 L 5.34375 14.28125 L 4.65625 15 L 5.34375 15.71875 L 16.25 26.59375 A 1.0001 1.0001 0 1 0 17.65625 25.1875 L 8.46875 16 L 24 16 C 30.009553 16 34.2437 17.520308 36.96875 19.96875 C 39.6938 22.417192 41 25.836862 41 30 C 41 38.346893 37.15625 44.46875 37.15625 44.46875 A 1.0001 1.0001 0 1 0 38.84375 45.53125 C 38.84375 45.53125 43 38.963107 43 30 C 43 25.407138 41.49845 21.331308 38.3125 18.46875 C 35.12655 15.606192 30.346447 14 24 14 L 8.46875 14 L 17.65625 4.8125 A 1.0001 1.0001 0 0 0 16.8125 3.09375 z" enable-background="accumulate" font-family="Bitstream Vera Sans" overflow="visible" style="text-indent:0;text-align:start;line-height:normal;text-transform:none;block-progression:tb;-inkscape-font-specification:Bitstream Vera Sans"/>
</svg>