<?xml version="1.0" encoding="UTF-8" standalone="no"?><svg xmlns="http://www.w3.org/2000/svg" style="fill:#000000;fill-opacity:1.0" viewBox="0 0 50 50">
    <path color="#000" d="M 25 1 C 22.802666 1 21 2.8026661 21 5 L 21 6 L 12 6 C 10.35503 6 9 7.3550302 9 9 L 9 46 C 9 47.64497 10.35503 49 12 49 L 38 49 C 39.64497 49 41 47.64497 41 46 L 41 9 C 41 7.3550302 39.64497 6 38 6 L 29 6 L 29 5 C 29 2.8026661 27.197334 1 25 1 z M 25 3 C 26.116666 3 27 3.8833339 27 5 L 27 6.8125 A 1.0001 1.0001 0 0 0 27 6.90625 L 27 7 A 1.0001 1.0001 0 0 0 27 7.21875 L 27 9 L 23 9 L 23 7.1875 A 1.0001 1.0001 0 0 0 23 6.78125 L 23 5 C 23 3.8833339 23.883334 3 25 3 z M 25 4 C 24.447715 4 24 4.4477153 24 5 C 24 5.5522847 24.447715 6 25 6 C 25.552285 6 26 5.5522847 26 5 C 26 4.4477153 25.552285 4 25 4 z M 12 8 L 21 8 L 21 10 A 1.0001 1.0001 0 0 0 22 11 L 28 11 A 1.0001 1.0001 0 0 0 29 10 L 29 8 L 38 8 C 38.56503 8 39 8.4349698 39 9 L 39 46 C 39 46.56503 38.56503 47 38 47 L 12 47 C 11.43497 47 11 46.56503 11 46 L 11 9 C 11 8.4349698 11.43497 8 12 8 z M 24.9375 14 C 22.830167 14.03844 21.285753 14.976282 20.65625 16.40625 C 20.094726 17.681799 20.198975 19.16666 20.53125 20.65625 C 20.333813 20.993675 20.221388 21.410394 20.28125 21.90625 C 20.35227 22.493475 20.521304 22.974466 20.8125 23.34375 C 20.9011 23.456103 21.046889 23.446907 21.15625 23.53125 C 21.25298 23.952485 21.357328 24.373269 21.53125 24.71875 C 21.649979 24.954595 21.762378 25.150892 21.90625 25.34375 C 21.92135 25.36399 21.95399 25.38627 21.96875 25.40625 C 21.97175 25.766868 21.96105 26.104438 21.9375 26.46875 C 21.87176 26.600476 21.725569 26.779534 21.28125 27 C 20.80089 27.238349 20.106229 27.468794 19.375 27.78125 C 18.643771 28.093706 17.876518 28.494355 17.21875 29.15625 C 16.560982 29.818145 16.070708 30.768364 16 31.9375 A 1.0001 1.0001 0 0 0 17 33 L 33 33 A 1.0001 1.0001 0 0 0 34 31.9375 C 33.929655 30.769275 33.436613 29.818462 32.78125 29.15625 C 32.125887 28.494038 31.353675 28.093845 30.625 27.78125 C 29.896325 27.468655 29.197094 27.238173 28.71875 27 C 28.276295 26.779697 28.128588 26.601543 28.0625 26.46875 C 28.03894 26.104438 28.02828 25.766868 28.03125 25.40625 C 28.04972 25.38083 28.10618 25.36952 28.125 25.34375 C 28.266903 25.14939 28.384673 24.923226 28.5 24.6875 C 28.667482 24.345172 28.749973 23.944503 28.84375 23.53125 C 28.953303 23.44688 29.098795 23.45624 29.1875 23.34375 C 29.479056 22.97401 29.648343 22.493612 29.71875 21.90625 C 29.78095 21.391001 29.65058 20.967994 29.4375 20.625 C 29.640369 19.906627 29.89802 19.025348 29.8125 17.9375 C 29.75978 17.266898 29.575718 16.557149 29.125 15.9375 C 28.714154 15.372666 28.048835 14.979411 27.25 14.8125 C 26.636924 14.263183 25.839605 14 24.96875 14 A 1.0001 1.0001 0 0 0 24.9375 14 z M 24.96875 16 C 25.722879 16 26.044889 16.24257 26.03125 16.21875 A 1.0001 1.0001 0 0 0 26.75 16.71875 C 27.206927 16.78189 27.382155 16.920024 27.53125 17.125 C 27.680345 17.329976 27.778468 17.660852 27.8125 18.09375 C 27.88056 18.959547 27.601775 20.10218 27.4375 20.59375 A 1.0001 1.0001 0 0 0 27.71875 21.65625 A 1.0001 1.0001 0 0 0 27.71875 21.6875 C 27.68409 21.976674 27.63533 22.012362 27.625 22.03125 A 1.0001 1.0001 0 0 0 27 22.875 C 26.97149 23.139519 26.832095 23.516951 26.6875 23.8125 C 26.6152 23.960274 26.550753 24.086735 26.5 24.15625 A 1.0001 1.0001 0 0 0 26.03125 25.03125 C 26.03125 25.622358 26.02695 26.13603 26.09375 26.875 A 1.0001 1.0001 0 0 0 26.125 27.125 C 26.443663 27.976495 27.178126 28.449829 27.84375 28.78125 C 28.509374 29.112671 29.21255 29.35422 29.84375 29.625 C 30.47495 29.89578 31.013644 30.197368 31.375 30.5625 C 31.480841 30.669447 31.481128 30.879434 31.5625 31 L 18.4375 31 C 18.5192 30.879485 18.51863 30.66954 18.625 30.5625 C 18.98817 30.197051 19.553479 29.895919 20.1875 29.625 C 20.821521 29.354081 21.519922 29.112495 22.1875 28.78125 C 22.855078 28.450005 23.555791 27.977953 23.875 27.125 A 1.0001 1.0001 0 0 0 23.9375 26.875 C 24.00428 26.13603 23.96875 25.622358 23.96875 25.03125 A 1.0001 1.0001 0 0 0 23.59375 24.21875 C 23.591698 24.217276 23.544173 24.195542 23.53125 24.1875 A 1.0001 1.0001 0 0 0 23.4375 24.125 C 23.489775 24.152156 23.509206 24.142926 23.53125 24.15625 C 23.478341 24.085327 23.386896 23.96028 23.3125 23.8125 C 23.163708 23.516939 23.02761 23.131209 23 22.875 A 1.0001 1.0001 0 0 0 22.375 22.03125 C 22.3655 22.01403 22.31663 21.94875 22.28125 21.65625 A 1.0001 1.0001 0 0 0 22.5625 20.6875 C 22.18335 19.236334 22.176753 17.953032 22.5 17.21875 C 22.823247 16.484468 23.348083 16.029562 24.96875 16 z M 17.8125 36 A 1.001098 1.001098 0 0 0 18 38 L 32 38 A 1.0001 1.0001 0 1 0 32 36 L 18 36 A 1.0001 1.0001 0 0 0 17.90625 36 A 1.001098 1.001098 0 0 0 17.8125 36 z M 17.8125 40 A 1.001098 1.001098 0 0 0 18 42 L 32 42 A 1.0001 1.0001 0 1 0 32 40 L 18 40 A 1.0001 1.0001 0 0 0 17.90625 40 A 1.001098 1.001098 0 0 0 17.8125 40 z" font-family="Sans" overflow="visible" style="text-indent:0;text-align:start;line-height:normal;text-transform:none;block-progression:tb;-inkscape-font-specification:Sans"/>
</svg>