<?xml version="1.0" encoding="UTF-8" standalone="no"?><svg xmlns="http://www.w3.org/2000/svg" height="50" style="fill:#000000;fill-opacity:1.0" version="1" viewBox="0 0 50 50" width="50">
    <path d="M 25 0 C 22.250421 0 20 2.2504209 20 5 C 20 6.3902841 20.575676 7.6538456 21.5 8.5625 L 13.8125 20.375 C 13.2467 20.151445 12.642714 20 12 20 C 9.2504209 20 7 22.250421 7 25 C 7 26.819552 8.0052445 28.406394 9.46875 29.28125 L 5.71875 40.0625 C 5.4808939 40.027394 5.2471977 40 5 40 C 2.2504209 40 0 42.250421 0 45 C 0 47.749579 2.2504209 50 5 50 C 7.7495791 50 10 47.749579 10 45 C 10 43.205714 9.0237461 41.632496 7.59375 40.75 L 11.375 29.9375 C 11.583498 29.964297 11.784528 30 12 30 C 12.215472 30 12.416502 29.964297 12.625 29.9375 L 16.4375 40.71875 C 14.987321 41.596729 14 43.19048 14 45 C 14 47.749579 16.250421 50 19 50 C 21.749579 50 24 47.749579 24 45 C 24 42.250421 21.749579 40 19 40 C 18.773953 40 18.562077 40.033053 18.34375 40.0625 L 14.53125 29.28125 C 15.994756 28.406394 17 26.819552 17 25 C 17 23.609716 16.424324 22.346154 15.5 21.4375 L 23.1875 9.625 C 23.7533 9.8485549 24.357286 10 25 10 C 25.642714 10 26.2467 9.8485549 26.8125 9.625 L 34.5 21.4375 C 33.575676 22.346154 33 23.609716 33 25 C 33 26.819552 34.005244 28.406394 35.46875 29.28125 L 31.65625 40.0625 C 31.437923 40.033053 31.226047 40 31 40 C 28.250421 40 26 42.250421 26 45 C 26 47.749579 28.250421 50 31 50 C 33.749579 50 36 47.749579 36 45 C 36 43.19048 35.012679 41.596729 33.5625 40.71875 L 37.375 29.9375 C 37.583498 29.964297 37.784528 30 38 30 C 38.215472 30 38.416502 29.964297 38.625 29.9375 L 42.40625 40.75 C 40.976254 41.632496 40 43.205714 40 45 C 40 47.749579 42.250421 50 45 50 C 47.749579 50 50 47.749579 50 45 C 50 42.250421 47.749579 40 45 40 C 44.752802 40 44.519106 40.027394 44.28125 40.0625 L 40.53125 29.28125 C 41.994756 28.406394 43 26.819552 43 25 C 43 22.250421 40.749579 20 38 20 C 37.357286 20 36.7533 20.151445 36.1875 20.375 L 28.5 8.5625 C 29.424324 7.6538456 30 6.3902841 30 5 C 30 2.2504209 27.749579 0 25 0 z M 25 2 C 26.668699 2 28 3.3313011 28 5 C 28 6.6686989 26.668699 8 25 8 C 23.331301 8 22 6.6686989 22 5 C 22 3.3313011 23.331301 2 25 2 z M 12 22 C 13.668699 22 15 23.331301 15 25 C 15 26.668699 13.668699 28 12 28 C 10.331301 28 9 26.668699 9 25 C 9 23.331301 10.331301 22 12 22 z M 38 22 C 39.668699 22 41 23.331301 41 25 C 41 26.668699 39.668699 28 38 28 C 36.331301 28 35 26.668699 35 25 C 35 23.331301 36.331301 22 38 22 z M 5 42 C 6.6686989 42 8 43.331301 8 45 C 8 46.668699 6.6686989 48 5 48 C 3.3313011 48 2 46.668699 2 45 C 2 43.331301 3.3313011 42 5 42 z M 19 42 C 20.668699 42 22 43.331301 22 45 C 22 46.668699 20.668699 48 19 48 C 17.331301 48 16 46.668699 16 45 C 16 43.331301 17.331301 42 19 42 z M 31 42 C 32.668699 42 34 43.331301 34 45 C 34 46.668699 32.668699 48 31 48 C 29.331301 48 28 46.668699 28 45 C 28 43.331301 29.331301 42 31 42 z M 45 42 C 46.668699 42 48 43.331301 48 45 C 48 46.668699 46.668699 48 45 48 C 43.331301 48 42 46.668699 42 45 C 42 43.331301 43.331301 42 45 42 z" style="text-indent:0;text-align:start;line-height:normal;text-transform:none;block-progression:tb;-inkscape-font-specification:Bitstream Vera Sans"/>
</svg>