<?xml version="1.0" encoding="UTF-8" standalone="no"?><svg xmlns="http://www.w3.org/2000/svg" enable-background="new 0 0 50 50" style="fill:#000000;fill-opacity:1.0" version="1" viewBox="0 0 50 50">
    <path d="M 0.71875 1 A 1.0043849 1.0043849 0 0 0 0.21875 2.75 C 0.47586571 3.5173679 1 5.5093403 1 8.6875 C 1 10.656199 0.74648958 11.894221 0.53125 12.59375 C 0.42795071 12.929472 0.34253679 13.129201 0.28125 13.25 A 1.0001 1.0001 0 0 0 0.0625 13.625 A 1.0001 1.0001 0 0 0 0 13.8125 A 1.0001 1.0001 0 0 0 0.0625 14.375 A 1.0001 1.0001 0 0 0 0.125 14.5 C 0.25182481 14.81757 1 16.873709 1 20.6875 C 1 22.656199 0.74648958 23.894221 0.53125 24.59375 C 0.42795071 24.929472 0.34253679 25.129201 0.28125 25.25 A 1.0001 1.0001 0 0 0 0.0625 25.625 A 1.0001 1.0001 0 0 0 0 25.8125 A 1.0001 1.0001 0 0 0 0.0625 26.375 A 1.0001 1.0001 0 0 0 0.125 26.5 C 0.25182481 26.81757 1 28.873709 1 32.6875 C 1 34.656199 0.74648958 35.894221 0.53125 36.59375 C 0.42363021 36.943514 0.34367648 37.16368 0.28125 37.28125 C 0.2188235 37.39882 0.21875 37.375 0.21875 37.375 A 1.0001 1.0001 0 0 0 0.375 38.78125 L 12.25 48.65625 A 1.0001 1.0001 0 0 0 12.34375 48.75 L 12.375 48.78125 A 1.0001 1.0001 0 0 0 12.40625 48.8125 A 1.0004882 1.0004882 0 0 0 12.46875 48.84375 A 1.0001 1.0001 0 0 0 12.5 48.875 A 1.0004882 1.0004882 0 0 0 12.53125 48.875 A 1.0001 1.0001 0 0 0 12.59375 48.90625 A 1.0004882 1.0004882 0 0 0 12.625 48.9375 A 1.0001 1.0001 0 0 0 12.6875 48.9375 A 1.0004882 1.0004882 0 0 0 12.71875 48.96875 A 1.0001 1.0001 0 0 0 12.78125 48.96875 A 1.0004882 1.0004882 0 0 0 12.8125 49 A 1.0001 1.0001 0 0 0 12.875 49 A 1.0004882 1.0004882 0 0 0 12.9375 49 A 1.0001 1.0001 0 0 0 12.96875 49 A 1.0004882 1.0004882 0 0 0 13.03125 49 L 28 49 L 48 49 A 1.0001 1.0001 0 0 0 48.90625 48.4375 C 48.90625 48.4375 50 46.07094 50 42 C 50 38.946795 49.370117 36.85642 49.0625 36 C 49.370117 35.14358 50 33.053205 50 30 C 50 26.946795 49.370117 24.85642 49.0625 24 C 49.370117 23.14358 50 21.053205 50 18 C 50 14.513912 49.230455 12.383091 49 11.8125 A 1.0063276 1.0063276 0 0 0 48.90625 11.5625 A 1.0001 1.0001 0 0 0 48.875 11.53125 A 1.0063276 1.0063276 0 0 0 48.875 11.5 A 1.0001 1.0001 0 0 0 48.84375 11.4375 A 1.0063276 1.0063276 0 0 0 48.8125 11.40625 A 1.0001 1.0001 0 0 0 48.78125 11.34375 A 1.0063276 1.0063276 0 0 0 48.75 11.3125 A 1.0001 1.0001 0 0 0 48.6875 11.28125 A 1.0063276 1.0063276 0 0 0 48.65625 11.25 A 1.0001 1.0001 0 0 0 48.625 11.21875 A 1.0063276 1.0063276 0 0 0 48.59375 11.1875 A 1.0001 1.0001 0 0 0 48.5 11.125 L 34.59375 1.1875 A 1.0001 1.0001 0 0 0 34 1 L 1.0625 1 A 1.0001 1.0001 0 0 0 1 1 A 1.0001 1.0001 0 0 0 0.96875 1 A 1.0001 1.0001 0 0 0 0.90625 1 A 1.0001 1.0001 0 0 0 0.8125 1 A 1.0043849 1.0043849 0 0 0 0.71875 1 z M 3.75 3 L 14.65625 3 L 25.84375 11 L 13.375 11 L 3.75 3 z M 18.125 3 L 20.65625 3 L 32.71875 11.625 C 33.560442 12.246025 34 13.109356 34 14.09375 L 34 20 L 33 20 L 33 19 A 1.0001 1.0001 0 0 0 31.78125 18 A 1.0001 1.0001 0 0 0 31 19 L 31 20 L 30 20 L 30 14.09375 C 30 13.014315 29.638177 11.984325 29 11.125 L 29 11 L 28.90625 11 C 28.612457 10.628165 28.273626 10.28991 27.875 10 L 18.125 3 z M 24.125 3 L 33.65625 3 L 44.875 11 L 35 11 L 35 11.125 C 34.687687 10.704461 34.316878 10.321366 33.875 10 L 24.125 3 z M 2.59375 4.625 L 12.1875 12.625 C 12.373992 13.064081 13 14.788156 13 18 C 13 19.975869 12.770485 21.391766 12.53125 22.3125 L 2.25 13.71875 C 2.322344 13.544168 2.3957317 13.42481 2.46875 13.1875 C 2.7535104 12.262029 3 10.818801 3 8.6875 C 3 6.9434831 2.7946105 5.7612745 2.59375 4.625 z M 14.34375 13 L 27.78125 13 C 27.914661 13.342006 28 13.707024 28 14.09375 L 28 20 L 27 20 A 1.0001 1.0001 0 0 0 26.90625 20 A 1.0001 1.0001 0 0 0 26 21 L 26 23 L 14.34375 23 C 14.652202 21.914423 15 20.34222 15 18 C 15 15.65778 14.652202 14.085577 14.34375 13 z M 35.875 13 L 47.28125 13 C 47.514694 13.599617 48 15.031938 48 18 C 48 20.968062 47.514694 22.400383 47.28125 23 L 38 23 L 38 21 A 1.0001 1.0001 0 0 0 37 20 L 36 20 L 36 14.09375 C 36 13.724343 35.954767 13.353662 35.875 13 z M 18.90625 13.96875 A 1.0001 1.0001 0 0 0 18.8125 14 A 1.0001 1.0001 0 0 0 18.0625 15.375 C 18.0625 15.375 18.40625 16.133333 18.40625 18 C 18.40625 19.866667 18.0625 20.625 18.0625 20.625 A 1.0097184 1.0097184 0 0 0 19.9375 21.375 C 19.9375 21.375 20.40625 20.133333 20.40625 18 C 20.40625 15.866667 19.9375 14.625 19.9375 14.625 A 1.0001 1.0001 0 0 0 19 13.96875 A 1.0001 1.0001 0 0 0 18.90625 13.96875 z M 32 14 C 31.447715 14 31 14.447715 31 15 C 31 15.552285 31.447715 16 32 16 C 32.552285 16 33 15.552285 33 15 C 33 14.447715 32.552285 14 32 14 z M 2.6875 16.71875 L 12.15625 24.59375 C 12.315576 24.957138 13 26.685989 13 30 C 13 31.949994 12.7677 33.359055 12.53125 34.28125 L 2.25 25.71875 C 2.322344 25.544168 2.3957317 25.42481 2.46875 25.1875 C 2.7535104 24.262029 3 22.818801 3 20.6875 C 3 19.116648 2.8585402 17.79688 2.6875 16.71875 z M 28 22 L 28.8125 22 L 29.21875 22 L 31 22 L 31 25 A 1.0001 1.0001 0 1 0 33 25 L 33 22 L 36 22 L 36 29 L 35.21875 29 A 1.0001 1.0001 0 0 0 34.90625 28.96875 A 1.0001 1.0001 0 0 0 34.8125 29 L 29.1875 29 A 1.0001 1.0001 0 0 0 28.78125 29 L 28 29 L 28 22 z M 14.34375 25 L 26 25 L 26 30 A 1.0001 1.0001 0 0 0 27 31 L 28 31 L 28 35 L 14.34375 35 C 14.652202 33.914423 15 32.34222 15 30 C 15 27.65778 14.652202 26.085577 14.34375 25 z M 38 25 L 47.28125 25 C 47.514694 25.599617 48 27.031938 48 30 C 48 32.968062 47.514694 34.400383 47.28125 35 L 36 35 L 36 31 L 37 31 A 1.0001 1.0001 0 0 0 38 30 L 38 25 z M 18.90625 25.96875 A 1.0001 1.0001 0 0 0 18.8125 26 A 1.0001 1.0001 0 0 0 18.0625 27.375 C 18.0625 27.375 18.40625 28.133333 18.40625 30 C 18.40625 31.866667 18.0625 32.625 18.0625 32.625 A 1.0097184 1.0097184 0 0 0 19.9375 33.375 C 19.9375 33.375 20.40625 32.133333 20.40625 30 C 20.40625 27.866667 19.9375 26.625 19.9375 26.625 A 1.0001 1.0001 0 0 0 19 25.96875 A 1.0001 1.0001 0 0 0 18.90625 25.96875 z M 2.6875 28.71875 L 12.1875 36.625 C 12.373992 37.064081 13 38.788156 13 42 C 13 43.975869 12.770485 45.391766 12.53125 46.3125 L 2.25 37.71875 C 2.322344 37.544168 2.3957317 37.42481 2.46875 37.1875 C 2.7535104 36.262029 3 34.818801 3 32.6875 C 3 31.116648 2.8585402 29.79688 2.6875 28.71875 z M 30 31 L 34 31 L 34 45 C 34 45.922222 33.679486 46.354088 33.34375 46.65625 C 33.091948 46.882872 32.909593 46.96535 32.8125 47 L 29.5 47 C 29.781756 46.450391 30 45.789172 30 45 L 30 31 z M 32 33 C 31.447715 33 31 33.447715 31 34 C 31 34.552285 31.447715 35 32 35 C 32.552285 35 33 34.552285 33 34 C 33 33.447715 32.552285 33 32 33 z M 14.34375 37 L 28 37 L 28 45 C 28 45.922222 27.679486 46.354088 27.34375 46.65625 C 27.091948 46.882872 26.909593 46.96535 26.8125 47 L 14.34375 47 C 14.652202 45.914423 15 44.34222 15 42 C 15 39.65778 14.652202 38.085577 14.34375 37 z M 36 37 L 47.28125 37 C 47.514694 37.599617 48 39.031938 48 42 C 48 44.968062 47.514694 46.400383 47.28125 47 L 35.5 47 C 35.781756 46.450391 36 45.789172 36 45 L 36 37 z M 18.90625 37.96875 A 1.0001 1.0001 0 0 0 18.8125 38 A 1.0001 1.0001 0 0 0 18.0625 39.375 C 18.0625 39.375 18.40625 40.133333 18.40625 42 C 18.40625 43.866667 18.0625 44.625 18.0625 44.625 A 1.0097184 1.0097184 0 0 0 19.9375 45.375 C 19.9375 45.375 20.40625 44.133333 20.40625 42 C 20.40625 39.866667 19.9375 38.625 19.9375 38.625 A 1.0001 1.0001 0 0 0 19 37.96875 A 1.0001 1.0001 0 0 0 18.90625 37.96875 z M 32 38 C 31.447715 38 31 38.447715 31 39 C 31 39.552285 31.447715 40 32 40 C 32.552285 40 33 39.552285 33 39 C 33 38.447715 32.552285 38 32 38 z" style="text-indent:0;text-align:start;line-height:normal;text-transform:none;block-progression:tb;-inkscape-font-specification:Bitstream Vera Sans"/>
</svg>