<?xml version="1.0" encoding="UTF-8" standalone="no"?><svg xmlns="http://www.w3.org/2000/svg" height="50" style="fill:#000000;fill-opacity:1.0" viewBox="0 0 50 50" width="50">
    <path color="#000" d="M 25 -0.03125 C 18.937404 -0.03125 13.96875 4.7740257 13.96875 10.71875 L 13.96875 23.28125 C 13.96875 29.226868 18.937404 34.03125 25 34.03125 C 31.062596 34.03125 36.03125 29.225974 36.03125 23.28125 L 36.03125 10.71875 C 36.03125 4.7740257 31.062596 -0.03125 25 -0.03125 z M 25 2.03125 C 29.983404 2.03125 33.96875 5.9134743 33.96875 10.71875 L 33.96875 11 L 28.5 11 A 1.0001 1.0001 0 0 0 28.40625 11 A 1.001098 1.001098 0 0 0 28.5 13 L 33.96875 13 L 33.96875 15 L 28.5 15 A 1.0001 1.0001 0 0 0 28.40625 15 A 1.001098 1.001098 0 0 0 28.5 17 L 33.96875 17 L 33.96875 19 L 28.5 19 A 1.0001 1.0001 0 0 0 28.40625 19 A 1.001098 1.001098 0 0 0 28.5 21 L 33.96875 21 L 33.96875 23.28125 C 33.96875 28.086526 29.983404 31.96875 25 31.96875 C 20.016596 31.96875 16.03125 28.087632 16.03125 23.28125 L 16.03125 21 L 21.5 21 A 1.0001 1.0001 0 1 0 21.5 19 L 16.03125 19 L 16.03125 17 L 21.5 17 A 1.0001 1.0001 0 1 0 21.5 15 L 16.03125 15 L 16.03125 13 L 21.5 13 A 1.0001 1.0001 0 1 0 21.5 11 L 16.03125 11 L 16.03125 10.71875 C 16.03125 5.9134743 20.016596 2.03125 25 2.03125 z M 9.8125 17.125 A 0.86658667 0.86658667 0 0 0 9.125 18 L 9.125 23 C 9.125 30.70343 14.670151 37.16981 21.96875 38.59375 L 21.96875 45 L 15.46875 45 C 13.56594 45 12 46.568772 12 48.46875 L 12 48.9375 L 12 49.9375 L 13 49.9375 L 36.90625 49.9375 L 37.875 49.9375 L 37.875 48.9375 L 37.875 48.46875 C 37.875 46.569256 36.30906 45 34.40625 45 L 28.03125 45 L 28.03125 38.59375 C 35.329849 37.16981 40.875 30.70343 40.875 23 L 40.875 18 A 0.875 0.875 0 1 0 39.125 18 L 39.125 23 C 39.125 30.80103 32.80103 37.125 25 37.125 C 17.19897 37.125 10.875 30.80103 10.875 23 L 10.875 18 A 0.86658667 0.86658667 0 0 0 9.90625 17.125 A 0.86658667 0.86658667 0 0 0 9.8125 17.125 z M 24.03125 38.8125 C 24.352311 38.832037 24.674187 38.875 25 38.875 C 25.325813 38.875 25.647689 38.832037 25.96875 38.8125 L 25.96875 44.96875 L 24.03125 44.96875 L 24.03125 38.8125 z M 15.46875 47 L 22.75 47 A 1.040104 1.040104 0 0 0 23 47.03125 L 27 47.03125 A 1.040104 1.040104 0 0 0 27.21875 47 L 34.40625 47 C 35.047719 47 35.471214 47.423694 35.6875 47.96875 L 14.1875 47.96875 C 14.402579 47.420665 14.825002 47 15.46875 47 z" font-family="Bitstream Vera Sans" overflow="visible" style="text-indent:0;text-align:start;line-height:normal;text-transform:none;block-progression:tb;-inkscape-font-specification:Bitstream Vera Sans"/>
</svg>