<?xml version="1.0" encoding="UTF-8" standalone="no"?><svg xmlns="http://www.w3.org/2000/svg" enable-background="new 0 0 50 50" style="fill:#000000;fill-opacity:1.0" viewBox="0 0 50 50">
    <path color="#000" d="M 20 4 C 15.054545 4 11 8.0545455 11 13 L 11 35.5625 L 5.71875 30.28125 L 4.28125 31.71875 L 11.28125 38.71875 L 12 39.40625 L 12.71875 38.71875 L 19.71875 31.71875 L 18.28125 30.28125 L 13 35.5625 L 13 13 C 13 9.1454545 16.145455 6 20 6 L 31 6 L 31 4 L 20 4 z M 38 10.59375 L 37.28125 11.28125 L 30.28125 18.28125 L 31.71875 19.71875 L 37 14.4375 L 37 37 C 37 40.854545 33.854545 44 30 44 L 19 44 L 19 46 L 30 46 C 34.945455 46 39 41.945455 39 37 L 39 14.4375 L 44.28125 19.71875 L 45.71875 18.28125 L 38.71875 11.28125 L 38 10.59375 z" enable-background="accumulate" font-family="Bitstream Vera Sans" overflow="visible" style="text-indent:0;text-align:start;line-height:normal;text-transform:none;block-progression:tb;-inkscape-font-specification:Bitstream Vera Sans"/>
</svg>