<?xml version="1.0" encoding="UTF-8" standalone="no"?><svg xmlns="http://www.w3.org/2000/svg" enable-background="new 0 0 50 50" style="fill:#000000;fill-opacity:1.0" viewBox="0 0 50 50">
    <path color="#000" d="M 22.8125 6 A 1.0001 1.0001 0 0 0 22 7 L 22 19.78125 L 10.90625 13.4375 A 1.0001 1.0001 0 0 0 9.53125 13.78125 L 7.53125 17.1875 A 1.0001 1.0001 0 0 0 7.90625 18.5625 L 19 25 L 7.90625 31.4375 A 1.0001 1.0001 0 0 0 7.53125 32.8125 L 9.53125 36.21875 A 1.0001 1.0001 0 0 0 10.90625 36.5625 L 22 30.21875 L 22 43 A 1.0001 1.0001 0 0 0 23 44 L 27 44 A 1.0001 1.0001 0 0 0 28 43 L 28 30.21875 L 39.09375 36.5625 A 1.0001 1.0001 0 0 0 40.46875 36.21875 L 42.46875 32.8125 A 1.0001 1.0001 0 0 0 42.09375 31.4375 L 31 25 L 42.09375 18.5625 A 1.0001 1.0001 0 0 0 42.46875 17.1875 L 40.46875 13.78125 A 1.0001 1.0001 0 0 0 39.09375 13.4375 L 28 19.78125 L 28 7 A 1.0001 1.0001 0 0 0 27 6 L 23 6 A 1.0001 1.0001 0 0 0 22.90625 6 A 1.0001 1.0001 0 0 0 22.8125 6 z M 24 8 L 26 8 L 26 21.5 A 1.0001 1.0001 0 0 0 27.5 22.375 L 39.25 15.65625 L 40.25 17.34375 L 28.5 24.125 A 1.0001 1.0001 0 0 0 28.5 25.875 L 40.25 32.65625 L 39.25 34.34375 L 27.5 27.625 A 1.0001 1.0001 0 0 0 26 28.5 L 26 42 L 24 42 L 24 28.5 A 1.0001 1.0001 0 0 0 22.5 27.625 L 10.75 34.34375 L 9.75 32.65625 L 21.5 25.875 A 1.0001 1.0001 0 0 0 21.5 24.125 L 9.75 17.34375 L 10.75 15.65625 L 22.5 22.375 A 1.0001 1.0001 0 0 0 24 21.5 L 24 8 z" enable-background="accumulate" font-family="Bitstream Vera Sans" overflow="visible" style="text-indent:0;text-align:start;line-height:normal;text-transform:none;block-progression:tb;-inkscape-font-specification:Bitstream Vera Sans"/>
</svg>