<?xml version="1.0" encoding="UTF-8" standalone="no"?>
<svg
   xmlns:dc="http://purl.org/dc/elements/1.1/"
   xmlns:cc="http://creativecommons.org/ns#"
   xmlns:rdf="http://www.w3.org/1999/02/22-rdf-syntax-ns#"
   xmlns:svg="http://www.w3.org/2000/svg"
   xmlns="http://www.w3.org/2000/svg"
   xmlns:sodipodi="http://sodipodi.sourceforge.net/DTD/sodipodi-0.dtd"
   xmlns:inkscape="http://www.inkscape.org/namespaces/inkscape"
   height="50"
   style="fill:#000000;fill-opacity:1.0"
   viewBox="0 0 50 50"
   width="50"
   id="svg2"
   version="1.1"
   inkscape:version="0.91 r13725"
   sodipodi:docname="remove_offline.svg">
  <metadata
     id="metadata10">
    <rdf:RDF>
      <cc:Work
         rdf:about="">
        <dc:format>image/svg+xml</dc:format>
        <dc:type
           rdf:resource="http://purl.org/dc/dcmitype/StillImage" />
        <dc:title />
      </cc:Work>
    </rdf:RDF>
  </metadata>
  <defs
     id="defs8" />
  <sodipodi:namedview
     pagecolor="#ffffff"
     bordercolor="#666666"
     borderopacity="1"
     objecttolerance="10"
     gridtolerance="10"
     guidetolerance="10"
     inkscape:pageopacity="0"
     inkscape:pageshadow="2"
     inkscape:window-width="2560"
     inkscape:window-height="1537"
     id="namedview6"
     showgrid="false"
     inkscape:zoom="4.72"
     inkscape:cx="-23.834746"
     inkscape:cy="25"
     inkscape:window-x="1192"
     inkscape:window-y="-8"
     inkscape:window-maximized="1"
     inkscape:current-layer="svg2" />
  <path
     color="#000"
     d="M 9.15625 6.3125 L 6.3125 9.15625 L 22.15625 25 L 6.21875 40.96875 L 9.03125 43.78125 L 25 27.84375 L 40.9375 43.78125 L 43.78125 40.9375 L 27.84375 25 L 43.6875 9.15625 L 40.84375 6.3125 L 25 22.15625 L 9.15625 6.3125 z"
     enable-background="accumulate"
     font-family="Bitstream Vera Sans"
     overflow="visible"
     style="text-indent:0;text-align:start;line-height:normal;text-transform:none;block-progression:tb;-inkscape-font-specification:Bitstream Vera Sans"
     id="path4" />
  <circle
     style="fill:#ffffff;fill-opacity:1.0;stroke:#000000;stroke-opacity:1.0"
     id="path4138"
     cx="33.15678"
     cy="33.368645"
     r="16.351694" />
  <path
     inkscape:connector-curvature="0"
     d="m 43.628312,22.450743 -2.390769,2.390768 -0.393774,-0.4219 c -0.874953,-0.874954 -2.024675,-1.321955 -3.178316,-1.321955 -1.153642,0 -2.303362,0.447001 -3.178317,1.321955 l -0.646914,0.618787 -0.815674,0.815674 -0.703167,-0.703167 -1.293828,1.293827 2.503276,2.503276 -2.503276,2.503276 1.293828,1.293829 2.503276,-2.503277 2.306389,2.306389 -2.503277,2.503276 1.293829,1.293828 2.503276,-2.503276 2.503276,2.503276 1.293827,-1.293828 -0.703167,-0.703167 1.434461,-1.462588 c 1.749907,-1.749907 1.749907,-4.606726 0,-6.356633 l -0.4219,-0.393774 2.390768,-2.390769 -1.293827,-1.293827 z m -5.962859,2.447022 c 0.690842,0 1.381684,0.256616 1.912615,0.787548 l 2.109501,2.109501 c 1.061863,1.061862 1.061863,2.763367 0,3.82523 l -0.225013,0.196887 -1.237575,1.237574 -5.906604,-5.906604 1.434461,-1.462588 c 0.530931,-0.530932 1.221774,-0.787548 1.912615,-0.787548 z m -11.644451,6.553519 -1.293827,1.293829 0.703166,0.703166 -1.43446,1.462588 c -1.749907,1.749907 -1.749907,4.606725 0,6.356632 l 0.393774,0.421901 -2.362643,2.362641 1.293829,1.293829 2.362641,-2.362643 0.421901,0.393774 c 1.749907,1.749907 4.606725,1.749907 6.356632,0 l 1.462588,-1.43446 0.703166,0.703166 1.293829,-1.293827 -9.900596,-9.900596 z m 0.703168,3.290824 5.906604,5.906604 -1.434459,1.462589 c -1.061863,1.061862 -2.763369,1.061862 -3.825231,0 l -0.196886,-0.225014 -1.912617,-1.884489 c -1.061862,-1.061862 -1.061862,-2.763368 0,-3.825231 l 1.462589,-1.434459 z"
     style="line-height:normal;-inkscape-font-specification:'Bitstream Vera Sans';text-indent:0;text-align:start;text-transform:none;block-progression:tb;fill:#000000;fill-opacity:1.0"
     id="path4-8" />
</svg>
