<?xml version="1.0" encoding="UTF-8" standalone="no"?>
<svg
   xmlns:dc="http://purl.org/dc/elements/1.1/"
   xmlns:cc="http://creativecommons.org/ns#"
   xmlns:rdf="http://www.w3.org/1999/02/22-rdf-syntax-ns#"
   xmlns:svg="http://www.w3.org/2000/svg"
   xmlns="http://www.w3.org/2000/svg"
   xmlns:sodipodi="http://sodipodi.sourceforge.net/DTD/sodipodi-0.dtd"
   xmlns:inkscape="http://www.inkscape.org/namespaces/inkscape"
   height="50"
   style="fill:#000000;fill-opacity:1.0"
   viewBox="0 0 50 50"
   width="50"
   id="svg2"
   version="1.1"
   inkscape:version="0.91 r13725"
   sodipodi:docname="remove_failed.svg">
  <metadata
     id="metadata10">
    <rdf:RDF>
      <cc:Work
         rdf:about="">
        <dc:format>image/svg+xml</dc:format>
        <dc:type
           rdf:resource="http://purl.org/dc/dcmitype/StillImage" />
        <dc:title></dc:title>
      </cc:Work>
    </rdf:RDF>
  </metadata>
  <defs
     id="defs8" />
  <sodipodi:namedview
     pagecolor="#ffffff"
     bordercolor="#666666"
     borderopacity="1"
     objecttolerance="10"
     gridtolerance="10"
     guidetolerance="10"
     inkscape:pageopacity="0"
     inkscape:pageshadow="2"
     inkscape:window-width="1200"
     inkscape:window-height="1857"
     id="namedview6"
     showgrid="false"
     inkscape:zoom="13.350176"
     inkscape:cx="32.884623"
     inkscape:cy="29.937075"
     inkscape:window-x="-8"
     inkscape:window-y="-8"
     inkscape:window-maximized="1"
     inkscape:current-layer="g4186" />
  <path
     color="#000"
     d="M 9.15625 6.3125 L 6.3125 9.15625 L 22.15625 25 L 6.21875 40.96875 L 9.03125 43.78125 L 25 27.84375 L 40.9375 43.78125 L 43.78125 40.9375 L 27.84375 25 L 43.6875 9.15625 L 40.84375 6.3125 L 25 22.15625 L 9.15625 6.3125 z"
     enable-background="accumulate"
     font-family="Bitstream Vera Sans"
     overflow="visible"
     style="text-indent:0;text-align:start;line-height:normal;text-transform:none;block-progression:tb;-inkscape-font-specification:Bitstream Vera Sans"
     id="path4" />
  <circle
     style="fill:#ffffff;fill-opacity:1.0;stroke:none;stroke-opacity:1"
     id="path4138"
     cx="33.15678"
     cy="33.368645"
     r="16.351694" />
  <g
     style="fill:#000000;fill-opacity:1.0"
     id="g4186"
     transform="matrix(0.67098964,0,0,0.67098964,16.874248,16.662383)">
    <path
       id="path4178"
       style="color:#000000;line-height:normal;font-family:'Bitstream Vera Sans';-inkscape-font-specification:'Bitstream Vera Sans';text-indent:0;text-align:start;text-transform:none;block-progression:tb;overflow:visible;enable-background:accumulate"
       overflow="visible"
       d="m 24.665097,0.44653673 c -13.795274,0 -24.99999955,11.07964327 -24.99999955,24.72091527 0,13.641271 11.20472555,24.720914 24.99999955,24.720914 13.795274,0 25,-11.079643 25,-24.720914 0,-13.641272 -11.204726,-24.72091527 -25,-24.72091527 z m 0,1.97767317 c 12.714394,0 23,10.1707841 23,22.7432421 0,12.572457 -10.285606,22.743241 -23,22.743241 -12.714394,0 -22.9999995,-10.170784 -22.9999995,-22.743241 0,-12.572458 10.2856055,-22.7432421 22.9999995,-22.7432421 z m -9.09375,12.8239751 a 1.0001,0.98893547 0 0 0 -0.125,0.0309 1.0001,0.98893547 0 0 0 -0.5,1.699563 l 8.28125,8.188803 -8.28125,8.188802 a 1.016466,1.0051188 0 1 0 1.4375,1.421453 l 8.28125,-8.188803 8.28125,8.188803 a 1.016466,1.0051188 0 1 0 1.4375,-1.421453 l -8.28125,-8.188802 8.28125,-8.188803 a 1.0001,0.98893547 0 0 0 -0.84375,-1.699563 1.0001,0.98893547 0 0 0 -0.59375,0.27811 l -8.28125,8.188803 -8.28125,-8.188803 a 1.0001,0.98893547 0 0 0 -0.8125,-0.309011 z"
       inkscape:connector-curvature="0" />
  </g>
</svg>
