<?xml version="1.0" encoding="UTF-8" standalone="no"?>
<svg
   xmlns:dc="http://purl.org/dc/elements/1.1/"
   xmlns:cc="http://creativecommons.org/ns#"
   xmlns:rdf="http://www.w3.org/1999/02/22-rdf-syntax-ns#"
   xmlns:svg="http://www.w3.org/2000/svg"
   xmlns="http://www.w3.org/2000/svg"
   xmlns:sodipodi="http://sodipodi.sourceforge.net/DTD/sodipodi-0.dtd"
   xmlns:inkscape="http://www.inkscape.org/namespaces/inkscape"
   height="50"
   style="fill:#000000;fill-opacity:1.0"
   viewBox="0 0 50 50"
   width="50"
   id="svg2"
   version="1.1"
   inkscape:version="0.91 r13725"
   sodipodi:docname="remove_dupes.svg">
  <metadata
     id="metadata10">
    <rdf:RDF>
      <cc:Work
         rdf:about="">
        <dc:format>image/svg+xml</dc:format>
        <dc:type
           rdf:resource="http://purl.org/dc/dcmitype/StillImage" />
        <dc:title />
      </cc:Work>
    </rdf:RDF>
  </metadata>
  <defs
     id="defs8" />
  <sodipodi:namedview
     pagecolor="#ffffff"
     bordercolor="#666666"
     borderopacity="1"
     objecttolerance="10"
     gridtolerance="10"
     guidetolerance="10"
     inkscape:pageopacity="0"
     inkscape:pageshadow="2"
     inkscape:window-width="2560"
     inkscape:window-height="1537"
     id="namedview6"
     showgrid="false"
     inkscape:zoom="4.72"
     inkscape:cx="-23.834746"
     inkscape:cy="25"
     inkscape:window-x="1192"
     inkscape:window-y="-8"
     inkscape:window-maximized="1"
     inkscape:current-layer="svg2" />
  <path
     color="#000"
     d="M 9.15625 6.3125 L 6.3125 9.15625 L 22.15625 25 L 6.21875 40.96875 L 9.03125 43.78125 L 25 27.84375 L 40.9375 43.78125 L 43.78125 40.9375 L 27.84375 25 L 43.6875 9.15625 L 40.84375 6.3125 L 25 22.15625 L 9.15625 6.3125 z"
     enable-background="accumulate"
     font-family="Bitstream Vera Sans"
     overflow="visible"
     style="text-indent:0;text-align:start;line-height:normal;text-transform:none;block-progression:tb;-inkscape-font-specification:Bitstream Vera Sans"
     id="path4" />
  <circle
     style="fill:#ffffff;fill-opacity:1.0;stroke:#000000;stroke-opacity:1.0"
     id="path4138"
     cx="33.15678"
     cy="33.368645"
     r="16.351694" />
  <g
     style="fill:#000000;fill-opacity:1.0"
     id="g4173"
     transform="matrix(0.43644068,0,0,0.43644068,22.245763,22.457628)">
    <path
       id="path4165"
       style="color:#000000;line-height:normal;font-family:'Bitstream Vera Sans';-inkscape-font-specification:'Bitstream Vera Sans';text-indent:0;text-align:start;text-transform:none;block-progression:tb;overflow:visible;enable-background:accumulate"
       overflow="visible"
       d="m 19,0 0,6 2,2 0,-6 15,0 0,11 0,1 1,0 11,0 0,26 -15,0 0,2 17,0 L 50,12.59375 37.40625,0 19,0 Z M 38,3.40625 46.59375,12 38,12 38,3.40625 Z M 0,8 l 0,1 0,40 0,1 1,0 29,0 1,0 0,-1 0,-28 0,-0.40625 -0.28125,-0.3125 -12,-12 L 18.40625,8 18,8 1,8 0,8 Z m 2,2 15,0 0,11 0,1 1,0 11,0 0,26 L 2,48 2,10 Z M 19,11.4375 27.5625,20 19,20 19,11.4375 Z"
       inkscape:connector-curvature="0" />
  </g>
</svg>
