<?xml version="1.0" encoding="UTF-8" standalone="no"?>
<svg
   xmlns:dc="http://purl.org/dc/elements/1.1/"
   xmlns:cc="http://creativecommons.org/ns#"
   xmlns:rdf="http://www.w3.org/1999/02/22-rdf-syntax-ns#"
   xmlns:svg="http://www.w3.org/2000/svg"
   xmlns="http://www.w3.org/2000/svg"
   xmlns:sodipodi="http://sodipodi.sourceforge.net/DTD/sodipodi-0.dtd"
   xmlns:inkscape="http://www.inkscape.org/namespaces/inkscape"
   height="50"
   style="fill:#000000;fill-opacity:1.0"
   viewBox="0 0 50 50"
   width="50"
   id="svg2"
   version="1.1"
   inkscape:version="0.91 r13725"
   sodipodi:docname="remove_ok.svg">
  <metadata
     id="metadata10">
    <rdf:RDF>
      <cc:Work
         rdf:about="">
        <dc:format>image/svg+xml</dc:format>
        <dc:type
           rdf:resource="http://purl.org/dc/dcmitype/StillImage" />
        <dc:title></dc:title>
      </cc:Work>
    </rdf:RDF>
  </metadata>
  <defs
     id="defs8" />
  <sodipodi:namedview
     pagecolor="#ffffff"
     bordercolor="#666666"
     borderopacity="1"
     objecttolerance="10"
     gridtolerance="10"
     guidetolerance="10"
     inkscape:pageopacity="0"
     inkscape:pageshadow="2"
     inkscape:window-width="1200"
     inkscape:window-height="1857"
     id="namedview6"
     showgrid="false"
     inkscape:zoom="13.350176"
     inkscape:cx="31.010803"
     inkscape:cy="29.937075"
     inkscape:window-x="-8"
     inkscape:window-y="-8"
     inkscape:window-maximized="1"
     inkscape:current-layer="g4186" />
  <path
     color="#000"
     d="M 9.15625 6.3125 L 6.3125 9.15625 L 22.15625 25 L 6.21875 40.96875 L 9.03125 43.78125 L 25 27.84375 L 40.9375 43.78125 L 43.78125 40.9375 L 27.84375 25 L 43.6875 9.15625 L 40.84375 6.3125 L 25 22.15625 L 9.15625 6.3125 z"
     enable-background="accumulate"
     font-family="Bitstream Vera Sans"
     overflow="visible"
     style="text-indent:0;text-align:start;line-height:normal;text-transform:none;block-progression:tb;-inkscape-font-specification:Bitstream Vera Sans"
     id="path4" />
  <circle
     style="fill:#ffffff;fill-opacity:1.0;stroke:none;stroke-opacity:1"
     id="path4138"
     cx="33.15678"
     cy="33.368645"
     r="16.351694" />
  <g
     style="fill:#000000;fill-opacity:1.0"
     id="g4186"
     transform="matrix(0.67098964,0,0,0.67098964,16.874248,16.662383)">
    <g
       style="fill:#000000;fill-opacity:1.0"
       id="g4199"
       transform="matrix(1.1249878,0,0,1.1199135,-3.4841481,-2.9847409)">
      <path
         id="path4191"
         style="color:#000000;line-height:normal;font-family:'Bitstream Vera Sans';-inkscape-font-specification:'Bitstream Vera Sans';text-indent:0;text-align:start;text-transform:none;block-progression:tb;overflow:visible;enable-background:accumulate"
         overflow="visible"
         d="M 25,3 C 12.86158,3 3,12.86158 3,25 3,37.13842 12.86158,47 25,47 37.13842,47 47,37.13842 47,25 47,12.86158 37.13842,3 25,3 Z m 0,2 C 36.05754,5 45,13.94246 45,25 45,36.05754 36.05754,45 25,45 13.94246,45 5,36.05754 5,25 5,13.94246 13.94246,5 25,5 Z m 9.0625,9.46875 -10.9375,17 -7.34375,-6.625 -1.34375,1.5 8.1875,7.40625 0.875,0.78125 0.625,-1 11.625,-18 -1.6875,-1.0625 z"
         inkscape:connector-curvature="0" />
    </g>
  </g>
</svg>
