<?xml version="1.0" encoding="UTF-8" standalone="no"?>
<svg
   xmlns:dc="http://purl.org/dc/elements/1.1/"
   xmlns:cc="http://creativecommons.org/ns#"
   xmlns:rdf="http://www.w3.org/1999/02/22-rdf-syntax-ns#"
   xmlns:svg="http://www.w3.org/2000/svg"
   xmlns="http://www.w3.org/2000/svg"
   xmlns:sodipodi="http://sodipodi.sourceforge.net/DTD/sodipodi-0.dtd"
   xmlns:inkscape="http://www.inkscape.org/namespaces/inkscape"
   height="50"
   style="fill:#000000;fill-opacity:1.0"
   viewBox="0 0 50 50"
   width="50"
   id="svg2"
   version="1.1"
   inkscape:version="0.91 r13725"
   sodipodi:docname="remove_extracted.svg">
  <metadata
     id="metadata10">
    <rdf:RDF>
      <cc:Work
         rdf:about="">
        <dc:format>image/svg+xml</dc:format>
        <dc:type
           rdf:resource="http://purl.org/dc/dcmitype/StillImage" />
        <dc:title></dc:title>
      </cc:Work>
    </rdf:RDF>
  </metadata>
  <defs
     id="defs8" />
  <sodipodi:namedview
     pagecolor="#ffffff"
     bordercolor="#666666"
     borderopacity="1"
     objecttolerance="10"
     gridtolerance="10"
     guidetolerance="10"
     inkscape:pageopacity="0"
     inkscape:pageshadow="2"
     inkscape:window-width="2560"
     inkscape:window-height="1537"
     id="namedview6"
     showgrid="false"
     inkscape:zoom="4.72"
     inkscape:cx="-72.669492"
     inkscape:cy="25"
     inkscape:window-x="1192"
     inkscape:window-y="-8"
     inkscape:window-maximized="1"
     inkscape:current-layer="svg2" />
  <path
     color="#000"
     d="M 9.15625 6.3125 L 6.3125 9.15625 L 22.15625 25 L 6.21875 40.96875 L 9.03125 43.78125 L 25 27.84375 L 40.9375 43.78125 L 43.78125 40.9375 L 27.84375 25 L 43.6875 9.15625 L 40.84375 6.3125 L 25 22.15625 L 9.15625 6.3125 z"
     enable-background="accumulate"
     font-family="Bitstream Vera Sans"
     overflow="visible"
     style="text-indent:0;text-align:start;line-height:normal;text-transform:none;block-progression:tb;-inkscape-font-specification:Bitstream Vera Sans"
     id="path4" />
  <circle
     style="fill:#ffffff;fill-opacity:1.0;stroke:#000000;stroke-opacity:1.0"
     id="path4138"
     cx="33.15678"
     cy="33.368645"
     r="16.351694" />
  <g
     style="fill:#000000;fill-opacity:1.0"
     id="g4146"
     transform="matrix(0.45552263,0,0,0.45552263,21.816388,22.23081)">
    <path
       id="path4138-8"
       style="line-height:normal;-inkscape-font-specification:'Bitstream Vera Sans';text-indent:0;text-align:start;text-transform:none;block-progression:tb"
       d="m 0.71875,1 a 1.0043849,1.0043849 0 0 0 -0.5,1.75 C 0.47586571,3.5173679 1,5.5093403 1,8.6875 1,10.656199 0.74648958,11.894221 0.53125,12.59375 0.42795071,12.929472 0.34253679,13.129201 0.28125,13.25 A 1.0001,1.0001 0 0 0 0.0625,13.625 1.0001,1.0001 0 0 0 0,13.8125 1.0001,1.0001 0 0 0 0.0625,14.375 1.0001,1.0001 0 0 0 0.125,14.5 C 0.25182481,14.81757 1,16.873709 1,20.6875 1,22.656199 0.74648958,23.894221 0.53125,24.59375 0.42795071,24.929472 0.34253679,25.129201 0.28125,25.25 A 1.0001,1.0001 0 0 0 0.0625,25.625 1.0001,1.0001 0 0 0 0,25.8125 1.0001,1.0001 0 0 0 0.0625,26.375 1.0001,1.0001 0 0 0 0.125,26.5 C 0.25182481,26.81757 1,28.873709 1,32.6875 c 0,1.968699 -0.25351042,3.206721 -0.46875,3.90625 -0.10761979,0.349764 -0.18757352,0.56993 -0.25,0.6875 C 0.2188235,37.39882 0.21875,37.375 0.21875,37.375 A 1.0001,1.0001 0 0 0 0.375,38.78125 l 11.875,9.875 A 1.0001,1.0001 0 0 0 12.34375,48.75 l 0.03125,0.03125 a 1.0001,1.0001 0 0 0 0.03125,0.03125 1.0004882,1.0004882 0 0 0 0.0625,0.03125 1.0001,1.0001 0 0 0 0.03125,0.03125 1.0004882,1.0004882 0 0 0 0.03125,0 1.0001,1.0001 0 0 0 0.0625,0.03125 1.0004882,1.0004882 0 0 0 0.03125,0.03125 1.0001,1.0001 0 0 0 0.0625,0 1.0004882,1.0004882 0 0 0 0.03125,0.03125 1.0001,1.0001 0 0 0 0.0625,0 A 1.0004882,1.0004882 0 0 0 12.8125,49 a 1.0001,1.0001 0 0 0 0.0625,0 1.0004882,1.0004882 0 0 0 0.0625,0 1.0001,1.0001 0 0 0 0.03125,0 1.0004882,1.0004882 0 0 0 0.0625,0 L 28,49 48,49 a 1.0001,1.0001 0 0 0 0.90625,-0.5625 C 48.90625,48.4375 50,46.07094 50,42 50,38.946795 49.370117,36.85642 49.0625,36 49.370117,35.14358 50,33.053205 50,30 50,26.946795 49.370117,24.85642 49.0625,24 49.370117,23.14358 50,21.053205 50,18 50,14.513912 49.230455,12.383091 49,11.8125 A 1.0063276,1.0063276 0 0 0 48.90625,11.5625 1.0001,1.0001 0 0 0 48.875,11.53125 1.0063276,1.0063276 0 0 0 48.875,11.5 1.0001,1.0001 0 0 0 48.84375,11.4375 1.0063276,1.0063276 0 0 0 48.8125,11.40625 1.0001,1.0001 0 0 0 48.78125,11.34375 1.0063276,1.0063276 0 0 0 48.75,11.3125 1.0001,1.0001 0 0 0 48.6875,11.28125 1.0063276,1.0063276 0 0 0 48.65625,11.25 1.0001,1.0001 0 0 0 48.625,11.21875 1.0063276,1.0063276 0 0 0 48.59375,11.1875 1.0001,1.0001 0 0 0 48.5,11.125 L 34.59375,1.1875 A 1.0001,1.0001 0 0 0 34,1 L 1.0625,1 A 1.0001,1.0001 0 0 0 1,1 1.0001,1.0001 0 0 0 0.96875,1 1.0001,1.0001 0 0 0 0.90625,1 1.0001,1.0001 0 0 0 0.8125,1 1.0043849,1.0043849 0 0 0 0.71875,1 Z M 3.75,3 14.65625,3 25.84375,11 13.375,11 3.75,3 Z m 14.375,0 2.53125,0 12.0625,8.625 C 33.560442,12.246025 34,13.109356 34,14.09375 L 34,20 33,20 33,19 A 1.0001,1.0001 0 0 0 31.78125,18 1.0001,1.0001 0 0 0 31,19 l 0,1 -1,0 0,-5.90625 C 30,13.014315 29.638177,11.984325 29,11.125 L 29,11 28.90625,11 C 28.612457,10.628165 28.273626,10.28991 27.875,10 l -9.75,-7 z m 6,0 9.53125,0 L 44.875,11 35,11 35,11.125 C 34.687687,10.704461 34.316878,10.321366 33.875,10 l -9.75,-7 z m -21.53125,1.625 9.59375,8 C 12.373992,13.064081 13,14.788156 13,18 c 0,1.975869 -0.229515,3.391766 -0.46875,4.3125 L 2.25,13.71875 C 2.322344,13.544168 2.3957317,13.42481 2.46875,13.1875 2.7535104,12.262029 3,10.818801 3,8.6875 3,6.9434831 2.7946105,5.7612745 2.59375,4.625 Z m 11.75,8.375 13.4375,0 C 27.914661,13.342006 28,13.707024 28,14.09375 L 28,20 27,20 A 1.0001,1.0001 0 0 0 26.90625,20 1.0001,1.0001 0 0 0 26,21 l 0,2 -11.65625,0 C 14.652202,21.914423 15,20.34222 15,18 15,15.65778 14.652202,14.085577 14.34375,13 Z M 35.875,13 47.28125,13 C 47.514694,13.599617 48,15.031938 48,18 c 0,2.968062 -0.485306,4.400383 -0.71875,5 L 38,23 38,21 a 1.0001,1.0001 0 0 0 -1,-1 l -1,0 0,-5.90625 C 36,13.724343 35.954767,13.353662 35.875,13 Z M 18.90625,13.96875 A 1.0001,1.0001 0 0 0 18.8125,14 a 1.0001,1.0001 0 0 0 -0.75,1.375 c 0,0 0.34375,0.758333 0.34375,2.625 0,1.866667 -0.34375,2.625 -0.34375,2.625 a 1.0097184,1.0097184 0 0 0 1.875,0.75 c 0,0 0.46875,-1.241667 0.46875,-3.375 0,-2.133333 -0.46875,-3.375 -0.46875,-3.375 A 1.0001,1.0001 0 0 0 19,13.96875 a 1.0001,1.0001 0 0 0 -0.09375,0 z M 32,14 c -0.552285,0 -1,0.447715 -1,1 0,0.552285 0.447715,1 1,1 0.552285,0 1,-0.447715 1,-1 0,-0.552285 -0.447715,-1 -1,-1 z m -29.3125,2.71875 9.46875,7.875 C 12.315576,24.957138 13,26.685989 13,30 c 0,1.949994 -0.2323,3.359055 -0.46875,4.28125 L 2.25,25.71875 C 2.322344,25.544168 2.3957317,25.42481 2.46875,25.1875 2.7535104,24.262029 3,22.818801 3,20.6875 3,19.116648 2.8585402,17.79688 2.6875,16.71875 Z M 28,22 l 0.8125,0 0.40625,0 1.78125,0 0,3 a 1.0001,1.0001 0 1 0 2,0 l 0,-3 3,0 0,7 -0.78125,0 A 1.0001,1.0001 0 0 0 34.90625,28.96875 1.0001,1.0001 0 0 0 34.8125,29 l -5.625,0 a 1.0001,1.0001 0 0 0 -0.40625,0 L 28,29 28,22 Z M 14.34375,25 26,25 l 0,5 a 1.0001,1.0001 0 0 0 1,1 l 1,0 0,4 -13.65625,0 C 14.652202,33.914423 15,32.34222 15,30 15,27.65778 14.652202,26.085577 14.34375,25 Z M 38,25 47.28125,25 C 47.514694,25.599617 48,27.031938 48,30 c 0,2.968062 -0.485306,4.400383 -0.71875,5 L 36,35 l 0,-4 1,0 a 1.0001,1.0001 0 0 0 1,-1 l 0,-5 z M 18.90625,25.96875 A 1.0001,1.0001 0 0 0 18.8125,26 a 1.0001,1.0001 0 0 0 -0.75,1.375 c 0,0 0.34375,0.758333 0.34375,2.625 0,1.866667 -0.34375,2.625 -0.34375,2.625 a 1.0097184,1.0097184 0 0 0 1.875,0.75 c 0,0 0.46875,-1.241667 0.46875,-3.375 0,-2.133333 -0.46875,-3.375 -0.46875,-3.375 A 1.0001,1.0001 0 0 0 19,25.96875 a 1.0001,1.0001 0 0 0 -0.09375,0 z m -16.21875,2.75 9.5,7.90625 C 12.373992,37.064081 13,38.788156 13,42 c 0,1.975869 -0.229515,3.391766 -0.46875,4.3125 L 2.25,37.71875 C 2.322344,37.544168 2.3957317,37.42481 2.46875,37.1875 2.7535104,36.262029 3,34.818801 3,32.6875 3,31.116648 2.8585402,29.79688 2.6875,28.71875 Z M 30,31 l 4,0 0,14 c 0,0.922222 -0.320514,1.354088 -0.65625,1.65625 C 33.091948,46.882872 32.909593,46.96535 32.8125,47 L 29.5,47 C 29.781756,46.450391 30,45.789172 30,45 l 0,-14 z m 2,2 c -0.552285,0 -1,0.447715 -1,1 0,0.552285 0.447715,1 1,1 0.552285,0 1,-0.447715 1,-1 0,-0.552285 -0.447715,-1 -1,-1 z M 14.34375,37 28,37 l 0,8 c 0,0.922222 -0.320514,1.354088 -0.65625,1.65625 C 27.091948,46.882872 26.909593,46.96535 26.8125,47 L 14.34375,47 C 14.652202,45.914423 15,44.34222 15,42 15,39.65778 14.652202,38.085577 14.34375,37 Z M 36,37 47.28125,37 C 47.514694,37.599617 48,39.031938 48,42 c 0,2.968062 -0.485306,4.400383 -0.71875,5 L 35.5,47 C 35.781756,46.450391 36,45.789172 36,45 l 0,-8 z M 18.90625,37.96875 A 1.0001,1.0001 0 0 0 18.8125,38 a 1.0001,1.0001 0 0 0 -0.75,1.375 c 0,0 0.34375,0.758333 0.34375,2.625 0,1.866667 -0.34375,2.625 -0.34375,2.625 a 1.0097184,1.0097184 0 0 0 1.875,0.75 c 0,0 0.46875,-1.241667 0.46875,-3.375 0,-2.133333 -0.46875,-3.375 -0.46875,-3.375 A 1.0001,1.0001 0 0 0 19,37.96875 a 1.0001,1.0001 0 0 0 -0.09375,0 z M 32,38 c -0.552285,0 -1,0.447715 -1,1 0,0.552285 0.447715,1 1,1 0.552285,0 1,-0.447715 1,-1 0,-0.552285 -0.447715,-1 -1,-1 z"
       inkscape:connector-curvature="0" />
  </g>
</svg>
