<?xml version="1.0" encoding="UTF-8" standalone="no"?><svg xmlns="http://www.w3.org/2000/svg" enable-background="new 0 0 50 50" style="fill:#000000;fill-opacity:1.0" viewBox="0 0 50 50">
    <path color="#000" d="M 24.8125 6 A 2.0021961 2.0021961 0 1 0 25 10 C 33.321986 10 40 16.678014 40 25 C 40 33.321986 33.321986 40 25 40 C 16.678014 40 10 33.321986 10 25 C 10 21.072631 11.544923 17.514706 14 14.84375 L 14 19 A 2.0002 2.0002 0 1 0 18 19 L 18 10 L 18 8 L 16 8 L 7 8 A 2.0002 2.0002 0 0 0 6.8125 8 A 2.0021961 2.0021961 0 1 0 7 12 L 11.21875 12 C 8.0317805 15.389289 6 19.951151 6 25 C 6 35.478014 14.521986 44 25 44 C 35.478014 44 44 35.478014 44 25 C 44 14.521986 35.478014 6 25 6 A 2.0002 2.0002 0 0 0 24.8125 6 z" enable-background="accumulate" font-family="Bitstream Vera Sans" overflow="visible" style="text-indent:0;text-align:start;line-height:normal;text-transform:none;block-progression:tb;-inkscape-font-specification:Bitstream Vera Sans"/>
</svg>