<?xml version="1.0" encoding="UTF-8" standalone="no"?><svg xmlns="http://www.w3.org/2000/svg" height="50" style="fill:#000000;fill-opacity:1.0" viewBox="0 0 50 50" width="50">
    <path color="#000" d="M 29.84375 13.09375 A 1.0001 1.0001 0 0 0 29.34375 14.8125 L 38.53125 24 L 9 24 A 1.0001 1.0001 0 0 0 8.90625 24 A 1.001098 1.001098 0 0 0 9 26 L 38.53125 26 L 29.34375 35.1875 A 1.0001 1.0001 0 1 0 30.75 36.59375 L 41.65625 25.71875 L 42.34375 25 L 41.65625 24.28125 L 30.75 13.40625 A 1.0001 1.0001 0 0 0 29.9375 13.09375 A 1.0001 1.0001 0 0 0 29.84375 13.09375 z" enable-background="accumulate" font-family="Bitstream Vera Sans" overflow="visible" style="text-indent:0;text-align:start;line-height:normal;text-transform:none;block-progression:tb;-inkscape-font-specification:Bitstream Vera Sans"/>
</svg>