<?xml version="1.0" encoding="UTF-8" standalone="no"?><svg xmlns="http://www.w3.org/2000/svg" height="50" style="fill:#000000;fill-opacity:1.0" viewBox="0 0 50 50" width="50">
    <path color="#000" d="M 36.5 0 C 33.474937 0 31 2.4762563 31 5.5 C 31 8.5253085 33.474937 11 36.5 11 C 39.528976 11 42 8.5250402 42 5.5 C 42 2.4765248 39.528976 0 36.5 0 z M 36.5 2 C 38.449024 2 40 3.5574752 40 5.5 C 40 7.4449598 38.449024 9 36.5 9 C 34.557063 9 33 7.4446915 33 5.5 C 33 3.5577437 34.557063 2 36.5 2 z M 21.78125 6.9375 C 21.560723 6.9305972 21.339007 6.9588699 21.125 7 C 20.696985 7.08226 20.276447 7.250801 19.90625 7.5 A 1.0001 1.0001 0 0 0 19.84375 7.53125 L 13.375 12.5625 A 1.0001 1.0001 0 0 0 13.3125 12.59375 C 12.743143 13.08673 12.1576 13.65209 11.75 14.375 C 11.3424 15.09791 11.207097 16.183497 11.78125 17.03125 C 12.065485 17.454136 12.486127 17.660245 12.875 17.75 C 13.263873 17.83976 13.64551 17.82896 14 17.78125 C 14.695012 17.68771 15.334678 17.478491 15.875 17.15625 L 15.90625 17.125 L 22.375 13.71875 L 25.0625 14.28125 L 19.8125 22.03125 A 1.0001 1.0001 0 0 0 19.78125 22.09375 C 19.056047 23.349129 18.469637 24.562777 18.5 25.90625 C 18.500709 25.937615 18.498512 25.968657 18.5 26 L 14.6875 31.5 C 14.020635 31.54633 8.2482811 31.929348 5.96875 32.0625 C 4.9265285 32.12358 4.0133443 32.329261 3.28125 32.8125 C 2.5491557 33.295739 2.0625 34.181463 2.0625 35.09375 C 2.0625 35.957115 2.5342179 36.8514 3.34375 37.34375 C 4.1532821 37.8361 5.1785859 38.074055 6.59375 38.1875 C 8.8978468 38.37195 16.59375 38.84375 16.59375 38.84375 A 1.0001 1.0001 0 0 0 16.65625 38.84375 L 16.6875 38.84375 C 17.936874 38.84375 19.173434 38.160871 19.96875 37 L 23.65625 31.75 L 28.65625 35.03125 L 25.375 43.15625 C 24.665983 44.857368 24.334511 46.188601 24.34375 47.28125 C 24.35295 48.373899 24.816086 49.39898 25.71875 49.78125 C 26.471641 50.100093 27.53606 49.996879 28.4375 49.34375 C 29.33894 48.690621 30.215351 47.558576 31.21875 45.71875 L 36.6875 35.28125 A 1.0001 1.0001 0 0 0 36.71875 35.21875 C 37.448752 33.581694 36.883204 31.639556 35.40625 30.625 L 29.28125 26.4375 L 32.75 20.875 L 33.90625 23.59375 A 1.0001 1.0001 0 0 0 33.90625 23.625 C 34.3612 24.647233 35.260735 25.562604 36.5625 25.71875 A 1.0001 1.0001 0 0 0 36.6875 25.75 C 36.6875 25.75 42.189883 25.618722 43.78125 25.53125 C 44.616919 25.48597 45.497973 25.403058 46.3125 25.125 C 46.719764 24.985971 47.120524 24.790761 47.46875 24.46875 C 47.816976 24.146739 48.105546 23.635954 48.125 23.09375 C 48.16573 21.999769 47.445551 21.064813 46.65625 20.71875 C 45.877247 20.377202 45.084421 20.331629 44.375 20.28125 L 44.34375 20.28125 L 39.375 19.875 L 36.3125 12.90625 A 1.0001 1.0001 0 0 0 36.15625 12.65625 A 1.0001 1.0001 0 0 0 36.09375 12.5625 C 35.979223 12.371398 35.810677 12.177558 35.59375 12.03125 L 31.75 9.4375 C 31.722902 9.4142451 31.684331 9.3976199 31.65625 9.375 C 31.288099 9.0784414 30.862711 8.832102 30.34375 8.71875 L 22.4375 7.03125 C 22.221116 6.9864809 22.001777 6.9444028 21.78125 6.9375 z M 21.5 8.96875 C 21.658745 8.9361629 21.834423 8.9384975 22 8.96875 L 22.03125 8.96875 L 29.90625 10.6875 C 30.107705 10.7315 30.269865 10.824888 30.4375 10.96875 A 1.0001 1.0001 0 0 0 30.53125 11.03125 L 34.375 13.59375 C 34.39097 13.66062 34.39104 13.813932 34.375 14 C 34.34291 14.372136 34.156539 14.859177 34.125 14.90625 A 1.0001 1.0001 0 0 0 34.125 14.9375 L 27.09375 26.1875 A 1.0001 1.0001 0 0 0 27.375 27.53125 L 34.28125 32.28125 C 34.976296 32.758694 35.216998 33.639306 34.875 34.40625 L 29.4375 44.78125 C 28.511899 46.478424 27.74531 47.359879 27.25 47.71875 C 26.75469 48.077621 26.675109 48.011657 26.5 47.9375 C 26.47466 47.92677 26.349261 47.90185 26.34375 47.25 C 26.33825 46.598149 26.572767 45.456132 27.21875 43.90625 L 30.8125 35.03125 A 1.0001 1.0001 0 0 0 30.4375 33.84375 L 21.9375 28.21875 C 20.822318 27.268946 20.516137 26.589027 20.5 25.875 C 20.48424 25.177736 20.836692 24.264195 21.46875 23.15625 L 21.5 23.125 C 21.5065 23.11365 21.4934 23.10515 21.5 23.09375 L 27.53125 14.1875 A 1.0001 1.0001 0 0 0 26.90625 12.65625 L 22.40625 11.65625 A 1.0001 1.0001 0 0 0 21.75 11.75 L 14.9375 15.375 A 1.0001 1.0001 0 0 0 14.875 15.40625 C 14.613594 15.565099 14.094519 15.761924 13.71875 15.8125 C 13.577836 15.83147 13.511404 15.8194 13.4375 15.8125 C 13.36838 15.690551 13.33781 15.6314 13.5 15.34375 C 13.689055 15.008447 14.112735 14.545925 14.59375 14.125 C 14.60671 14.11366 14.61197 14.10504 14.625 14.09375 L 21.03125 9.15625 L 21.0625 9.15625 C 21.199444 9.0688459 21.341255 9.0013371 21.5 8.96875 z M 35.625 16.3125 L 37.78125 21.21875 A 1.0001 1.0001 0 0 0 38.625 21.8125 L 44.1875 22.28125 A 1.0001 1.0001 0 0 0 44.21875 22.28125 C 44.931173 22.3326 45.586051 22.435813 45.875 22.5625 C 46.148952 22.682612 46.13955 22.6145 46.125 23 C 46.07929 23.04227 45.927986 23.136654 45.6875 23.21875 C 45.206527 23.382942 44.407581 23.490535 43.65625 23.53125 C 42.259475 23.60803 37.051125 23.744752 36.8125 23.75 C 36.530265 23.71615 35.94305 23.246267 35.75 22.8125 L 34.0625 18.78125 L 35.625 16.3125 z M 19.34375 28.3125 C 19.684367 28.80914 20.11759 29.291222 20.65625 29.75 A 1.0001 1.0001 0 0 0 20.75 29.8125 L 22 30.625 L 18.34375 35.875 C 17.904095 36.524217 17.261891 36.833815 16.71875 36.84375 C 16.71875 36.84375 16.65685 36.843787 16.65625 36.84375 C 16.560595 36.83791 8.9540578 36.363942 6.75 36.1875 C 5.4831641 36.085945 4.7069679 35.85815 4.375 35.65625 C 4.0430321 35.45435 4.0625 35.436385 4.0625 35.09375 C 4.0625 34.800037 4.113844 34.693011 4.40625 34.5 C 4.6986557 34.306989 5.2759715 34.110424 6.09375 34.0625 C 8.54551 33.919287 15.3125 33.4375 15.3125 33.4375 A 1.0001 1.0001 0 0 0 16.09375 33.03125 L 19.34375 28.3125 z" enable-background="accumulate" font-family="Bitstream Vera Sans" overflow="visible" style="text-indent:0;text-align:start;line-height:normal;text-transform:none;block-progression:tb;-inkscape-font-specification:Bitstream Vera Sans"/>
</svg>