<?xml version="1.0" encoding="UTF-8" standalone="no"?><svg xmlns="http://www.w3.org/2000/svg" style="fill:#000000;fill-opacity:1.0" viewBox="0 0 50 50">
    <path color="#000" d="M 5 2 C 3.3550302 2 2 3.3550302 2 5 L 2 45 C 2 46.64497 3.3550302 48 5 48 L 45 48 C 46.64497 48 48 46.64497 48 45 L 48 12 A 1.0001 1.0001 0 0 0 47.71875 11.28125 L 38.71875 2.28125 A 1.0001 1.0001 0 0 0 38 2 L 5 2 z M 5 4 L 10 4 L 10 19 C 10 20.093063 10.906937 21 12 21 L 35 21 C 36.093063 21 37 20.093063 37 19 L 37 4 L 37.5625 4 L 46 12.4375 L 46 45 C 46 45.56503 45.56503 46 45 46 L 40 46 L 40 28.8125 C 40 27.277269 38.722731 26 37.1875 26 L 12.8125 26 C 11.277269 26 10 27.277269 10 28.8125 L 10 46 L 5 46 C 4.4349698 46 4 45.56503 4 45 L 4 5 C 4 4.4349698 4.4349698 4 5 4 z M 12 4 L 35 4 L 35 19 L 12 19 L 12 4 z M 28.8125 6 A 1.0001 1.0001 0 0 0 28 7 L 28 16 A 1.0001 1.0001 0 0 0 29 17 L 32 17 A 1.0001 1.0001 0 0 0 33 16 L 33 7 A 1.0001 1.0001 0 0 0 32 6 L 29 6 A 1.0001 1.0001 0 0 0 28.90625 6 A 1.0001 1.0001 0 0 0 28.8125 6 z M 30 8 L 31 8 L 31 15 L 30 15 L 30 8 z M 12.8125 28 L 37.1875 28 C 37.634269 28 38 28.365731 38 28.8125 L 38 46 L 12 46 L 12 28.8125 C 12 28.365731 12.365731 28 12.8125 28 z M 6 41 L 6 43 L 8 43 L 8 41 L 6 41 z M 42 41 L 42 43 L 44 43 L 44 41 L 42 41 z" font-family="Bitstream Vera Sans" overflow="visible" style="text-indent:0;text-align:start;line-height:normal;text-transform:none;block-progression:tb;-inkscape-font-specification:Bitstream Vera Sans"/>
</svg>