<?xml version="1.0" encoding="UTF-8" standalone="no"?><svg xmlns="http://www.w3.org/2000/svg" enable-background="new 0 0 50 50" style="fill:#000000;fill-opacity:1.0" version="1" viewBox="0 0 50 50">
    <path d="M 0 0 L 0 1 L 0 9 L 2 9 L 2 2 L 9 2 L 9 0 L 1 0 L 0 0 z M 13 0 L 13 2 L 23 2 L 23 0 L 13 0 z M 27 0 L 27 2 L 37 2 L 37 0 L 27 0 z M 41 0 L 41 2 L 48 2 L 48 9 L 50 9 L 50 1 L 50 0 L 49 0 L 41 0 z M 11 12 L 11 14 L 39 14 L 39 12 L 11 12 z M 0 13 L 0 23 L 2 23 L 2 13 L 0 13 z M 48 13 L 48 23 L 50 23 L 50 13 L 48 13 z M 11 20 L 11 22 L 35 22 L 35 20 L 11 20 z M 0 27 L 0 37 L 2 37 L 2 27 L 0 27 z M 48 27 L 48 37 L 50 37 L 50 27 L 48 27 z M 11 28 L 11 30 L 39 30 L 39 28 L 11 28 z M 11 36 L 11 38 L 35 38 L 35 36 L 11 36 z M 0 41 L 0 49 L 0 50 L 1 50 L 9 50 L 9 48 L 2 48 L 2 41 L 0 41 z M 48 41 L 48 48 L 41 48 L 41 50 L 49 50 L 50 50 L 50 49 L 50 41 L 48 41 z M 13 48 L 13 50 L 23 50 L 23 48 L 13 48 z M 27 48 L 27 50 L 37 50 L 37 48 L 27 48 z" style="text-indent:0;text-align:start;line-height:normal;text-transform:none;block-progression:tb;-inkscape-font-specification:Bitstream Vera Sans"/>
</svg>