<?xml version="1.0" encoding="UTF-8" standalone="no"?><svg xmlns="http://www.w3.org/2000/svg" enable-background="new 0 0 50 50" style="fill:#000000;fill-opacity:1.0" viewBox="0 0 50 50">
    <path color="#000" d="M 14 0 C 13.014286 0 12.188031 0.4994691 11.59375 1.09375 A 1.0001 1.0001 0 0 0 11.53125 1.15625 L 9.6875 3.4375 C 9.6424688 3.4742742 9.6038814 3.5211186 9.5625 3.5625 C 9.4178115 3.7071885 9.3073603 3.8803437 9.21875 4.0625 A 1.0001 1.0001 0 0 0 9.15625 4.1875 C 9.1509117 4.200761 9.1300619 4.2053791 9.125 4.21875 A 1.0001 1.0001 0 0 0 9.125 4.28125 C 9.0456455 4.5113464 9 4.7593682 9 5 L 9 48 C 9 48.522222 9.1854695 49.060469 9.5625 49.4375 C 9.9395305 49.814531 10.477778 50 11 50 L 39 50 C 39.522222 50 40.060469 49.814531 40.4375 49.4375 C 40.814531 49.060469 41 48.522222 41 48 L 41 5 C 41 4.5287263 40.837819 4.0546126 40.53125 3.6875 A 1.0001 1.0001 0 0 0 40.5 3.625 C 40.490231 3.6141838 40.478807 3.6043344 40.46875 3.59375 A 1.0001 1.0001 0 0 0 40.375 3.46875 L 38.40625 1.09375 C 38.40115 1.08697 38.38013 1.10047 38.375 1.09375 C 38.3708 1.08829 38.3792 1.067917 38.375 1.0625 C 37.83465 0.36619591 37.011162 0 36.09375 0 L 14 0 z M 14 2 L 36.09375 2 C 36.360417 2 36.7525 2.2325 36.8125 2.3125 A 1.0001 1.0001 0 0 0 36.84375 2.34375 L 37.375 3 L 12.59375 3 L 13 2.5 L 13.03125 2.5 C 13.415765 2.1191364 13.596071 2 14 2 z M 11 5 L 39 5 L 39 48 L 11 48 L 11 5 z M 16 9 C 15.477778 9 14.939531 9.1854695 14.5625 9.5625 C 14.185469 9.9395305 14 10.477778 14 11 L 14 16 C 14 16.345099 14.086255 16.692053 14.25 17 C 14.086255 17.307947 14 17.654901 14 18 L 14 23 C 14 23.522222 14.185469 24.060469 14.5625 24.4375 C 14.939531 24.814531 15.477778 25 16 25 L 34 25 C 34.522222 25 35.060469 24.814531 35.4375 24.4375 C 35.814531 24.060469 36 23.522222 36 23 L 36 18 C 36 17.654901 35.913745 17.307947 35.75 17 C 35.913745 16.692053 36 16.345099 36 16 L 36 11 C 36 10.477778 35.814531 9.9395305 35.4375 9.5625 C 35.060469 9.1854695 34.522222 9 34 9 L 16 9 z M 16 11 L 34 11 L 34 16 L 16 16 L 16 11 z M 16 18 L 34 18 L 34 23 L 16 23 L 16 18 z M 25 32 C 23.9 32 23 32.9 23 34 C 23 35.1 23.9 36 25 36 C 26.1 36 27 35.1 27 34 C 27 32.9 26.1 32 25 32 z M 25 39 C 23.9 39 23 39.9 23 41 C 23 42.1 23.9 43 25 43 C 26.1 43 27 42.1 27 41 C 27 39.9 26.1 39 25 39 z" enable-background="accumulate" font-family="Bitstream Vera Sans" overflow="visible" style="text-indent:0;text-align:start;line-height:normal;text-transform:none;block-progression:tb;-inkscape-font-specification:Bitstream Vera Sans"/>
</svg>