<?xml version="1.0" encoding="UTF-8" standalone="no"?><svg xmlns="http://www.w3.org/2000/svg" enable-background="new 0 0 50 50" style="fill:#000000;fill-opacity:1.0" viewBox="0 0 50 50">
    <path color="#000" d="M 26.5 3 C 20.546366 3 15.481383 6.8723442 13.6875 12.25 L 5.71875 4.28125 A 1.0001 1.0001 0 0 0 4.78125 4 A 1.0001 1.0001 0 0 0 4.28125 5.71875 L 13.4375 14.84375 A 1.002073 1.002073 0 0 0 13.5 14.90625 L 17.4375 18.8125 A 1.0001 1.0001 0 0 0 17.90625 19.3125 L 31.40625 32.8125 A 1.0031688 1.0031688 0 0 0 31.625 33.03125 L 44.28125 45.71875 A 1.016466 1.016466 0 1 0 45.71875 44.28125 L 33.5625 32.125 C 35.315902 29.96882 36.854589 28.304604 38 26.21875 C 39.274885 23.897117 40 21.051124 40 16.5 C 40 9.0589372 33.941063 3 26.5 3 z M 26.5 5 C 32.858937 5 38 10.141063 38 16.5 C 38 20.848876 37.350115 23.246633 36.25 25.25 C 35.294552 26.98992 33.836538 28.588504 32.125 30.6875 L 19.59375 18.15625 C 19.806713 17.680853 20 17.157143 20 16.5 C 20 12.952846 22.952846 10 26.5 10 C 30.047154 10 33 12.952846 33 16.5 A 1.0001 1.0001 0 1 0 35 16.5 C 35 11.847154 31.152846 8 26.5 8 C 21.847154 8 18 11.847154 18 16.5 C 18 16.520509 18.000968 16.541927 18 16.5625 L 15.3125 13.875 C 16.513465 8.789321 21.057617 5 26.5 5 z M 15.5 20.5 C 15.104771 20.895229 14.883677 21.431327 14.875 21.9375 C 14.8663 22.443673 15.024133 22.89276 15.25 23.28125 C 15.701733 24.058231 16.412456 24.647902 17.28125 24.9375 L 17.28125 24.90625 C 17.670098 25.088893 18.106739 25.319461 18.4375 25.59375 C 18.820486 25.911348 19 26.180952 19 26.5 C 19 26.647619 18.998 26.669901 18.9375 26.75 C 18.87702 26.8301 18.718598 26.956491 18.5 27.09375 C 18.062804 27.368268 17.333919 27.634831 16.6875 28.28125 C 15.682743 29.286007 15 30.522222 15 32 C 15 34.745455 17.254545 37 20 37 A 1.0001 1.0001 0 1 0 20 35 C 18.345455 35 17 33.654545 17 32 C 17 31.077778 17.298507 30.513993 18.09375 29.71875 C 18.347331 29.465169 18.924696 29.181732 19.5625 28.78125 C 19.881402 28.581009 20.244858 28.348026 20.53125 27.96875 C 20.817642 27.589474 21 27.052381 21 26.5 C 21 25.419048 20.360764 24.594902 19.71875 24.0625 C 19.076736 23.530098 18.381372 23.211165 17.90625 23 A 1.0001 1.0001 0 0 0 17.65625 22.9375 C 17.644727 22.930431 17.636535 22.913673 17.625 22.90625 C 17.366626 22.739966 17.093147 22.495212 16.96875 22.28125 C 16.88212 22.13224 16.8743 22.009452 16.875 21.96875 C 16.875698 21.92805 16.85148 21.96105 16.90625 21.90625 L 15.5 20.5 z M 29.40625 34.40625 C 28.785279 35.027221 28.207796 36.000056 27.46875 37.3125 C 26.731803 38.621216 25.925832 40.192506 25.21875 41.65625 C 24.202604 43.688541 21.942857 45 19.5 45 C 15.952846 45 13 42.047154 13 38.5 A 1.0001 1.0001 0 0 0 11.78125 37.5 A 1.0001 1.0001 0 0 0 11 38.5 C 11 43.152846 14.847154 47 19.5 47 C 22.657143 47 25.616146 45.330209 27 42.5625 A 1.0001 1.0001 0 0 0 27 42.53125 C 27.00988 42.510784 27.021332 42.489252 27.03125 42.46875 A 1.0001 1.0001 0 0 0 27.09375 42.34375 C 27.763086 40.965675 28.507015 39.520946 29.1875 38.3125 C 29.898454 37.049944 30.633471 35.991529 30.8125 35.8125 L 29.40625 34.40625 z" enable-background="accumulate" font-family="Bitstream Vera Sans" overflow="visible" style="text-indent:0;text-align:start;line-height:normal;text-transform:none;block-progression:tb;-inkscape-font-specification:Bitstream Vera Sans"/>
</svg>