<?xml version="1.0" encoding="UTF-8" standalone="no"?><svg xmlns="http://www.w3.org/2000/svg" style="fill:#000000;fill-opacity:1.0" viewBox="0 0 50 50">
    <path color="#000" d="M 3 8.15625 L 3 10 L 3 40 L 3 41.84375 L 4.53125 40.84375 L 24 28.15625 L 24 40 L 24 41.84375 L 25.53125 40.84375 L 48.53125 25.84375 L 49.84375 25 L 48.53125 24.15625 L 25.53125 9.15625 L 24 8.15625 L 24 10 L 24 21.84375 L 4.53125 9.15625 L 3 8.15625 z M 5 11.84375 L 24.46875 24.53125 L 25.1875 25 L 24.46875 25.46875 L 5 38.15625 L 5 11.84375 z M 26 11.84375 L 46.1875 25 L 26 38.15625 L 26 26.3125 L 26 25.53125 L 26 24.46875 L 26 23.6875 L 26 11.84375 z" font-family="Bitstream Vera Sans" overflow="visible" style="text-indent:0;text-align:start;line-height:normal;text-transform:none;block-progression:tb;-inkscape-font-specification:Bitstream Vera Sans"/>
</svg>