<?xml version="1.0" encoding="UTF-8" standalone="no"?><svg xmlns="http://www.w3.org/2000/svg" height="50" style="fill:#000000;fill-opacity:1.0" viewBox="0 0 50 50" width="50">
    <path d="M 24.90625 2.96875 A 1.0001 1.0001 0 0 0 24.78125 3 A 1.0001 1.0001 0 0 0 24.75 3 C 20.391884 3.0430831 16.303218 4.2158081 12.75 6.21875 A 1.0001 1.0001 0 0 0 12.28125 6.5 C 8.6691228 8.6407478 5.6445408 11.640386 3.5 15.25 A 1.0001 1.0001 0 0 0 3.21875 15.78125 C 1.2624673 19.260512 0.084118666 23.245589 0 27.5 A 1.0043849 1.0043849 0 0 0 0.03125 28.5 C 0.11725936 32.805498 1.2811976 36.838101 3.28125 40.34375 A 1.0077822 1.0077822 0 0 0 3.5 40.71875 C 3.7316417 41.108982 3.9670966 41.498754 4.21875 41.875 A 1.0001 1.0001 0 1 0 5.875 40.78125 C 5.7821621 40.642448 5.7148951 40.484671 5.625 40.34375 L 7.3125 39.375 A 1.0001 1.0001 0 0 0 6.75 37.46875 A 1.0001 1.0001 0 0 0 6.65625 37.5 A 1.0001 1.0001 0 0 0 6.3125 37.625 L 4.59375 38.625 C 3.083041 35.728902 2.1808149 32.461431 2.03125 29 L 4 29 A 1.0001 1.0001 0 1 0 4 27 L 2.03125 27 C 2.1787052 23.533004 3.0825462 20.275922 4.59375 17.375 L 6.3125 18.375 A 1.0077822 1.0077822 0 0 0 7.3125 16.625 L 5.59375 15.625 C 7.396882 12.79807 9.7980696 10.396882 12.625 8.59375 L 13.625 10.3125 A 1.0077822 1.0077822 0 0 0 15.375 9.3125 L 14.375 7.59375 C 17.275922 6.0825462 20.533004 5.1787052 24 5.03125 L 24 7 A 1.0001 1.0001 0 1 0 26 7 L 26 5.03125 C 29.46446 5.1785928 32.726785 6.0844809 35.625 7.59375 L 34.625 9.3125 A 1.0077822 1.0077822 0 0 0 36.375 10.3125 L 37.375 8.59375 C 40.196506 10.39748 42.607212 12.799777 44.40625 15.625 L 42.6875 16.625 A 1.0077822 1.0077822 0 0 0 43.6875 18.375 L 45.40625 17.375 C 46.913107 20.273297 47.821469 23.537095 47.96875 27 L 46 27 A 1.0001 1.0001 0 0 0 45.90625 27 A 1.001098 1.001098 0 0 0 46 29 L 47.96875 29 C 47.819472 32.462312 46.915488 35.725613 45.40625 38.625 L 43.6875 37.625 A 1.0001 1.0001 0 0 0 43 37.5 A 1.0001 1.0001 0 0 0 42.6875 39.375 L 44.375 40.34375 C 44.285346 40.48432 44.217624 40.642786 44.125 40.78125 A 1.001098 1.001098 0 0 0 45.78125 41.90625 C 46.038739 41.521328 46.263513 41.11867 46.5 40.71875 A 1.0077822 1.0077822 0 0 0 46.71875 40.40625 C 48.775766 36.803098 49.966925 32.621531 50 28.1875 A 1.0001 1.0001 0 0 0 50 28 C 50 27.957941 50.000208 27.91701 50 27.875 A 1.0001 1.0001 0 0 0 50 27.75 C 49.957715 23.472629 48.84147 19.444658 46.90625 15.9375 A 1.0001 1.0001 0 0 0 46.4375 15.09375 C 44.306259 11.563863 41.325668 8.6094164 37.78125 6.5 A 1.0001 1.0001 0 0 0 37.34375 6.25 C 33.762023 4.2125234 29.623514 3.037876 25.21875 3 A 1.0001 1.0001 0 0 0 24.90625 2.96875 z M 40.71875 18.6875 L 27.71875 23.8125 C 26.932277 23.295855 26.006355 23 25 23 C 22.248671 23 20 25.251843 20 28 C 20 30.748157 22.248671 33 25 33 C 27.751329 33 30 30.748157 30 28 C 30 27.989304 30.000068 27.979431 30 27.96875 L 40.9375 19.0625 L 40.71875 18.6875 z M 25 25 C 26.670973 25 28 26.330912 28 28 C 28 29.667843 26.670671 31 25 31 C 23.329329 31 22 29.667843 22 28 C 22 26.332157 23.329329 25 25 25 z M 14.8125 40 A 1.0001 1.0001 0 0 0 14 41 L 14 45 A 1.0001 1.0001 0 0 0 15 46 L 35 46 A 1.0001 1.0001 0 0 0 36 45 L 36 41 A 1.0001 1.0001 0 0 0 35 40 L 15 40 A 1.0001 1.0001 0 0 0 14.90625 40 A 1.0001 1.0001 0 0 0 14.8125 40 z M 16 42 L 34 42 L 34 44 L 16 44 L 16 42 z"/>
</svg>