<?xml version="1.0" encoding="UTF-8" standalone="no"?><svg xmlns="http://www.w3.org/2000/svg" enable-background="new 0 0 50 50" style="fill:#000000;fill-opacity:1.0" version="1" viewBox="0 0 50 50">
    <path d="M 20 0 L 20 24 L 3.9375 24 L 10.71875 17.21875 A 1.0001 1.0001 0 0 0 9.875 15.5 A 1.0001 1.0001 0 0 0 9.28125 15.78125 L 0.78125 24.28125 L 0.09375 25 L 0.78125 25.71875 L 9.28125 34.21875 A 1.016466 1.016466 0 1 0 10.71875 32.78125 L 3.9375 26 L 20 26 L 20 50 L 22 50 L 22 25.1875 A 1.0001 1.0001 0 0 0 22 24.78125 L 22 0 L 20 0 z M 28 0 L 28 24.6875 A 1.001098 1.001098 0 0 0 28 25.28125 L 28 50 L 30 50 L 30 26 L 46.0625 26 L 39.28125 32.78125 A 1.016466 1.016466 0 1 0 40.71875 34.21875 L 49.21875 25.71875 L 49.90625 25 L 49.21875 24.28125 L 40.71875 15.78125 A 1.0001 1.0001 0 0 0 39.90625 15.46875 A 1.0001 1.0001 0 0 0 39.78125 15.5 A 1.0001 1.0001 0 0 0 39.28125 17.21875 L 46.0625 24 L 30 24 L 30 0 L 28 0 z" style="text-indent:0;text-align:start;line-height:normal;text-transform:none;block-progression:tb;-inkscape-font-specification:Bitstream Vera Sans"/>
</svg>