<?xml version="1.0" encoding="UTF-8" standalone="no"?><svg xmlns="http://www.w3.org/2000/svg" height="50" style="fill:#000000;fill-opacity:0.60784316" viewBox="0 0 50 50" width="50">
    <path color="#000" d="M 10 0.625 L 8.59375 2.03125 L 1.59375 9.03125 A 2.0002 2.0002 0 1 0 4.40625 11.84375 L 8 8.25 L 8 14 C 8 22.70376 14.557669 29.887819 23 30.875 L 23 50 L 27 50 L 27 30.8125 C 35.429803 29.813594 42 22.694814 42 14 L 42 8.25 L 45.59375 11.84375 A 2.0002 2.0002 0 1 0 48.40625 9.03125 L 41.40625 2.03125 L 40 0.625 L 38.59375 2.03125 L 31.59375 9.03125 A 2.0002 2.0002 0 1 0 34.40625 11.84375 L 38 8.25 L 38 14 C 38 21.223695 32.223695 27 25 27 C 17.776305 27 12 21.223695 12 14 L 12 8.25 L 15.59375 11.84375 A 2.0002 2.0002 0 1 0 18.40625 9.03125 L 11.40625 2.03125 L 10 0.625 z" enable-background="accumulate" font-family="Bitstream Vera Sans" overflow="visible" style="text-indent:0;text-align:start;line-height:normal;text-transform:none;block-progression:tb;-inkscape-font-specification:Bitstream Vera Sans"/>
</svg>