<?xml version="1.0" encoding="UTF-8" standalone="no"?><svg xmlns="http://www.w3.org/2000/svg" height="50" style="fill:#000000;fill-opacity:1.0" viewBox="0 0 50 50" width="50">
    <path color="#000" d="M 25 0 C 11.204726 0 0 11.204726 0 25 C 0 38.795274 11.204726 50 25 50 C 38.795274 50 50 38.795274 50 25 C 50 11.204726 38.795274 0 25 0 z M 25 2 C 37.714394 2 48 12.285606 48 25 C 48 37.714394 37.714394 48 25 48 C 12.285606 48 2 37.714394 2 25 C 2 12.285606 12.285606 2 25 2 z M 25.5 5 C 23.948955 5 22.639871 6.0580547 22.1875 7.46875 C 21.680154 7.1806778 21.119206 7 20.5 7 C 18.680821 7 17.181987 8.4352252 17.03125 10.21875 A 1.0001 1.0001 0 0 0 17.03125 10.28125 C 17.030548 10.291893 17.031854 10.301833 17.03125 10.3125 A 1.0001 1.0001 0 0 0 17 10.34375 A 1.0001 1.0001 0 0 0 17 10.375 A 1.0001 1.0001 0 0 0 17 10.4375 A 1.0001 1.0001 0 0 0 17 10.46875 A 1.0001 1.0001 0 0 0 17 10.5 A 1.0001 1.0001 0 0 0 17 10.53125 A 1 1 0 0 0 17 10.59375 L 17 11.375 C 16.538179 11.14845 16.04434 11 15.5 11 C 13.648406 11 12.134743 12.48452 12.03125 14.3125 A 1.0001 1.0001 0 0 0 12 14.46875 C 11.9999 14.479534 12 14.489195 12 14.5 A 1.0001 1.0001 0 0 0 12 14.53125 A 1 1 0 0 0 12 14.59375 L 12 31.59375 C 12 32.798135 12.173005 35.550303 13.6875 38.125 C 15.201995 40.699697 18.200811 43 23.21875 43 C 26.429397 43 28.689484 42.467169 30.4375 41.5 C 32.185516 40.532831 33.344905 39.156983 34.40625 37.71875 C 36.562189 34.798654 40.004896 28.049189 40.09375 27.875 C 40.09485 27.8727 40.15625 27.78125 40.15625 27.78125 L 40.125 27.78125 C 41.132893 26.117481 40.744269 23.93174 39.125 22.90625 C 37.461338 21.879157 35.273335 22.480694 34.1875 24.15625 A 1.0001 1.0001 0 0 0 34.15625 24.1875 L 34 24.4375 L 34 11.65625 A 1 1 0 0 0 34 11.5 C 34 11.467585 34.000899 11.438468 34 11.40625 A 1.0001 1.0001 0 0 0 34 11.3125 C 33.998756 11.290191 33.97042 11.272202 33.96875 11.25 A 1.0001 1.0001 0 0 0 33.96875 11.21875 C 33.818013 9.4352252 32.319179 8 30.5 8 C 29.95566 8 29.461821 8.1484497 29 8.375 A 1.0001 1.0001 0 0 0 29 8.3125 C 28.998756 8.2901912 28.97042 8.2722021 28.96875 8.25 A 1.0001 1.0001 0 0 0 28.96875 8.21875 C 28.818013 6.4352252 27.319179 5 25.5 5 z M 25.5 7 C 26.323687 7 26.968636 7.6232251 27 8.4375 C 27.000796 8.4581669 27 8.4790942 27 8.5 A 1 1 0 0 0 27 8.59375 L 27 11.5 A 1 1 0 0 0 27 11.59375 L 27 11.84375 A 1.0001 1.0001 0 0 0 27 12 L 27 23 A 1.0001 1.0001 0 0 0 29 23 L 29 12 A 1.0001 1.0001 0 0 0 29 11.90625 L 29 11.65625 A 1 1 0 0 0 29 11.5 C 29 10.655407 29.655407 10 30.5 10 C 31.344593 10 32 10.655407 32 11.5 A 1 1 0 0 0 32 11.59375 L 32 28 A 1.0001 1.0001 0 0 0 33.84375 28.53125 L 35.84375 25.25 C 35.85265 25.23625 35.86582 25.23217 35.875 25.21875 C 36.419914 24.421749 37.411133 24.191616 38.0625 24.59375 C 38.733107 25.018448 38.938799 25.952619 38.40625 26.78125 A 1.0001 1.0001 0 0 0 38.375 26.875 C 38.375 26.875 34.702671 33.971122 32.8125 36.53125 C 31.806845 37.894017 30.854234 38.983419 29.46875 39.75 C 28.083266 40.516581 26.207103 41 23.21875 41 C 18.780689 41 16.631255 39.176303 15.40625 37.09375 C 14.181245 35.011197 14 32.568365 14 31.59375 L 14 14.65625 A 1 1 0 0 0 14 14.53125 A 1.0001 1.0001 0 0 0 14 14.4375 C 14.031364 13.623225 14.676313 13 15.5 13 C 16.344593 13 17 13.655407 17 14.5 A 1 1 0 0 0 17 14.59375 L 17 23 A 1.0001 1.0001 0 0 0 19 23 L 19 14.65625 A 1 1 0 0 0 19 14.5 L 19 10.65625 A 1 1 0 0 0 19 10.53125 A 1.0001 1.0001 0 0 0 19 10.4375 C 19.031364 9.6232251 19.676313 9 20.5 9 C 21.344593 9 22 9.6554069 22 10.5 A 1 1 0 0 0 22 10.59375 L 22 10.84375 A 1.0001 1.0001 0 0 0 22 11 L 22 22 A 1.0001 1.0001 0 0 0 24 22 L 24 11 A 1.0001 1.0001 0 0 0 24 10.90625 L 24 10.65625 A 1 1 0 0 0 24 10.5 L 24 8.65625 A 1 1 0 0 0 24 8.5 A 1.0001 1.0001 0 0 0 24 8.40625 C 24.046243 7.6071613 24.686766 7 25.5 7 z" enable-background="accumulate" font-family="Bitstream Vera Sans" overflow="visible" style="text-indent:0;text-align:start;line-height:normal;text-transform:none;block-progression:tb;-inkscape-font-specification:Bitstream Vera Sans"/>
</svg>