<?xml version="1.0" encoding="UTF-8" standalone="no"?><svg xmlns="http://www.w3.org/2000/svg" enable-background="new 0 0 50 50" style="fill:#000000;fill-opacity:1.0" viewBox="0 0 50 50">
    <path color="#000" d="M 15.09375 2 C 13.238194 2 11.507681 2.9857359 10.625 4.625 L 0.625 22.40625 A 1.0001 1.0001 0 0 0 0.625 22.4375 C -0.23738281 24.039068 -0.23738281 25.960932 0.625 27.5625 A 1.0001 1.0001 0 0 0 0.625 27.59375 L 10.625 45.375 C 11.507681 47.014264 13.238194 48 15.09375 48 L 35 48 C 36.855556 48 38.586069 47.014264 39.46875 45.375 L 49.46875 27.59375 A 1.0001 1.0001 0 0 0 49.46875 27.5625 C 50.331133 25.960932 50.331133 24.039068 49.46875 22.4375 A 1.0001 1.0001 0 0 0 49.46875 22.40625 L 39.46875 4.625 A 1.0001 1.0001 0 0 0 39.4375 4.5625 C 38.480046 3.006637 36.855556 2 35 2 L 15.09375 2 z M 15.09375 4 L 35 4 C 36.129584 4 37.076398 4.5750882 37.71875 5.59375 C 37.72725 5.607151 37.74166 5.611442 37.75 5.625 L 47.71875 23.375 C 48.256367 24.373432 48.256367 25.626568 47.71875 26.625 L 37.71875 44.40625 A 1.0001 1.0001 0 0 0 37.71875 44.4375 C 37.201431 45.398236 36.144444 46 35 46 L 15.09375 46 C 13.949306 46 12.892319 45.398236 12.375 44.4375 A 1.0001 1.0001 0 0 0 12.375 44.40625 L 2.375 26.625 C 1.8373828 25.626568 1.8373828 24.373432 2.375 23.375 L 12.375 5.59375 A 1.0001 1.0001 0 0 0 12.375 5.5625 C 12.892319 4.6017641 13.949306 4 15.09375 4 z M 10.8125 19.6875 C 8.0125 19.6875 7.1875 21.49375 7.1875 22.59375 C 7.1875 26.39375 13.09375 24.5875 13.09375 27.1875 C 13.09375 27.3875 13 28.6875 11 28.6875 C 8.5 28.6875 8.5 26.99375 8.5 26.59375 L 8.5 26.5 L 6.8125 26.5 C 6.8125 27.1 7.00625 30.09375 10.90625 30.09375 C 11.40625 30.09375 14.8125 30 14.8125 27 C 14.8125 23.2 8.90625 24.70625 8.90625 22.40625 C 8.90625 22.10625 8.9875 21.09375 10.6875 21.09375 C 11.6875 21.09375 12.8125 21.60625 12.8125 22.90625 L 14.5 22.90625 C 14.5 21.90625 14.0125 19.6875 10.8125 19.6875 z M 29 19.6875 C 26.7 19.6875 24.3125 21.40625 24.3125 24.90625 C 24.3125 26.80625 25.4 30.09375 29 30.09375 C 31.2 30.09375 33.6875 28.60625 33.6875 24.90625 C 33.6875 22.60625 32.4 19.6875 29 19.6875 z M 15.6875 19.90625 L 15.6875 21.40625 L 18.8125 21.40625 L 18.8125 29.90625 L 20.5 29.90625 L 20.5 21.40625 L 23.59375 21.40625 L 23.59375 19.90625 L 15.6875 19.90625 z M 35.59375 19.90625 L 35.59375 29.90625 L 37.3125 29.90625 L 37.3125 26.09375 L 39.90625 26.09375 C 41.80625 26.09375 43.1875 25.1 43.1875 23 C 43.1875 20 40.60625 19.90625 39.90625 19.90625 L 35.59375 19.90625 z M 29 21.09375 C 30.5 21.09375 32 22.30625 32 24.90625 C 32 27.50625 30.6 28.6875 29 28.6875 C 27.5 28.6875 26 27.70625 26 24.90625 C 26 22.40625 27.3 21.09375 29 21.09375 z M 37.3125 21.3125 L 39.8125 21.3125 C 40.0125 21.3125 41.5 21.3 41.5 23 C 41.5 24.7 40.0125 24.6875 39.8125 24.6875 L 37.3125 24.6875 L 37.3125 21.3125 z" enable-background="accumulate" font-family="Bitstream Vera Sans" overflow="visible" style="text-indent:0;text-align:start;line-height:normal;text-transform:none;block-progression:tb;-inkscape-font-specification:Bitstream Vera Sans"/>
</svg>