<?xml version="1.0" encoding="UTF-8" standalone="no"?>
<svg
   xmlns:dc="http://purl.org/dc/elements/1.1/"
   xmlns:cc="http://creativecommons.org/ns#"
   xmlns:rdf="http://www.w3.org/1999/02/22-rdf-syntax-ns#"
   xmlns:svg="http://www.w3.org/2000/svg"
   xmlns="http://www.w3.org/2000/svg"
   xmlns:sodipodi="http://sodipodi.sourceforge.net/DTD/sodipodi-0.dtd"
   xmlns:inkscape="http://www.inkscape.org/namespaces/inkscape"
   style="fill:#000000;fill-opacity:1.0"
   viewBox="0 0 50 50"
   id="svg2"
   version="1.1"
   inkscape:version="0.91 r13725"
   sodipodi:docname="stop_conditional.svg">
  <metadata
     id="metadata10">
    <rdf:RDF>
      <cc:Work
         rdf:about="">
        <dc:format>image/svg+xml</dc:format>
        <dc:type
           rdf:resource="http://purl.org/dc/dcmitype/StillImage" />
      </cc:Work>
    </rdf:RDF>
  </metadata>
  <defs
     id="defs8" />
  <sodipodi:namedview
     pagecolor="#ffffff"
     bordercolor="#666666"
     borderopacity="1"
     objecttolerance="10"
     gridtolerance="10"
     guidetolerance="10"
     inkscape:pageopacity="0"
     inkscape:pageshadow="2"
     inkscape:window-width="1920"
     inkscape:window-height="1017"
     id="namedview6"
     showgrid="false"
     inkscape:zoom="6.675088"
     inkscape:cx="71.70957"
     inkscape:cy="-3.3114035"
     inkscape:window-x="-8"
     inkscape:window-y="-8"
     inkscape:window-maximized="1"
     inkscape:current-layer="g4181" />
  <path
     color="#000"
     d="M 8 8 L 8 9 L 8 41 L 8 42 L 9 42 L 41 42 L 42 42 L 42 41 L 42 9 L 42 8 L 41 8 L 9 8 L 8 8 z M 10 10 L 40 10 L 40 40 L 10 40 L 10 10 z"
     font-family="Bitstream Vera Sans"
     overflow="visible"
     style="text-indent:0;text-align:start;line-height:normal;text-transform:none;block-progression:tb;-inkscape-font-specification:Bitstream Vera Sans"
     id="path4" />
  <g
     id="g4181"
     transform="translate(-43.29531,-11.685239)">
    <circle
       r="16.554089"
       cy="43.713116"
       cx="75.439987"
       id="path4179"
       style="fill:#ffffff;fill-opacity:1" />
    <path
       id="path4-7"
       style="color:#000000;line-height:normal;font-family:'Bitstream Vera Sans';-inkscape-font-specification:'Bitstream Vera Sans';text-indent:0;text-align:start;text-transform:none;block-progression:tb;overflow:visible;fill:#000000;fill-opacity:1.0;enable-background:accumulate"
       overflow="visible"
       d="m 75.439986,27.611419 c -8.651274,0 -15.677967,7.216604 -15.677967,16.101696 0,8.885092 7.026693,16.101695 15.677967,16.101695 8.651274,0 15.677966,-7.216603 15.677966,-16.101695 0,-8.885092 -7.026692,-16.101696 -15.677966,-16.101696 z m 0,1.288136 c 7.973434,0 14.423729,6.624628 14.423729,14.81356 0,8.188932 -6.450295,14.813559 -14.423729,14.813559 -7.973434,0 -14.423729,-6.624627 -14.423729,-14.813559 0,-8.188932 6.450295,-14.81356 14.423729,-14.81356 z m 0.313559,1.932203 c -0.972689,0 -1.793641,0.681459 -2.07733,1.590043 -0.318167,-0.185538 -0.669948,-0.301907 -1.058263,-0.301907 -1.140842,0 -2.080788,0.924382 -2.175318,2.073094 a 0.62718136,0.6441322 0 0 0 0,0.04026 c -4.4e-4,0.0068 3.78e-4,0.01325 0,0.02012 a 0.62718136,0.6441322 0 0 0 -0.01959,0.02012 0.62718136,0.6441322 0 0 0 0,0.02012 0.62718136,0.6441322 0 0 0 0,0.04026 0.62718136,0.6441322 0 0 0 0,0.02012 0.62718136,0.6441322 0 0 0 0,0.02012 0.62718136,0.6441322 0 0 0 0,0.02012 0.62711864,0.6440678 0 0 0 0,0.04026 l 0,0.503178 c -0.289617,-0.145914 -0.599313,-0.241525 -0.940678,-0.241525 -1.161169,0 -2.110416,0.956132 -2.175318,2.133474 a 0.62718136,0.6441322 0 0 0 -0.01959,0.100637 c -6.3e-5,0.0069 0,0.01317 0,0.02012 a 0.62718136,0.6441322 0 0 0 0,0.02012 0.62711864,0.6440678 0 0 0 0,0.04026 l 0,10.949153 c 0,0.775705 0.108493,2.548288 1.058262,4.206567 0.949769,1.658279 2.830382,3.139831 5.977225,3.139831 2.013456,0 3.430799,-0.34318 4.527013,-0.966102 1.096213,-0.622922 1.823287,-1.509061 2.488878,-2.435381 1.352028,-1.88074 3.511015,-6.227853 3.566737,-6.340043 6.89e-4,-0.0015 0.0392,-0.06038 0.0392,-0.06038 l -0.01959,0 c 0.632069,-1.071579 0.388355,-2.479346 -0.627118,-3.13983 -1.043314,-0.661517 -2.415452,-0.274088 -3.096398,0.805084 a 0.62718136,0.6441322 0 0 0 -0.01959,0.02012 l -0.09799,0.161017 0,-8.231992 a 0.62711864,0.6440678 0 0 0 0,-0.100638 c 0,-0.02088 5.64e-4,-0.03963 0,-0.06038 a 0.62718136,0.6441322 0 0 0 0,-0.06038 c -7.52e-4,-0.01437 -0.01856,-0.02595 -0.01959,-0.04026 a 0.62718136,0.6441322 0 0 0 0,-0.02012 c -0.09453,-1.14871 -1.034476,-2.073093 -2.175318,-2.073093 -0.341365,0 -0.651061,0.09561 -0.940678,0.241526 a 0.62718136,0.6441322 0 0 0 0,-0.04026 c -7.52e-4,-0.01437 -0.01855,-0.02595 -0.01959,-0.04026 a 0.62718136,0.6441322 0 0 0 0,-0.02012 C 77.834381,31.7561 76.894435,30.831717 75.753593,30.831717 Z m 0,1.288136 c 0.51655,0 0.92101,0.4014 0.940678,0.925847 4.99e-4,0.01332 0,0.02679 0,0.04026 a 0.62711864,0.6440678 0 0 0 0,0.06038 l 0,1.871822 a 0.62711864,0.6440678 0 0 0 0,0.06038 l 0,0.161016 a 0.62718136,0.6441322 0 0 0 0,0.100638 l 0,7.084745 a 0.62718136,0.6441322 0 0 0 1.254237,0 l 0,-7.084745 a 0.62718136,0.6441322 0 0 0 0,-0.06038 l 0,-0.161018 a 0.62711864,0.6440678 0 0 0 0,-0.100638 c 0,-0.543975 0.411018,-0.966102 0.940678,-0.966102 0.52966,0 0.940678,0.422127 0.940678,0.966102 a 0.62711864,0.6440678 0 0 0 0,0.06038 l 0,10.566739 a 0.62718136,0.6441322 0 0 0 1.15625,0.34216 l 1.254237,-2.113347 c 0.0056,-0.0088 0.01384,-0.01148 0.01959,-0.02012 0.341725,-0.513322 0.963337,-0.661544 1.371822,-0.402543 0.420549,0.273535 0.549544,0.875205 0.215572,1.408899 a 0.62718136,0.6441322 0 0 0 -0.01959,0.06038 c 0,0 -2.302986,4.570383 -3.488347,6.219279 -0.630665,0.877715 -1.228065,1.579364 -2.096928,2.073094 -0.868862,0.49373 -2.045439,0.805084 -3.919491,0.805084 -2.783191,0 -4.131141,-1.174583 -4.899365,-2.515889 -0.768224,-1.341306 -0.881885,-2.914654 -0.881885,-3.542372 l 0,-10.9089 a 0.62711864,0.6440678 0 0 0 0,-0.0805 0.62718136,0.6441322 0 0 0 0,-0.06038 c 0.01967,-0.524449 0.424128,-0.925848 0.940678,-0.925848 0.52966,0 0.940678,0.422127 0.940678,0.966102 a 0.62711864,0.6440678 0 0 0 0,0.06038 l 0,5.414195 a 0.62718136,0.6441322 0 0 0 1.254237,0 l 0,-5.373941 a 0.62711864,0.6440678 0 0 0 0,-0.100638 l 0,-2.475635 a 0.62711864,0.6440678 0 0 0 0,-0.08052 0.62718136,0.6441322 0 0 0 0,-0.06038 c 0.01967,-0.524448 0.424128,-0.925847 0.940678,-0.925847 0.52966,0 0.940678,0.422127 0.940678,0.966102 a 0.62711864,0.6440678 0 0 0 0,0.06038 l 0,0.161017 a 0.62718136,0.6441322 0 0 0 0,0.100638 l 0,7.084746 a 0.62718136,0.6441322 0 0 0 1.254237,0 l 0,-7.084746 a 0.62718136,0.6441322 0 0 0 0,-0.06038 l 0,-0.161016 a 0.62711864,0.6440678 0 0 0 0,-0.100638 l 0,-1.1875 a 0.62711864,0.6440678 0 0 0 0,-0.100638 0.62718136,0.6441322 0 0 0 0,-0.06038 c 0.02899,-0.514666 0.430683,-0.90572 0.940678,-0.90572 z"
       inkscape:connector-curvature="0" />
  </g>
</svg>
