<?xml version="1.0" encoding="UTF-8" standalone="no"?><svg xmlns="http://www.w3.org/2000/svg" height="50" style="fill:#000000;fill-opacity:1.0" viewBox="0 0 50 50" width="50">
    <path d="M 7.6875 0 C 6.7298333 0 5.96979 0.6610869 5.8125 1.59375 L 0.09375 35.40625 C 0.034732422 35.593361 0 35.795051 0 36 L 0 48 C 0 49.093063 0.9069372 50 2 50 L 48 50 C 49.093063 50 50 49.093063 50 48 L 50 36 C 50 35.702367 49.932435 35.411731 49.8125 35.15625 L 44.1875 1.59375 C 44.029954 0.6595686 43.270167 0 42.3125 0 L 7.6875 0 z M 7.78125 2 L 42.21875 2 L 47.59375 34 L 2.375 34 L 7.78125 2 z M 25 7 C 20.944275 7 17.261249 8.1755587 14.53125 10.125 C 11.801251 12.074441 10 14.860212 10 18 C 10 21.139356 11.801276 23.925442 14.53125 25.875 C 17.261224 27.824558 20.944231 29 25 29 C 29.055769 29 32.738776 27.824558 35.46875 25.875 C 38.198724 23.925442 40 21.139356 40 18 C 40 14.860212 38.198749 12.074441 35.46875 10.125 C 32.738751 8.1755587 29.055725 7 25 7 z M 25 9 C 28.669275 9 31.973749 10.079941 34.3125 11.75 C 36.651251 13.420059 38 15.617788 38 18 C 38 20.381644 36.651276 22.579808 34.3125 24.25 C 31.973724 25.920192 28.669231 27 25 27 C 21.330769 27 18.026276 25.920192 15.6875 24.25 C 13.348724 22.579808 12 20.381644 12 18 C 12 15.617788 13.348749 13.420059 15.6875 11.75 C 18.026251 10.079941 21.330725 9 25 9 z M 25 15 C 23.343146 15 22 15.895431 22 17 C 22 18.104569 23.343146 19 25 19 C 26.656854 19 28 18.104569 28 17 C 28 15.895431 26.656854 15 25 15 z M 2 36 L 47.96875 36 A 1.0001 1.0001 0 0 0 48 36.0625 L 48 48 L 2 48 L 2 36 z M 40 40 C 38.895 40 38 40.896 38 42 C 38 43.104 38.895 44 40 44 C 41.105 44 42 43.104 42 42 C 42 40.896 41.105 40 40 40 z"/>
</svg>