<?xml version="1.0" encoding="UTF-8" standalone="no"?><svg xmlns="http://www.w3.org/2000/svg" enable-background="new 0 0 50 50" style="fill:#000000;fill-opacity:1.0" viewBox="0 0 50 50">
    <path color="#000" d="M 7 2 L 7 3 L 7 47 L 7 48 L 8 48 L 42 48 L 43 48 L 43 47 L 43 15 L 43 14.59375 L 42.71875 14.28125 L 30.71875 2.28125 L 30.40625 2 L 30 2 L 8 2 L 7 2 z M 9 4 L 29 4 L 29 15 L 29 16 L 30 16 L 41 16 L 41 46 L 9 46 L 9 4 z M 31 5.4375 L 39.5625 14 L 31 14 L 31 5.4375 z M 15 22 L 15 24 L 35 24 L 35 22 L 15 22 z M 15 28 L 15 30 L 31 30 L 31 28 L 15 28 z M 15 34 L 15 36 L 35 36 L 35 34 L 15 34 z" enable-background="accumulate" font-family="Bitstream Vera Sans" overflow="visible" style="text-indent:0;text-align:start;line-height:normal;text-transform:none;block-progression:tb;-inkscape-font-specification:Bitstream Vera Sans"/>
</svg>