<?xml version="1.0" encoding="UTF-8" standalone="no"?><svg xmlns="http://www.w3.org/2000/svg" enable-background="new 0 0 50 50" style="fill:#000000;fill-opacity:1.0" viewBox="0 0 50 50">
    <path color="#000" d="M 17 5 C 12.054545 5 8 9.0545455 8 14 L 8 23.40625 C 8 25.302328 8.5696814 27.122554 9.6875 28.6875 L 20.84375 44 C 20.86824 44.04081 20.9121 44.05405 20.9375 44.09375 C 21.691544 45.272197 22.822989 46 24 46 C 24.85303 46 25.789714 45.661059 26.59375 44.90625 C 27.397786 44.151441 28 42.94984 28 41.40625 C 28 40.284028 27.608614 39.669591 27.34375 38.875 C 27.043021 38.032957 26.064059 35.784783 25.125 33.65625 C 24.510793 32.264048 24.270283 31.744428 23.9375 31 C 25.800176 30.999158 33.302546 30.9963 36.40625 30.90625 C 36.41734 30.90625 36.42644 30.90631 36.4375 30.90625 C 39.154157 30.891473 41 29.052444 41 27.09375 C 41 26.180158 40.837214 25.421394 40.75 24.90625 C 41.578497 24.472417 43 23.555981 43 21.3125 C 43 19.815205 42.308077 18.826719 41.625 18.15625 C 42.309368 17.545118 43 16.614278 43 15.1875 C 43 12.921923 41.567638 11.929866 40.59375 11.40625 C 40.80074 10.871087 41 10.166527 41 9.3125 C 41 8.2778846 40.480362 7.2617578 39.625 6.4375 C 38.769638 5.6132422 37.516667 5 36 5 L 17 5 z M 17 7 L 36 7 C 36.983333 7 37.730362 7.3742578 38.25 7.875 C 38.769638 8.3757422 39 9.0471154 39 9.3125 C 39 10.501389 38.46875 11.21875 38.46875 11.21875 A 1.0001 1.0001 0 0 0 38.9375 12.75 C 38.9375 12.75 41 13.5375 41 15.1875 C 41 16.652579 39.625 17.15625 39.625 17.15625 A 1.0001 1.0001 0 0 0 39.53125 18.96875 C 39.53125 18.96875 41 19.847421 41 21.3125 C 41 22.945833 39.375 23.46875 39.375 23.46875 A 1.0001 1.0001 0 0 0 38.71875 24.5625 C 38.71875 24.5625 39 26.29375 39 27.09375 C 39 27.727083 38.271467 28.90625 36.40625 28.90625 A 1.0001 1.0001 0 0 0 36.375 28.90625 C 33.036051 29.004454 22.40625 29 22.40625 29 A 1.0001 1.0001 0 0 0 21.5 30.40625 C 21.5 30.40625 22.376559 32.347283 23.3125 34.46875 C 24.248441 36.590217 25.269479 38.973293 25.46875 39.53125 L 25.4375 39.53125 C 25.772636 40.536659 26 40.728472 26 41.40625 C 26 42.46266 25.639714 43.042309 25.21875 43.4375 C 24.797786 43.832691 24.24697 44 24 44 C 23.616667 44 23.011178 43.747796 22.5625 43 A 1.0001 1.0001 0 0 0 22.5 42.90625 L 11.3125 27.53125 C 11.3069 27.52345 11.318 27.5078 11.3125 27.5 C 10.441533 26.270924 10 24.900684 10 23.40625 L 10 14 C 10 10.145455 13.145455 7 17 7 z" enable-background="accumulate" font-family="Bitstream Vera Sans" overflow="visible" style="text-indent:0;text-align:start;line-height:normal;text-transform:none;block-progression:tb;-inkscape-font-specification:Bitstream Vera Sans"/>
</svg>