<?xml version="1.0" encoding="UTF-8" standalone="no"?><svg xmlns="http://www.w3.org/2000/svg" enable-background="new 0 0 50 50" style="fill:#000000;fill-opacity:1.0" viewBox="0 0 50 50">
    <path color="#000" d="M 24 4 C 22.822989 4 21.691544 4.727803 20.9375 5.90625 C 20.912095 5.9459535 20.868238 5.9591866 20.84375 6 L 9.6875 21.3125 C 8.5696814 22.877446 8 24.697672 8 26.59375 L 8 36 C 8 40.945455 12.054545 45 17 45 L 36 45 C 37.516667 45 38.769638 44.386758 39.625 43.5625 C 40.480362 42.738242 41 41.722115 41 40.6875 C 41 39.833473 40.80074 39.128913 40.59375 38.59375 C 41.567638 38.070134 43 37.078077 43 34.8125 C 43 33.385722 42.309368 32.454882 41.625 31.84375 C 42.308077 31.173281 43 30.184795 43 28.6875 C 43 26.444019 41.578497 25.527583 40.75 25.09375 C 40.83721 24.578606 41 23.819842 41 22.90625 C 41 20.947556 39.154157 19.108527 36.4375 19.09375 C 36.4298 19.093523 36.41403 19.093976 36.40625 19.09375 C 33.302546 19.003698 25.800176 19.000842 23.9375 19 C 24.270283 18.255572 24.510793 17.735952 25.125 16.34375 C 26.059297 14.226011 27.037764 12.007907 27.34375 11.15625 C 27.34535 11.15195 27.34225 11.12927 27.34375 11.125 C 27.614468 10.410566 28 9.7031289 28 8.59375 C 28 7.0501603 27.397786 5.848559 26.59375 5.09375 C 25.789714 4.338941 24.85303 4 24 4 z M 24 6 C 24.24697 6 24.797786 6.167309 25.21875 6.5625 C 25.639714 6.957691 26 7.5373397 26 8.59375 C 26 9.2715278 25.797609 9.5605414 25.46875 10.4375 A 1.0001 1.0001 0 0 0 25.46875 10.46875 C 25.269479 11.026707 24.248441 13.409783 23.3125 15.53125 C 22.376559 17.652717 21.5 19.59375 21.5 19.59375 A 1.0001 1.0001 0 0 0 22.40625 21 C 22.40625 21 33.036051 20.9955 36.375 21.09375 A 1.0001 1.0001 0 0 0 36.40625 21.09375 C 38.271467 21.09375 39 22.272917 39 22.90625 C 39 23.70625 38.71875 25.4375 38.71875 25.4375 A 1.0001 1.0001 0 0 0 39.375 26.53125 C 39.375 26.53125 41 27.054167 41 28.6875 C 41 30.152579 39.53125 31.03125 39.53125 31.03125 A 1.0001 1.0001 0 0 0 39.625 32.84375 C 39.625 32.84375 41 33.347421 41 34.8125 C 41 36.4625 38.9375 37.25 38.9375 37.25 A 1.0001 1.0001 0 0 0 38.46875 38.78125 C 38.46875 38.78125 39 39.498611 39 40.6875 C 39 40.952885 38.769638 41.624258 38.25 42.125 C 37.730362 42.625742 36.983333 43 36 43 L 17 43 C 13.145455 43 10 39.854545 10 36 L 10 26.59375 C 10 25.099316 10.441533 23.729076 11.3125 22.5 C 11.318 22.4922 11.3069 22.47654 11.3125 22.46875 L 22.5 7.09375 A 1.0001 1.0001 0 0 0 22.5625 7 C 23.011178 6.2522038 23.616667 6 24 6 z" enable-background="accumulate" font-family="Bitstream Vera Sans" overflow="visible" style="text-indent:0;text-align:start;line-height:normal;text-transform:none;block-progression:tb;-inkscape-font-specification:Bitstream Vera Sans"/>
</svg>