<?xml version="1.0" encoding="UTF-8" standalone="no"?><svg xmlns="http://www.w3.org/2000/svg" height="50" style="fill:#000000;fill-opacity:1.0" viewBox="0 0 50 50" width="50">
    <path color="#000" d="M 21 0 C 19.354937 0 18 1.3549372 18 3 L 18 5 L 10.1875 5 A 1.0001 1.0001 0 0 0 9.8125 5 L 8 5 A 1.0001 1.0001 0 0 0 7.90625 5 A 1.001098 1.001098 0 0 0 8 7 L 9.09375 7 L 12.6875 47.5 C 12.812585 48.899986 14.002839 50 15.40625 50 L 34.59375 50 C 35.99753 50 37.187483 48.899231 37.3125 47.5 L 40.90625 7 L 42 7 A 1.0001 1.0001 0 1 0 42 5 L 32 5 L 32 3 C 32 1.3549372 30.645063 0 29 0 L 21 0 z M 21 2 L 29 2 C 29.562937 2 30 2.4370628 30 3 L 30 5 L 20 5 L 20 3 C 20 2.4370628 20.437063 2 21 2 z M 11.09375 7 L 38.90625 7 L 35.3125 47.34375 C 35.281517 47.690519 34.91197 48 34.59375 48 L 15.40625 48 C 15.089661 48 14.718415 47.689764 14.6875 47.34375 L 11.09375 7 z M 18.90625 9.96875 A 1.0001 1.0001 0 0 0 18.78125 10 A 1.0001 1.0001 0 0 0 18 11 L 18 44 A 1.0001 1.0001 0 1 0 20 44 L 20 11 A 1.0001 1.0001 0 0 0 18.90625 9.96875 z M 24.90625 9.96875 A 1.0001 1.0001 0 0 0 24.78125 10 A 1.0001 1.0001 0 0 0 24 11 L 24 44 A 1.0001 1.0001 0 1 0 26 44 L 26 11 A 1.0001 1.0001 0 0 0 24.90625 9.96875 z M 30.90625 9.96875 A 1.0001 1.0001 0 0 0 30.78125 10 A 1.0001 1.0001 0 0 0 30 11 L 30 44 A 1.0001 1.0001 0 1 0 32 44 L 32 11 A 1.0001 1.0001 0 0 0 30.90625 9.96875 z" enable-background="accumulate" font-family="Bitstream Vera Sans" overflow="visible" style="text-indent:0;text-align:start;line-height:normal;text-transform:none;block-progression:tb;-inkscape-font-specification:Bitstream Vera Sans"/>
</svg>