<?xml version="1.0" encoding="UTF-8" standalone="no"?><svg xmlns="http://www.w3.org/2000/svg" height="50" style="fill:#000000;fill-opacity:1.0" viewBox="0 0 50 50" width="50">
    <path d="M 25 2 C 24.448 2 24 2.448 24 3 L 24 7 L 26 7 L 26 3 C 26 2.448 25.552 2 25 2 z M 26 7 L 26 23.59375 L 33.28125 16.28125 C 33.67225 15.89025 34.32775 15.89025 34.71875 16.28125 C 35.10975 16.67225 35.10975 17.32775 34.71875 17.71875 L 25.71875 26.71875 C 25.52375 26.91375 25.256 27 25 27 C 24.744 27 24.47625 26.91375 24.28125 26.71875 L 15.28125 17.71875 C 14.89025 17.32775 14.89025 16.67225 15.28125 16.28125 C 15.67225 15.89025 16.32775 15.89025 16.71875 16.28125 L 24 23.59375 L 24 7 L 9.6875 7 C 8.7755 7 7.9545 7.68125 7.8125 8.53125 L 2.34375 32.375 C 2.84875 32.144 3.408 32 4 32 L 46 32 C 46.578 32 47.129 32.12275 47.625 32.34375 L 42.1875 8.59375 C 42.0365 7.68475 41.2255 7 40.3125 7 L 26 7 z M 4 34 C 2.897 34 2 34.897 2 36 L 2 44 C 2 45.103 2.897 46 4 46 L 46 46 C 47.103 46 48 45.103 48 44 L 48 36 C 48 34.897 47.103 34 46 34 L 4 34 z M 40 38 C 41.105 38 42 38.896 42 40 C 42 41.104 41.105 42 40 42 C 38.895 42 38 41.104 38 40 C 38 38.896 38.895 38 40 38 z"/>
</svg>