<?xml version="1.0" encoding="UTF-8" standalone="no"?><svg xmlns="http://www.w3.org/2000/svg" enable-background="new 0 0 50 50" style="fill:#000000;fill-opacity:1.0" viewBox="0 0 50 50">
    <path color="#000" d="M 28 0 C 23.456492 0 19.617601 3.05918 18.40625 7.21875 C 16.945473 5.2628645 14.619624 4 12 4 C 7.5935667 4 4 7.5935667 4 12 C 4 15.13577 5.8311474 17.845922 8.46875 19.15625 C 6.9766996 20.24574 6 22.003072 6 24 L 6 36 C 6 39.32381 8.6761905 42 12 42 L 16.5 42 L 8.5 50 L 11 50 L 19 42 L 23 42 L 31 50 L 33.5 50 L 25.5 42 L 30 42 C 33.116072 42 35.662563 39.65775 35.96875 36.625 L 44.5625 40.90625 L 46 41.625 L 46 40 L 46 20 L 46 18.375 L 44.5625 19.09375 L 35.96875 23.375 C 35.764625 21.353167 34.575591 19.640323 32.875 18.71875 C 35.926058 17.003695 38 13.739859 38 10 C 38 4.4889972 33.511003 0 28 0 z M 28 2 C 32.430123 2 36 5.5698774 36 10 C 36 14.430123 32.430123 18 28 18 C 23.569877 18 20 14.430123 20 10 C 20 5.5698774 23.569877 2 28 2 z M 12 6 C 15.325553 6 18 8.674447 18 12 C 18 15.325553 15.325553 18 12 18 C 8.674447 18 6 15.325553 6 12 C 6 8.6744469 8.6744469 6 12 6 z M 19.40625 15.03125 C 20.084679 16.184883 20.964126 17.201269 22.03125 18 L 17.28125 18 C 18.198753 17.193408 18.932564 16.17629 19.40625 15.03125 z M 12 20 L 30 20 C 32.27619 20 34 21.72381 34 24 L 34 24.375 L 34 25 L 34 35 L 34 35.625 L 34 36 C 34 38.27619 32.27619 40 30 40 L 12 40 C 9.7238095 40 8 38.27619 8 36 L 8 24 C 8 21.72381 9.7238095 20 12 20 z M 44 21.625 L 44 38.375 L 36 34.375 L 36 25.625 L 44 21.625 z M 21 43 L 14 50 L 16.5 50 L 21 45.5 L 25.5 50 L 28 50 L 21 43 z" enable-background="accumulate" font-family="Bitstream Vera Sans" overflow="visible" style="text-indent:0;text-align:start;line-height:normal;text-transform:none;block-progression:tb;-inkscape-font-specification:Bitstream Vera Sans"/>
</svg>