<?xml version="1.0" encoding="UTF-8" standalone="no"?><svg xmlns="http://www.w3.org/2000/svg" height="50" style="fill:#000000;fill-opacity:1.0" viewBox="0 0 50 50" width="50">
    <path d="M 9.6875 0 C 4.3401769 0 0 4.3401769 0 9.6875 C 0 11.430562 0.47666754 13.087808 1.28125 14.5 L 1.90625 15.625 L 2.84375 14.71875 L 14.71875 2.84375 L 15.625 1.90625 L 14.5 1.28125 C 13.087808 0.47666754 11.430562 0 9.6875 0 z M 40.3125 0 C 38.569438 0 36.912192 0.47666754 35.5 1.28125 L 34.375 1.90625 L 35.28125 2.84375 L 47.15625 14.71875 L 48.09375 15.625 L 48.71875 14.5 C 49.523332 13.087808 50 11.430562 50 9.6875 C 50 4.3401769 45.659823 0 40.3125 0 z M 9.6875 2 C 10.59429 2 11.445112 2.1804353 12.25 2.46875 L 2.46875 12.25 C 2.1804353 11.445112 2 10.59429 2 9.6875 C 2 5.4208231 5.4208231 2 9.6875 2 z M 40.3125 2 C 44.579177 2 48 5.4208231 48 9.6875 C 48 10.59429 47.819565 11.445112 47.53125 12.25 L 37.75 2.46875 C 38.554888 2.1804353 39.40571 2 40.3125 2 z M 25 4 C 12.309296 4 2 14.309296 2 27 C 2 33.234308 4.4953005 38.8862 8.53125 43.03125 L 3.28125 48.28125 A 1.016466 1.016466 0 1 0 4.71875 49.71875 L 10 44.40625 C 14.030443 47.884309 19.265918 50 25 50 C 30.734082 50 35.969557 47.884309 40 44.40625 L 45.28125 49.71875 A 1.016466 1.016466 0 1 0 46.71875 48.28125 L 41.46875 43.03125 C 45.5047 38.8862 48 33.234308 48 27 C 48 14.309296 37.690704 4 25 4 z M 25 6 C 36.609824 6 46 15.390176 46 27 C 46 38.609824 36.609824 48 25 48 C 13.390176 48 4 38.609824 4 27 C 4 15.390176 13.390176 6 25 6 z M 24.90625 9.96875 A 1.0001 1.0001 0 0 0 24.78125 10 A 1.0001 1.0001 0 0 0 24 11 L 24 26 L 15 26 A 1.0001 1.0001 0 0 0 14.90625 26 A 1.001098 1.001098 0 0 0 15 28 L 25 28 A 1.0001 1.0001 0 0 0 25.125 28 A 1.0001 1.0001 0 0 0 25.28125 27.96875 A 1.0001 1.0001 0 0 0 25.5625 27.84375 A 1.0001 1.0001 0 0 0 25.78125 27.625 A 1.0001 1.0001 0 0 0 25.84375 27.5625 A 1.0001 1.0001 0 0 0 26 27.09375 A 1.0001 1.0001 0 0 0 26 27.0625 A 1.0001 1.0001 0 0 0 26 27 A 1.0001 1.0001 0 0 0 26 26.78125 L 26 11 A 1.0001 1.0001 0 0 0 24.90625 9.96875 z" style="text-indent:0;text-align:start;line-height:normal;text-transform:none;block-progression:tb;-inkscape-font-specification:Bitstream Vera Sans"/>
</svg>