<?xml version="1.0" encoding="UTF-8" standalone="no"?><svg xmlns="http://www.w3.org/2000/svg" enable-background="new 0 0 26 26" style="fill:#000000;fill-opacity:0.60784316" viewBox="0 0 26 26">
    <path color="#000" d="M 2.1875 3 C 0.57144351 3 -0.56027702 4.8497491 0.34375 6.21875 L 0.375 6.28125 L 11.09375 23.65625 C 11.10804 23.68483 11.1409 23.69124 11.15625 23.71875 C 11.939412 25.122109 14.060588 25.122109 14.84375 23.71875 C 14.8591 23.69124 14.89196 23.68483 14.90625 23.65625 L 25.625 6.28125 L 25.625 6.25 C 25.6332 6.238146 25.64835 6.230679 25.65625 6.21875 C 26.563325 4.8497201 25.515125 3 23.90625 3 L 2.1875 3 z M 2.1875 5 L 23.90625 5 C 23.872917 5 24.018253 5.0994458 24 5.125 L 23.96875 5.15625 L 23.9375 5.1875 L 13.15625 22.6875 L 13.125 22.71875 L 13.09375 22.75 C 13.05152 22.83446 12.948479 22.83446 12.90625 22.75 L 12.875 22.71875 L 12.84375 22.6875 L 2.0625 5.1875 L 2.03125 5.15625 L 2 5.125 C 1.981747 5.0994458 2.0282407 5 2.1875 5 z" enable-background="accumulate" font-family="Bitstream Vera Sans" overflow="visible" style="text-indent:0;text-align:start;line-height:normal;text-transform:none;block-progression:tb;-inkscape-font-specification:Bitstream Vera Sans"/>
</svg>