<?xml version="1.0" encoding="UTF-8" standalone="no"?><svg xmlns="http://www.w3.org/2000/svg" enable-background="new 0 0 50 50" style="fill:#000000;fill-opacity:1.0" viewBox="0 0 50 50">
    <path color="#000" d="M 5.09375 6 C 2.74375 6 1.2762091 8.6552409 2.4375 10.6875 L 22.53125 45.59375 C 23.607195 47.438228 26.392805 47.438228 27.46875 45.59375 L 47.5625 10.6875 C 48.723791 8.6552409 47.218382 6 44.8125 6 L 5.09375 6 z M 5.09375 8 L 44.8125 8 C 45.793184 8 46.252205 8.9258437 45.84375 9.6875 L 45.84375 9.71875 L 25.71875 44.59375 C 25.389789 45.114057 24.610211 45.114057 24.28125 44.59375 L 4.15625 9.71875 C 4.15032 9.708375 4.16183 9.697934 4.15625 9.6875 C 3.7489293 8.9258437 4.2552365 8 5.09375 8 z M 8.1875 10 A 1.0001 1.0001 0 0 0 7.4375 11.5 L 24.125 40.5 A 1.0001 1.0001 0 0 0 25.875 40.5 L 42.5625 11.5 A 1.0001 1.0001 0 0 0 41.6875 10 L 8.3125 10 A 1.0001 1.0001 0 0 0 8.1875 10 z M 10.03125 12 L 39.96875 12 L 25 37.96875 L 10.03125 12 z" enable-background="accumulate" font-family="Bitstream Vera Sans" overflow="visible" style="text-indent:0;text-align:start;line-height:normal;text-transform:none;block-progression:tb;-inkscape-font-specification:Bitstream Vera Sans"/>
</svg>