<?xml version="1.0" encoding="UTF-8" standalone="no"?><svg xmlns="http://www.w3.org/2000/svg" height="50" style="fill:#000000;fill-opacity:0.6862745" viewBox="0 0 50 50" width="50">
    <path color="#000" d="M 38.96875 0 C 35.674702 -0.01206979 28.806553 -0.12247868 25.125 3.5625 L 24.46875 4.21875 L 24.46875 4.25 C 20.538212 8.2057934 20.08326 14.120609 22.90625 18.5625 L 2.40625 37.3125 L 2.375 37.34375 C 1.4775929 38.242355 0.53172562 39.751253 0.25 41.625 C -0.03172562 43.498747 0.45428282 45.73498 2.375 47.65625 C 4.296257 49.577507 6.5328637 50.06315 8.40625 49.78125 C 10.279636 49.49935 11.790394 48.554556 12.6875 47.65625 L 12.71875 47.65625 L 12.71875 47.625 C 12.71875 47.625 17.425649 42.302298 22.1875 37 C 24.568426 34.348851 26.954414 31.709082 28.78125 29.75 C 29.694668 28.770459 30.484025 27.951414 31.03125 27.40625 C 31.185494 27.252587 31.26139 27.169409 31.375 27.0625 C 35.818603 29.993333 41.796923 29.58469 45.78125 25.59375 L 46.4375 24.9375 C 48.23356 23.142589 49.067272 20.523663 49.5 17.96875 C 49.932728 15.413837 49.930974 12.89243 49.9375 11.21875 C 49.9407 10.837874 49.9343 10.461359 49.625 10.09375 C 49.315658 9.7261412 48.739248 9.6272284 48.4375 9.6875 C 47.834004 9.8080431 47.59375 10.125 47.59375 10.125 L 47.5625 10.15625 C 47.5625 10.15625 41.842876 15.903139 41.0625 16.6875 C 41.032619 16.70578 41.021595 16.711131 40.96875 16.71875 C 40.788454 16.74475 40.506418 16.77699 40.15625 16.78125 C 39.455914 16.78975 38.497151 16.74373 37.5625 16.65625 C 36.627849 16.56877 35.69247 16.425853 34.96875 16.28125 C 34.60689 16.20895 34.300507 16.130376 34.09375 16.0625 C 34.020672 16.038508 33.977599 16.021749 33.9375 16 C 33.915471 15.963021 33.893582 15.930506 33.875 15.875 C 33.807905 15.674563 33.758631 15.352091 33.6875 15 C 33.545238 14.295818 33.422142 13.3835 33.34375 12.46875 C 33.265358 11.554 33.221543 10.630553 33.25 9.9375 C 33.264229 9.5909735 33.276572 9.3068341 33.3125 9.125 C 33.330464 9.034083 33.363319 8.9857281 33.375 8.96875 C 34.243531 8.10201 39.9375 2.4375 39.9375 2.4375 L 39.96875 2.40625 L 39.96875 2.375 C 39.96875 2.375 40.264613 2.1642609 40.40625 1.59375 C 40.47707 1.3084945 40.45194 0.75308699 40.09375 0.40625 C 39.735563 0.05941301 39.346444 0.00111414 38.96875 0 z M 37.65625 2 C 36.412295 3.2435215 32.567389 7.0897181 31.9375 7.71875 C 31.562125 8.0956592 31.53501 8.4146505 31.46875 8.75 C 31.40249 9.0853495 31.360521 9.4665421 31.34375 9.875 C 31.31021 10.691916 31.35389 11.649375 31.4375 12.625 C 31.52111 13.600625 31.649762 14.569463 31.8125 15.375 C 31.89387 15.777768 31.987783 16.152191 32.09375 16.46875 C 32.199717 16.785309 32.267233 17.047594 32.59375 17.375 C 32.929111 17.708998 33.178746 17.769536 33.5 17.875 C 33.821254 17.980464 34.183688 18.074317 34.59375 18.15625 C 35.413874 18.320115 36.419026 18.438852 37.40625 18.53125 C 38.393474 18.62365 39.353492 18.697263 40.15625 18.6875 C 40.557629 18.6826 40.932847 18.63948 41.25 18.59375 C 41.567153 18.54802 41.834539 18.63188 42.28125 18.1875 C 42.774099 17.692066 46.699445 13.71434 47.96875 12.4375 C 47.94611 13.995964 47.94904 15.743044 47.625 17.65625 C 47.225228 20.016587 46.42269 22.265661 45.09375 23.59375 L 44.4375 24.25 C 40.575033 28.118877 34.629243 28.017059 30.84375 24.21875 L 25.84375 19.21875 C 22.062723 15.417582 21.965046 9.4659261 25.8125 5.59375 L 26.46875 4.90625 C 28.958552 2.4141308 34.211511 2.05722 37.65625 2 z M 24 20 C 24.165531 20.188966 24.320396 20.381939 24.5 20.5625 L 29.5 25.5625 C 29.637654 25.70062 29.794841 25.807655 29.9375 25.9375 C 29.868047 26.005929 29.827043 26.048247 29.75 26.125 C 29.171893 26.70093 28.389785 27.512291 27.46875 28.5 C 25.62668 30.475418 23.228449 33.125899 20.84375 35.78125 C 16.089111 41.075517 11.435234 46.373358 11.40625 46.40625 L 11.375 46.4375 C 10.76633 47.034255 9.5138385 47.791013 8.125 48 C 6.7171363 48.21185 5.207993 47.95799 3.65625 46.40625 C 2.1049672 44.85452 1.8194756 43.314753 2.03125 41.90625 C 2.2402359 40.516293 3.0273103 39.26711 3.625 38.65625 L 3.65625 38.625 L 24 20 z" enable-background="accumulate" font-family="Bitstream Vera Sans" overflow="visible" style="text-indent:0;text-align:start;line-height:normal;text-transform:none;block-progression:tb;-inkscape-font-specification:Bitstream Vera Sans"/>
</svg>