<?xml version="1.0" encoding="utf-8" standalone="no"?><!-- Generator: Adobe Illustrator 15.0.0, SVG Export Plug-In . SVG Version: 6.00 Build 0)  --><svg xmlns="http://www.w3.org/2000/svg" xmlns:xlink="http://www.w3.org/1999/xlink" contentScriptType="application/ecmascript" contentStyleType="text/css" enable-background="new 0 0 48 48" height="48px" id="????????_1" preserveAspectRatio="xMidYMid meet" style="fill:#000000" version="1.1" viewBox="0 0 48 48" width="48px" x="0px" xml:space="preserve" y="0px" zoomAndPan="magnify">
<path d="M16,13v19.593c0,0,0,0.221,0,0.232c0,0-1.177-0.597-3.708-0.242C8.571,33.106,6,35.674,6,38.644  c0,2.975,3.018,4.79,6.738,4.267C16.464,42.393,19,39.874,19,36.904v-15.32l17-5.583v12.905c0,0,0,0.002,0,0.014  c0,0-1.203-0.838-3.74-0.539c-3.724,0.45-6.235,3.155-6.235,6.121c0,2.977,2.512,4.933,6.235,4.482  C35.982,38.535,39,35.76,39,32.792V6L16,13z" fill="#F44336"/>
</svg>