<?xml version="1.0" encoding="utf-8" standalone="no"?><!-- Generator: Adobe Illustrator 18.1.1, SVG Export Plug-In . SVG Version: 6.00 Build 0)  --><svg xmlns="http://www.w3.org/2000/svg" xmlns:xlink="http://www.w3.org/1999/xlink" enable-background="new 0 0 48 48" id="Layer_1" style="fill:#000000" version="1.1" viewBox="0 0 48 48" x="0px" xml:space="preserve" y="0px">
<circle cx="24" cy="24" fill="#F44336" r="19"/>
<g>
	<path d="M16.6,29.2l5.6-2.8l1.8,3.2c0.9,1.6,1.4,3.5,1.4,5.4v0.9c0,1.2-1,2.2-2.2,2.2h-0.5c-0.4,0-0.7-0.3-0.8-0.7   l-0.5-2c-0.2-0.9-0.7-1.7-1.3-2.4L16.6,29.2z" fill="#FFCC80"/>
	<path d="M29.8,14C29.1,14,19,14,19,14c-2.2,0-4,1.8-4,4v8c0,2.2,1.8,4,4,4h13c1.1,0,2-0.9,2-2c0-1.1-0.5-1.5-0.5-2   c0-0.5,0.5-0.9,0.5-2c0-1.1-0.8-1.8-0.9-2.3c-0.2-0.6,0.1-1.6-0.2-2.3c-0.3-0.7-0.9-1.1-1-1.8s0.3-1.5,0-2.3   C31.5,14.7,30.8,14,29.8,14z" fill="#FFCC80"/>
</g>
</svg>