<?xml version="1.0" encoding="utf-8" standalone="no"?><!-- Generator: Adobe Illustrator 19.1.1, SVG Export Plug-In . SVG Version: 6.00 Build 0)  --><svg xmlns="http://www.w3.org/2000/svg" xmlns:xlink="http://www.w3.org/1999/xlink" enable-background="new 0 0 48 48" id="Layer_1" style="fill:#000000;fill-opacity:0.6862745" version="1.1" viewBox="0 0 48 48" x="0px" xml:space="preserve" y="0px">
<g>
	<path d="M41,6H7C6.4,6,6,6.4,6,7v35h36V7C42,6.4,41.6,6,41,6z" fill="#CFD8DC"/>
</g>
<rect fill="#263238" height="27" width="32" x="8" y="13"/>
<g>
	<path d="M22,27.6c-0.1,1.1-0.4,1.9-1,2.5c-0.6,0.6-1.4,0.9-2.5,0.9c-1.1,0-2-0.4-2.6-1.1c-0.6-0.7-0.9-1.8-0.9-3.1   v-1.6c0-1.3,0.3-2.4,0.9-3.1c0.6-0.7,1.5-1.1,2.6-1.1c1.1,0,1.9,0.3,2.5,0.9c0.6,0.6,0.9,1.4,1,2.6h-2c0-0.7-0.1-1.2-0.3-1.4   c-0.2-0.3-0.6-0.4-1.1-0.4c-0.5,0-0.9,0.2-1.2,0.6c-0.2,0.4-0.3,1-0.4,1.8v1.8c0,1,0.1,1.6,0.3,2c0.2,0.4,0.6,0.5,1.1,0.5   c0.5,0,0.9-0.1,1.1-0.4c0.2-0.3,0.3-0.7,0.3-1.4H22z" fill="#76FF03"/>
	<path d="M24,24c0-0.3,0.1-0.5,0.3-0.7c0.2-0.2,0.4-0.3,0.7-0.3c0.3,0,0.5,0.1,0.7,0.3c0.2,0.2,0.3,0.4,0.3,0.7   c0,0.3-0.1,0.5-0.3,0.7S25.3,25,25,25c-0.3,0-0.5-0.1-0.7-0.3S24,24.3,24,24z" fill="#76FF03"/>
	<path d="M24,30c0-0.3,0.1-0.5,0.3-0.7c0.2-0.2,0.4-0.3,0.7-0.3c0.3,0,0.5,0.1,0.7,0.3c0.2,0.2,0.3,0.4,0.3,0.7   c0,0.3-0.1,0.5-0.3,0.7S25.3,31,25,31c-0.3,0-0.5-0.1-0.7-0.3S24,30.3,24,30z" fill="#76FF03"/>
	<path d="M28,21h2l3,10h-2L28,21z" fill="#76FF03"/>
</g>
<g>
	<circle cx="13.5" cy="9.5" fill="#90A4AE" r="1.5"/>
	<circle cx="9.5" cy="9.5" fill="#90A4AE" r="1.5"/>
</g>
</svg>