<?xml version="1.0" encoding="utf-8" standalone="no"?><!-- Generator: Adobe Illustrator 18.1.1, SVG Export Plug-In . SVG Version: 6.00 Build 0)  --><svg xmlns="http://www.w3.org/2000/svg" xmlns:xlink="http://www.w3.org/1999/xlink" enable-background="new 0 0 48 48" id="Layer_1" style="fill:#000000" version="1.0" viewBox="0 0 48 48" x="0px" xml:space="preserve" y="0px">
<path d="M25,22h13l6,6V11c0-2.2-1.8-4-4-4H25c-2.2,0-4,1.8-4,4v7C21,20.2,22.8,22,25,22z" fill="#1565C0"/>
<path d="M23,19H10l-6,6V8c0-2.2,1.8-4,4-4h15c2.2,0,4,1.8,4,4v7C27,17.2,25.2,19,23,19z" fill="#2196F3"/>
<g>
	<circle cx="12" cy="31" fill="#FFA726" r="5"/>
	<circle cx="36" cy="31" fill="#FFA726" r="5"/>
</g>
<g>
	<path d="M20,42c0,0-2.2-4-8-4s-8,4-8,4v2h16V42z" fill="#607D8B"/>
	<path d="M44,42c0,0-2.2-4-8-4s-8,4-8,4v2h16V42z" fill="#607D8B"/>
</g>
</svg>