<?xml version="1.0" encoding="utf-8" standalone="no"?><!-- Generator: Adobe Illustrator 15.0.0, SVG Export Plug-In . SVG Version: 6.00 Build 0)  --><svg xmlns="http://www.w3.org/2000/svg" xmlns:xlink="http://www.w3.org/1999/xlink" contentScriptType="application/ecmascript" contentStyleType="text/css" enable-background="new 0 0 48 48" height="48px" id="????????_1" preserveAspectRatio="xMidYMid meet" style="fill:#000000" version="1.1" viewBox="0 0 48 48" width="48px" x="0px" xml:space="preserve" y="0px" zoomAndPan="magnify">
<g>
	<polyline fill="none" points="29,18 35,15 35,9 39,6  " stroke="#37474F" stroke-linecap="round" stroke-width="2"/>
	<polyline fill="none" points="19,18 13,15 13,9 9,6  " stroke="#37474F" stroke-linecap="round" stroke-width="2"/>
	<polyline fill="none" points="28,29 31,30 32,38 38,41  " stroke="#37474F" stroke-linecap="round" stroke-width="2"/>
	<polyline fill="none" points="30,21 36,23 37,32 41,34  " stroke="#37474F" stroke-linecap="round" stroke-width="2"/>
	<polyline fill="none" points="20,29 17,30 16,38 10,41  " stroke="#37474F" stroke-linecap="round" stroke-width="2"/>
	<polyline fill="none" points="18,21 12,23 11,32 7,34  " stroke="#37474F" stroke-linecap="round" stroke-width="2"/>
	<path d="M28,16c0,1.104-0.896,2-2,2h-4c-1.104,0-2-0.896-2-2v-3c0-1.105,0.896-2,2-2h4c1.104,0,2,0.895,2,2V16z" fill="#37474F"/>
	<path d="M24,12V9c0,0,3-1,3-4" fill="none" stroke="#37474F" stroke-width="2"/>
	<path d="M24,9c0,0-3-1-3-4" fill="none" stroke="#37474F" stroke-width="2"/>
</g>
<path d="M15.854,34c0,0,1.019,8,8.148,8s8.148-8,8.148-8l0.846-7.965c0,0,0.173-2.035-1.864-2.035s-12.223,0-14.26,0  s-1.869,1.987-1.869,1.987L15.854,34z" fill="#8BC34A"/>
<path d="M25,24c-0.663,0-1.337,0-2,0v17.928C23.322,41.967,23.648,42,24,42s0.678-0.033,1-0.072V24z" fill="#2E7D32"/>
<g>
	<path d="M29.012,40.101V24c-0.596,0-1.273,0-2,0v17.397C27.786,41.064,28.454,40.622,29.012,40.101z" fill="#43A047"/>
	<path d="M32.16,34.002l0.83-7.966c0,0,0.271-2.036-1.979-2.036v13.563C31.855,35.923,32.16,34.002,32.16,34.002z" fill="#43A047"/>
	<path d="M21.012,41.397V24c-0.727,0-1.404,0-2,0v16.101C19.569,40.622,20.237,41.064,21.012,41.397z" fill="#43A047"/>
	<path d="M15.028,25.988l0.835,8.014c0,0,0.273,1.937,1.148,3.546V24C14.777,24,15.028,25.988,15.028,25.988z" fill="#43A047"/>
</g>
<path d="M24.975,14h-1.949C17.096,14,15,17.774,15,22.048C15,23.959,17.177,24,17.177,24h13.646  c0,0,2.177-0.041,2.177-1.924C33,17.79,30.918,14,24.975,14z" fill="#2E7D32"/>
<path d="M21.002,24c0,0,1-2,3-2s3,2,3,2c-2,0-3,6-3,6S23.002,24,21.002,24z" fill="#09350B"/>
</svg>