<?xml version="1.0" encoding="utf-8" standalone="no"?><!-- Generator: Adobe Illustrator 18.1.1, SVG Export Plug-In . SVG Version: 6.00 Build 0)  --><svg xmlns="http://www.w3.org/2000/svg" xmlns:xlink="http://www.w3.org/1999/xlink" enable-background="new 0 0 48 48" id="Layer_1" style="fill:#000000" version="1.1" viewBox="0 0 48 48" x="0px" xml:space="preserve" y="0px">
<g>
	<path d="M18,32c-1.1,0-2-0.9-2-2l0-10l-4,0l0,10c0,3.3,2.7,6,6,6h19v-4H18z" fill="#009688"/>
	<path d="M12.8,10l-0.4-1.3C11.8,7.1,10.3,6,8.6,6H5v4h3.6l5.5,16.6c0.3,0.8,1,1.4,1.9,1.4h19c0.8,0,1.5-0.5,1.8-1.2   L44.4,10H12.8z" fill="#009688"/>
</g>
<circle cx="5" cy="8" fill="#00695C" r="2"/>
<g>
	<circle cx="34" cy="39" fill="#37474F" r="3"/>
	<circle cx="19" cy="39" fill="#37474F" r="3"/>
</g>
<g>
	<circle cx="34" cy="39" fill="#607D8B" r="1"/>
	<circle cx="19" cy="39" fill="#607D8B" r="1"/>
</g>
</svg>