<?xml version="1.0" encoding="utf-8" standalone="no"?><!-- Generator: Adobe Illustrator 15.0.0, SVG Export Plug-In . SVG Version: 6.00 Build 0)  --><svg xmlns="http://www.w3.org/2000/svg" xmlns:xlink="http://www.w3.org/1999/xlink" contentScriptType="application/ecmascript" contentStyleType="text/css" enable-background="new 0 0 48 48" height="48px" id="????????_1" preserveAspectRatio="xMidYMid meet" style="fill:#000000" version="1.1" viewBox="0 0 48 48" width="48px" x="0px" xml:space="preserve" y="0px" zoomAndPan="magnify">
<polygon fill="#B0BEC5" points="42,42 17.017,42 17,40 42,40 "/>
<path d="M30.749,32.749l12.021-12.02c0.781-0.781,0.781-2.048,0-2.829L31.456,6.586  c-0.781-0.781-2.048-0.781-2.829,0l-12.021,12.02L30.749,32.749z" fill="#607D8B"/>
<path d="M39.728,23.771l3.042-3.042c0.781-0.781,0.781-2.048,0-2.829L31.456,6.586c-0.781-0.781-2.048-0.781-2.829,0  l-3.043,3.042L39.728,23.771z" fill="#546E7A"/>
<path d="M21.367,42l9.382-9.251L16.606,18.606L4.586,30.628c-0.781,0.78-0.781,2.047,0,2.828L13,42H21.367z" fill="#CFD8DC"/>
</svg>