<?xml version="1.0" encoding="utf-8" standalone="no"?><!-- Generator: Adobe Illustrator 15.0.0, SVG Export Plug-In . SVG Version: 6.00 Build 0)  --><svg xmlns="http://www.w3.org/2000/svg" xmlns:xlink="http://www.w3.org/1999/xlink" contentScriptType="application/ecmascript" contentStyleType="text/css" enable-background="new 0 0 48 48" height="48px" id="????????_1" preserveAspectRatio="xMidYMid meet" style="fill:#000000" version="1.1" viewBox="0 0 48 48" width="48px" x="0px" xml:space="preserve" y="0px" zoomAndPan="magnify">
<path d="M36,6H26c0,1.104-0.896,2-2,2s-2-0.896-2-2H12c-2.209,0-4,1.791-4,4v32c0,2.209,1.791,4,4,4h24  c2.209,0,4-1.791,4-4V10C40,7.791,38.209,6,36,6" fill="#455A64"/>
<path d="M36,43H12c-0.552,0-1-0.448-1-1V10c0-0.552,0.448-1,1-1h24c0.552,0,1,0.448,1,1v32  C37,42.552,36.552,43,36,43" fill="#FFFFFF"/>
<g>
	<path d="M26,6c0,1.105-0.895,2-2,2s-2-0.895-2-2h-7v4c0,1.105,0.895,2,2,2h14c1.105,0,2-0.895,2-2V6H26z" fill="#90A4AE"/>
	<path d="M24,2c-2.206,0-4,1.794-4,4s1.794,4,4,4s4-1.794,4-4S26.206,2,24,2 M24,8c-1.104,0-2-0.896-2-2s0.896-2,2-2   s2,0.896,2,2S25.104,8,24,8" fill="#90A4AE"/>
</g>
<g>
	<rect fill="#03A9F4" height="3" width="16" x="15" y="17"/>
	<rect fill="#03A9F4" height="2" width="16" x="15" y="24"/>
	<rect fill="#03A9F4" height="2" width="12" x="15" y="28"/>
	<rect fill="#03A9F4" height="2" width="16" x="15" y="32"/>
	<rect fill="#03A9F4" height="2" width="12" x="15" y="36"/>
</g>
</svg>