<?xml version="1.0" encoding="utf-8" standalone="no"?><!-- Generator: Adobe Illustrator 15.0.0, SVG Export Plug-In . SVG Version: 6.00 Build 0)  --><svg xmlns="http://www.w3.org/2000/svg" xmlns:xlink="http://www.w3.org/1999/xlink" contentScriptType="application/ecmascript" contentStyleType="text/css" enable-background="new 0 0 48 48" height="48px" id="????????_1" preserveAspectRatio="xMidYMid meet" style="fill:#000000" version="1.1" viewBox="0 0 48 48" width="48px" x="0px" xml:space="preserve" y="0px" zoomAndPan="magnify">
<g>
	<path d="M19,38c0,0-1.938-4-7-4s-7,4-7,4v2h14V38z" fill="#8BC34A"/>
	<path d="M43,38c0,0-1.938-4-7-4s-7,4-7,4v2h14V38z" fill="#8BC34A"/>
</g>
<g>
	<path d="M16,12c0,2.209-1.791,4-4,4s-4-1.791-4-4s1.791-4,4-4S16,9.791,16,12" fill="#FFA726"/>
	<path d="M40,12c0,2.209-1.791,4-4,4s-4-1.791-4-4s1.791-4,4-4S40,9.791,40,12" fill="#FFA726"/>
</g>
<g>
	<path d="M19,21c0,0-1.938-4-7-4s-7,4-7,4v2h14V21z" fill="#33691E"/>
	<path d="M43,21c0,0-1.938-4-7-4s-7,4-7,4v2h14V21z" fill="#33691E"/>
</g>
<g>
	<path d="M16,29c0,2.209-1.791,4-4,4s-4-1.791-4-4s1.791-4,4-4S16,26.791,16,29" fill="#FFB74D"/>
	<path d="M40,29c0,2.209-1.791,4-4,4s-4-1.791-4-4s1.791-4,4-4S40,26.791,40,29" fill="#FFB74D"/>
	<path d="M28,21c0,2.209-1.791,4-4,4s-4-1.791-4-4s1.791-4,4-4S28,18.791,28,21" fill="#FFB74D"/>
</g>
<path d="M31,30c0,0-1.938-4-7-4c-5.062,0-7,4-7,4v2h14V30z" fill="#689F38"/>
</svg>