<?xml version="1.0" encoding="utf-8" standalone="no"?><!-- Generator: Adobe Illustrator 15.0.0, SVG Export Plug-In . SVG Version: 6.00 Build 0)  --><svg xmlns="http://www.w3.org/2000/svg" xmlns:xlink="http://www.w3.org/1999/xlink" contentScriptType="application/ecmascript" contentStyleType="text/css" enable-background="new 0 0 48 48" height="48px" id="????????_1" preserveAspectRatio="xMidYMid meet" style="fill:#000000" version="1.1" viewBox="0 0 48 48" width="48px" x="0px" xml:space="preserve" y="0px" zoomAndPan="magnify">
<polygon fill="#42A5F5" points="31,36 6,36 6,3 23,3 31,11 "/>
<polygon fill="#E1F5FE" points="29.5,12 22,12 22,4.5 "/>
<g>
	<rect fill="#1565C0" height="2" width="16" x="11" y="16"/>
	<rect fill="#1565C0" height="2" width="12" x="11" y="20"/>
	<rect fill="#1565C0" height="2" width="16" x="11" y="24"/>
	<rect fill="#1565C0" height="2" width="12" x="11" y="28"/>
</g>
<polygon fill="#90CAF9" points="42,44 17,44 17,11 34,11 42,19 "/>
<polygon fill="#E1F5FE" points="40.5,20 33,20 33,12.5 "/>
<g>
	<rect fill="#1976D2" height="2" width="15" x="22" y="24"/>
	<rect fill="#1976D2" height="2" width="11" x="22" y="28"/>
	<rect fill="#1976D2" height="2" width="15" x="22" y="32"/>
	<rect fill="#1976D2" height="2" width="11" x="22" y="36"/>
</g>
</svg>