<?xml version="1.0" encoding="utf-8" standalone="no"?><!-- Generator: Adobe Illustrator 15.0.0, SVG Export Plug-In . SVG Version: 6.00 Build 0)  --><svg xmlns="http://www.w3.org/2000/svg" xmlns:xlink="http://www.w3.org/1999/xlink" contentScriptType="application/ecmascript" contentStyleType="text/css" enable-background="new 0 0 48 48" height="48px" id="????????_1" preserveAspectRatio="xMidYMid meet" style="fill:#000000" version="1.1" viewBox="0 0 48 48" width="48px" x="0px" xml:space="preserve" y="0px" zoomAndPan="magnify">
<g>
	<path d="M22.345,20.133c0,0-5.718-3.48-7.03-4.187c-0.246-0.134-0.397-0.232-0.49-0.303   c1.045-0.923,1.591-2.633,1.591-3.871c0-1.861-1.584-5.772-6.29-5.772C5.631,6,4,9.281,4,11.601c0,1.821,0.689,4.3,3.97,5.761   c0.556,0.248,1.137,0.479,1.73,0.714c2.797,1.106,5.69,2.252,8.18,6.048L22.345,20.133z M12.456,14.085   c-0.523,0.591-1.237,0.916-2.01,0.916c-1.673,0-3.197-1.346-3.396-2.998c-0.099-0.822,0.14-1.604,0.672-2.205   c0.539-0.609,1.332-0.957,2.176-0.957c1.721,0,3.109,1.175,3.305,2.795C13.311,12.536,13.038,13.429,12.456,14.085z" fill="#3F51B5"/>
	<path d="M43.854,35.973L30.117,25.859l-5.354,3.949L34,36.4c0.096,0.072,2.336,1.662,5.087,1.662   c0.001,0,0.001,0,0.001,0c1.502,0,2.864-0.41,4.051-1.381C43.33,36.525,43.854,35.973,43.854,35.973z" fill="#3F51B5"/>
</g>
<path d="M43.316,11.229c-1.188-0.971-2.549-1.213-4.053-1.213c-2.752,0-4.992,1.423-5.068,1.48L18.844,22.23  c-0.098,0.069-0.178,0.16-0.237,0.266c-2.627,4.775-5.817,6.04-8.904,7.262c-0.596,0.235-1.176,0.467-1.732,0.715  C4.689,31.934,4,34.412,4,36.232C4,38.551,5.631,42,10.125,42c4.706,0,6.29-4.078,6.29-5.939c0-1.238-0.546-2.946-1.591-3.871  c0.093-0.069,0.244-0.168,0.49-0.303c1.313-0.707,6.798-4.046,7.089-4.228L44,12L43.316,11.229z M13.202,36.197  c-0.195,1.619-1.586,2.795-3.305,2.795c-0.844,0-1.637-0.35-2.176-0.956c-0.532-0.601-0.771-1.384-0.672-2.205  c0.199-1.653,1.724-2.997,3.398-2.997c0.772,0,1.485,0.324,2.008,0.915C13.038,34.404,13.311,35.297,13.202,36.197z" fill="#03A9F4"/>
<g>
	<path d="M22.403,27.659c-0.038,0.023-0.169,0.104-0.364,0.223l2.725,1.929l5.354-3.951l-2.595-1.912L22.403,27.659z   " fill="#283593"/>
	<circle cx="22.485" cy="23.486" fill="#283593" r="1"/>
</g>
</svg>