<?xml version="1.0" encoding="utf-8" standalone="no"?><!-- Generator: Adobe Illustrator 15.0.0, SVG Export Plug-In . SVG Version: 6.00 Build 0)  --><svg xmlns="http://www.w3.org/2000/svg" xmlns:xlink="http://www.w3.org/1999/xlink" contentScriptType="application/ecmascript" contentStyleType="text/css" enable-background="new 0 0 48 48" height="48px" id="????????_1" preserveAspectRatio="xMidYMid meet" style="fill:#000000" version="1.1" viewBox="0 0 48 48" width="48px" x="0px" xml:space="preserve" y="0px" zoomAndPan="magnify">
<path d="M40,31c0,0.553-0.447,2-1,2H9c-0.552,0-1-1.447-1-2V10c0-0.553,0.448-1,1-1h30c0.553,0,1,0.447,1,1V31z" fill="#455A64"/>
<rect fill="#BBDEFB" height="18" width="28" x="10" y="11"/>
<g>
	<rect fill="#CFD8DC" height="2" width="42" x="3" y="37"/>
	<polygon fill="#CFD8DC" points="40,31 8,31 3,37 45,37  "/>
</g>
<polygon fill="#546E7A" points="10,32 38,32 40,35 8,35 "/>
<polygon fill="#90A4AE" points="28,35 20,35 19,37 29,37 "/>
</svg>