<?xml version="1.0" encoding="utf-8" standalone="no"?><!-- Generator: Adobe Illustrator 15.0.0, SVG Export Plug-In . SVG Version: 6.00 Build 0)  --><svg xmlns="http://www.w3.org/2000/svg" xmlns:xlink="http://www.w3.org/1999/xlink" contentScriptType="application/ecmascript" contentStyleType="text/css" enable-background="new 0 0 48 48" height="48px" id="????????_1" preserveAspectRatio="xMidYMid meet" style="fill:#0066ff" version="1.1" viewBox="0 0 48 48" width="48px" x="0px" xml:space="preserve" y="0px" zoomAndPan="magnify">
<path d="M40,21l-7.938-2.168l4.08-7.146l-2.829-2.829l-6.835,3.902L24,5h-4l-2.375,7.437l-6.938-3.579l-2.829,2.829  l3.579,6.938L4,21v4l7.437,2.375l-3.579,6.938l2.829,2.829l6.938-3.579L20,41h4l2.375-7.437l6.938,3.579l2.829-2.829l-3.734-7.239  L40,25V21z M22,31c-4.418,0-8-3.582-8-8s3.582-8,8-8c4.418,0,8,3.582,8,8S26.418,31,22,31z" fill="#455A64"/>
<path d="M22,10c-7.18,0-13,5.82-13,13s5.82,13,13,13s13-5.82,13-13S29.18,10,22,10z M22,30c-3.865,0-7-3.133-7-7  s3.135-7,7-7c3.865,0,7,3.133,7,7S25.865,30,22,30z" fill="#78909C"/>
<rect fill="#BBDEFB" height="17" width="21" x="23" y="27"/>
<g>
	<polygon fill="#3F51B5" points="33.071,29 29.535,32.535 27.414,30.414 26,31.828 29.535,35.363 34.485,30.414  "/>
	<polygon fill="#3F51B5" points="33.071,35.637 29.535,39.172 27.414,37.051 26,38.465 29.535,42 34.485,37.051  "/>
	<path d="M44,27v-3c0-0.553-0.447-1-1-1H24c-0.552,0-1,0.447-1,1v3H44z" fill="#3F51B5"/>
</g>
</svg>