<?xml version="1.0" encoding="utf-8" standalone="no"?><!-- Generator: Adobe Illustrator 15.0.0, SVG Export Plug-In . SVG Version: 6.00 Build 0)  --><svg xmlns="http://www.w3.org/2000/svg" xmlns:xlink="http://www.w3.org/1999/xlink" contentScriptType="application/ecmascript" contentStyleType="text/css" enable-background="new 0 0 48 48" height="48px" id="????????_1" preserveAspectRatio="xMidYMid meet" style="fill:#000000" version="1.1" viewBox="0 0 48 48" width="48px" x="0px" xml:space="preserve" y="0px" zoomAndPan="magnify">
<path d="M24,4c-5.514,0-10,4.486-10,10v4h4v-4c0-3.309,2.691-6,6-6s6,2.691,6,6v4h4v-4C34,8.486,29.514,4,24,4" fill="#424242"/>
<path d="M36,44H12c-2.209,0-4-1.791-4-4V22c0-2.209,1.791-4,4-4h24c2.209,0,4,1.791,4,4v18  C40,42.209,38.209,44,36,44" fill="#FB8C00"/>
<g>
	<path d="M22.322,34c0-1.055,0.117-1.888,0.351-2.497c0.233-0.611,0.612-1.14,1.136-1.589   c0.524-0.448,0.922-0.857,1.195-1.23c0.272-0.371,0.408-0.781,0.408-1.229c0-1.091-0.461-1.637-1.381-1.637   c-0.424,0-0.768,0.158-1.029,0.477s-0.399,0.748-0.414,1.291H19c0.014-1.446,0.46-2.572,1.338-3.377   C21.215,23.403,22.446,23,24.031,23c1.578,0,2.801,0.373,3.669,1.116c0.867,0.744,1.3,1.803,1.3,3.175   c0,0.601-0.117,1.146-0.351,1.639c-0.233,0.489-0.608,0.99-1.125,1.504l-1.221,1.16c-0.347,0.34-0.588,0.688-0.722,1.045   c-0.135,0.359-0.208,0.813-0.224,1.361H22.322z" fill="#AF5902"/>
	<path d="M21.873,37.183c0-0.532,0.189-0.966,0.572-1.308c0.382-0.339,0.857-0.51,1.428-0.51s1.046,0.171,1.427,0.51   c0.383,0.342,0.573,0.775,0.573,1.308c0,0.53-0.19,0.966-0.573,1.307C24.919,38.83,24.443,39,23.873,39s-1.046-0.17-1.428-0.511   C22.063,38.148,21.873,37.713,21.873,37.183z" fill="#AF5902"/>
</g>
</svg>