<?xml version="1.0" encoding="UTF-8" standalone="no"?>
<!-- Generator: Adobe Illustrator 15.0.0, SVG Export Plug-In . SVG Version: 6.00 Build 0)  -->

<svg
   xmlns:dc="http://purl.org/dc/elements/1.1/"
   xmlns:cc="http://creativecommons.org/ns#"
   xmlns:rdf="http://www.w3.org/1999/02/22-rdf-syntax-ns#"
   xmlns:svg="http://www.w3.org/2000/svg"
   xmlns="http://www.w3.org/2000/svg"
   xmlns:sodipodi="http://sodipodi.sourceforge.net/DTD/sodipodi-0.dtd"
   xmlns:inkscape="http://www.inkscape.org/namespaces/inkscape"
   contentScriptType="application/ecmascript"
   contentStyleType="text/css"
   enable-background="new 0 0 48 48"
   height="48px"
   id="????????_1"
   preserveAspectRatio="xMidYMid meet"
   style="fill:#000000"
   version="1.1"
   viewBox="0 0 48 48"
   width="48px"
   x="0px"
   xml:space="preserve"
   y="0px"
   zoomAndPan="magnify"
   inkscape:version="0.91 r13725"
   sodipodi:docname="event.svg"><metadata
     id="metadata23"><rdf:RDF><cc:Work
         rdf:about=""><dc:format>image/svg+xml</dc:format><dc:type
           rdf:resource="http://purl.org/dc/dcmitype/StillImage" /></cc:Work></rdf:RDF></metadata><defs
     id="defs21" /><sodipodi:namedview
     pagecolor="#ffffff"
     bordercolor="#666666"
     borderopacity="1"
     objecttolerance="10"
     gridtolerance="10"
     guidetolerance="10"
     inkscape:pageopacity="0"
     inkscape:pageshadow="2"
     inkscape:window-width="852"
     inkscape:window-height="480"
     id="namedview19"
     showgrid="false"
     inkscape:zoom="4.9166667"
     inkscape:cx="24"
     inkscape:cy="24"
     inkscape:window-x="0"
     inkscape:window-y="0"
     inkscape:window-maximized="0"
     inkscape:current-layer="????????_1" /><path
     d="M 48,24 C 48,37.2552 37.2552,48 24,48 10.7448,48 0,37.2552 0,24 0,10.7448 10.7448,0 24,0 37.2552,0 48,10.7448 48,24"
     id="path3"
     inkscape:connector-curvature="0"
     style="fill:#7cb342" /><path
     d="M 43.2,24 C 43.2,34.6044 34.6044,43.2 24,43.2 13.3956,43.2 4.8,34.6044 4.8,24 4.8,13.3956 13.3956,4.8 24,4.8 34.6044,4.8 43.2,13.3956 43.2,24"
     id="path5"
     inkscape:connector-curvature="0"
     style="fill:#ffffff" /><path
     d="M 24,22.6596 24,0 C 15.0348,0 7.2396,4.9284 3.1212,12.2124 L 24,22.6596 Z"
     id="path7"
     inkscape:connector-curvature="0"
     style="fill:#dcedc8" /><g
     id="g9"
     transform="matrix(1.2,0,0,1.2,-4.8,-4.8)"><polygon
       points="14.167,17.918 13.271,19.704 23.552,24.894 24.448,23.106 "
       id="polygon11" /><polygon
       points="31.834,22.668 31.098,20.449 23.632,22.891 24.369,25.108 "
       id="polygon13" /><path
       d="m 24.896,22.212 c 0.988,0.495 1.387,1.696 0.892,2.685 -0.495,0.987 -1.696,1.387 -2.684,0.892 -0.988,-0.495 -1.387,-1.696 -0.892,-2.685 0.496,-0.989 1.696,-1.388 2.684,-0.892"
       id="path15"
       inkscape:connector-curvature="0" /></g><path
     d="m 24.5376,22.9272 c 0.5916,0.2952 0.8304,1.0176 0.5352,1.6104 -0.2976,0.5904 -1.0188,0.8304 -1.6104,0.534 -0.5928,-0.2964 -0.8316,-1.0188 -0.5352,-1.6104 0.2976,-0.5904 1.0188,-0.8316 1.6104,-0.534"
     id="path17"
     inkscape:connector-curvature="0"
     style="fill:#8bc34a" /></svg>