<?xml version="1.0" encoding="UTF-8" standalone="no"?>
<!-- Generator: Adobe Illustrator 15.0.0, SVG Export Plug-In . SVG Version: 6.00 Build 0)  -->

<svg
   xmlns:dc="http://purl.org/dc/elements/1.1/"
   xmlns:cc="http://creativecommons.org/ns#"
   xmlns:rdf="http://www.w3.org/1999/02/22-rdf-syntax-ns#"
   xmlns:svg="http://www.w3.org/2000/svg"
   xmlns="http://www.w3.org/2000/svg"
   xmlns:sodipodi="http://sodipodi.sourceforge.net/DTD/sodipodi-0.dtd"
   xmlns:inkscape="http://www.inkscape.org/namespaces/inkscape"
   contentScriptType="application/ecmascript"
   contentStyleType="text/css"
   enable-background="new 0 0 48 48"
   height="48px"
   id="????????_1"
   preserveAspectRatio="xMidYMid meet"
   style="fill:#000000"
   version="1.1"
   viewBox="0 0 48 48"
   width="48px"
   x="0px"
   xml:space="preserve"
   y="0px"
   zoomAndPan="magnify"
   inkscape:version="0.91 r13725"
   sodipodi:docname="extensionmanager.svg"><metadata
     id="metadata15"><rdf:RDF><cc:Work
         rdf:about=""><dc:format>image/svg+xml</dc:format><dc:type
           rdf:resource="http://purl.org/dc/dcmitype/StillImage" /></cc:Work></rdf:RDF></metadata><defs
     id="defs13" /><sodipodi:namedview
     pagecolor="#ffffff"
     bordercolor="#666666"
     borderopacity="1"
     objecttolerance="10"
     gridtolerance="10"
     guidetolerance="10"
     inkscape:pageopacity="0"
     inkscape:pageshadow="2"
     inkscape:window-width="1200"
     inkscape:window-height="1857"
     id="namedview11"
     showgrid="false"
     inkscape:zoom="4.9166667"
     inkscape:cx="28.618761"
     inkscape:cy="17.953415"
     inkscape:window-x="-8"
     inkscape:window-y="-8"
     inkscape:window-maximized="1"
     inkscape:current-layer="????????_1" /><g
     id="g3"><rect
       fill="#1565C0"
       height="7"
       width="10"
       x="10"
       y="10"
       id="rect5" /><rect
       fill="#1565C0"
       height="7"
       width="10"
       x="28"
       y="10"
       id="rect7" /></g><rect
     fill="#2196F3"
     height="22"
     width="36"
     x="6"
     y="16"
     id="rect9" /><g
     id="g4165"
     transform="matrix(0.54049786,0,0,0.54049786,21.312598,21.108098)"><path
       id="path4155"
       d="m 39.6,27.2 c 0.1,-0.7 0.2,-1.4 0.2,-2.2 0,-0.8 -0.1,-1.5 -0.2,-2.2 l 4.5,-3.2 c 0.4,-0.3 0.6,-0.9 0.3,-1.4 L 40,10.8 c -0.3,-0.5 -0.8,-0.7 -1.3,-0.4 l -5,2.3 C 32.5,11.8 31.3,11.1 29.9,10.5 L 29.4,5 C 29.3,4.5 28.9,4.1 28.4,4.1 l -8.6,0 c -0.5,0 -1,0.4 -1,0.9 l -0.5,5.5 c -1.4,0.6 -2.7,1.3 -3.8,2.2 l -5,-2.3 C 9,10.2 8.4,10.4 8.2,10.8 l -4.3,7.4 c -0.3,0.5 -0.1,1.1 0.3,1.4 l 4.5,3.2 c -0.1,0.7 -0.2,1.4 -0.2,2.2 0,0.8 0.1,1.5 0.2,2.2 L 4,30.4 C 3.6,30.7 3.4,31.3 3.7,31.8 L 8,39.2 c 0.3,0.5 0.8,0.7 1.3,0.4 l 5,-2.3 c 1.2,0.9 2.4,1.6 3.8,2.2 l 0.5,5.5 c 0.1,0.5 0.5,0.9 1,0.9 l 8.6,0 c 0.5,0 1,-0.4 1,-0.9 l 0.5,-5.5 c 1.4,-0.6 2.7,-1.3 3.8,-2.2 l 5,2.3 c 0.5,0.2 1.1,0 1.3,-0.4 l 4.3,-7.4 c 0.3,-0.5 0.1,-1.1 -0.3,-1.4 L 39.6,27.2 Z M 24,35 c -5.5,0 -10,-4.5 -10,-10 0,-5.5 4.5,-10 10,-10 5.5,0 10,4.5 10,10 0,5.5 -4.5,10 -10,10 z"
       inkscape:connector-curvature="0"
       style="fill:#607d8b" /><path
       id="path4157"
       d="m 24,13 c -6.6,0 -12,5.4 -12,12 0,6.6 5.4,12 12,12 6.6,0 12,-5.4 12,-12 0,-6.6 -5.4,-12 -12,-12 z m 0,17 c -2.8,0 -5,-2.2 -5,-5 0,-2.8 2.2,-5 5,-5 2.8,0 5,2.2 5,5 0,2.8 -2.2,5 -5,5 z"
       inkscape:connector-curvature="0"
       style="fill:#455a64" /></g></svg>