<?xml version="1.0" encoding="utf-8" standalone="no"?><!-- Generator: Adobe Illustrator 18.1.1, SVG Export Plug-In . SVG Version: 6.00 Build 0)  --><svg xmlns="http://www.w3.org/2000/svg" xmlns:xlink="http://www.w3.org/1999/xlink" enable-background="new 0 0 48 48" id="Layer_1" style="fill:#000000" version="1.1" viewBox="0 0 48 48" x="0px" xml:space="preserve" y="0px">
<g>
	<path d="M40,12H22l-4-4H8c-2.2,0-4,1.8-4,4v8h40v-4C44,13.8,42.2,12,40,12z" fill="#FFA000"/>
</g>
<g>
	<path d="M40,12H8c-2.2,0-4,1.8-4,4v20c0,2.2,1.8,4,4,4h32c2.2,0,4-1.8,4-4V16C44,13.8,42.2,12,40,12z" fill="#FFCA28"/>
</g>
<g>
	<rect fill="#BF360C" height="2" width="4" x="22" y="18"/>
	<rect fill="#BF360C" height="2" width="4" x="22" y="12"/>
	<rect fill="#BF360C" height="2" width="4" x="22" y="15"/>
	<rect fill="#BF360C" height="2" width="4" x="22" y="21"/>
	<path d="M26,24h-4c0,3-2,6-2,8c0,2.2,1.8,4,4,4s4-1.8,4-4C28,30,26,27,26,24z M24,34c-1.1,0-2-0.9-2-2s0.9-2,2-2   s2,0.9,2,2S25.1,34,24,34z" fill="#BF360C"/>
</g>
</svg>