<?xml version="1.0" encoding="UTF-8" standalone="no"?>
<!-- Generator: Adobe Illustrator 15.0.0, SVG Export Plug-In . SVG Version: 6.00 Build 0)  -->

<svg
   xmlns:dc="http://purl.org/dc/elements/1.1/"
   xmlns:cc="http://creativecommons.org/ns#"
   xmlns:rdf="http://www.w3.org/1999/02/22-rdf-syntax-ns#"
   xmlns:svg="http://www.w3.org/2000/svg"
   xmlns="http://www.w3.org/2000/svg"
   xmlns:sodipodi="http://sodipodi.sourceforge.net/DTD/sodipodi-0.dtd"
   xmlns:inkscape="http://www.inkscape.org/namespaces/inkscape"
   contentScriptType="application/ecmascript"
   contentStyleType="text/css"
   enable-background="new 0 0 48 48"
   height="48px"
   id="????????_1"
   preserveAspectRatio="xMidYMid meet"
   style="fill:#000000;fill-opacity:1.0"
   version="1.1"
   viewBox="0 0 48 48"
   width="48px"
   x="0px"
   xml:space="preserve"
   y="0px"
   zoomAndPan="magnify"
   inkscape:version="0.91 r13725"
   sodipodi:docname="extract_run.svg"><metadata
     id="metadata57"><rdf:RDF><cc:Work
         rdf:about=""><dc:format>image/svg+xml</dc:format><dc:type
           rdf:resource="http://purl.org/dc/dcmitype/StillImage" /></cc:Work></rdf:RDF></metadata><defs
     id="defs55" /><sodipodi:namedview
     pagecolor="#ffffff"
     bordercolor="#666666"
     borderopacity="1"
     objecttolerance="10"
     gridtolerance="10"
     guidetolerance="10"
     inkscape:pageopacity="0"
     inkscape:pageshadow="2"
     inkscape:window-width="640"
     inkscape:window-height="480"
     id="namedview53"
     showgrid="false"
     inkscape:object-nodes="true"
     inkscape:zoom="4.9166667"
     inkscape:cx="24"
     inkscape:cy="24"
     inkscape:window-x="0"
     inkscape:window-y="0"
     inkscape:window-maximized="0"
     inkscape:current-layer="????????_1" /><g
     id="g3"><path
       d="M17,24L7,17.467c0,0,1-1.865,1-3.732S7,10,7,10l10,6.533V24z"
       fill="#CFD8DC"
       id="path5" /><path
       d="M17,40L7,32.533c0,0,1-0.934,1-2.8S7,26,7,26l10,6.533V40z"
       fill="#CFD8DC"
       id="path7" /><path
       d="M17,32L7,24.533c0,0,1-0.934,1-2.8S7,18,7,18l10,6.533V32z"
       fill="#CFD8DC"
       id="path9" /></g><g
     id="g11"><path
       d="M17.624,34c-0.219,0-0.44-0.071-0.624-0.219l-10.625-8c-0.432-0.346-0.501-0.975-0.156-1.406   c0.344-0.431,0.975-0.501,1.405-0.156l10.625,8c0.432,0.346,0.501,0.975,0.156,1.406C18.208,33.871,17.917,34,17.624,34z"
       fill="#3F51B5"
       id="path13" /><path
       d="M42,25H16c0,0,1,1.742,1,4.246S16,33,16,33h26c0,0,1-1,1-4S42,25,42,25z"
       fill="#3F51B5"
       id="path15" /></g><g
     id="g17"><path
       d="M17.624,26c-0.219,0-0.44-0.071-0.624-0.219l-10.625-8c-0.432-0.346-0.501-0.975-0.156-1.406   c0.344-0.431,0.975-0.502,1.405-0.156l10.625,8c0.432,0.346,0.501,0.975,0.156,1.406C18.208,25.871,17.917,26,17.624,26z"
       fill="#9C27B0"
       id="path19" /><path
       d="M42,17H16c0,0,1,1.742,1,4.246S16,25,16,25h26c0,0,1-1,1-4S42,17,42,17z"
       fill="#9C27B0"
       id="path21" /></g><g
     id="g23"><path
       d="M18.609,41c0-0.293-0.113-0.584-0.36-0.781l-10.625-8c-0.43-0.345-1.061-0.274-1.405,0.156   c-0.345,0.432-0.275,1.061,0.156,1.406L15.962,41H18.609z"
       fill="#8BC34A"
       id="path25" /><path
       d="M42,33H16c0,0,1,1.742,1,4.246S16,41,16,41h26c0,0,1-1,1-4S42,33,42,33z"
       fill="#8BC34A"
       id="path27" /></g><path
     d="M42,33H16c0,0,0.441,0.756,0.733,2h26.035C42.473,33.559,42,33,42,33z"
     fill="#689F38"
     id="path29" /><path
     d="M42,25H16c0,0,0.441,0.756,0.733,2h26.035C42.473,25.559,42,25,42,25z"
     fill="#303F9F"
     id="path31" /><g
     id="g33"><path
       d="M21.034,32c0.11-0.45,0.299-1.379,0.299-2.5s-0.189-2.05-0.299-2.5H19c0.003,0.009,0.333,1.267,0.333,2.5   S19.002,31.993,19,32H21.034z"
       fill="#FDD835"
       id="path35" /><path
       d="M21.034,24c0.11-0.45,0.299-1.379,0.299-2.5s-0.189-2.05-0.299-2.5H19c0.003,0.009,0.333,1.267,0.333,2.5   S19.002,23.993,19,24H21.034z"
       fill="#FDD835"
       id="path37" /><path
       d="M21.034,40c0.11-0.45,0.299-1.379,0.299-2.5s-0.189-2.05-0.299-2.5H19c0.003,0.009,0.333,1.267,0.333,2.5   S19.002,39.993,19,40H21.034z"
       fill="#FDD835"
       id="path39" /></g><path
     d="M42.768,19C42.473,17.559,42,17,42,17L30.844,8.591C30.844,8.591,30.063,8,29,8C27.771,8,7,8,7,8  l0.018,0.018C6.703,8.012,6.39,8.137,6.191,8.412c-0.325,0.446-0.226,1.072,0.22,1.396l9.737,7.47  c0.161,0.325,0.418,0.92,0.607,1.722H42.768z"
     fill="#7B1FA2"
     id="path41" /><path
     d="M32,16L21,8h-5l11,8c1.75,1.25,2,1.625,2,3s0,19,0,19s0,3-2,3c1.056,0,3.678,0,5,0c2,0,2-3,2-3s0-18,0-19  C34,17,32.438,16.438,32,16z"
     fill="#AF7000"
     id="path43" /><g
     id="g45"><path
       d="M34,27v4h-5v-4H34 M34.25,26h-5.5C28.336,26,28,26.336,28,26.75v4.5c0,0.414,0.336,0.75,0.75,0.75h5.5   c0.414,0,0.75-0.336,0.75-0.75v-4.5C35,26.336,34.664,26,34.25,26L34.25,26z"
       fill="#FFC107"
       id="path47" /></g><circle
     cx="31.5"
     cy="29"
     fill="#5B3B07"
     r="0.5"
     id="circle49" /><path
     d="M31.5,29c-0.276,0-0.5-0.224-0.5-0.5v-3c0-0.276,0.224-0.5,0.5-0.5s0.5,0.224,0.5,0.5v3  C32,28.776,31.776,29,31.5,29z"
     fill="#FFEB3B"
     id="path51" /><g
     style="fill:#0066ff"
     id="g3456"
     transform="matrix(0.67399238,0,0,0.67399238,18.074183,17.238099)"><path
       id="path3446"
       d="m 39.6,27.2 c 0.1,-0.7 0.2,-1.4 0.2,-2.2 0,-0.8 -0.1,-1.5 -0.2,-2.2 l 4.5,-3.2 c 0.4,-0.3 0.6,-0.9 0.3,-1.4 L 40,10.8 c -0.3,-0.5 -0.8,-0.7 -1.3,-0.4 l -5,2.3 C 32.5,11.8 31.3,11.1 29.9,10.5 L 29.4,5 C 29.3,4.5 28.9,4.1 28.4,4.1 l -8.6,0 c -0.5,0 -1,0.4 -1,0.9 l -0.5,5.5 c -1.4,0.6 -2.7,1.3 -3.8,2.2 l -5,-2.3 C 9,10.2 8.4,10.4 8.2,10.8 l -4.3,7.4 c -0.3,0.5 -0.1,1.1 0.3,1.4 l 4.5,3.2 c -0.1,0.7 -0.2,1.4 -0.2,2.2 0,0.8 0.1,1.5 0.2,2.2 L 4,30.4 C 3.6,30.7 3.4,31.3 3.7,31.8 L 8,39.2 c 0.3,0.5 0.8,0.7 1.3,0.4 l 5,-2.3 c 1.2,0.9 2.4,1.6 3.8,2.2 l 0.5,5.5 c 0.1,0.5 0.5,0.9 1,0.9 l 8.6,0 c 0.5,0 1,-0.4 1,-0.9 l 0.5,-5.5 c 1.4,-0.6 2.7,-1.3 3.8,-2.2 l 5,2.3 c 0.5,0.2 1.1,0 1.3,-0.4 l 4.3,-7.4 c 0.3,-0.5 0.1,-1.1 -0.3,-1.4 L 39.6,27.2 Z M 24,35 c -5.5,0 -10,-4.5 -10,-10 0,-5.5 4.5,-10 10,-10 5.5,0 10,4.5 10,10 0,5.5 -4.5,10 -10,10 z"
       inkscape:connector-curvature="0"
       style="fill:#607d8b" /><path
       id="path3448"
       d="m 24,13 c -6.6,0 -12,5.4 -12,12 0,6.6 5.4,12 12,12 6.6,0 12,-5.4 12,-12 0,-6.6 -5.4,-12 -12,-12 z m 0,17 c -2.8,0 -5,-2.2 -5,-5 0,-2.8 2.2,-5 5,-5 2.8,0 5,2.2 5,5 0,2.8 -2.2,5 -5,5 z"
       inkscape:connector-curvature="0"
       style="fill:#455a64" /></g></svg>