<?xml version="1.0" encoding="utf-8" standalone="no"?><!-- Generator: Adobe Illustrator 15.0.0, SVG Export Plug-In . SVG Version: 6.00 Build 0)  --><svg xmlns="http://www.w3.org/2000/svg" xmlns:xlink="http://www.w3.org/1999/xlink" contentScriptType="application/ecmascript" contentStyleType="text/css" enable-background="new 0 0 48 48" height="48px" id="????????_1" preserveAspectRatio="xMidYMid meet" style="fill:#3366ff" version="1.1" viewBox="0 0 48 48" width="48px" x="0px" xml:space="preserve" y="0px" zoomAndPan="magnify">
<path d="M6,28v10c0,2.209,1.791,4,4,4h28c2.209,0,4-1.791,4-4V28H6z" fill="#78909C"/>
<path d="M42,28c0,2.209-1.791,4-4,4H10c-2.209,0-4-1.791-4-4l3-18c0.219-2.094,1.791-4,4-4h22  c2.209,0,3.688,1.75,4,4L42,28z" fill="#455A64"/>
<circle cx="35" cy="37" fill="#64DD17" r="2"/>
<path d="M24,11c-6.627,0-12,3.134-12,7c0,3.865,5.373,7,12,7c6.627,0,12-3.135,12-7C36,14.134,30.627,11,24,11z   M24,19.555c-1.473,0-2.667-0.695-2.667-1.555s1.194-1.556,2.667-1.556s2.666,0.696,2.666,1.556S25.473,19.555,24,19.555z" fill="#BBDEFB"/>
</svg>