<?xml version="1.0" encoding="utf-8" standalone="no"?><!-- Generator: Adobe Illustrator 18.1.1, SVG Export Plug-In . SVG Version: 6.00 Build 0)  --><svg xmlns="http://www.w3.org/2000/svg" xmlns:xlink="http://www.w3.org/1999/xlink" enable-background="new 0 0 48 48" id="Layer_1" style="fill:#3366ff" version="1.0" viewBox="0 0 48 48" x="0px" xml:space="preserve" y="0px">
<polygon fill="#E8EAF6" points="42,39 6,39 6,23 24,6 42,23 "/>
<g>
	<polygon fill="#C5CAE9" points="39,21 34,16 34,9 39,9  "/>
	<rect fill="#C5CAE9" height="5" width="36" x="6" y="39"/>
</g>
<polygon fill="#B71C1C" points="24,4.3 4,22.9 6,25.1 24,8.4 42,25.1 44,22.9 "/>
<rect fill="#D84315" height="16" width="12" x="18" y="28"/>
<rect fill="#01579B" height="6" width="6" x="21" y="17"/>
<path d="M27.5,35.5c-0.3,0-0.5,0.2-0.5,0.5v2c0,0.3,0.2,0.5,0.5,0.5S28,38.3,28,38v-2C28,35.7,27.8,35.5,27.5,35.5z" fill="#FF8A65"/>
</svg>