<?xml version="1.0" encoding="utf-8" standalone="no"?><!-- Generator: Adobe Illustrator 15.0.0, SVG Export Plug-In . SVG Version: 6.00 Build 0)  --><svg xmlns="http://www.w3.org/2000/svg" xmlns:xlink="http://www.w3.org/1999/xlink" contentScriptType="application/ecmascript" contentStyleType="text/css" enable-background="new 0 0 48 48" height="48px" id="????????_1" preserveAspectRatio="xMidYMid meet" style="fill:#3366ff" version="1.1" viewBox="0 0 48 48" width="48px" x="0px" xml:space="preserve" y="0px" zoomAndPan="magnify">
<g>
	<path d="M38,14h-3c-5.514,0-10,4.486-10,10s4.486,10,10,10h3c5.514,0,10-4.486,10-10S43.514,14,38,14 M38,30h-3   c-3.309,0-6-2.691-6-6s2.691-6,6-6h3c3.309,0,6,2.691,6,6S41.309,30,38,30" fill="#1976D2"/>
	<path d="M13,14h-3C4.486,14,0,18.486,0,24s4.486,10,10,10h3c5.514,0,10-4.486,10-10S18.514,14,13,14 M13,30h-3   c-3.309,0-6-2.691-6-6s2.691-6,6-6h3c3.309,0,6,2.691,6,6S16.309,30,13,30" fill="#1976D2"/>
</g>
<path d="M33,22H15c-1.104,0-2,0.896-2,2s0.896,2,2,2h18c1.104,0,2-0.896,2-2S34.104,22,33,22" fill="#42A5F5"/>
</svg>