<?xml version="1.0" encoding="utf-8" standalone="no"?><!-- Generator: Adobe Illustrator 18.1.1, SVG Export Plug-In . SVG Version: 6.00 Build 0)  --><svg xmlns="http://www.w3.org/2000/svg" xmlns:xlink="http://www.w3.org/1999/xlink" enable-background="new 0 0 48 48" id="Layer_1" style="fill:#3366ff" version="1.0" viewBox="0 0 48 48" x="0px" xml:space="preserve" y="0px">
<path d="M24,4c-5.5,0-10,4.5-10,10v4h4v-4c0-3.3,2.7-6,6-6s6,2.7,6,6v4h4v-4C34,8.5,29.5,4,24,4z" fill="#424242"/>
<path d="M36,44H12c-2.2,0-4-1.8-4-4V22c0-2.2,1.8-4,4-4h24c2.2,0,4,1.8,4,4v18C40,42.2,38.2,44,36,44z" fill="#FB8C00"/>
<circle cx="24" cy="31" fill="#C76E00" r="3"/>
</svg>