<?xml version="1.0" encoding="utf-8" standalone="no"?><!-- Generator: Adobe Illustrator 15.0.0, SVG Export Plug-In . SVG Version: 6.00 Build 0)  --><svg xmlns="http://www.w3.org/2000/svg" xmlns:xlink="http://www.w3.org/1999/xlink" contentScriptType="application/ecmascript" contentStyleType="text/css" enable-background="new 0 0 48 48" height="48px" id="????????_1" preserveAspectRatio="xMidYMid meet" style="fill:#000000" version="1.1" viewBox="0 0 48 48" width="48px" x="0px" xml:space="preserve" y="0px" zoomAndPan="magnify">
<polygon fill="#C5CAE9" points="11,46 11,6 37,6 37,46 41,46 41,2 7,2 7,46 "/>
<path d="M29.5,7c2.484,0,4.5,2.016,4.5,4.5c0,2.485-2.016,4.5-4.5,4.5S25,13.985,25,11.5C25,9.016,27.016,7,29.5,7" fill="#FFB74D"/>
<path d="M17.328,29.313l-1.585,6.975L7,37v4h10.951c0.849,0.021,1.583-0.494,1.892-1.233l0.012,0.004l2.553-8.271  L17.328,29.313z" fill="#455A64"/>
<path d="M29.688,28.818c0.131,0.289,0.324,0.536,0.559,0.729c0.355,0.291,0.807,0.456,1.285,0.452H37v-4h-4.197  l-2.705-6.783c-0.176-0.355-0.34-0.64-0.496-0.876c-0.005-0.008-0.011-0.016-0.016-0.023c-0.1-0.149-0.198-0.277-0.295-0.384  c-0.006-0.006-0.011-0.012-0.017-0.018c-0.132-0.143-0.263-0.249-0.394-0.324c-0.181-0.125-0.384-0.242-0.621-0.346l-2.219-1.009  C25.703,16.084,25.35,16.01,25,16.003V16h-8.003c-0.669,0-1.293,0.334-1.664,0.891l-4,6c-0.612,0.919-0.364,2.16,0.555,2.773  C12.227,25.892,12.614,26,12.995,26c0.646,0,1.28-0.313,1.666-0.891L18.067,20l3.162,0.438l-3.465,7.604  c-1.148,2.504-0.18,3.73,0.602,4.774C18.37,32.827,27.449,44.833,28.332,46H33l-8.556-15.617c0.665-1.226,1.919-3.583,3.02-5.66  L29.688,28.818z" fill="#607D8B"/>
</svg>