<?xml version="1.0" encoding="utf-8" standalone="no"?><!-- Generator: Adobe Illustrator 18.1.1, SVG Export Plug-In . SVG Version: 6.00 Build 0)  --><svg xmlns="http://www.w3.org/2000/svg" xmlns:xlink="http://www.w3.org/1999/xlink" enable-background="new 0 0 48 48" id="Layer_1" style="fill:#000000" version="1.0" viewBox="0 0 48 48" x="0px" xml:space="preserve" y="0px">
<path d="M4,39V7c0-2.2,1.8-4,4-4h22c2.2,0,4,1.8,4,4v32c0,2.2-1.8,4-4,4H8C5.8,43,4,41.2,4,39z" fill="#37474F"/>
<path d="M30,6H8C7.4,6,7,6.4,7,7v29c0,0.6,0.4,1,1,1h22c0.6,0,1-0.4,1-1V7C31,6.4,30.6,6,30,6z" fill="#BBDEFB"/>
<rect fill="#78909C" height="2" width="6" x="15" y="39"/>
<path d="M24,41V17c0-2.2,1.8-4,4-4h12c2.2,0,4,1.8,4,4v24c0,2.2-1.8,4-4,4H28C25.8,45,24,43.2,24,41z" fill="#E38939"/>
<path d="M40,16H28c-0.6,0-1,0.4-1,1v22c0,0.6,0.4,1,1,1h12c0.6,0,1-0.4,1-1V17C41,16.4,40.6,16,40,16z" fill="#FFF3E0"/>
<circle cx="34" cy="42.5" fill="#A6642A" r="1.5"/>
</svg>