<?xml version="1.0" encoding="utf-8" standalone="no"?><!-- Generator: Adobe Illustrator 15.0.0, SVG Export Plug-In . SVG Version: 6.00 Build 0)  --><svg xmlns="http://www.w3.org/2000/svg" xmlns:xlink="http://www.w3.org/1999/xlink" contentScriptType="application/ecmascript" contentStyleType="text/css" enable-background="new 0 0 48 48" height="48px" id="????????_1" preserveAspectRatio="xMidYMid meet" style="fill:#000000" version="1.1" viewBox="0 0 48 48" width="48px" x="0px" xml:space="preserve" y="0px" zoomAndPan="magnify">
<g>
	<path d="M42,35c0,8.008-8.059,8-18,8c-9.941,0-18,0.008-18-8s8.059-18,18-18C33.941,17,42,26.992,42,35z" fill="#43A047"/>
	<path d="M30,8.571c-1.896,2.098-1-4.423-5,0c-1.897,2.098-1-4.423-5,0c-1.691,1.87-1.165-3.103-3.864-1.071L19,18   h10l2.994-10.977C31.514,7.154,30.877,7.602,30,8.571z" fill="#43A047"/>
</g>
<path d="M25.46,33.744c0-0.48-0.134-0.862-0.399-1.147c-0.267-0.283-0.72-0.546-1.358-0.786  s-1.189-0.479-1.652-0.716c-0.463-0.238-0.86-0.51-1.191-0.818c-0.331-0.307-0.589-0.669-0.773-1.085s-0.277-0.911-0.277-1.485  c0-0.99,0.316-1.802,0.949-2.435s1.474-1.002,2.522-1.107v-1.881h1.406v1.907c1.037,0.146,1.849,0.579,2.435,1.297  S28,27.135,28,28.277h-2.54c0-0.703-0.146-1.229-0.435-1.577c-0.291-0.349-0.679-0.523-1.165-0.523c-0.48,0-0.853,0.137-1.116,0.408  c-0.264,0.273-0.396,0.649-0.396,1.13c0,0.445,0.129,0.803,0.387,1.072s0.737,0.545,1.437,0.826s1.276,0.547,1.727,0.796  s0.832,0.53,1.143,0.844s0.548,0.671,0.712,1.072S28,33.193,28,33.727c0,0.996-0.311,1.805-0.932,2.426s-1.477,0.987-2.566,1.099V39  h-1.397v-1.74c-1.201-0.129-2.131-0.555-2.791-1.278s-0.989-1.687-0.989-2.888h2.54c0,0.697,0.166,1.232,0.497,1.604  s0.807,0.558,1.428,0.558c0.516,0,0.923-0.136,1.222-0.409C25.311,34.575,25.46,34.207,25.46,33.744z" fill="#FFFFFF"/>
<g>
	<path d="M14,38.996c-0.439-2.221-0.505-4.505-0.224-6.749   c0.545-4.359,1.983-8.853,4.43-12.473c0.264-0.391,0.607-1.138,0.997-1.403c0.339-0.23,0.42-0.145,0.83-0.041   c0.754,0.19,1.511,0.351,2.284,0.444c2.248,0.272,4.57,0.07,6.683-0.774" fill="none" stroke="#FDD835" stroke-linecap="round" stroke-width="2"/>
	<path d="M11,29c0-3,3.818-10.163,8-11" fill="none" stroke="#FDD835" stroke-linecap="round" stroke-width="2"/>
</g>
</svg>