<?xml version="1.0" encoding="utf-8" standalone="no"?><!-- Generator: Adobe Illustrator 18.1.1, SVG Export Plug-In . SVG Version: 6.00 Build 0)  --><svg xmlns="http://www.w3.org/2000/svg" xmlns:xlink="http://www.w3.org/1999/xlink" enable-background="new 0 0 48 48" id="Layer_1" style="fill:#000000" version="1.1" viewBox="0 0 48 48" x="0px" xml:space="preserve" y="0px">
<g>
	<g>
		<path d="M24,9.9l-4.3,8.4L24,29.6l13-6.3V9.9H24z" fill="#4CAF50"/>
	</g>
</g>
<g>
	<g>
		<path d="M11,9.9v13.4l13,6.3V9.9H11z" fill="#81C784"/>
	</g>
</g>
<g>
	<g>
		<path d="M11,9.9l13,5.7l13-5.7L24,5L11,9.9z" fill="#A5D6A7"/>
	</g>
</g>
<g>
	<path d="M40.7,16c-1,0.2-1.7,1.1-1.7,2.1V27l-2.6,4.5l1.3-2.4c0.5-0.9,0.3-2-0.5-2.6c-1-0.8-2.4-0.5-3,0.6l-4.4,8   c-0.6,1-0.9,2.2-0.9,3.4V43h8v-3l5.3-9.7c0.5-0.9,0.7-1.9,0.7-2.9V18C43,16.8,41.9,15.8,40.7,16z" fill="#FFB74D"/>
	<path d="M7.3,16c1,0.2,1.7,1.1,1.7,2.1L9,27l2.6,4.5l-1.3-2.4c-0.5-0.9-0.3-2,0.5-2.6c1-0.8,2.4-0.5,3,0.6l4.4,8   c0.6,1,0.9,2.2,0.9,3.4V43h-8v-3l-5.3-9.7C5.3,29.5,5,28.5,5,27.5V18C5,16.8,6.1,15.8,7.3,16z" fill="#FFB74D"/>
</g>
<g>
	<path d="M38.3,30.5c0.5-0.5,0.7-1.2,0.7-1.9V27l-5.4,9L38.3,30.5z" fill="#FF9800"/>
	<path d="M9.7,30.5C9.3,30,9,29.3,9,28.6L9,27l5.4,9L9.7,30.5z" fill="#FF9800"/>
</g>
<g>
	<path d="M37.2,28.5c-0.3,0.7-0.9,0.4-1.6,0.1c-0.7-0.3-1.1-0.7-0.8-1.3c0.3-0.7,1.2-0.9,1.8-0.6   C37.3,27,37.6,27.8,37.2,28.5z" fill="#FFCC80"/>
	<path d="M10.8,28.5c0.3,0.7,0.9,0.4,1.6,0.1c0.7-0.3,1.1-0.7,0.8-1.3c-0.3-0.7-1.2-0.9-1.8-0.6S10.4,27.8,10.8,28.5   z" fill="#FFCC80"/>
</g>
</svg>