<?xml version="1.0" encoding="utf-8" standalone="no"?><!-- Generator: Adobe Illustrator 15.0.0, SVG Export Plug-In . SVG Version: 6.00 Build 0)  --><svg xmlns="http://www.w3.org/2000/svg" xmlns:xlink="http://www.w3.org/1999/xlink" contentScriptType="application/ecmascript" contentStyleType="text/css" enable-background="new 0 0 48 48" height="48px" id="????????_1" preserveAspectRatio="xMidYMid meet" style="fill:#000000" version="1.1" viewBox="0 0 48 48" width="48px" x="0px" xml:space="preserve" y="0px" zoomAndPan="magnify">
<path d="M24,4c-5.514,0-10,4.486-10,10v4h4v-4c0-3.309,2.691-6,6-6s6,2.691,6,6v4h4v-4C34,8.486,29.514,4,24,4" fill="#424242"/>
<path d="M37,44H11c-2.209,0-4-1.791-4-4V22c0-2.209,1.791-4,4-4h26c2.209,0,4,1.791,4,4v18  C41,42.209,39.209,44,37,44" fill="#8BC34A"/>
<g>
	<path d="M17,31c0,1.657-1.343,3-3,3s-3-1.343-3-3s1.343-3,3-3S17,29.343,17,31" fill="#F1F8E9"/>
	<path d="M37,31c0,1.657-1.343,3-3,3s-3-1.343-3-3s1.343-3,3-3S37,29.343,37,31" fill="#F1F8E9"/>
	<path d="M27,31c0,1.657-1.343,3-3,3s-3-1.343-3-3s1.343-3,3-3S27,29.343,27,31" fill="#F1F8E9"/>
</g>
</svg>