<?xml version="1.0" encoding="UTF-8" standalone="no"?>
<!-- Generator: Adobe Illustrator 15.0.0, SVG Export Plug-In . SVG Version: 6.00 Build 0)  -->

<svg
   xmlns:dc="http://purl.org/dc/elements/1.1/"
   xmlns:cc="http://creativecommons.org/ns#"
   xmlns:rdf="http://www.w3.org/1999/02/22-rdf-syntax-ns#"
   xmlns:svg="http://www.w3.org/2000/svg"
   xmlns="http://www.w3.org/2000/svg"
   xmlns:sodipodi="http://sodipodi.sourceforge.net/DTD/sodipodi-0.dtd"
   xmlns:inkscape="http://www.inkscape.org/namespaces/inkscape"
   contentScriptType="application/ecmascript"
   contentStyleType="text/css"
   enable-background="new 0 0 48 48"
   height="48px"
   id="????????_1"
   preserveAspectRatio="xMidYMid meet"
   style="fill:#000000"
   version="1.1"
   viewBox="0 0 48 48"
   width="48px"
   x="0px"
   xml:space="preserve"
   y="0px"
   zoomAndPan="magnify"
   inkscape:version="0.91 r13725"
   sodipodi:docname="play_breakup_forced_only.svg"><metadata
     id="metadata9"><rdf:RDF><cc:Work
         rdf:about=""><dc:format>image/svg+xml</dc:format><dc:type
           rdf:resource="http://purl.org/dc/dcmitype/StillImage" /><dc:title></dc:title></cc:Work></rdf:RDF></metadata><defs
     id="defs7" /><sodipodi:namedview
     pagecolor="#ffffff"
     bordercolor="#666666"
     borderopacity="1"
     objecttolerance="10"
     gridtolerance="10"
     guidetolerance="10"
     inkscape:pageopacity="0"
     inkscape:pageshadow="2"
     inkscape:window-width="1200"
     inkscape:window-height="1857"
     id="namedview5"
     showgrid="false"
     inkscape:zoom="4.9166667"
     inkscape:cx="3.5219171"
     inkscape:cy="24"
     inkscape:window-x="-8"
     inkscape:window-y="-8"
     inkscape:window-maximized="1"
     inkscape:current-layer="????????_1" /><polygon
     points="34,24 14,34 14,14 "
     id="polygon3"
     transform="matrix(1.5,0,0,1.5,-12,-12)"
     style="fill:#2196f3" /><g
     style="font-style:normal;font-weight:normal;font-size:24.02693176px;line-height:125%;font-family:sans-serif;letter-spacing:0px;word-spacing:0px;fill:#d35400;fill-opacity:1;stroke:none;stroke-width:1px;stroke-linecap:butt;stroke-linejoin:miter;stroke-opacity:1"
     id="g4271"
     transform="matrix(0.62371416,0,0,0.62371413,14.113052,18.498672)"><polygon
       id="polygon4257"
       points="17.017,42 17,40 42,40 42,42 "
       style="fill:#b0bec5" /><path
       id="path4259"
       d="M 30.749,32.749 42.77,20.729 c 0.781,-0.781 0.781,-2.048 0,-2.829 L 31.456,6.586 c -0.781,-0.781 -2.048,-0.781 -2.829,0 l -12.021,12.02 14.143,14.143 z"
       inkscape:connector-curvature="0"
       style="fill:#607d8b" /><path
       id="path4261"
       d="m 39.728,23.771 3.042,-3.042 c 0.781,-0.781 0.781,-2.048 0,-2.829 L 31.456,6.586 c -0.781,-0.781 -2.048,-0.781 -2.829,0 l -3.043,3.042 14.144,14.143 z"
       inkscape:connector-curvature="0"
       style="fill:#546e7a" /><path
       id="path4263"
       d="M 21.367,42 30.749,32.749 16.606,18.606 4.586,30.628 c -0.781,0.78 -0.781,2.047 0,2.828 L 13,42 l 8.367,0 z"
       inkscape:connector-curvature="0"
       style="fill:#cfd8dc" /></g></svg>