<?xml version="1.0" encoding="utf-8" standalone="no"?><!-- Generator: Adobe Illustrator 15.0.0, SVG Export Plug-In . SVG Version: 6.00 Build 0)  --><svg xmlns="http://www.w3.org/2000/svg" xmlns:xlink="http://www.w3.org/1999/xlink" contentScriptType="application/ecmascript" contentStyleType="text/css" enable-background="new 0 0 48 48" height="48px" id="????????_1" preserveAspectRatio="xMidYMid meet" style="fill:#000000" version="1.1" viewBox="0 0 48 48" width="48px" x="0px" xml:space="preserve" y="0px" zoomAndPan="magnify">
<g>
	<polygon fill="#FFC107" points="22,17.992 33.081,6.919 31.134,4.975 20.052,16.048  "/>
	<polygon fill="#FFC107" points="28.918,24.906 39.999,13.833 38.086,11.923 27.004,22.996  "/>
</g>
<path d="M15.503,41.978c-1.325,0-2.254-0.11-2.368-0.125c-3.05-0.673-4.725-1.865-5.072-3.562  c-0.625-3.057,3.556-6.153,4.034-6.496l1.166,1.625c-1.182,0.851-3.53,3.062-3.24,4.472c0.17,0.828,1.396,1.536,3.453,1.992l0,0  c0.04,0,7.589,0.872,10.27-2.7c3.209-4.274,12.736-4.206,15.867-4.186L40.024,33v2l-0.426-0.002  c-9.615-0.06-13.065,1.805-14.253,3.387C23.033,41.466,18.354,41.978,15.503,41.978z" fill="#CFD8DC"/>
<polygon fill="#90A4AE" points="18.442,13.229 13.883,17.784 14.502,24.79 20.145,30.47 27.181,31.073 31.74,26.518 "/>
<g>
	<polygon fill="#546E7A" points="20.145,30.47 14.502,24.79 10.065,30.456 14.498,34.886 20.146,30.47  "/>
	<polygon fill="#546E7A" points="36.809,24.404 32.704,28.507 16.451,12.265 20.555,8.164  "/>
</g>
</svg>