<?xml version="1.0" encoding="UTF-8" standalone="no"?>
<svg
   xmlns:dc="http://purl.org/dc/elements/1.1/"
   xmlns:cc="http://creativecommons.org/ns#"
   xmlns:rdf="http://www.w3.org/1999/02/22-rdf-syntax-ns#"
   xmlns:svg="http://www.w3.org/2000/svg"
   xmlns="http://www.w3.org/2000/svg"
   xmlns:sodipodi="http://sodipodi.sourceforge.net/DTD/sodipodi-0.dtd"
   xmlns:inkscape="http://www.inkscape.org/namespaces/inkscape"
   height="50"
   style="fill:#000000"
   viewBox="0 0 50 50"
   width="50"
   id="svg2"
   version="1.1"
   inkscape:version="0.91 r13725"
   sodipodi:docname="prio_3_clear.svg">
  <metadata
     id="metadata10">
    <rdf:RDF>
      <cc:Work
         rdf:about="">
        <dc:format>image/svg+xml</dc:format>
        <dc:type
           rdf:resource="http://purl.org/dc/dcmitype/StillImage" />
        <dc:title></dc:title>
      </cc:Work>
    </rdf:RDF>
  </metadata>
  <defs
     id="defs8" />
  <sodipodi:namedview
     pagecolor="#ffffff"
     bordercolor="#666666"
     borderopacity="1"
     objecttolerance="10"
     gridtolerance="10"
     guidetolerance="10"
     inkscape:pageopacity="0"
     inkscape:pageshadow="2"
     inkscape:window-width="1920"
     inkscape:window-height="1017"
     id="namedview6"
     showgrid="false"
     inkscape:zoom="4.72"
     inkscape:cx="59.004237"
     inkscape:cy="11.864407"
     inkscape:window-x="-8"
     inkscape:window-y="-8"
     inkscape:window-maximized="1"
     inkscape:current-layer="text4204" />
  <g
     style="fill:#d35400"
     id="g4188"
     transform="matrix(2,0,0,2,-77.661017,-32.533898)">
    <polygon
       id="polygon4170"
       points="6,41 6,3 25,3 34,12 34,41 "
       style="fill:#90caf9"
       transform="matrix(0.47949853,0,0,0.47949853,38.504365,18.586323)" />
    <polygon
       id="polygon4172"
       points="32.5,13 24,13 24,4.5 "
       style="fill:#e1f5fe"
       transform="matrix(0.47949853,0,0,0.47949853,38.504365,18.586323)" />
  </g>
  <g
     transform="matrix(0,0.60067329,1.6647985,0,0,0)"
     style="font-style:normal;font-weight:normal;font-size:24.02693176px;line-height:125%;font-family:sans-serif;letter-spacing:0px;word-spacing:0px;fill:#000000;fill-opacity:1;stroke:none;stroke-width:1px;stroke-linecap:butt;stroke-linejoin:miter;stroke-opacity:1"
     id="text4204">
    <g
       style="fill:#d35400"
       id="g4271"
       transform="matrix(0,0.48019426,1.3308843,0,17.085515,8.6725922)">
      <polygon
         id="polygon4257"
         points="42,42 17.017,42 17,40 42,40 "
         style="fill:#b0bec5" />
      <path
         id="path4259"
         d="M 30.749,32.749 42.77,20.729 c 0.781,-0.781 0.781,-2.048 0,-2.829 L 31.456,6.586 c -0.781,-0.781 -2.048,-0.781 -2.829,0 l -12.021,12.02 14.143,14.143 z"
         inkscape:connector-curvature="0"
         style="fill:#607d8b" />
      <path
         id="path4261"
         d="m 39.728,23.771 3.042,-3.042 c 0.781,-0.781 0.781,-2.048 0,-2.829 L 31.456,6.586 c -0.781,-0.781 -2.048,-0.781 -2.829,0 l -3.043,3.042 14.144,14.143 z"
         inkscape:connector-curvature="0"
         style="fill:#546e7a" />
      <path
         id="path4263"
         d="M 21.367,42 30.749,32.749 16.606,18.606 4.586,30.628 c -0.781,0.78 -0.781,2.047 0,2.828 L 13,42 l 8.367,0 z"
         inkscape:connector-curvature="0"
         style="fill:#cfd8dc" />
    </g>
  </g>
</svg>
