<?xml version="1.0" encoding="utf-8" standalone="no"?><!-- Generator: Adobe Illustrator 19.1.1, SVG Export Plug-In . SVG Version: 6.00 Build 0)  --><svg xmlns="http://www.w3.org/2000/svg" xmlns:xlink="http://www.w3.org/1999/xlink" enable-background="new 0 0 48 48" id="Layer_1" style="fill:#000000" version="1.1" viewBox="0 0 48 48" x="0px" xml:space="preserve" y="0px">
<path d="M36,6H26c0,1.1-0.9,2-2,2c-1.1,0-2-0.9-2-2H12c-2.2,0-4,1.8-4,4v32c0,2.2,1.8,4,4,4h24c2.2,0,4-1.8,4-4V10  C40,7.8,38.2,6,36,6" fill="#455A64"/>
<path d="M36,43H12c-0.6,0-1-0.4-1-1V10c0-0.6,0.4-1,1-1h24c0.6,0,1,0.4,1,1v32C37,42.6,36.6,43,36,43" fill="#FFFFFF"/>
<path d="M24,2c-2.2,0-4,1.8-4,4v4c0,1.1,0.9,2,2,2h4c1.1,0,2-0.9,2-2V6C28,3.8,26.2,2,24,2z M24,4c1.1,0,2,0.9,2,2  c0,1.1-0.9,2-2,2c-1.1,0-2-0.9-2-2C22,4.9,22.9,4,24,4z" fill="#90A4AE"/>
<rect fill="#03A9F4" height="2" width="16" x="16" y="37"/>
<path d="M24,32c-2.4,0-2.5-3.5-2.5-3.5v-3h5v3C26.5,28.5,26.4,32,24,32" fill="#FF9800"/>
<path d="M29.5,22.5c0,0.6-0.4,1-1,1s-1-0.4-1-1s0.4-1,1-1S29.5,21.9,29.5,22.5 M20.5,22.5c0-0.6-0.4-1-1-1  s-1,0.4-1,1s0.4,1,1,1S20.5,23.1,20.5,22.5" fill="#FFA726"/>
<path d="M28.5,19.5c0-3.8-9-2.5-9,0V23c0,2.5,2,4.5,4.5,4.5s4.5-2,4.5-4.5V19.5z" fill="#FFB74D"/>
<path d="M24,15c-3,0-5,2.5-5,5.5v1.1l1,0.9V20l6-2l2,2v2.5l1-0.9v-1.1c0-2-0.5-4-3-4.5l-0.5-1H24z" fill="#424242"/>
<path d="M25.5,22.5c0-0.3,0.2-0.5,0.5-0.5c0.3,0,0.5,0.2,0.5,0.5S26.3,23,26,23C25.7,23,25.5,22.8,25.5,22.5   M21.5,22.5c0,0.3,0.2,0.5,0.5,0.5c0.3,0,0.5-0.2,0.5-0.5S22.3,22,22,22C21.7,22,21.5,22.2,21.5,22.5" fill="#784719"/>
<path d="M26.5,28.5L26.5,28.5c0,0-0.9,1-2.5,1c-1.6,0-2.5-1-2.5-1S16,29.5,16,35h16C32,29.5,26.5,28.5,26.5,28.5" fill="#2196F3"/>
</svg>