<?xml version="1.0" encoding="utf-8" standalone="no"?><!-- Generator: Adobe Illustrator 15.0.0, SVG Export Plug-In . SVG Version: 6.00 Build 0)  --><svg xmlns="http://www.w3.org/2000/svg" xmlns:xlink="http://www.w3.org/1999/xlink" contentScriptType="application/ecmascript" contentStyleType="text/css" enable-background="new 0 0 48 48" height="48px" id="????????_1" preserveAspectRatio="xMidYMid meet" style="fill:#000000" version="1.1" viewBox="0 0 48 48" width="48px" x="0px" xml:space="preserve" y="0px" zoomAndPan="magnify">
<path d="M9,12.332C9,10.492,10.492,9,12.333,9h23.335C37.508,9,39,10.492,39,12.332  v23.336C39,37.508,37.508,39,35.668,39H12.333C10.492,39,9,37.508,9,35.668V12.332z" fill="none" stroke="#B0BEC5" stroke-width="2"/>
<g>
	<path d="M15,27c0,1.104-0.896,2-2,2H5c-1.104,0-2-0.896-2-2v-6c0-1.104,0.896-2,2-2h8c1.104,0,2,0.896,2,2V27z" fill="#455A64"/>
	<path d="M30,12c0,1.104-0.896,2-2,2h-8c-1.104,0-2-0.896-2-2V6c0-1.104,0.896-2,2-2h8c1.104,0,2,0.896,2,2V12z" fill="#455A64"/>
	<path d="M30,42c0,1.104-0.896,2-2,2h-8c-1.104,0-2-0.896-2-2v-6c0-1.104,0.896-2,2-2h8c1.104,0,2,0.896,2,2V42z" fill="#455A64"/>
	<path d="M45,27c0,1.104-0.896,2-2,2h-8c-1.104,0-2-0.896-2-2v-6c0-1.104,0.896-2,2-2h8c1.104,0,2,0.896,2,2V27z" fill="#455A64"/>
</g>
<g>
	<rect fill="#90CAF9" height="6" width="8" x="5" y="21"/>
	<rect fill="#90CAF9" height="6" width="8" x="20" y="6"/>
	<rect fill="#90CAF9" height="6" width="8" x="20" y="36"/>
	<rect fill="#90CAF9" height="6" width="8" x="35" y="21"/>
</g>
</svg>