<?xml version="1.0" encoding="UTF-8" standalone="no"?>
<!-- Generator: Adobe Illustrator 15.0.0, SVG Export Plug-In . SVG Version: 6.00 Build 0)  -->

<svg
   xmlns:dc="http://purl.org/dc/elements/1.1/"
   xmlns:cc="http://creativecommons.org/ns#"
   xmlns:rdf="http://www.w3.org/1999/02/22-rdf-syntax-ns#"
   xmlns:svg="http://www.w3.org/2000/svg"
   xmlns="http://www.w3.org/2000/svg"
   xmlns:sodipodi="http://sodipodi.sourceforge.net/DTD/sodipodi-0.dtd"
   xmlns:inkscape="http://www.inkscape.org/namespaces/inkscape"
   contentScriptType="application/ecmascript"
   contentStyleType="text/css"
   enable-background="new 0 0 48 48"
   height="48px"
   id="????????_1"
   preserveAspectRatio="xMidYMid meet"
   style="fill:#000000"
   version="1.1"
   viewBox="0 0 48 48"
   width="48px"
   x="0px"
   xml:space="preserve"
   y="0px"
   zoomAndPan="magnify"
   inkscape:version="0.91 r13725"
   sodipodi:docname="proxy_rotate.svg"><metadata
     id="metadata23"><rdf:RDF><cc:Work
         rdf:about=""><dc:format>image/svg+xml</dc:format><dc:type
           rdf:resource="http://purl.org/dc/dcmitype/StillImage" /><dc:title></dc:title></cc:Work></rdf:RDF></metadata><defs
     id="defs21" /><sodipodi:namedview
     pagecolor="#ffffff"
     bordercolor="#666666"
     borderopacity="1"
     objecttolerance="10"
     gridtolerance="10"
     guidetolerance="10"
     inkscape:pageopacity="0"
     inkscape:pageshadow="2"
     inkscape:window-width="1920"
     inkscape:window-height="1017"
     id="namedview19"
     showgrid="false"
     inkscape:zoom="4.9166667"
     inkscape:cx="24"
     inkscape:cy="24"
     inkscape:window-x="-8"
     inkscape:window-y="-8"
     inkscape:window-maximized="1"
     inkscape:current-layer="????????_1" /><g
     id="g3"
     transform="matrix(0.75706063,0,0,0.75706063,6.3535012,7.1525466)"><rect
       height="4.0009999"
       transform="matrix(0.7071,0.7071,-0.7071,0.7071,22.9366,-12.5061)"
       width="20"
       x="16.565001"
       y="19.434"
       id="rect5"
       style="fill:#546e7a" /><rect
       height="4"
       transform="matrix(0.7071,0.7071,-0.7071,0.7071,24.6305,-8.4165)"
       width="20"
       x="12.475"
       y="23.525"
       id="rect7"
       style="fill:#546e7a" /></g><g
     id="g9"
     transform="matrix(0.75706063,0,0,0.75706063,6.1358324,6.9491568)"><polygon
       points="32,10 26.564,10 22.322,14.364 33.637,25.678 38,21.435 38,16 "
       id="polygon11"
       style="fill:#90a4ae" /><rect
       height="8.0209999"
       transform="matrix(0.707,0.7072,-0.7072,0.707,18.3104,-23.6945)"
       width="4"
       x="35.75"
       y="6.2399998"
       id="rect13"
       style="fill:#90a4ae" /><polygon
       points="11.04,30.96 11.04,25.524 15.404,21.282 26.718,32.596 22.475,36.96 17.04,36.96 "
       id="polygon15"
       style="fill:#90a4ae" /><rect
       height="10.607"
       transform="matrix(0.707,0.7072,-0.7072,0.707,29.3227,2.8979)"
       width="4"
       x="9.1639996"
       y="31.532"
       id="rect17"
       style="fill:#90a4ae" /></g><g
     style="fill:#d35400"
     id="g4178"
     transform="matrix(1.0633363,0,0,1.0633363,-1.4183763,-1.4183762)"><g
       id="g4152"><polygon
         id="polygon4154"
         points="39.984,7 39.984,15.998 39.984,16 39.984,15.999 39.984,16 30.993,16 "
         style="fill:#2196f3" /><path
         id="path4156"
         d="m 10.044,29.461 c 0.518,1.318 1.222,2.542 2.069,3.648 L 8.944,35.538 C 7.869,34.137 6.978,32.586 6.322,30.917 l 3.722,-1.456 z"
         inkscape:connector-curvature="0"
         style="fill:#2196f3" /><path
         id="path4158"
         d="m 18.533,37.948 -1.457,3.719 c -1.602,-0.635 -3.104,-1.468 -4.459,-2.49 l 2.396,-3.194 c 1.071,0.806 2.257,1.464 3.52,1.965 z"
         inkscape:connector-curvature="0"
         style="fill:#2196f3" /><path
         id="path4160"
         d="m 24,39 c 0.319,0 0.631,-0.027 0.945,-0.048 l 0.252,3.987 C 24.799,42.964 24.404,43 24,43 23.232,43 22.481,42.937 21.738,42.85 l 0.477,-3.969 C 22.801,38.951 23.395,39 24,39 Z"
         inkscape:connector-curvature="0"
         style="fill:#2196f3" /><path
         id="path4162"
         d="m 32.523,40.975 c -0.892,0.447 -1.821,0.83 -2.785,1.135 l -1.207,-3.813 c 0.761,-0.24 1.494,-0.542 2.197,-0.896 l 1.795,3.574 z"
         inkscape:connector-curvature="0"
         style="fill:#2196f3" /><path
         id="path4164"
         d="m 35.422,33.672 3.073,2.585 c -0.653,0.771 -1.367,1.49 -2.134,2.147 l -2.604,-3.031 c 0.604,-0.518 1.15,-1.096 1.665,-1.701 z"
         inkscape:connector-curvature="0"
         style="fill:#2196f3" /><path
         id="path4166"
         d="m 42.072,29.832 c -0.32,0.984 -0.715,1.938 -1.184,2.845 l -3.572,-1.825 c 0.371,-0.719 0.687,-1.473 0.941,-2.252 l 3.815,1.232 z"
         inkscape:connector-curvature="0"
         style="fill:#2196f3" /><path
         id="path4168"
         d="m 38.95,23.011 3.985,-0.257 C 42.964,23.168 43,23.58 43,24 c 0,0.541 -0.031,1.074 -0.076,1.604 L 38.94,25.262 C 38.975,24.846 39,24.426 39,24 39,23.666 38.973,23.34 38.95,23.011 Z"
         inkscape:connector-curvature="0"
         style="fill:#2196f3" /><path
         id="path4170"
         d="m 24,5 c 6.389,0 12.038,3.18 15.484,8.028 L 36.22,15.332 C 33.499,11.508 29.041,9 24,9 15.729,9 9,15.729 9,24 c 0,0.42 0.029,0.833 0.063,1.245 L 5.08,25.576 C 5.037,25.057 5,24.532 5,24 5,13.523 13.523,5 24,5 Z"
         inkscape:connector-curvature="0"
         style="fill:#2196f3" /></g></g></svg>