<?xml version="1.0" encoding="utf-8" standalone="no"?><!-- Generator: Adobe Illustrator 18.1.1, SVG Export Plug-In . SVG Version: 6.00 Build 0)  --><svg xmlns="http://www.w3.org/2000/svg" xmlns:xlink="http://www.w3.org/1999/xlink" enable-background="new 0 0 48 48" id="Layer_1" style="fill:#000000" version="1.0" viewBox="0 0 48 48" x="0px" xml:space="preserve" y="0px">
<g>
	<path d="M13,13c0-3.3,2.7-6,6-6h10c3.3,0,6,2.7,6,6h4c0-5.5-4.5-10-10-10H19C13.5,3,9,7.5,9,13v11.2h4V13z" fill="#1565C0"/>
	<polygon fill="#1565C0" points="4.6,22 11,30.4 17.4,22  "/>
</g>
<g>
	<path d="M35,35c0,3.3-2.7,6-6,6H19c-3.3,0-6-2.7-6-6H9c0,5.5,4.5,10,10,10h10c5.5,0,10-4.5,10-10V23h-4V35z" fill="#1565C0"/>
	<polygon fill="#1565C0" points="30.6,26 37,17.6 43.4,26  "/>
</g>
</svg>