<?xml version="1.0" encoding="UTF-8" standalone="no"?>
<!-- Generator: Adobe Illustrator 15.0.0, SVG Export Plug-In . SVG Version: 6.00 Build 0)  -->

<svg
   xmlns:dc="http://purl.org/dc/elements/1.1/"
   xmlns:cc="http://creativecommons.org/ns#"
   xmlns:rdf="http://www.w3.org/1999/02/22-rdf-syntax-ns#"
   xmlns:svg="http://www.w3.org/2000/svg"
   xmlns="http://www.w3.org/2000/svg"
   xmlns:sodipodi="http://sodipodi.sourceforge.net/DTD/sodipodi-0.dtd"
   xmlns:inkscape="http://www.inkscape.org/namespaces/inkscape"
   contentScriptType="application/ecmascript"
   contentStyleType="text/css"
   enable-background="new 0 0 48 48"
   height="48px"
   id="????????_1"
   preserveAspectRatio="xMidYMid meet"
   style="fill:#0066ff"
   version="1.1"
   viewBox="0 0 48 48"
   width="48px"
   x="0px"
   xml:space="preserve"
   y="0px"
   zoomAndPan="magnify"
   inkscape:version="0.91 r13725"
   sodipodi:docname="remove_extracted.svg"><metadata
     id="metadata35"><rdf:RDF><cc:Work
         rdf:about=""><dc:format>image/svg+xml</dc:format><dc:type
           rdf:resource="http://purl.org/dc/dcmitype/StillImage" /><dc:title></dc:title></cc:Work></rdf:RDF></metadata><defs
     id="defs33"><pattern
       y="0"
       x="0"
       height="6"
       width="6"
       patternUnits="userSpaceOnUse"
       id="EMFhbasepattern" /></defs><sodipodi:namedview
     pagecolor="#ffffff"
     bordercolor="#666666"
     borderopacity="1"
     objecttolerance="10"
     gridtolerance="10"
     guidetolerance="10"
     inkscape:pageopacity="0"
     inkscape:pageshadow="2"
     inkscape:window-width="2560"
     inkscape:window-height="1537"
     id="namedview31"
     showgrid="false"
     inkscape:zoom="4.9166667"
     inkscape:cx="24"
     inkscape:cy="24"
     inkscape:window-x="1192"
     inkscape:window-y="-8"
     inkscape:window-maximized="1"
     inkscape:current-layer="????????_1" /><g
     style="fill:#000000"
     id="g4208"
     transform="translate(-0.49976799,-0.5)"><g
       id="g4152"><path
         id="path4154"
         d="M 17,24 7,17.467 c 0,0 1,-1.865 1,-3.732 C 8,11.868 7,10 7,10 L 17,16.533 17,24 Z"
         inkscape:connector-curvature="0"
         style="fill:#cfd8dc" /><path
         id="path4156"
         d="M 17,40 7,32.533 c 0,0 1,-0.934 1,-2.8 C 8,27.867 7,26 7,26 L 17,32.533 17,40 Z"
         inkscape:connector-curvature="0"
         style="fill:#cfd8dc" /><path
         id="path4158"
         d="M 17,32 7,24.533 c 0,0 1,-0.934 1,-2.8 C 8,19.867 7,18 7,18 L 17,24.533 17,32 Z"
         inkscape:connector-curvature="0"
         style="fill:#cfd8dc" /></g><g
       id="g4160"><path
         id="path4162"
         d="M 17.624,34 C 17.405,34 17.184,33.929 17,33.781 l -10.625,-8 C 5.943,25.435 5.874,24.806 6.219,24.375 6.563,23.944 7.194,23.874 7.624,24.219 l 10.625,8 c 0.432,0.346 0.501,0.975 0.156,1.406 C 18.208,33.871 17.917,34 17.624,34 Z"
         inkscape:connector-curvature="0"
         style="fill:#3f51b5" /><path
         id="path4164"
         d="m 42,25 -26,0 c 0,0 1,1.742 1,4.246 C 17,31.75 16,33 16,33 l 26,0 c 0,0 1,-1 1,-4 0,-3 -1,-4 -1,-4 z"
         inkscape:connector-curvature="0"
         style="fill:#3f51b5" /></g><g
       id="g4166"><path
         id="path4168"
         d="M 17.624,26 C 17.405,26 17.184,25.929 17,25.781 l -10.625,-8 C 5.943,17.435 5.874,16.806 6.219,16.375 6.563,15.944 7.194,15.873 7.624,16.219 l 10.625,8 c 0.432,0.346 0.501,0.975 0.156,1.406 C 18.208,25.871 17.917,26 17.624,26 Z"
         inkscape:connector-curvature="0"
         style="fill:#9c27b0" /><path
         id="path4170"
         d="m 42,17 -26,0 c 0,0 1,1.742 1,4.246 C 17,23.75 16,25 16,25 l 26,0 c 0,0 1,-1 1,-4 0,-3 -1,-4 -1,-4 z"
         inkscape:connector-curvature="0"
         style="fill:#9c27b0" /></g><g
       id="g4172"><path
         id="path4174"
         d="m 18.609,41 c 0,-0.293 -0.113,-0.584 -0.36,-0.781 l -10.625,-8 c -0.43,-0.345 -1.061,-0.274 -1.405,0.156 -0.345,0.432 -0.275,1.061 0.156,1.406 l 9.587,7.219 2.647,0 z"
         inkscape:connector-curvature="0"
         style="fill:#8bc34a" /><path
         id="path4176"
         d="m 42,33 -26,0 c 0,0 1,1.742 1,4.246 C 17,39.75 16,41 16,41 l 26,0 c 0,0 1,-1 1,-4 0,-3 -1,-4 -1,-4 z"
         inkscape:connector-curvature="0"
         style="fill:#8bc34a" /></g><path
       id="path4178"
       d="m 42,33 -26,0 c 0,0 0.441,0.756 0.733,2 l 26.035,0 C 42.473,33.559 42,33 42,33 Z"
       inkscape:connector-curvature="0"
       style="fill:#689f38" /><path
       id="path4180"
       d="m 42,25 -26,0 c 0,0 0.441,0.756 0.733,2 l 26.035,0 C 42.473,25.559 42,25 42,25 Z"
       inkscape:connector-curvature="0"
       style="fill:#303f9f" /><g
       id="g4182"><path
         id="path4184"
         d="m 21.034,32 c 0.11,-0.45 0.299,-1.379 0.299,-2.5 0,-1.121 -0.189,-2.05 -0.299,-2.5 L 19,27 c 0.003,0.009 0.333,1.267 0.333,2.5 0,1.233 -0.331,2.493 -0.333,2.5 l 2.034,0 z"
         inkscape:connector-curvature="0"
         style="fill:#fdd835" /><path
         id="path4186"
         d="m 21.034,24 c 0.11,-0.45 0.299,-1.379 0.299,-2.5 0,-1.121 -0.189,-2.05 -0.299,-2.5 L 19,19 c 0.003,0.009 0.333,1.267 0.333,2.5 0,1.233 -0.331,2.493 -0.333,2.5 l 2.034,0 z"
         inkscape:connector-curvature="0"
         style="fill:#fdd835" /><path
         id="path4188"
         d="m 21.034,40 c 0.11,-0.45 0.299,-1.379 0.299,-2.5 0,-1.121 -0.189,-2.05 -0.299,-2.5 L 19,35 c 0.003,0.009 0.333,1.267 0.333,2.5 0,1.233 -0.331,2.493 -0.333,2.5 l 2.034,0 z"
         inkscape:connector-curvature="0"
         style="fill:#fdd835" /></g><path
       id="path4190"
       d="M 42.768,19 C 42.473,17.559 42,17 42,17 L 30.844,8.591 C 30.844,8.591 30.063,8 29,8 27.771,8 7,8 7,8 L 7.018,8.018 C 6.703,8.012 6.39,8.137 6.191,8.412 5.866,8.858 5.965,9.484 6.411,9.808 l 9.737,7.47 c 0.161,0.325 0.418,0.92 0.607,1.722 l 26.013,0 z"
       inkscape:connector-curvature="0"
       style="fill:#7b1fa2" /><path
       id="path4192"
       d="M 32,16 21,8 16,8 27,16 c 1.75,1.25 2,1.625 2,3 0,1.375 0,19 0,19 0,0 0,3 -2,3 1.056,0 3.678,0 5,0 2,0 2,-3 2,-3 0,0 0,-18 0,-19 0,-2 -1.562,-2.562 -2,-3 z"
       inkscape:connector-curvature="0"
       style="fill:#af7000" /><g
       id="g4194"><path
         id="path4196"
         d="m 34,27 0,4 -5,0 0,-4 5,0 m 0.25,-1 -5.5,0 C 28.336,26 28,26.336 28,26.75 l 0,4.5 c 0,0.414 0.336,0.75 0.75,0.75 l 5.5,0 C 34.664,32 35,31.664 35,31.25 l 0,-4.5 C 35,26.336 34.664,26 34.25,26 l 0,0 z"
         inkscape:connector-curvature="0"
         style="fill:#ffc107" /></g><circle
       id="circle4198"
       r="0.5"
       cy="29"
       cx="31.5"
       style="fill:#5b3b07" /><path
       id="path4200"
       d="M 31.5,29 C 31.224,29 31,28.776 31,28.5 l 0,-3 c 0,-0.276 0.224,-0.5 0.5,-0.5 0.276,0 0.5,0.224 0.5,0.5 l 0,3 c 0,0.276 -0.224,0.5 -0.5,0.5 z"
       inkscape:connector-curvature="0"
       style="fill:#ffeb3b" /></g><g
     style="fill:#0066ff"
     id="g4175"
     transform="translate(-3.5352437e-4,4.5340576e-4)"><g
       id="g4163"><rect
         id="rect4165"
         y="4.5"
         x="21.5"
         width="5.0009999"
         transform="matrix(0.7071,0.7071,-0.7071,0.7071,24,-9.9411)"
         height="39"
         style="fill:#f44336" /><rect
         id="rect4167"
         y="4.5"
         x="21.5"
         width="5"
         transform="matrix(-0.7072,0.707,-0.707,-0.7072,57.9411,24.0047)"
         height="39.000999"
         style="fill:#f44336" /></g></g></svg>