<?xml version="1.0" encoding="UTF-8" standalone="no"?>
<!-- Generator: Adobe Illustrator 15.0.0, SVG Export Plug-In . SVG Version: 6.00 Build 0)  -->

<svg
   xmlns:dc="http://purl.org/dc/elements/1.1/"
   xmlns:cc="http://creativecommons.org/ns#"
   xmlns:rdf="http://www.w3.org/1999/02/22-rdf-syntax-ns#"
   xmlns:svg="http://www.w3.org/2000/svg"
   xmlns="http://www.w3.org/2000/svg"
   xmlns:sodipodi="http://sodipodi.sourceforge.net/DTD/sodipodi-0.dtd"
   xmlns:inkscape="http://www.inkscape.org/namespaces/inkscape"
   contentScriptType="application/ecmascript"
   contentStyleType="text/css"
   enable-background="new 0 0 48 48"
   height="48px"
   id="????????_1"
   preserveAspectRatio="xMidYMid meet"
   style="fill:#0066ff"
   version="1.1"
   viewBox="0 0 48 48"
   width="48px"
   x="0px"
   xml:space="preserve"
   y="0px"
   zoomAndPan="magnify"
   inkscape:version="0.91 r13725"
   sodipodi:docname="remove_offline.svg"><metadata
     id="metadata29"><rdf:RDF><cc:Work
         rdf:about=""><dc:format>image/svg+xml</dc:format><dc:type
           rdf:resource="http://purl.org/dc/dcmitype/StillImage" /></cc:Work></rdf:RDF></metadata><defs
     id="defs27" /><sodipodi:namedview
     pagecolor="#ffffff"
     bordercolor="#666666"
     borderopacity="1"
     objecttolerance="10"
     gridtolerance="10"
     guidetolerance="10"
     inkscape:pageopacity="0"
     inkscape:pageshadow="2"
     inkscape:window-width="717"
     inkscape:window-height="480"
     id="namedview25"
     showgrid="false"
     inkscape:zoom="4.9166667"
     inkscape:cx="24"
     inkscape:cy="24"
     inkscape:window-x="0"
     inkscape:window-y="0"
     inkscape:window-maximized="0"
     inkscape:current-layer="????????_1" /><g
     id="g3"><rect
       fill="#FFC107"
       height="10"
       transform="matrix(0.7071 0.7071 -0.7071 0.7071 19.9895 -10.6232)"
       width="3"
       x="21.318"
       y="13.818"
       id="rect5" /><rect
       fill="#FFC107"
       height="10"
       transform="matrix(0.7071 0.7071 -0.7071 0.7071 26.3534 -13.2593)"
       width="3"
       x="27.682"
       y="20.182"
       id="rect7" /></g><g
     id="g9"><polygon
       fill="#90A4AE"
       points="35.637,23.678 40,19.435 40,14 34,8 28.564,8 24.322,12.364  "
       id="polygon11" /><rect
       fill="#90A4AE"
       height="8.021"
       transform="matrix(0.707 0.7072 -0.7072 0.707 18.3104 -23.6945)"
       width="4"
       x="35.75"
       y="6.24"
       id="rect13" /><polygon
       fill="#90A4AE"
       points="23.678,35.636 19.435,40 14,40 8,34 8,28.564 12.364,24.322  "
       id="polygon15" /><rect
       fill="#90A4AE"
       height="8.608"
       transform="matrix(0.707 0.7072 -0.7072 0.707 29.6155 3.6051)"
       width="4"
       x="8.457"
       y="33.239"
       id="rect17" /></g><g
     id="g19"><rect
       fill="#546E7A"
       height="4.001"
       transform="matrix(0.7071 0.7071 -0.7071 0.7071 22.1082 -14.5061)"
       width="20"
       x="18.565"
       y="17.434"
       id="rect21" /><rect
       fill="#546E7A"
       height="4"
       transform="matrix(0.7071 0.7071 -0.7071 0.7071 25.8908 -5.376)"
       width="19.999"
       x="9.435"
       y="26.565"
       id="rect23" /></g><g
     style="fill:#0066ff"
     id="g4175"
     transform="translate(-3.5352437e-4,4.5340576e-4)"><g
       id="g4163"><rect
         id="rect4165"
         y="4.5"
         x="21.5"
         width="5.0009999"
         transform="matrix(0.7071,0.7071,-0.7071,0.7071,24,-9.9411)"
         height="39"
         style="fill:#f44336" /><rect
         id="rect4167"
         y="4.5"
         x="21.5"
         width="5"
         transform="matrix(-0.7072,0.707,-0.707,-0.7072,57.9411,24.0047)"
         height="39.000999"
         style="fill:#f44336" /></g></g></svg>