<?xml version="1.0" encoding="UTF-8" standalone="no"?>
<!-- Generator: Adobe Illustrator 15.0.0, SVG Export Plug-In . SVG Version: 6.00 Build 0)  -->

<svg
   xmlns:dc="http://purl.org/dc/elements/1.1/"
   xmlns:cc="http://creativecommons.org/ns#"
   xmlns:rdf="http://www.w3.org/1999/02/22-rdf-syntax-ns#"
   xmlns:svg="http://www.w3.org/2000/svg"
   xmlns="http://www.w3.org/2000/svg"
   xmlns:sodipodi="http://sodipodi.sourceforge.net/DTD/sodipodi-0.dtd"
   xmlns:inkscape="http://www.inkscape.org/namespaces/inkscape"
   contentScriptType="application/ecmascript"
   contentStyleType="text/css"
   enable-background="new 0 0 48 48"
   height="48px"
   id="????????_1"
   preserveAspectRatio="xMidYMid meet"
   style="fill:#0066ff"
   version="1.1"
   viewBox="0 0 48 48"
   width="48px"
   x="0px"
   xml:space="preserve"
   y="0px"
   zoomAndPan="magnify"
   inkscape:version="0.91 r13725"
   sodipodi:docname="remove_dupes.svg"><metadata
     id="metadata35"><rdf:RDF><cc:Work
         rdf:about=""><dc:format>image/svg+xml</dc:format><dc:type
           rdf:resource="http://purl.org/dc/dcmitype/StillImage" /></cc:Work></rdf:RDF></metadata><defs
     id="defs33"><pattern
       y="0"
       x="0"
       height="6"
       width="6"
       patternUnits="userSpaceOnUse"
       id="EMFhbasepattern" /></defs><sodipodi:namedview
     pagecolor="#ffffff"
     bordercolor="#666666"
     borderopacity="1"
     objecttolerance="10"
     gridtolerance="10"
     guidetolerance="10"
     inkscape:pageopacity="0"
     inkscape:pageshadow="2"
     inkscape:window-width="717"
     inkscape:window-height="480"
     id="namedview31"
     showgrid="false"
     inkscape:zoom="4.9166667"
     inkscape:cx="24"
     inkscape:cy="24"
     inkscape:window-x="0"
     inkscape:window-y="0"
     inkscape:window-maximized="0"
     inkscape:current-layer="????????_1" /><polygon
     fill="#42A5F5"
     points="31,36 6,36 6,3 23,3 31,11 "
     id="polygon3" /><polygon
     fill="#E1F5FE"
     points="29.5,12 22,12 22,4.5 "
     id="polygon5" /><g
     id="g7"><rect
       fill="#1565C0"
       height="2"
       width="16"
       x="11"
       y="16"
       id="rect9" /><rect
       fill="#1565C0"
       height="2"
       width="12"
       x="11"
       y="20"
       id="rect11" /><rect
       fill="#1565C0"
       height="2"
       width="16"
       x="11"
       y="24"
       id="rect13" /><rect
       fill="#1565C0"
       height="2"
       width="12"
       x="11"
       y="28"
       id="rect15" /></g><polygon
     fill="#90CAF9"
     points="42,44 17,44 17,11 34,11 42,19 "
     id="polygon17" /><polygon
     fill="#E1F5FE"
     points="40.5,20 33,20 33,12.5 "
     id="polygon19" /><g
     id="g21"><rect
       fill="#1976D2"
       height="2"
       width="15"
       x="22"
       y="24"
       id="rect23" /><rect
       fill="#1976D2"
       height="2"
       width="11"
       x="22"
       y="28"
       id="rect25" /><rect
       fill="#1976D2"
       height="2"
       width="15"
       x="22"
       y="32"
       id="rect27" /><rect
       fill="#1976D2"
       height="2"
       width="11"
       x="22"
       y="36"
       id="rect29" /></g><g
     style="fill:#0066ff"
     id="g4175"
     transform="translate(-3.5352437e-4,4.5340576e-4)"><g
       id="g4163"><rect
         id="rect4165"
         y="4.5"
         x="21.5"
         width="5.0009999"
         transform="matrix(0.7071,0.7071,-0.7071,0.7071,24,-9.9411)"
         height="39"
         style="fill:#f44336" /><rect
         id="rect4167"
         y="4.5"
         x="21.5"
         width="5"
         transform="matrix(-0.7072,0.707,-0.707,-0.7072,57.9411,24.0047)"
         height="39.000999"
         style="fill:#f44336" /></g></g></svg>