<?xml version="1.0" encoding="utf-8" standalone="no"?><!-- Generator: Adobe Illustrator 15.0.0, SVG Export Plug-In . SVG Version: 6.00 Build 0)  --><svg xmlns="http://www.w3.org/2000/svg" xmlns:xlink="http://www.w3.org/1999/xlink" contentScriptType="application/ecmascript" contentStyleType="text/css" enable-background="new 0 0 48 48" height="48px" id="????????_1" preserveAspectRatio="xMidYMid meet" style="fill:#0066ff" version="1.1" viewBox="0 0 48 48" width="48px" x="0px" xml:space="preserve" y="0px" zoomAndPan="magnify">
<circle cx="24.5" cy="24.5" fill="#7CB342" r="19.5"/>
<g>
	<path d="M30.834,18.855c2.964,3.334,2.858,8.455-0.336,11.649c-3.314,3.314-8.707,3.314-12.021,0   c-3.194-3.194-3.301-8.315-0.336-11.649l-2.121-2.121c-4.14,4.513-4.036,11.521,0.335,15.893c4.491,4.49,11.772,4.49,16.264,0   c4.371-4.372,4.475-11.381,0.336-15.893L30.834,18.855z" fill="#DCEDC8"/>
	<polygon fill="#DCEDC8" points="13,15.001 19,15.001 19,15 20,15.001 20,15.001 20,22  "/>
</g>
</svg>