<?xml version="1.0" encoding="utf-8" standalone="no"?><!-- Generator: Adobe Illustrator 19.1.1, SVG Export Plug-In . SVG Version: 6.00 Build 0)  --><svg xmlns="http://www.w3.org/2000/svg" xmlns:xlink="http://www.w3.org/1999/xlink" enable-background="new 0 0 48 48" id="????????_1" style="fill:#0066ff" version="1.1" viewBox="0 0 48 48" x="0px" xml:space="preserve" y="0px">
<path d="M34,4c2.2,0,4,1.8,4,4s-1.8,4-4,4s-4-1.8-4-4S31.8,4,34,4z" fill="#FFB74D"/>
<path d="M17,34H8c-1.1,0-2-0.9-2-2s0.9-2,2-2h7.9l6.3-9.9l4.3,4.2L18.7,33C18.3,33.6,17.7,34,17,34z" fill="#1976D2"/>
<path d="M41.5,21H36l-2.6-6.6c-0.1-0.3-0.3-0.5-0.6-0.7L28,11c-0.2-0.1-0.5-0.2-0.8-0.2L20.8,10  c-0.3,0-0.6,0.1-0.8,0.3l-5.3,4c-0.7,0.5-0.9,1.4-0.4,2.1c0.5,0.7,1.4,0.9,2.1,0.4l5-3.7l3.9,1.2l-4.7,8.5c-1,1.6-0.5,3.7,1.1,4.7  l6.8,6.1L24.3,41c-0.5,1-0.2,2.2,0.8,2.7c0.3,0.2,0.6,0.3,1,0.3c0.7,0,1.4-0.4,1.8-1l5-9c0.5-0.9,0.3-2-0.5-2.6l-5.2-6l4.1-7.3  l2.6,5c0.2,0.6,0.8,0.9,1.4,0.9h6.5c0.8,0,1.5-0.7,1.5-1.5S42.3,21,41.5,21z" fill="#2196F3"/>
</svg>