<?xml version="1.0" encoding="UTF-8" standalone="no"?>
<!-- Generator: Adobe Illustrator 15.0.0, SVG Export Plug-In . SVG Version: 6.00 Build 0)  -->

<svg
   xmlns:dc="http://purl.org/dc/elements/1.1/"
   xmlns:cc="http://creativecommons.org/ns#"
   xmlns:rdf="http://www.w3.org/1999/02/22-rdf-syntax-ns#"
   xmlns:svg="http://www.w3.org/2000/svg"
   xmlns="http://www.w3.org/2000/svg"
   xmlns:sodipodi="http://sodipodi.sourceforge.net/DTD/sodipodi-0.dtd"
   xmlns:inkscape="http://www.inkscape.org/namespaces/inkscape"
   contentScriptType="application/ecmascript"
   contentStyleType="text/css"
   enable-background="new 0 0 48 48"
   height="48px"
   id="????????_1"
   preserveAspectRatio="xMidYMid meet"
   style="fill:#0066ff"
   version="1.1"
   viewBox="0 0 48 48"
   width="48px"
   x="0px"
   xml:space="preserve"
   y="0px"
   zoomAndPan="magnify"
   inkscape:version="0.91 r13725"
   sodipodi:docname="saveto.svg"><metadata
     id="metadata25"><rdf:RDF><cc:Work
         rdf:about=""><dc:format>image/svg+xml</dc:format><dc:type
           rdf:resource="http://purl.org/dc/dcmitype/StillImage" /></cc:Work></rdf:RDF></metadata><defs
     id="defs23" /><sodipodi:namedview
     pagecolor="#ffffff"
     bordercolor="#666666"
     borderopacity="1"
     objecttolerance="10"
     gridtolerance="10"
     guidetolerance="10"
     inkscape:pageopacity="0"
     inkscape:pageshadow="2"
     inkscape:window-width="1920"
     inkscape:window-height="1017"
     id="namedview21"
     showgrid="false"
     inkscape:zoom="4.9166667"
     inkscape:cx="24"
     inkscape:cy="24"
     inkscape:window-x="-8"
     inkscape:window-y="-8"
     inkscape:window-maximized="1"
     inkscape:current-layer="????????_1" /><polygon
     fill="#F44336"
     points="42,42 6,42 6,6 37,6 42,11 "
     id="polygon3" /><path
     d="M39,39c0,0.553-0.447,1-1,1H10c-0.553,0-1-0.447-1-1V25c0-0.553,0.447-1,1-1h28c0.553,0,1,0.447,1,1V39z"
     fill="#FFFFFF"
     id="path5" /><g
     id="g7"><rect
       fill="#CFD8DC"
       height="2"
       width="22"
       x="13"
       y="31"
       id="rect9" /><rect
       fill="#CFD8DC"
       height="2"
       width="22"
       x="13"
       y="27"
       id="rect11" /><rect
       fill="#CFD8DC"
       height="2"
       width="22"
       x="13"
       y="35"
       id="rect13" /></g><path
     d="M9,6v10c0,1.104,0.896,2,2,2h15c1.104,0,2-0.896,2-2V6H9z"
     fill="#C62828"
     id="path15" /><path
     d="M15,6v10c0,1.104,0.896,2,2,2h15c1.104,0,2-0.896,2-2V6H15z"
     fill="#B0BEC5"
     id="path17" /><rect
     fill="#263238"
     height="8"
     width="4"
     x="26"
     y="8"
     id="rect19" /><circle
     style="fill:#000000;fill-opacity:1;stroke:#ffffff;stroke-opacity:1"
     id="path4153"
     cx="22.881357"
     cy="41.69492"
     r="3.7627118" /><circle
     style="fill:#000000;fill-opacity:1;stroke:#ffffff;stroke-opacity:1"
     id="path4153-9"
     cx="31.474577"
     cy="41.69492"
     r="3.7627118" /><circle
     style="fill:#000000;fill-opacity:1;stroke:#ffffff;stroke-opacity:1"
     id="path4153-7"
     cx="40.067795"
     cy="41.69492"
     r="3.7627118" /></svg>