<?xml version="1.0" encoding="utf-8" standalone="no"?><!-- Generator: Adobe Illustrator 15.0.0, SVG Export Plug-In . SVG Version: 6.00 Build 0)  --><svg xmlns="http://www.w3.org/2000/svg" xmlns:xlink="http://www.w3.org/1999/xlink" contentScriptType="application/ecmascript" contentStyleType="text/css" enable-background="new 0 0 48 48" height="48px" id="????????_1" preserveAspectRatio="xMidYMid meet" style="fill:#0066ff" version="1.1" viewBox="0 0 48 48" width="48px" x="0px" xml:space="preserve" y="0px" zoomAndPan="magnify">
<g>
	<polygon fill="#B0BEC5" points="42,12 39,12 39,9 36,9 36,6 42,6  "/>
	<polygon fill="#B0BEC5" points="9,12 6,12 6,6 12,6 12,9 9,9  "/>
	<polygon fill="#B0BEC5" points="42,36 39,36 39,39 36,39 36,42 42,42  "/>
	<polygon fill="#B0BEC5" points="9,36 6,36 6,42 12,42 12,39 9,39  "/>
	<rect fill="#B0BEC5" height="6" width="3" x="6" y="16"/>
	<rect fill="#B0BEC5" height="6" width="3" x="6" y="26"/>
	<rect fill="#B0BEC5" height="6" width="3" x="39" y="16"/>
	<rect fill="#B0BEC5" height="6" width="3" x="39" y="26"/>
	<rect fill="#B0BEC5" height="3" width="6" x="26" y="6"/>
	<rect fill="#B0BEC5" height="3" width="6" x="16" y="6"/>
	<rect fill="#B0BEC5" height="3" width="6" x="26" y="39"/>
	<rect fill="#B0BEC5" height="3" width="6" x="16" y="39"/>
</g>
<g>
	<rect fill="#2196F3" height="2" width="23" x="13" y="14"/>
	<rect fill="#2196F3" height="2" width="20" x="13" y="20"/>
	<rect fill="#2196F3" height="2" width="23" x="13" y="26"/>
	<rect fill="#2196F3" height="2" width="20" x="13" y="32"/>
</g>
</svg>