<?xml version="1.0" encoding="UTF-8" standalone="no"?>
<!-- Generator: Adobe Illustrator 15.0.0, SVG Export Plug-In . SVG Version: 6.00 Build 0)  -->

<svg
   xmlns:dc="http://purl.org/dc/elements/1.1/"
   xmlns:cc="http://creativecommons.org/ns#"
   xmlns:rdf="http://www.w3.org/1999/02/22-rdf-syntax-ns#"
   xmlns:svg="http://www.w3.org/2000/svg"
   xmlns="http://www.w3.org/2000/svg"
   xmlns:sodipodi="http://sodipodi.sourceforge.net/DTD/sodipodi-0.dtd"
   xmlns:inkscape="http://www.inkscape.org/namespaces/inkscape"
   contentScriptType="application/ecmascript"
   contentStyleType="text/css"
   enable-background="new 0 0 48 48"
   height="48px"
   id="????????_1"
   preserveAspectRatio="xMidYMid meet"
   style="fill:#0066ff"
   version="1.1"
   viewBox="0 0 48 48"
   width="48px"
   x="0px"
   xml:space="preserve"
   y="0px"
   zoomAndPan="magnify"
   inkscape:version="0.91 r13725"
   sodipodi:docname="sidebar.svg"><metadata
     id="metadata17"><rdf:RDF><cc:Work
         rdf:about=""><dc:format>image/svg+xml</dc:format><dc:type
           rdf:resource="http://purl.org/dc/dcmitype/StillImage" /></cc:Work></rdf:RDF></metadata><defs
     id="defs15" /><sodipodi:namedview
     pagecolor="#ffffff"
     bordercolor="#666666"
     borderopacity="1"
     objecttolerance="10"
     gridtolerance="10"
     guidetolerance="10"
     inkscape:pageopacity="0"
     inkscape:pageshadow="2"
     inkscape:window-width="717"
     inkscape:window-height="480"
     id="namedview13"
     showgrid="false"
     inkscape:zoom="4.9166667"
     inkscape:cx="24"
     inkscape:cy="24"
     inkscape:window-x="0"
     inkscape:window-y="0"
     inkscape:window-maximized="0"
     inkscape:current-layer="????????_1" /><path
     d="m 34,41 c 0,0.553 -0.448,1 -1,1 L 6,42 6,7 C 6,6.447 6.447,6 7,6 l 26,0 c 0.552,0 1,0.447 1,1 l 0,34 z"
     id="path3"
     inkscape:connector-curvature="0"
     style="fill:#bbdefb" /><path
     d="m 28,6 13,0 c 0.553,0 1,0.447 1,1 l 0,35 -14,0 0,-36 z"
     id="path5"
     inkscape:connector-curvature="0"
     style="fill:#3f51b5" /><circle
     cx="-38"
     cy="10"
     r="2"
     id="circle7"
     transform="scale(-1,1)"
     style="fill:#ffeb3b" /><circle
     cx="-32"
     cy="10"
     r="2"
     id="circle9"
     transform="scale(-1,1)"
     style="fill:#8bc34a" /><path
     d="m 30,15 c 0,-0.553 0.447,-1 1,-1 l 8,0 c 0.553,0 1,0.447 1,1 l 0,0 c 0,0.553 -0.447,1 -1,1 l -8,0 c -0.553,0 -1,-0.447 -1,-1 l 0,0 z"
     id="path11"
     inkscape:connector-curvature="0"
     style="fill:#fafafa" /></svg>