<?xml version="1.0" encoding="utf-8" standalone="no"?><!-- Generator: Adobe Illustrator 15.0.0, SVG Export Plug-In . SVG Version: 6.00 Build 0)  --><svg xmlns="http://www.w3.org/2000/svg" xmlns:xlink="http://www.w3.org/1999/xlink" contentScriptType="application/ecmascript" contentStyleType="text/css" enable-background="new 0 0 48 48" height="48px" id="????????_1" preserveAspectRatio="xMidYMid meet" style="fill:#0066ff" version="1.1" viewBox="0 0 48 48" width="48px" x="0px" xml:space="preserve" y="0px" zoomAndPan="magnify">
<path d="M10.5,25.906C11.5,15.906,14,17,14,17c2,0,2-2,2-2c0-5,4.262-10,10.593-10C31.875,5,38,9.416,38,17.051  c0,11.299-7.752,13.287-10.32,19.611C26.536,39.471,24.768,43,20.018,43S14,38.066,14,37c0,0,0-2-2-2S9.5,32.906,10.5,25.906z" fill="#FFCC80"/>
<path d="M34.41,19.444c0.535,0,0.59-0.741,0.59-1.444c0-7-4.444-9-7.369-9C25.25,9,23,11,21.39,15.996  C20.568,18.67,18,19.086,18,21.85c0,1.673,2.996,1.203,2.996,3.433C20.996,28.33,18,27.5,18,30.855C18,31.368,18,34,20.996,34  c3,0,9.004-7,5.004-12c-3.643-4.553-0.748-10,3-10C35,12,33.029,19.444,34.41,19.444z" fill="#ED9118"/>
<line fill="none" stroke="#37474F" stroke-linejoin="round" stroke-miterlimit="10" stroke-width="4" x1="5" x2="43" y1="5" y2="43"/>
</svg>