<?xml version="1.0" encoding="utf-8" standalone="no"?><!-- Generator: Adobe Illustrator 15.0.0, SVG Export Plug-In . SVG Version: 6.00 Build 0)  --><svg xmlns="http://www.w3.org/2000/svg" xmlns:xlink="http://www.w3.org/1999/xlink" contentScriptType="application/ecmascript" contentStyleType="text/css" enable-background="new 0 0 48 48" height="48px" id="????????_1" preserveAspectRatio="xMidYMid meet" style="fill:#0066ff" version="1.1" viewBox="0 0 48 48" width="48px" x="0px" xml:space="preserve" y="0px" zoomAndPan="magnify">
<path d="M24,8C13.507,8,5,16.507,5,27c0,4.553,1.605,8.728,4.275,12l1.499-3h26.453l1.498,3  C41.395,35.728,43,31.553,43,27C43,16.507,34.493,8,24,8z" fill="#7986CB"/>
<path d="M40,27c0-8.836-7.164-16-16-16c-8.835,0-16,7.164-16,16c0,3.338,1.025,6.436,2.774,9l-1.499,3h29.45  l-1.498-3C38.975,33.436,40,30.338,40,27z" fill="#ECEFF1"/>
<g>
	<path d="M8.031,26C8.01,26.332,8,26.662,8,27s0.01,0.668,0.031,1h4.02C12.023,27.67,12,27.338,12,27   s0.023-0.67,0.05-1H8.031z" fill="#455A64"/>
	<path d="M14.217,33.915c-0.393-0.537-0.742-1.106-1.042-1.706l-3.431,2.085c0.313,0.592,0.648,1.16,1.03,1.706   L14.217,33.915z" fill="#455A64"/>
	<path d="M16.945,17.308c0.538-0.392,1.108-0.739,1.709-1.039l-2.042-3.464c-0.594,0.311-1.185,0.667-1.732,1.047   L16.945,17.308z" fill="#455A64"/>
	<path d="M13.13,21.941c0.284-0.608,0.609-1.192,0.986-1.74l-3.447-2.052c-0.366,0.556-0.743,1.205-1.039,1.806   L13.13,21.941z" fill="#455A64"/>
	<path d="M25,15.051v-4.02C24.667,11.01,24.337,11,24,11s-0.667-0.021-1,0v4.051C23.331,15.023,23.663,15,24,15   S24.669,15.023,25,15.051z" fill="#455A64"/>
	<path d="M33.768,34.015L37.248,36c0.365-0.556,0.732-1.174,1.028-1.775l-3.523-1.95   C34.469,32.883,34.145,33.467,33.768,34.015z" fill="#455A64"/>
	<path d="M39.969,28C39.99,27.668,40,27.338,40,27s-0.01-0.668-0.031-1h-4.02C35.977,26.33,36,26.662,36,27   s-0.023,0.67-0.051,1H39.969z" fill="#455A64"/>
	<path d="M32.811,13.643c-0.555-0.366-1.166-0.716-1.767-1.012l-1.985,3.499c0.609,0.284,1.193,0.609,1.74,0.986   L32.811,13.643z" fill="#455A64"/>
</g>
<rect fill="#90A4AE" height="2" width="8" x="20" y="32"/>
<g>
	<line fill="none" stroke="#FF1744" stroke-width="2" x1="24" x2="36" y1="27" y2="20"/>
	<path d="M23.887,23.905c1.626,0,2.944,1.319,2.944,2.942c0,1.629-1.317,2.946-2.944,2.946   c-1.625,0-2.942-1.317-2.942-2.946C20.945,25.225,22.262,23.905,23.887,23.905z" fill="#FF1744"/>
</g>
</svg>