<?xml version="1.0" encoding="utf-8" standalone="no"?><!-- Generator: Adobe Illustrator 15.0.0, SVG Export Plug-In . SVG Version: 6.00 Build 0)  --><svg xmlns="http://www.w3.org/2000/svg" xmlns:xlink="http://www.w3.org/1999/xlink" contentScriptType="application/ecmascript" contentStyleType="text/css" enable-background="new 0 0 48 48" height="48px" id="????????_1" preserveAspectRatio="xMidYMid meet" style="fill:#0066ff" version="1.1" viewBox="0 0 48 48" width="48px" x="0px" xml:space="preserve" y="0px" zoomAndPan="magnify">
<polygon fill="#FF3D00" points="14,40.823 4,23.459 14,6 34,6 44,23.77 34,41 "/>
<g>
	<path d="M13.448,26.313c0-0.396-0.103-0.695-0.308-0.898s-0.578-0.412-1.119-0.632   c-0.987-0.37-1.696-0.804-2.129-1.3c-0.433-0.497-0.649-1.084-0.649-1.762c0-0.82,0.294-1.479,0.882-1.977   C10.713,19.248,11.46,19,12.367,19c0.604,0,1.142,0.127,1.615,0.378s0.837,0.606,1.092,1.065c0.254,0.46,0.382,0.981,0.382,1.564   h-1.981c0-0.453-0.098-0.801-0.294-1.039c-0.196-0.238-0.479-0.357-0.848-0.357c-0.348,0-0.618,0.102-0.812,0.305   c-0.194,0.202-0.291,0.475-0.291,0.818c0,0.268,0.108,0.508,0.325,0.725c0.216,0.216,0.599,0.44,1.149,0.672   c0.959,0.343,1.657,0.764,2.092,1.264c0.435,0.5,0.652,1.135,0.652,1.904c0,0.848-0.272,1.509-0.818,1.986   C14.085,28.76,13.344,29,12.407,29c-0.636,0-1.214-0.129-1.737-0.389c-0.523-0.258-0.932-0.627-1.227-1.108   C9.148,27.021,9,26.453,9,25.798h1.994c0,0.562,0.111,0.969,0.332,1.223c0.22,0.255,0.582,0.381,1.082,0.381   C13.101,27.401,13.448,27.039,13.448,26.313z" fill="#FFFFFF"/>
	<path d="M23,20.682h-2.501V29H18.45v-8.318h-2.459V19H23V20.682z" fill="#FFFFFF"/>
	<path d="M31.023,24.877c0,1.303-0.313,2.317-0.936,3.041C29.463,28.639,28.597,29,27.488,29   c-1.104,0-1.972-0.357-2.603-1.073c-0.631-0.714-0.951-1.717-0.96-3.005v-1.664c0-1.337,0.313-2.381,0.939-3.131   C25.492,19.375,26.361,19,27.475,19c1.096,0,1.958,0.369,2.589,1.106c0.632,0.738,0.95,1.773,0.96,3.104V24.877z M29.029,23.245   c0-0.878-0.126-1.53-0.379-1.96c-0.252-0.427-0.645-0.641-1.176-0.641c-0.527,0-0.917,0.205-1.17,0.619   c-0.252,0.411-0.383,1.038-0.392,1.881v1.732c0,0.85,0.128,1.477,0.386,1.881c0.257,0.403,0.652,0.604,1.189,0.604   c0.518,0,0.903-0.198,1.156-0.591c0.252-0.396,0.381-1.007,0.385-1.836V23.245z" fill="#FFFFFF"/>
	<path d="M34.311,25.483V29h-2.043V19h3.446c1.001,0,1.798,0.306,2.394,0.919C38.701,20.534,39,21.329,39,22.31   s-0.294,1.754-0.883,2.322c-0.588,0.568-1.402,0.852-2.445,0.852H34.311z M34.311,23.801h1.403c0.39,0,0.69-0.125,0.903-0.377   c0.213-0.254,0.319-0.619,0.319-1.1c0-0.5-0.108-0.896-0.327-1.191c-0.217-0.296-0.509-0.445-0.875-0.451h-1.424V23.801z" fill="#FFFFFF"/>
</g>
</svg>