<?xml version="1.0" encoding="UTF-8" standalone="no"?>
<!-- Generator: Adobe Illustrator 15.0.0, SVG Export Plug-In . SVG Version: 6.00 Build 0)  -->

<svg
   xmlns:dc="http://purl.org/dc/elements/1.1/"
   xmlns:cc="http://creativecommons.org/ns#"
   xmlns:rdf="http://www.w3.org/1999/02/22-rdf-syntax-ns#"
   xmlns:svg="http://www.w3.org/2000/svg"
   xmlns="http://www.w3.org/2000/svg"
   xmlns:sodipodi="http://sodipodi.sourceforge.net/DTD/sodipodi-0.dtd"
   xmlns:inkscape="http://www.inkscape.org/namespaces/inkscape"
   contentScriptType="application/ecmascript"
   contentStyleType="text/css"
   enable-background="new 0 0 48 48"
   height="48px"
   id="????????_1"
   preserveAspectRatio="xMidYMid meet"
   style="fill:#0066ff"
   version="1.1"
   viewBox="0 0 48 48"
   width="48px"
   x="0px"
   xml:space="preserve"
   y="0px"
   zoomAndPan="magnify"
   inkscape:version="0.91 r13725"
   sodipodi:docname="stop_conditional.svg"><metadata
     id="metadata9"><rdf:RDF><cc:Work
         rdf:about=""><dc:format>image/svg+xml</dc:format><dc:type
           rdf:resource="http://purl.org/dc/dcmitype/StillImage" /><dc:title></dc:title></cc:Work></rdf:RDF></metadata><defs
     id="defs7" /><sodipodi:namedview
     pagecolor="#ffffff"
     bordercolor="#666666"
     borderopacity="1"
     objecttolerance="10"
     gridtolerance="10"
     guidetolerance="10"
     inkscape:pageopacity="0"
     inkscape:pageshadow="2"
     inkscape:window-width="1136"
     inkscape:window-height="935"
     id="namedview5"
     showgrid="false"
     inkscape:zoom="4.9166667"
     inkscape:cx="24"
     inkscape:cy="32.135593"
     inkscape:window-x="480"
     inkscape:window-y="96"
     inkscape:window-maximized="0"
     inkscape:current-layer="????????_1" /><rect
     height="24"
     width="24"
     x="12"
     y="12"
     id="rect3"
     style="fill:#2196f3;fill-opacity:1" /><path
     inkscape:connector-curvature="0"
     style="fill:#ff0800;fill-opacity:1"
     d="m 41.781652,29.608844 c -0.625228,-0.385591 -1.477195,-0.155459 -1.908949,0.526794 l -1.561374,1.982266 0,-0.05838 0,-0.567525 0,-8.639828 c -0.0014,-0.509144 -0.507786,-0.916459 -1.018287,-0.911028 -0.513217,0.0054 -1.025076,0.425644 -1.018287,0.934788 l 0,6.153849 c -0.215877,-0.09436 -0.441937,-0.169715 -0.678858,-0.217914 l 0,-7.304513 c -0.002,-0.50575 -0.482669,-0.915101 -0.997243,-0.90967 -0.510501,0.0054 -1.040011,0.425644 -1.039332,0.932751 l 0,7.213547 -0.678858,0 0,-6.580172 c -0.002,-0.507786 -0.517969,-0.897451 -1.029149,-0.887268 -0.515932,0.0048 -1.009462,0.404599 -1.007426,0.915101 l 0,6.620903 c -0.236921,0.0482 -0.462981,0.124231 -0.678858,0.217914 l 0,-4.817178 c -0.0061,-0.507107 -0.51729,-0.915779 -1.029149,-0.911027 -0.515253,0.01222 -1.007425,0.426323 -1.007425,0.940897 l 0.03055,6.416567 6.79e-4,0.09708 c -0.0095,0.103865 -0.03123,0.204336 -0.03123,0.310238 l 0,4.465529 c 0,1.875007 1.519284,3.394291 3.394291,3.394291 l 3.39429,0 c 2.036575,0 3.32369,-1.573593 4.073149,-2.715433 L 42.148234,31.5402 c 0.424287,-0.682252 0.261361,-1.541686 -0.366583,-1.931351 z"
     id="path5" /></svg>