<?xml version="1.0" encoding="utf-8" standalone="no"?><!-- Generator: Adobe Illustrator 15.0.0, SVG Export Plug-In . SVG Version: 6.00 Build 0)  --><svg xmlns="http://www.w3.org/2000/svg" xmlns:xlink="http://www.w3.org/1999/xlink" contentScriptType="application/ecmascript" contentStyleType="text/css" enable-background="new 0 0 48 48" height="48px" id="????????_1" preserveAspectRatio="xMidYMid meet" style="fill:#0066ff" version="1.1" viewBox="0 0 48 48" width="48px" x="0px" xml:space="preserve" y="0px" zoomAndPan="magnify">
<circle cx="24" cy="24" fill="#F44336" r="19"/>
<path d="M36.112,23.274c-0.921-0.568-2.176-0.229-2.812,0.776L31,26.97v-0.086v-0.836V13.321  c-0.002-0.75-0.748-1.35-1.5-1.342c-0.756,0.008-1.51,0.627-1.5,1.377v9.065c-0.318-0.139-0.651-0.25-1-0.321V11.34  c-0.003-0.745-0.711-1.348-1.469-1.34c-0.752,0.008-1.532,0.627-1.531,1.374V22h-1v-9.693c-0.003-0.748-0.763-1.322-1.516-1.307  c-0.76,0.007-1.487,0.596-1.484,1.348v9.753c-0.349,0.071-0.682,0.183-1,0.321v-7.096c-0.009-0.747-0.762-1.349-1.516-1.342  C16.725,14.002,16,14.612,16,15.37l0.045,9.452l0.001,0.143C16.032,25.118,16,25.266,16,25.422V32c0,2.762,2.238,5,5,5h5  c3,0,4.896-2.318,6-4l4.652-6.881C37.277,25.114,37.037,23.848,36.112,23.274z" fill="#FFCDD2"/>
</svg>