<?xml version="1.0" encoding="utf-8" standalone="no"?><!-- Generator: Adobe Illustrator 15.0.0, SVG Export Plug-In . SVG Version: 6.00 Build 0)  --><svg xmlns="http://www.w3.org/2000/svg" xmlns:xlink="http://www.w3.org/1999/xlink" contentScriptType="application/ecmascript" contentStyleType="text/css" enable-background="new 0 0 48 48" height="48px" id="????????_1" preserveAspectRatio="xMidYMid meet" style="fill:#0066ff" version="1.1" viewBox="0 0 48 48" width="48px" x="0px" xml:space="preserve" y="0px" zoomAndPan="magnify">
<g>
	<g>
		<path d="M20.959,18H36v24H20.959c-3.247,0-5.878-2.686-5.878-5.997V24C15.081,20.685,17.712,18,20.959,18z" fill="#FFCC80"/>
		<path d="M32,21c0,1.657,1.343,3,3,3h3c1.657,0,3-1.343,3-3l0,0c0-1.657-1.343-3-3-3h-3C33.343,18,32,19.343,32,21    L32,21z" fill="#FFCC80"/>
		<path d="M29,27c0,1.657,1.343,3,3,3h6c1.657,0,3-1.343,3-3l0,0c0-1.657-1.343-3-3-3h-6C30.343,24,29,25.343,29,27    L29,27z" fill="#FFCC80"/>
		<path d="M28,33c0,1.657,1.343,3,3,3h6c1.657,0,3-1.343,3-3l0,0c0-1.657-1.343-3-3-3h-6C29.343,30,28,31.343,28,33    L28,33z" fill="#FFCC80"/>
		<path d="M27,39c0,1.657,1.343,3,3,3h6c1.657,0,3-1.343,3-3l0,0c0-1.657-1.343-3-3-3h-6C28.343,36,27,37.343,27,39    L27,39z" fill="#FFCC80"/>
		<path d="M22.526,13.566c0.926-1.03,1.582-2.277,1.916-3.631l0.724-2.954C25.306,6.402,25.815,6,26.397,6h0.675    c1.781,0,2.968,2,2.968,3.294v1.391c0,2.829-0.453,5.61-1.813,8.072l-2.626,4.763l-8.193-4.266L22.526,13.566z" fill="#FFCC80"/>
	</g>
	<g>
		<path d="M39,24h-4c-0.552,0-1,0.447-1,1s0.448,1,1,1L39,24z" fill="#F2A25A"/>
		<path d="M38,30h-4c-0.552,0-1,0.447-1,1s0.448,1,1,1L38,30z" fill="#F2A25A"/>
		<path d="M37,36h-4c-0.552,0-1,0.447-1,1s0.448,1,1,1L37,36z" fill="#F2A25A"/>
	</g>
	<rect fill="#009688" height="22" width="10" x="6.04" y="19"/>
	<circle cx="11.04" cy="36" fill="#B2DFDB" r="2"/>
</g>
</svg>