<?xml version="1.0" encoding="UTF-8" standalone="no"?>
<!-- Generator: Adobe Illustrator 15.0.0, SVG Export Plug-In . SVG Version: 6.00 Build 0)  -->

<svg
   xmlns:dc="http://purl.org/dc/elements/1.1/"
   xmlns:cc="http://creativecommons.org/ns#"
   xmlns:rdf="http://www.w3.org/1999/02/22-rdf-syntax-ns#"
   xmlns:svg="http://www.w3.org/2000/svg"
   xmlns="http://www.w3.org/2000/svg"
   xmlns:sodipodi="http://sodipodi.sourceforge.net/DTD/sodipodi-0.dtd"
   xmlns:inkscape="http://www.inkscape.org/namespaces/inkscape"
   contentScriptType="application/ecmascript"
   contentStyleType="text/css"
   enable-background="new 0 0 48 48"
   height="48px"
   id="????????_1"
   preserveAspectRatio="xMidYMid meet"
   style="fill:#0066ff"
   version="1.1"
   viewBox="0 0 48 48"
   width="48px"
   x="0px"
   xml:space="preserve"
   y="0px"
   zoomAndPan="magnify"
   inkscape:version="0.91 r13725"
   sodipodi:docname="thumbs-down.svg"><metadata
     id="metadata35"><rdf:RDF><cc:Work
         rdf:about=""><dc:format>image/svg+xml</dc:format><dc:type
           rdf:resource="http://purl.org/dc/dcmitype/StillImage" /></cc:Work></rdf:RDF></metadata><defs
     id="defs33" /><sodipodi:namedview
     pagecolor="#ffffff"
     bordercolor="#666666"
     borderopacity="1"
     objecttolerance="10"
     gridtolerance="10"
     guidetolerance="10"
     inkscape:pageopacity="0"
     inkscape:pageshadow="2"
     inkscape:window-width="717"
     inkscape:window-height="480"
     id="namedview31"
     showgrid="false"
     inkscape:zoom="4.9166667"
     inkscape:cx="24"
     inkscape:cy="24"
     inkscape:window-x="0"
     inkscape:window-y="0"
     inkscape:window-maximized="0"
     inkscape:current-layer="g3" /><g
     id="g3"><g
       id="g5"><path
         d="M20.959,30H36V6H20.959c-3.247,0-5.878,2.686-5.878,5.997V24C15.081,27.315,17.712,30,20.959,30z"
         fill="#FFCC80"
         id="path7" /><path
         d="M32,27c0-1.657,1.343-3,3-3h3c1.657,0,3,1.343,3,3l0,0c0,1.657-1.343,3-3,3h-3C33.343,30,32,28.657,32,27    L32,27z"
         fill="#FFCC80"
         id="path9" /><path
         d="M29,21c0-1.657,1.343-3,3-3h6c1.657,0,3,1.343,3,3l0,0c0,1.657-1.343,3-3,3h-6C30.343,24,29,22.657,29,21    L29,21z"
         fill="#FFCC80"
         id="path11" /><path
         d="M28,15c0-1.657,1.343-3,3-3h6c1.657,0,3,1.343,3,3l0,0c0,1.657-1.343,3-3,3h-6C29.343,18,28,16.657,28,15    L28,15z"
         fill="#FFCC80"
         id="path13" /><path
         d="M27,9c0-1.657,1.343-3,3-3h6c1.657,0,3,1.343,3,3l0,0c0,1.657-1.343,3-3,3h-6C28.343,12,27,10.657,27,9    L27,9z"
         fill="#FFCC80"
         id="path15" /><path
         d="M17.407,28.746l8.193-4.266l2.626,4.763c1.36,2.462,1.813,5.243,1.813,8.071v1.392    C30.04,40,28.854,42,27.072,42h-0.675c-0.582,0-1.092-0.402-1.231-0.98l-0.724-2.955c-0.334-1.354-0.99-2.601-1.916-3.631    L17.407,28.746z"
         fill="#FFCC80"
         id="path17" /></g><g
       id="g19"><path
         d="M39,24h-4c-0.552,0-1-0.447-1-1s0.448-1,1-1L39,24z"
         fill="#F2A25A"
         id="path21" /><path
         d="M38,18h-4c-0.552,0-1-0.447-1-1s0.448-1,1-1L38,18z"
         fill="#F2A25A"
         id="path23" /><path
         d="M37,12h-4c-0.552,0-1-0.447-1-1s0.448-1,1-1L37,12z"
         fill="#F2A25A"
         id="path25" /></g><rect
       fill="#009688"
       height="22"
       width="10"
       x="6.04"
       y="7"
       id="rect27"
       style="fill:#ff0000;fill-opacity:1" /><circle
       cx="11.04"
       cy="12"
       fill="#B2DFDB"
       r="2"
       id="circle29" /></g></svg>