<?xml version="1.0" encoding="utf-8" standalone="no"?><!-- Generator: Adobe Illustrator 15.0.0, SVG Export Plug-In . SVG Version: 6.00 Build 0)  --><svg xmlns="http://www.w3.org/2000/svg" xmlns:xlink="http://www.w3.org/1999/xlink" contentScriptType="application/ecmascript" contentStyleType="text/css" enable-background="new 0 0 48 48" height="48px" id="????????_1" preserveAspectRatio="xMidYMid meet" style="fill:#0066ff" version="1.1" viewBox="0 0 48 48" width="48px" x="0px" xml:space="preserve" y="0px" zoomAndPan="magnify">
<path d="M42,16c0,0.553-0.447,2-1,2H7c-0.552,0-1-1.447-1-2V7c0-0.553,0.448-1,1-1h34c0.553,0,1,0.447,1,1V16z" fill="#3F51B5"/>
<rect fill="#BBDEFB" height="28" width="36" x="6" y="14"/>
<circle cx="10" cy="10" fill="#FFEB3B" r="2"/>
<circle cx="16" cy="10" fill="#8BC34A" r="2"/>
<path d="M40,10c0-0.553-0.447-1-1-1H22c-0.553,0-1,0.447-1,1l0,0c0,0.553,0.447,1,1,1h17C39.553,11,40,10.553,40,10  L40,10z" fill="#FAFAFA"/>
</svg>