<?xml version="1.0" encoding="utf-8" standalone="no"?><!-- Generator: Adobe Illustrator 15.0.0, SVG Export Plug-In . SVG Version: 6.00 Build 0)  --><svg xmlns="http://www.w3.org/2000/svg" xmlns:xlink="http://www.w3.org/1999/xlink" contentScriptType="application/ecmascript" contentStyleType="text/css" enable-background="new 0 0 48 48" height="48px" id="????????_1" preserveAspectRatio="xMidYMid meet" style="fill:#0066ff" version="1.1" viewBox="0 0 48 48" width="48px" x="0px" xml:space="preserve" y="0px" zoomAndPan="magnify">
<path d="M12,13v25c0,2.209,1.791,4,4,4h16c2.209,0,4-1.791,4-4V13H12z" fill="#9FA8DA"/>
<g>
	<rect fill="#7986CB" height="23" width="2" x="23" y="15"/>
	<rect fill="#7986CB" height="23" width="2" x="29" y="15"/>
	<rect fill="#7986CB" height="23" width="2" x="17" y="15"/>
</g>
<g>
	<rect fill="#5C6BC0" height="4" width="28" x="10" y="11"/>
	<path d="M21.8,13.026C21.308,12.492,21,11.784,21,11c0-1.657,1.343-3,3-3c1.656,0,3,1.343,3,3   c0,0.784-0.308,1.492-0.801,2.026h2.364C28.84,12.406,29,11.723,29,11c0-2.762-2.238-5-5-5c-2.761,0-5,2.238-5,5   c0,0.723,0.16,1.406,0.437,2.026H21.8z" fill="#5C6BC0"/>
</g>
</svg>