<?xml version="1.0" encoding="UTF-8" standalone="no"?>
<!-- Generator: Adobe Illustrator 15.0.0, SVG Export Plug-In . SVG Version: 6.00 Build 0)  -->

<svg
   xmlns:dc="http://purl.org/dc/elements/1.1/"
   xmlns:cc="http://creativecommons.org/ns#"
   xmlns:rdf="http://www.w3.org/1999/02/22-rdf-syntax-ns#"
   xmlns:svg="http://www.w3.org/2000/svg"
   xmlns="http://www.w3.org/2000/svg"
   xmlns:sodipodi="http://sodipodi.sourceforge.net/DTD/sodipodi-0.dtd"
   xmlns:inkscape="http://www.inkscape.org/namespaces/inkscape"
   contentScriptType="application/ecmascript"
   contentStyleType="text/css"
   enable-background="new 0 0 48 48"
   height="16"
   id="????????_1"
   preserveAspectRatio="xMidYMid meet"
   style="fill:#0066ff"
   version="1.1"
   viewBox="0 0 32 16"
   width="32"
   x="0px"
   xml:space="preserve"
   y="0px"
   zoomAndPan="magnify"
   inkscape:version="0.91 r13725"
   sodipodi:docname="tree_package_open.svg"><metadata
     id="metadata57"><rdf:RDF><cc:Work
         rdf:about=""><dc:format>image/svg+xml</dc:format><dc:type
           rdf:resource="http://purl.org/dc/dcmitype/StillImage" /><dc:title></dc:title></cc:Work></rdf:RDF></metadata><defs
     id="defs55" /><sodipodi:namedview
     pagecolor="#ffffff"
     bordercolor="#666666"
     borderopacity="1"
     objecttolerance="10"
     gridtolerance="10"
     guidetolerance="10"
     inkscape:pageopacity="0"
     inkscape:pageshadow="2"
     inkscape:window-width="1920"
     inkscape:window-height="1017"
     id="namedview53"
     showgrid="false"
     inkscape:zoom="27.812867"
     inkscape:cx="18.188384"
     inkscape:cy="2.1626239"
     inkscape:window-x="-8"
     inkscape:window-y="-8"
     inkscape:window-maximized="1"
     inkscape:current-layer="g4205" /><path
     style="fill:#000000;fill-opacity:1;stroke:none;stroke-opacity:1"
     d="M 2.6601562 3.6308594 L 2.6601562 13.626953 L 5.859375 13.626953 L 5.859375 12.601562 L 3.6679688 12.601562 L 3.6679688 4.65625 L 5.859375 4.65625 L 5.859375 3.6308594 L 2.6601562 3.6308594 z M 9.1328125 3.6308594 L 9.1328125 4.65625 L 11.326172 4.65625 L 11.326172 12.601562 L 9.1328125 12.601562 L 9.1328125 13.626953 L 12.332031 13.626953 L 12.332031 3.6308594 L 9.1328125 3.6308594 z "
     id="rect4196" /><g
     id="g4205"
     transform="matrix(0.34285714,0,0,0.34285714,-2.0571428,1.9428573)"><rect
       id="rect4209"
       height="3.1423466"
       width="13.921626"
       y="17.929802"
       x="20.902794"
       style="fill:#000000;fill-opacity:1" /><g
       style="fill:#0066ff"
       id="g4268"
       transform="matrix(1.0631502,0,0,1.0631502,47.719905,-8.3467511)"><rect
         id="rect4244"
         y="7"
         x="10"
         width="28"
         height="7"
         style="fill:#d17a00" /><g
         id="g4246"><g
           id="g4248"><polygon
             id="polygon4250"
             points="10,21 6,21 6,13 10,7 "
             style="fill:#8a5100" /></g><g
           id="g4252"><polygon
             id="polygon4254"
             points="38,21 42,21 42,13 38,7 "
             style="fill:#8a5100" /></g></g><g
         id="g4256"><path
           id="path4258"
           d="M 40,41 8,41 C 6.9,41 6,40.1 6,39 l 0,-26 36,0 0,26 c 0,1.1 -0.9,2 -2,2 z"
           inkscape:connector-curvature="0"
           style="fill:#ff9800" /></g><path
         id="path4260"
         d="m 27.5,20 -7,0 C 19.7,20 19,19.3 19,18.5 l 0,0 C 19,17.7 19.7,17 20.5,17 l 7,0 c 0.8,0 1.5,0.7 1.5,1.5 l 0,0 c 0,0.8 -0.7,1.5 -1.5,1.5 z"
         inkscape:connector-curvature="0"
         style="fill:#8a5100" /></g></g></svg>