<?xml version="1.0" encoding="UTF-8" standalone="no"?>
<!-- Generator: Adobe Illustrator 15.0.0, SVG Export Plug-In . SVG Version: 6.00 Build 0)  -->

<svg
   xmlns:dc="http://purl.org/dc/elements/1.1/"
   xmlns:cc="http://creativecommons.org/ns#"
   xmlns:rdf="http://www.w3.org/1999/02/22-rdf-syntax-ns#"
   xmlns:svg="http://www.w3.org/2000/svg"
   xmlns="http://www.w3.org/2000/svg"
   xmlns:sodipodi="http://sodipodi.sourceforge.net/DTD/sodipodi-0.dtd"
   xmlns:inkscape="http://www.inkscape.org/namespaces/inkscape"
   contentScriptType="application/ecmascript"
   contentStyleType="text/css"
   enable-background="new 0 0 48 48"
   height="16"
   id="????????_1"
   preserveAspectRatio="xMidYMid meet"
   style="fill:#0066ff"
   version="1.1"
   viewBox="0 0 32 16"
   width="32"
   x="0px"
   xml:space="preserve"
   y="0px"
   zoomAndPan="magnify"
   inkscape:version="0.91 r13725"
   sodipodi:docname="tree_archive.svg"><metadata
     id="metadata57"><rdf:RDF><cc:Work
         rdf:about=""><dc:format>image/svg+xml</dc:format><dc:type
           rdf:resource="http://purl.org/dc/dcmitype/StillImage" /><dc:title></dc:title></cc:Work></rdf:RDF></metadata><defs
     id="defs55" /><sodipodi:namedview
     pagecolor="#ffffff"
     bordercolor="#666666"
     borderopacity="1"
     objecttolerance="10"
     gridtolerance="10"
     guidetolerance="10"
     inkscape:pageopacity="0"
     inkscape:pageshadow="2"
     inkscape:window-width="1920"
     inkscape:window-height="1017"
     id="namedview53"
     showgrid="false"
     inkscape:zoom="27.812867"
     inkscape:cx="18.188384"
     inkscape:cy="5.0389905"
     inkscape:window-x="-8"
     inkscape:window-y="-8"
     inkscape:window-maximized="1"
     inkscape:current-layer="????????_1" /><g
     id="g3"
     transform="matrix(0.37750386,0,0,0.37750386,13.700789,-1.3929128)"><path
       d="M 17,24 7,17.467 c 0,0 1,-1.865 1,-3.732 C 8,11.868 7,10 7,10 L 17,16.533 17,24 Z"
       id="path5"
       inkscape:connector-curvature="0"
       style="fill:#cfd8dc" /><path
       d="M 17,40 7,32.533 c 0,0 1,-0.934 1,-2.8 C 8,27.867 7,26 7,26 L 17,32.533 17,40 Z"
       id="path7"
       inkscape:connector-curvature="0"
       style="fill:#cfd8dc" /><path
       d="M 17,32 7,24.533 c 0,0 1,-0.934 1,-2.8 C 8,19.867 7,18 7,18 L 17,24.533 17,32 Z"
       id="path9"
       inkscape:connector-curvature="0"
       style="fill:#cfd8dc" /></g><g
     id="g11"
     transform="matrix(0.37750386,0,0,0.37750386,13.700789,-1.3929128)"><path
       d="M 17.624,34 C 17.405,34 17.184,33.929 17,33.781 l -10.625,-8 C 5.943,25.435 5.874,24.806 6.219,24.375 6.563,23.944 7.194,23.874 7.624,24.219 l 10.625,8 c 0.432,0.346 0.501,0.975 0.156,1.406 C 18.208,33.871 17.917,34 17.624,34 Z"
       id="path13"
       inkscape:connector-curvature="0"
       style="fill:#3f51b5" /><path
       d="m 42,25 -26,0 c 0,0 1,1.742 1,4.246 C 17,31.75 16,33 16,33 l 26,0 c 0,0 1,-1 1,-4 0,-3 -1,-4 -1,-4 z"
       id="path15"
       inkscape:connector-curvature="0"
       style="fill:#3f51b5" /></g><g
     id="g17"
     transform="matrix(0.37750386,0,0,0.37750386,13.700789,-1.3929128)"><path
       d="M 17.624,26 C 17.405,26 17.184,25.929 17,25.781 l -10.625,-8 C 5.943,17.435 5.874,16.806 6.219,16.375 6.563,15.944 7.194,15.873 7.624,16.219 l 10.625,8 c 0.432,0.346 0.501,0.975 0.156,1.406 C 18.208,25.871 17.917,26 17.624,26 Z"
       id="path19"
       inkscape:connector-curvature="0"
       style="fill:#9c27b0" /><path
       d="m 42,17 -26,0 c 0,0 1,1.742 1,4.246 C 17,23.75 16,25 16,25 l 26,0 c 0,0 1,-1 1,-4 0,-3 -1,-4 -1,-4 z"
       id="path21"
       inkscape:connector-curvature="0"
       style="fill:#9c27b0" /></g><g
     id="g23"
     transform="matrix(0.37750386,0,0,0.37750386,13.700789,-1.3929128)"><path
       d="m 18.609,41 c 0,-0.293 -0.113,-0.584 -0.36,-0.781 l -10.625,-8 c -0.43,-0.345 -1.061,-0.274 -1.405,0.156 -0.345,0.432 -0.275,1.061 0.156,1.406 l 9.587,7.219 2.647,0 z"
       id="path25"
       inkscape:connector-curvature="0"
       style="fill:#8bc34a" /><path
       d="m 42,33 -26,0 c 0,0 1,1.742 1,4.246 C 17,39.75 16,41 16,41 l 26,0 c 0,0 1,-1 1,-4 0,-3 -1,-4 -1,-4 z"
       id="path27"
       inkscape:connector-curvature="0"
       style="fill:#8bc34a" /></g><path
     d="m 29.555952,11.064715 -9.815101,0 c 0,0 0.16648,0.285393 0.276711,0.755008 l 9.828313,0 C 29.734511,11.27574 29.555952,11.064715 29.555952,11.064715 Z"
     id="path29"
     inkscape:connector-curvature="0"
     style="fill:#689f38" /><path
     d="m 29.555952,8.044684 -9.815101,0 c 0,0 0.16648,0.2853929 0.276711,0.7550077 l 9.828313,0 C 29.734511,8.2557086 29.555952,8.044684 29.555952,8.044684 Z"
     id="path31"
     inkscape:connector-curvature="0"
     style="fill:#303f9f" /><g
     id="g33"
     transform="matrix(0.37750386,0,0,0.37750386,13.700789,-1.3929128)"><path
       d="m 21.034,32 c 0.11,-0.45 0.299,-1.379 0.299,-2.5 0,-1.121 -0.189,-2.05 -0.299,-2.5 L 19,27 c 0.003,0.009 0.333,1.267 0.333,2.5 0,1.233 -0.331,2.493 -0.333,2.5 l 2.034,0 z"
       id="path35"
       inkscape:connector-curvature="0"
       style="fill:#fdd835" /><path
       d="m 21.034,24 c 0.11,-0.45 0.299,-1.379 0.299,-2.5 0,-1.121 -0.189,-2.05 -0.299,-2.5 L 19,19 c 0.003,0.009 0.333,1.267 0.333,2.5 0,1.233 -0.331,2.493 -0.333,2.5 l 2.034,0 z"
       id="path37"
       inkscape:connector-curvature="0"
       style="fill:#fdd835" /><path
       d="m 21.034,40 c 0.11,-0.45 0.299,-1.379 0.299,-2.5 0,-1.121 -0.189,-2.05 -0.299,-2.5 L 19,35 c 0.003,0.009 0.333,1.267 0.333,2.5 0,1.233 -0.331,2.493 -0.333,2.5 l 2.034,0 z"
       id="path39"
       inkscape:connector-curvature="0"
       style="fill:#fdd835" /></g><path
     d="M 29.845875,5.7796607 C 29.734511,5.2356779 29.555952,5.0246535 29.555952,5.0246535 L 25.344519,1.8502232 c 0,0 -0.294831,-0.223105 -0.696117,-0.223105 -0.463953,0 -8.305085,0 -8.305085,0 l 0.0068,0.0068 c -0.118914,-0.00223 -0.237073,0.044921 -0.312196,0.1487367 -0.122689,0.1683669 -0.08532,0.4046842 0.08305,0.5269957 l 3.675755,2.819954 c 0.06078,0.1226885 0.157796,0.3473029 0.229145,0.6500612 l 9.820007,0 z"
     id="path41"
     inkscape:connector-curvature="0"
     style="fill:#7b1fa2" /><path
     d="m 25.780913,4.6471492 -4.152542,-3.020031 -1.88752,0 4.152543,3.020031 c 0.660632,0.4718798 0.755008,0.6134439 0.755008,1.1325115 0,0.5190676 0,7.1725733 0,7.1725733 0,0 0,1.132512 -0.755008,1.132512 0.398644,0 1.388459,0 1.887519,0 0.755008,0 0.755008,-1.132512 0.755008,-1.132512 0,0 0,-6.795069 0,-7.1725733 0,-0.7550072 -0.589661,-0.9671648 -0.755008,-1.1325115 z"
     id="path43"
     inkscape:connector-curvature="0"
     style="fill:#af7000" /><g
     id="g45"
     transform="matrix(0.37750386,0,0,0.37750386,13.700789,-1.3929128)"><path
       d="m 34,27 0,4 -5,0 0,-4 5,0 m 0.25,-1 -5.5,0 C 28.336,26 28,26.336 28,26.75 l 0,4.5 c 0,0.414 0.336,0.75 0.75,0.75 l 5.5,0 C 34.664,32 35,31.664 35,31.25 l 0,-4.5 C 35,26.336 34.664,26 34.25,26 l 0,0 z"
       id="path47"
       inkscape:connector-curvature="0"
       style="fill:#ffc107" /></g><circle
     cx="25.592161"
     cy="9.5546999"
     r="0.18875192"
     id="circle49"
     style="fill:#5b3b07" /><path
     d="m 25.592162,9.5546995 c -0.104192,0 -0.188753,-0.084561 -0.188753,-0.188752 l 0,-1.1325116 c 0,-0.104191 0.08456,-0.1887519 0.188753,-0.1887519 0.10419,0 0.188751,0.084561 0.188751,0.1887519 l 0,1.1325116 c 0,0.1041911 -0.08456,0.188752 -0.188751,0.188752 z"
     id="path51"
     inkscape:connector-curvature="0"
     style="fill:#ffeb3b" /><path
     style="fill:#000000;fill-opacity:1;stroke:none;stroke-opacity:1"
     d="M 2.6601562 3.6308594 L 2.6601562 13.626953 L 5.859375 13.626953 L 5.859375 12.601562 L 3.6679688 12.601562 L 3.6679688 4.65625 L 5.859375 4.65625 L 5.859375 3.6308594 L 2.6601562 3.6308594 z M 9.1328125 3.6308594 L 9.1328125 4.65625 L 11.326172 4.65625 L 11.326172 12.601562 L 9.1328125 12.601562 L 9.1328125 13.626953 L 12.332031 13.626953 L 12.332031 3.6308594 L 9.1328125 3.6308594 z "
     id="rect4196" /><g
     id="g4205"
     transform="matrix(0.34285714,0,0,0.34285714,-2.0571428,1.9428573)"><rect
       id="rect4207"
       height="13.921626"
       width="3.2472143"
       y="12.540163"
       x="26.24"
       style="fill:#000000;fill-opacity:1" /><rect
       id="rect4209"
       height="3.1423466"
       width="13.921626"
       y="17.929802"
       x="20.902794"
       style="fill:#000000;fill-opacity:1" /></g></svg>