<?xml version="1.0" encoding="UTF-8" standalone="no"?>
<!-- Generator: Adobe Illustrator 15.0.0, SVG Export Plug-In . SVG Version: 6.00 Build 0)  -->

<svg
   xmlns:dc="http://purl.org/dc/elements/1.1/"
   xmlns:cc="http://creativecommons.org/ns#"
   xmlns:rdf="http://www.w3.org/1999/02/22-rdf-syntax-ns#"
   xmlns:svg="http://www.w3.org/2000/svg"
   xmlns="http://www.w3.org/2000/svg"
   xmlns:sodipodi="http://sodipodi.sourceforge.net/DTD/sodipodi-0.dtd"
   xmlns:inkscape="http://www.inkscape.org/namespaces/inkscape"
   contentScriptType="application/ecmascript"
   contentStyleType="text/css"
   enable-background="new 0 0 48 48"
   height="16"
   id="????????_1"
   preserveAspectRatio="xMidYMid meet"
   style="fill:#0066ff"
   version="1.1"
   viewBox="0 0 32 16"
   width="32"
   x="0px"
   xml:space="preserve"
   y="0px"
   zoomAndPan="magnify"
   inkscape:version="0.91 r13725"
   sodipodi:docname="tree_package_closed.svg"><metadata
     id="metadata57"><rdf:RDF><cc:Work
         rdf:about=""><dc:format>image/svg+xml</dc:format><dc:type
           rdf:resource="http://purl.org/dc/dcmitype/StillImage" /><dc:title></dc:title></cc:Work></rdf:RDF></metadata><defs
     id="defs55" /><sodipodi:namedview
     pagecolor="#ffffff"
     bordercolor="#666666"
     borderopacity="1"
     objecttolerance="10"
     gridtolerance="10"
     guidetolerance="10"
     inkscape:pageopacity="0"
     inkscape:pageshadow="2"
     inkscape:window-width="1920"
     inkscape:window-height="1017"
     id="namedview53"
     showgrid="false"
     inkscape:zoom="27.812867"
     inkscape:cx="18.188384"
     inkscape:cy="5.0389905"
     inkscape:window-x="-8"
     inkscape:window-y="-8"
     inkscape:window-maximized="1"
     inkscape:current-layer="????????_1" /><path
     style="fill:#000000;fill-opacity:1;stroke:none;stroke-opacity:1"
     d="M 2.6601562 3.6308594 L 2.6601562 13.626953 L 5.859375 13.626953 L 5.859375 12.601562 L 3.6679688 12.601562 L 3.6679688 4.65625 L 5.859375 4.65625 L 5.859375 3.6308594 L 2.6601562 3.6308594 z M 9.1328125 3.6308594 L 9.1328125 4.65625 L 11.326172 4.65625 L 11.326172 12.601562 L 9.1328125 12.601562 L 9.1328125 13.626953 L 12.332031 13.626953 L 12.332031 3.6308594 L 9.1328125 3.6308594 z "
     id="rect4196" /><g
     id="g4205"
     transform="matrix(0.34285714,0,0,0.34285714,-2.0571428,1.9428573)"><rect
       id="rect4207"
       height="13.921626"
       width="3.2472143"
       y="12.540163"
       x="26.24"
       style="fill:#000000;fill-opacity:1" /><rect
       id="rect4209"
       height="3.1423466"
       width="13.921626"
       y="17.929802"
       x="20.902794"
       style="fill:#000000;fill-opacity:1" /><g
       style="fill:#0066ff"
       id="g4239"
       transform="matrix(1.0057473,0,0,1.0057473,49.291889,-7.0477311)"><path
         id="path4229"
         d="M 38,42 10,42 C 7.8,42 6,40.2 6,38 L 6,10 C 6,7.8 7.8,6 10,6 l 28,0 c 2.2,0 4,1.8 4,4 l 0,28 c 0,2.2 -1.8,4 -4,4 z"
         inkscape:connector-curvature="0"
         style="fill:#ff9800" /><path
         id="path4231"
         d="m 29.5,16 -11,0 C 17.7,16 17,15.3 17,14.5 l 0,0 C 17,13.7 17.7,13 18.5,13 l 11,0 c 0.8,0 1.5,0.7 1.5,1.5 l 0,0 c 0,0.8 -0.7,1.5 -1.5,1.5 z"
         inkscape:connector-curvature="0"
         style="fill:#8a5100" /></g></g></svg>