<?xml version="1.0" encoding="utf-8" standalone="no"?><!-- Generator: Adobe Illustrator 15.0.0, SVG Export Plug-In . SVG Version: 6.00 Build 0)  --><svg xmlns="http://www.w3.org/2000/svg" xmlns:xlink="http://www.w3.org/1999/xlink" contentScriptType="application/ecmascript" contentStyleType="text/css" enable-background="new 0 0 48 48" height="48px" id="????????_1" preserveAspectRatio="xMidYMid meet" style="fill:#0066ff" version="1.1" viewBox="0 0 48 48" width="48px" x="0px" xml:space="preserve" y="0px" zoomAndPan="magnify">
<rect fill="#B71C1C" height="4" width="36" x="6" y="39"/>
<g>
	<path d="M33.954,20.549c0.079-0.514,0,0,0-0.535s0,0-0.079-0.514l4.801-3.352c0.326-0.233,0.421-0.652,0.216-0.99   l-3.146-5.316c-0.193-0.338-0.618-0.465-0.979-0.314l-4.849,2.118c-0.844-0.643-0.424-0.128-1.438-0.521l-0.563-5.448   C27.874,5.293,27.544,5,27.146,5h-6.293c-0.397,0-0.729,0.293-0.772,0.677L19.5,11.271c-1.014,0.393-0.199-0.08-1.042,0.563   l-5.226-2.307c-0.359-0.15-0.784-0.023-0.979,0.314l-3.146,5.316c-0.204,0.338-0.11,0.757,0.217,0.99l4.384,3.02   c-0.078,0.513,0.006,1.048,0.084,1.562l-4.468,3.122c-0.327,0.234-0.421,0.652-0.217,0.99l3.146,5.316   c0.195,0.338,0.62,0.466,0.979,0.314l5.101-2.223c0.843,0.643,0.153,0.17,1.167,0.563l0.581,5.512   C20.124,34.709,20.456,35,20.854,35h6.293c0.397,0,0.728-0.291,0.771-0.676l0.541-5.345c1.014-0.393,0.386-0.107,1.229-0.75   l5.078,2.243c0.361,0.151,0.786,0.023,0.979-0.314l3.146-5.316c0.205-0.338,0.11-0.756-0.216-0.99L33.954,20.549z" fill="#F44336"/>
	<circle cx="24" cy="20" fill="#F44336" r="11"/>
</g>
<g>
	<polygon fill="#FFEBEE" points="19,19 29,19 24,13  "/>
	<rect fill="#FFEBEE" height="9" width="4" x="22" y="17"/>
</g>
</svg>