<?xml version="1.0" encoding="utf-8" standalone="no"?><!-- Generator: Adobe Illustrator 15.0.0, SVG Export Plug-In . SVG Version: 6.00 Build 0)  --><svg xmlns="http://www.w3.org/2000/svg" xmlns:xlink="http://www.w3.org/1999/xlink" contentScriptType="application/ecmascript" contentStyleType="text/css" enable-background="new 0 0 48 48" height="48px" id="????????_1" preserveAspectRatio="xMidYMid meet" style="fill:#3366ff" version="1.1" viewBox="0 0 48 48" width="48px" x="0px" xml:space="preserve" y="0px" zoomAndPan="magnify">
<g>
	<path d="M10.375,18c0.469-1.07,1.056-2.076,1.747-3h4.264c-0.302,0.936-0.541,1.951-0.746,3h2.049   c0.224-1.06,0.484-2.08,0.81-3H23v3h2v-3h4.5c0.326,0.92,0.586,1.94,0.811,3h2.049c-0.205-1.049-0.443-2.064-0.746-3h4.265   c0.69,0.924,1.278,1.93,1.747,3h2.151C37.36,11.582,31.209,7,24,7c-7.209,0-13.36,4.582-15.776,11H10.375z M34.084,13h-3.221   c-0.521-1.18-1.123-2.219-1.797-3.086C30.945,10.603,32.645,11.658,34.084,13z M25,9.182c1.385,0.455,2.648,1.827,3.652,3.818H25   V9.182z M23,9.182V13h-3.653C20.352,11.009,21.615,9.637,23,9.182z M18.933,9.914C18.26,10.781,17.657,11.82,17.137,13h-3.221   C15.355,11.658,17.055,10.603,18.933,9.914z" fill="#2196F3"/>
	<path d="M37.625,30c-0.469,1.07-1.057,2.076-1.747,3h-4.265c0.303-0.936,0.541-1.951,0.746-3h-2.049   c-0.225,1.06-0.484,2.08-0.811,3H25v-3h-2v3h-4.5c-0.326-0.92-0.586-1.94-0.81-3h-2.049c0.205,1.049,0.443,2.064,0.746,3h-4.264   c-0.691-0.924-1.278-1.93-1.747-3H8.224C10.64,36.418,16.791,41,24,41c7.209,0,13.36-4.582,15.776-11H37.625z M13.916,35h3.221   c0.521,1.179,1.124,2.219,1.796,3.086C17.055,37.397,15.355,36.342,13.916,35z M23,38.818c-1.385-0.455-2.648-1.827-3.653-3.818H23   V38.818z M25,38.818V35h3.652C27.648,36.991,26.385,38.363,25,38.818z M29.066,38.086c0.674-0.867,1.276-1.907,1.797-3.086h3.221   C32.645,36.342,30.945,37.397,29.066,38.086z" fill="#2196F3"/>
</g>
<g>
	<path d="M13.999,24.717L14.756,20H17l-1.771,8h-1.98l-1.244-4.749L10.753,28h-1.98L7,20h2.246l0.743,4.828   L11.184,20h1.632L13.999,24.717z" fill="#3F51B5"/>
	<path d="M25.998,24.717L26.756,20H29l-1.773,8h-1.98l-1.243-4.749L22.753,28h-1.981L19,20h2.245l0.744,4.828   L23.184,20h1.632L25.998,24.717z" fill="#3F51B5"/>
	<path d="M37.998,24.717L38.756,20H41l-1.771,8h-1.98l-1.244-4.748L34.752,28h-1.98L31,20h2.244l0.744,4.827   L35.184,20h1.633L37.998,24.717z" fill="#3F51B5"/>
</g>
</svg>