<?xml version="1.0" encoding="utf-8" standalone="no"?><!-- Generator: Adobe Illustrator 18.1.1, SVG Export Plug-In . SVG Version: 6.00 Build 0)  --><svg xmlns="http://www.w3.org/2000/svg" xmlns:xlink="http://www.w3.org/1999/xlink" enable-background="new 0 0 48 48" id="Layer_1" style="fill:#3366ff" version="1.0" viewBox="0 0 48 48" x="0px" xml:space="preserve" y="0px">
<g>
	<path d="M45,9H3v30h42V9z M22,37v-4h4v4H22z M30,37v-4h4v4H30z M38,37v-4h4v4H38z M14,37v-4h4v4H14z M6,37v-4h4v4H6   z M22,15v-4h4v4H22z M30,15v-4h4v4H30z M38,15v-4h4v4H38z M14,15v-4h4v4H14z M6,15v-4h4v4H6z" fill="#3F51B5"/>
</g>
</svg>