<?xml version="1.0" encoding="UTF-8" standalone="no"?><svg xmlns="http://www.w3.org/2000/svg" height="26" style="fill:#3366ff" viewBox="0 0 26 26" width="26">
    <path d="M23.633,5.028c-0.2-0.227-0.481-0.358-0.777-0.366c-2.295-0.06-5.199-2.514-7.119-3.477 c-1.186-0.593-1.969-0.984-2.557-1.087C13.119,0.09,13.06,0.084,13,0.084s-0.119,0.006-0.18,0.015 c-0.588,0.103-1.371,0.494-2.556,1.087C8.344,2.148,5.44,4.603,3.145,4.662C2.849,4.67,2.567,4.802,2.367,5.028 C2.165,5.254,2.061,5.555,2.076,5.862c0.493,10.023,4.088,16.226,10.396,19.831c0.164,0.093,0.346,0.141,0.527,0.141 s0.363-0.048,0.528-0.141c6.308-3.605,9.902-9.808,10.396-19.831C23.939,5.555,23.835,5.254,23.633,5.028z M11.825,6.336 c0.023-0.024,0.056-0.038,0.089-0.038h2.066c0.033,0,0.065,0.014,0.089,0.037c0.023,0.024,0.036,0.057,0.036,0.09l-0.168,8.895 c-0.001,0.068-0.057,0.123-0.125,0.123h-1.67c-0.067,0-0.123-0.054-0.125-0.122l-0.229-8.895 C11.789,6.393,11.802,6.359,11.825,6.336z M13.972,18.957c-0.272,0.246-0.598,0.37-0.968,0.37c-0.381,0-0.711-0.125-0.98-0.37 c-0.271-0.25-0.41-0.558-0.41-0.915c0-0.368,0.138-0.686,0.408-0.943c0.27-0.256,0.6-0.386,0.982-0.386 c0.371,0,0.697,0.13,0.969,0.386c0.275,0.258,0.414,0.575,0.414,0.943C14.387,18.399,14.246,18.708,13.972,18.957z"/>
</svg>