<?xml version="1.0" encoding="UTF-8" standalone="no"?><svg xmlns="http://www.w3.org/2000/svg" height="50" style="fill:#ff0000" viewBox="0 0 50 50" width="50">
    <path d="M46.215,7.847C38.813,6.221,34.44,3.922,31.249,2.244C28.771,0.941,26.981,0,25,0s-3.771,0.941-6.249,2.244 c-3.192,1.678-7.563,3.977-14.965,5.603L3,8.019v0.804c0,30.464,21.365,40.679,21.581,40.778l0.44,0.203l0.432-0.22 C25.669,49.475,47,38.272,47,8.823V8.019L46.215,7.847z M26.797,36.936c0,0.215-0.145,0.358-0.357,0.358h-2.727 c-0.217,0-0.359-0.144-0.359-0.358v-3.084c0-0.216,0.143-0.359,0.359-0.359h2.727c0.215,0,0.357,0.144,0.357,0.359V36.936z M26.797,29.641c0,0.215-0.145,0.359-0.357,0.359h-2.727c-0.217,0-0.359-0.145-0.359-0.359V12.557c0-0.215,0.143-0.359,0.359-0.359 h2.727c0.215,0,0.357,0.144,0.357,0.359V29.641z"/>
</svg>