<?xml version="1.0" encoding="utf-8" standalone="no"?><!-- Generator: Adobe Illustrator 15.0.0, SVG Export Plug-In . SVG Version: 6.00 Build 0)  --><svg xmlns="http://www.w3.org/2000/svg" xmlns:xlink="http://www.w3.org/1999/xlink" contentScriptType="application/ecmascript" contentStyleType="text/css" enable-background="new 0 0 48 48" height="48px" id="????????_1" preserveAspectRatio="xMidYMid meet" style="fill:#000000" version="1.1" viewBox="0 0 48 48" width="48px" x="0px" xml:space="preserve" y="0px" zoomAndPan="magnify">
<ellipse cx="24" cy="37.5" fill="#303F9F" rx="21" ry="6.5"/>
<path d="M38,37c-2.751-12.289-8.4-24.637-8.4-24.637S27.834,9,30.654,9c2,0,2.346,5,2.346,5l1.896,0.438  C36.792,11.229,35.688,8,35.688,8S34.75,4,29,4C16.712,4,11.41,29.836,10,37H38z" fill="#5C6BC0"/>
<path d="M29.6,12.363c0,0-1.766-3.363,1.055-3.363c2,0,2.346,5,2.346,5c0,0.553,0.447,1,1,1  c0.395,0,0.728-0.232,0.891-0.564l0.006,0.002c0.752-1.272,1.028-2.545,1.092-3.621C35.869,8.393,33.424,6,31,6c-2.485,0-3,1.5-3,3  c0,1.963,1.735,4.478,2.529,5.494C29.89,13.107,29.6,12.363,29.6,12.363z" fill="#1A237E"/>
<path d="M37.036,33.104c-2.263,0.799-6.542,1.895-13.036,1.896c-0.002,0-0.004,0-0.005,0  c-6.635,0-10.95-1.142-13.173-1.946C10.469,34.646,10.195,36.007,10,37c0.009,0.004,0.021,0.01,0.029,0.014  c2.729,0.918,7.316,1.985,13.966,1.985c0.001,0,0.004,0,0.005,0c6.652-0.001,11.242-1.067,13.972-1.986  C37.98,37.009,37.991,37.004,38,37C37.708,35.697,37.383,34.394,37.036,33.104z" fill="#4E342E"/>
<g>
	<path d="M25,35c0.553,0,1,0.447,1,1v2c0,0.553-0.447,1-1,1h-3c-0.553,0-1-0.447-1-1v-2c0-0.553,0.447-1,1-1H25    M25,33h-3c-1.654,0-3,1.346-3,3v2c0,1.654,1.346,3,3,3h3c1.654,0,3-1.346,3-3v-2C28,34.346,26.654,33,25,33L25,33z" fill="#FFC107"/>
</g>
</svg>