<?xml version="1.0" encoding="UTF-8" standalone="no"?><svg xmlns="http://www.w3.org/2000/svg" height="50" style="fill:#000000;fill-opacity:1.0" viewBox="0 0 50 50" width="50">
    <path d="M 36.875 -0.03125 C 32.849713 0.083648438 27.899875 0.7225 25.09375 3.53125 L 24.40625 4.1875 C 19.85125 8.7725 19.88775 15.98675 24.46875 20.59375 L 29.46875 25.59375 C 31.68975 27.82275 34.6085 29.0625 37.6875 29.0625 C 40.7305 29.0625 43.6155 27.825 45.8125 25.625 L 46.46875 24.96875 C 49.95575 21.48375 49.987 14.28975 50 11.21875 C 50.004 10.67775 49.88175 10.25975 49.59375 9.96875 C 49.35875 9.73275 49.0245 9.625 48.6875 9.625 C 48.1535 9.625 47.73825 9.939 47.53125 10.125 L 41.03125 16.65625 C 40.89525 16.67925 40.57675 16.71875 39.96875 16.71875 C 37.78175 16.71875 34.72575 16.29275 33.96875 15.96875 C 33.46575 14.86875 33.07325 10.04125 33.40625 9.03125 C 34.42125 8.01725 39.962 2.44625 40 2.40625 C 40.177 2.20825 40.74825 1.516 40.40625 0.75 C 40.27525 0.456 39.91475 -0.02825 38.96875 -0.03125 L 38.53125 -0.03125 C 38.0025 -0.03125 37.450041 -0.047664063 36.875 -0.03125 z M 21.375 19.9375 L 2.3125 37.28125 C 0.2915 39.30425 -1.4975 43.939 2.3125 47.75 C 4.0655 49.503 5.902 49.96875 7.375 49.96875 C 7.753 49.96875 8.08425 49.924 8.40625 49.875 C 10.31225 49.588 11.90225 48.59975 12.78125 47.71875 L 30.09375 28.65625 L 28.5 27.4375 L 22.59375 21.53125 L 21.375 19.9375 z"/>
</svg>