<?xml version="1.0" encoding="UTF-8" standalone="no"?><svg xmlns="http://www.w3.org/2000/svg" style="fill:#000000" viewBox="0 0 24 24">
    <path d="M 2 3 L 2 5 L 14 5 L 14 3 L 2 3 z M 18 3 L 18 17 L 16 17 L 19 21 L 22 17 L 20 17 L 20 3 L 18 3 z M 2 7 L 2 9 L 12 9 L 12 7 L 2 7 z M 2 11 L 2 13 L 10 13 L 10 11 L 2 11 z M 2 15 L 2 17 L 8 17 L 8 15 L 2 15 z M 2 19 L 2 21 L 6 21 L 6 19 L 2 19 z" style="text-indent:0;text-align:start;line-height:normal;text-transform:none;block-progression:tb;-inkscape-font-specification:Sans"/>
</svg>