<svg xmlns="http://www.w3.org/2000/svg"  viewBox="0 0 40 40" width="32px" height="32px"><path fill="#a3b7cc" d="M1.979 38.729L1 39 1.271 38.021 18.646 20.646 19.354 21.354z"/><path fill="#e87070" d="M16.721,16.014c4.881-2.255,7.232-4.215,9.62-9.466l7.096,7.096 c-5.494,2.293-7.652,4.407-9.629,9.457L16.721,16.014z"/><path fill="#c74343" d="M26.492,7.406l6.069,6.069c-4.843,2.127-7.062,4.29-8.933,8.739l-6.05-6.05 C21.951,14.067,24.25,12.089,26.492,7.406 M26.179,5.679c-2.508,5.792-4.798,7.705-10.321,10.179L24,24 c2.038-5.523,4.06-7.671,10.321-10.179L26.179,5.679L26.179,5.679z"/><path fill="#f78f8f" d="M35.012,14.5c-0.58,0-1.125-0.226-1.535-0.636l-7.341-7.342c-0.846-0.846-0.846-2.223,0-3.069 l1.671-1.739l10.479,10.479l-1.732,1.665C36.137,14.274,35.592,14.5,35.012,14.5z"/><path fill="#c74343" d="M27.814,2.429l9.757,9.757l-1.379,1.325C35.877,13.826,35.458,14,35.012,14 c-0.446,0-0.866-0.174-1.181-0.489l-7.341-7.342C26.174,5.853,26,5.434,26,4.988c0-0.446,0.174-0.865,0.503-1.195L27.814,2.429 M27.8,1l-2.018,2.1c-1.043,1.043-1.043,2.733,0,3.776l7.341,7.342C33.645,14.739,34.329,15,35.012,15 c0.683,0,1.367-0.261,1.888-0.782L39,12.2L27.8,1L27.8,1z"/><g><path fill="#f78f8f" d="M8.707,17.239l1.237-1.237c0.968-0.968,2.255-1.501,3.624-1.501l0,0 c1.369,0,2.656,0.533,3.624,1.501L24,22.809c1.998,1.998,1.998,5.249,0,7.247l-1.238,1.238L8.707,17.239z"/><path fill="#c74343" d="M13.568,15c1.235,0,2.397,0.481,3.271,1.355l6.807,6.807c1.802,1.803,1.802,4.737,0,6.54 l-0.885,0.884L9.414,17.239l0.884-0.884C11.172,15.481,12.333,15,13.568,15 M13.568,14c-1.439,0-2.879,0.549-3.978,1.648L8,17.239 L22.761,32l1.592-1.591c2.196-2.197,2.196-5.757,0-7.954l-6.807-6.807C16.447,14.549,15.008,14,13.568,14L13.568,14z"/></g></svg>