<?xml version="1.0" encoding="UTF-8" standalone="no"?>
<!-- Generator: Adobe Illustrator 15.0.0, SVG Export Plug-In . SVG Version: 6.00 Build 0)  -->

<svg
   xmlns:dc="http://purl.org/dc/elements/1.1/"
   xmlns:cc="http://creativecommons.org/ns#"
   xmlns:rdf="http://www.w3.org/1999/02/22-rdf-syntax-ns#"
   xmlns:svg="http://www.w3.org/2000/svg"
   xmlns="http://www.w3.org/2000/svg"
   xmlns:sodipodi="http://sodipodi.sourceforge.net/DTD/sodipodi-0.dtd"
   xmlns:inkscape="http://www.inkscape.org/namespaces/inkscape"
   contentScriptType="application/ecmascript"
   contentStyleType="text/css"
   enable-background="new 0 0 48 48"
   height="48px"
   id="????????_1"
   preserveAspectRatio="xMidYMid meet"
   style="fill:#000000;fill-opacity:0.6862745"
   version="1.1"
   viewBox="0 0 48 48"
   width="48px"
   x="0px"
   xml:space="preserve"
   y="0px"
   zoomAndPan="magnify"
   inkscape:version="0.91 r13725"
   sodipodi:docname="dlc.svg"><metadata
     id="metadata19"><rdf:RDF><cc:Work
         rdf:about=""><dc:format>image/svg+xml</dc:format><dc:type
           rdf:resource="http://purl.org/dc/dcmitype/StillImage" /><dc:title></dc:title></cc:Work></rdf:RDF></metadata><defs
     id="defs17" /><sodipodi:namedview
     pagecolor="#ffffff"
     bordercolor="#666666"
     borderopacity="1"
     objecttolerance="10"
     gridtolerance="10"
     guidetolerance="10"
     inkscape:pageopacity="0"
     inkscape:pageshadow="2"
     inkscape:window-width="2560"
     inkscape:window-height="1537"
     id="namedview15"
     showgrid="false"
     inkscape:zoom="13.906433"
     inkscape:cx="8.2498582"
     inkscape:cy="19.048151"
     inkscape:window-x="1192"
     inkscape:window-y="-8"
     inkscape:window-maximized="1"
     inkscape:current-layer="g7" /><polygon
     points="40,45 8,45 8,3 30,3 40,13 "
     id="polygon3"
     fill="#4DB6AC"
     style="fill:#90caf9;fill-opacity:0.68627453" /><polygon
     fill="#E0F2F1"
     points="38.5,14 29,14 29,4.5 "
     id="polygon5" /><g
     id="g7"><g
       transform="scale(0.91539573,1.0924237)"
       style="font-style:normal;font-weight:normal;font-size:40.31510925px;line-height:125%;font-family:sans-serif;letter-spacing:0px;word-spacing:0px;fill:#425c72;fill-opacity:0.68627459;stroke:none;stroke-width:1px;stroke-linecap:butt;stroke-linejoin:miter;stroke-opacity:1"
       id="text4147"><path
         d="m 14.044158,21.083317 3.328014,0 q 1.125742,0 1.716296,0.172245 0.793556,0.23376 1.359503,0.830465 0.565947,0.596705 0.861223,1.46408 0.295277,0.861224 0.295277,2.128453 0,1.113439 -0.276822,1.919299 -0.338338,0.984255 -0.965801,1.593263 -0.473673,0.46137 -1.279532,0.719737 -0.602856,0.1907 -1.611718,0.1907 l -3.42644,0 0,-9.018242 z m 1.820873,1.525596 0,5.973201 1.359503,0 q 0.762798,0 1.101136,-0.08612 0.442915,-0.110729 0.73204,-0.375248 0.295276,-0.264518 0.479824,-0.867375 0.184548,-0.609008 0.184548,-1.65478 0,-1.045771 -0.184548,-1.605567 -0.184548,-0.559795 -0.516734,-0.873526 -0.332186,-0.313732 -0.842769,-0.424461 -0.381399,-0.08612 -1.494838,-0.08612 l -0.818162,0 z"
         style="font-style:normal;font-variant:normal;font-weight:bold;font-stretch:normal;font-size:12.59847164px;line-height:125%;font-family:Arial;-inkscape-font-specification:'Arial, Bold';text-align:start;writing-mode:lr-tb;text-anchor:start;fill:#425c72;fill-opacity:0.68627459"
         id="path5262" /><path
         d="m 23.203887,30.101559 0,-8.944423 1.820872,0 0,7.424978 4.527576,0 0,1.519445 -6.348448,0 z"
         style="font-style:normal;font-variant:normal;font-weight:bold;font-stretch:normal;font-size:12.59847164px;line-height:125%;font-family:Arial;-inkscape-font-specification:'Arial, Bold';text-align:start;writing-mode:lr-tb;text-anchor:start;fill:#425c72;fill-opacity:0.68627459"
         id="path5264" /><path
         d="m 36.626672,26.785848 1.765508,0.559795 q -0.406005,1.476383 -1.353351,2.19612 -0.941195,0.713586 -2.392972,0.713586 -1.796266,0 -2.952767,-1.224168 -1.1565,-1.23032 -1.1565,-3.358773 0,-2.251484 1.162652,-3.494107 1.162652,-1.248774 3.057344,-1.248774 1.65478,0 2.688248,0.978104 0.61516,0.57825 0.92274,1.660931 l -1.802418,0.430612 q -0.159942,-0.701282 -0.670524,-1.107288 -0.504431,-0.406005 -1.23032,-0.406005 -1.00271,0 -1.630173,0.719737 -0.621312,0.719737 -0.621312,2.331455 0,1.710144 0.61516,2.436033 0.61516,0.725888 1.599415,0.725888 0.725889,0 1.248775,-0.461369 0.522885,-0.46137 0.750495,-1.451777 z"
         style="font-style:normal;font-variant:normal;font-weight:bold;font-stretch:normal;font-size:12.59847164px;line-height:125%;font-family:Arial;-inkscape-font-specification:'Arial, Bold';text-align:start;writing-mode:lr-tb;text-anchor:start;fill:#425c72;fill-opacity:0.68627459"
         id="path5266" /></g></g></svg>