<?xml version="1.0" encoding="utf-8" standalone="no"?><!-- Generator: Adobe Illustrator 18.1.1, SVG Export Plug-In . SVG Version: 6.00 Build 0)  --><svg xmlns="http://www.w3.org/2000/svg" xmlns:xlink="http://www.w3.org/1999/xlink" enable-background="new 0 0 48 48" id="Layer_1" style="fill:#000000" version="1.0" viewBox="0 0 48 48" x="0px" xml:space="preserve" y="0px">
<path d="M12,40V8c0-2.2,1.8-4,4-4h16c2.2,0,4,1.8,4,4v32c0,2.2-1.8,4-4,4H16C13.8,44,12,42.2,12,40z" fill="#E38939"/>
<path d="M32,7H16c-0.6,0-1,0.4-1,1v29c0,0.6,0.4,1,1,1h16c0.6,0,1-0.4,1-1V8C33,7.4,32.6,7,32,7z" fill="#FFF3E0"/>
<circle cx="24" cy="41" fill="#A6642A" r="1.5"/>
</svg>