<?xml version="1.0" encoding="UTF-8" standalone="no"?>
<!-- Generator: Adobe Illustrator 15.0.0, SVG Export Plug-In . SVG Version: 6.00 Build 0)  -->

<svg
   xmlns:dc="http://purl.org/dc/elements/1.1/"
   xmlns:cc="http://creativecommons.org/ns#"
   xmlns:rdf="http://www.w3.org/1999/02/22-rdf-syntax-ns#"
   xmlns:svg="http://www.w3.org/2000/svg"
   xmlns="http://www.w3.org/2000/svg"
   xmlns:sodipodi="http://sodipodi.sourceforge.net/DTD/sodipodi-0.dtd"
   xmlns:inkscape="http://www.inkscape.org/namespaces/inkscape"
   contentScriptType="application/ecmascript"
   contentStyleType="text/css"
   enable-background="new 0 0 48 48"
   height="48px"
   id="????????_1"
   preserveAspectRatio="xMidYMid meet"
   style="fill:#000000;fill-opacity:0.6862745"
   version="1.1"
   viewBox="0 0 48 48"
   width="48px"
   x="0px"
   xml:space="preserve"
   y="0px"
   zoomAndPan="magnify"
   inkscape:version="0.91 r13725"
   sodipodi:docname="nzb.svg"><metadata
     id="metadata19"><rdf:RDF><cc:Work
         rdf:about=""><dc:format>image/svg+xml</dc:format><dc:type
           rdf:resource="http://purl.org/dc/dcmitype/StillImage" /><dc:title></dc:title></cc:Work></rdf:RDF></metadata><defs
     id="defs17" /><sodipodi:namedview
     pagecolor="#ffffff"
     bordercolor="#666666"
     borderopacity="1"
     objecttolerance="10"
     gridtolerance="10"
     guidetolerance="10"
     inkscape:pageopacity="0"
     inkscape:pageshadow="2"
     inkscape:window-width="2560"
     inkscape:window-height="1537"
     id="namedview15"
     showgrid="false"
     inkscape:zoom="13.906433"
     inkscape:cx="10.771093"
     inkscape:cy="28.349832"
     inkscape:window-x="1192"
     inkscape:window-y="-8"
     inkscape:window-maximized="1"
     inkscape:current-layer="text5292" /><polygon
     points="40,45 8,45 8,3 30,3 40,13 "
     id="polygon3"
     fill="#4DB6AC"
     style="fill:#90caf9;fill-opacity:0.68627453" /><polygon
     fill="#E0F2F1"
     points="38.5,14 29,14 29,4.5 "
     id="polygon5" /><g
     transform="scale(0.86728442,1.1530243)"
     style="font-style:normal;font-variant:normal;font-weight:bold;font-stretch:normal;font-size:11.78834057px;line-height:125%;font-family:sans-serif;-inkscape-font-specification:'sans-serif, Bold';text-align:start;letter-spacing:0px;word-spacing:0px;writing-mode:lr-tb;text-anchor:start;fill:#425c72;fill-opacity:0.68627457;stroke:none;stroke-width:1px;stroke-linecap:butt;stroke-linejoin:miter;stroke-opacity:1"
     id="text5292"><path
       d="m 22.728156,28.826811 -2.129729,0 -3.637808,-5.882658 0,5.882658 -2.026121,0 0,-8.570722 2.642015,0 3.125522,4.90989 0,-4.90989 2.026121,0 0,8.570722 z"
       style=""
       id="path5351" /><path
       d="m 31.552143,28.826811 -7.200788,0 0,-1.605931 4.270971,-5.307056 -4.063754,0 0,-1.657735 6.76333,0 0,1.634711 -4.265215,5.278275 4.495456,0 0,1.657736 z"
       style=""
       id="path5353" /><path
       d="m 40.410668,26.202063 q 0,0.621651 -0.253265,1.110913 -0.247509,0.489262 -0.684967,0.8116 -0.50653,0.379897 -1.116669,0.541066 -0.604383,0.161169 -1.536859,0.161169 l -3.741416,0 0,-8.570722 3.326982,0 q 1.036085,0 1.513835,0.06907 0.483506,0.06907 0.9555,0.305069 0.489263,0.247509 0.72526,0.667699 0.241753,0.414434 0.241753,0.949744 0,0.621651 -0.328094,1.099401 -0.328093,0.471995 -0.92672,0.736772 l 0,0.04605 q 0.84038,0.166925 1.329642,0.690723 0.495018,0.523798 0.495018,1.381446 z m -2.831964,-3.522688 q 0,-0.212973 -0.109365,-0.425945 -0.103608,-0.212973 -0.374142,-0.316582 -0.241753,-0.0921 -0.604382,-0.09785 -0.356874,-0.01151 -1.007305,-0.01151 l -0.207217,0 0,1.813148 0.345362,0 q 0.523798,0 0.892184,-0.01727 0.368386,-0.01727 0.581358,-0.115121 0.299314,-0.132388 0.39141,-0.339605 0.0921,-0.212973 0.0921,-0.489263 z m 0.541066,3.488152 q 0,-0.408678 -0.161169,-0.627407 -0.155412,-0.224485 -0.53531,-0.333849 -0.259021,-0.07483 -0.713747,-0.08058 -0.454726,-0.0058 -0.949744,-0.0058 l -0.483507,0 0,2.135486 0.161169,0 q 0.932476,0 1.335398,-0.0058 0.402922,-0.0058 0.742527,-0.149657 0.345362,-0.143901 0.471994,-0.379898 0.132389,-0.241753 0.132389,-0.552578 z"
       style=""
       id="path5355" /></g></svg>