0
SECTION
2
HEADER
9
$LTSCALE
40
1.0
9
$LIMMIN
10
3705
20
0
9
$LIMMAX
10
36936
20
34970
9
$EXTMIN
10
3705
20
0
9
$EXTMAX
10
36936
20
34970
9
$SNAPMODE
70
0
9
$SNAPUNIT
10
1.0
20
1.0
9
$GRIDMODE
70
0
9
$GRIDUNIT
10
1.0
20
1.0
9
$ORTHOMODE
70
0
9
$TEXTSTYLE
7
txt
9
$CLAYER
8
1
9
$CECOLOR
62
7
9
$CELTYPE
6
CONTINUOUS
9
$PLINEWID
40
0.0
9
$OSMODE
70
0
9
$FILLMODE
70
1
9
$CHAMFERA
40
0.5
9
$CHAMFERB
40
0.5
9
$SCOORDS
70
1
9
$FILLETRAD
40
0.5
9
$INSBASE
10
0.0
20
0.0
9
$SPLFRAME
70
0
9
$SPLINESEGS
70
8
0
ENDSEC
0
SECTION
2
TABLES
0
TABLE
2
LTYPE
70
9
0
LTYPE
2
CONTINUOUS
70
64
3
Solid line
72
65
73
0
40
0.0
0
ENDTAB
0
TABLE
2
STYLE
70
1
0
STYLE
2
ROMANS
70
0
40
0.000
41
1.000
50
0.000
71
0
42
0.000
3
ROMANS
4

0
ENDTAB
0
TABLE
2
LAYER
70
10
0
LAYER
2
1
70
0
62
7
6
CONTINUOUS
0
LAYER
2
2
70
0
62
7
6
CONTINUOUS
0
LAYER
2
3
70
0
62
7
6
CONTINUOUS
0
LAYER
2
4
70
0
62
7
6
CONTINUOUS
0
LAYER
2
5
70
0
62
7
6
CONTINUOUS
0
LAYER
2
6
70
0
62
7
6
CONTINUOUS
0
LAYER
2
7
70
0
62
7
6
CONTINUOUS
0
LAYER
2
8
70
0
62
7
6
CONTINUOUS
0
LAYER
2
9
70
0
62
7
6
CONTINUOUS
0
LAYER
2
10
70
0
62
7
6
CONTINUOUS
0
ENDTAB
0
ENDSEC
0
SECTION
2
ENTITIES
0
POLYLINE
8
0
62
156
66
1
40
1
41
1
0
VERTEX
8
0
10
34889
20
26922
0
VERTEX
8
0
10
34104
20
28128
0
VERTEX
8
0
10
34048
20
28212
0
VERTEX
8
0
10
32870
20
29670
0
VERTEX
8
0
10
32449
20
30119
0
VERTEX
8
0
10
32253
20
30315
0
VERTEX
8
0
10
21008
20
34970
0
VERTEX
8
0
10
18820
20
34830
0
VERTEX
8
0
10
18091
20
34718
0
VERTEX
8
0
10
17194
20
34522
0
VERTEX
8
0
10
17026
20
34494
0
VERTEX
8
0
10
16773
20
33512
0
VERTEX
8
0
10
17026
20
32278
0
VERTEX
8
0
10
17278
20
30960
0
VERTEX
8
0
10
17530
20
29249
0
VERTEX
8
0
10
17642
20
28156
0
VERTEX
8
0
10
16661
20
27034
0
VERTEX
8
0
10
18231
20
23893
0
VERTEX
8
0
10
19634
20
24566
0
VERTEX
8
0
10
21176
20
24538
0
VERTEX
8
0
10
17558
20
21033
0
VERTEX
8
0
10
17418
20
20949
0
VERTEX
8
0
10
17362
20
20949
0
VERTEX
8
0
10
17110
20
21257
0
VERTEX
8
0
10
17194
20
21481
0
VERTEX
8
0
10
17474
20
22659
0
VERTEX
8
0
10
18231
20
23893
0
VERTEX
8
0
10
16661
20
27034
0
VERTEX
8
0
10
14810
20
25548
0
VERTEX
8
0
10
12987
20
24538
0
VERTEX
8
0
10
12791
20
24510
0
VERTEX
8
0
10
11809
20
24510
0
VERTEX
8
0
10
11164
20
24510
0
VERTEX
8
0
10
11136
20
24510
0
VERTEX
8
0
10
9454
20
24454
0
VERTEX
8
0
10
9201
20
24482
0
VERTEX
8
0
10
8416
20
24678
0
VERTEX
8
0
10
7519
20
25716
0
VERTEX
8
0
10
7098
20
26866
0
VERTEX
8
0
10
6874
20
26445
0
VERTEX
8
0
10
5668
20
23416
0
VERTEX
8
0
10
5079
20
19042
0
VERTEX
8
0
10
9734
20
7796
0
VERTEX
8
0
10
21008
20
3113
0
VERTEX
8
0
10
19269
20
5833
0
VERTEX
8
0
10
18736
20
5553
0
VERTEX
8
0
10
18596
20
5609
0
VERTEX
8
0
10
18568
20
5609
0
VERTEX
8
0
10
17110
20
6394
0
VERTEX
8
0
10
15960
20
7544
0
VERTEX
8
0
10
15427
20
8946
0
VERTEX
8
0
10
15848
20
9339
0
VERTEX
8
0
10
15876
20
10853
0
VERTEX
8
0
10
17923
20
11806
0
VERTEX
8
0
10
18316
20
12031
0
VERTEX
8
0
10
21905
20
11891
0
VERTEX
8
0
10
21905
20
10853
0
VERTEX
8
0
10
15876
20
10853
0
VERTEX
8
0
10
15848
20
9339
0
VERTEX
8
0
10
18961
20
6226
0
VERTEX
8
0
10
19269
20
5833
0
VERTEX
8
0
10
21008
20
3113
0
VERTEX
8
0
10
32253
20
7796
0
VERTEX
8
0
10
31860
20
10909
0
VERTEX
8
0
10
28944
20
10909
0
VERTEX
8
0
10
28972
20
14695
0
VERTEX
8
0
10
30458
20
15929
0
VERTEX
8
0
10
31580
20
16265
0
VERTEX
8
0
10
32730
20
15901
0
VERTEX
8
0
10
33010
20
14835
0
VERTEX
8
0
10
32674
20
13882
0
VERTEX
8
0
10
32085
20
12900
0
VERTEX
8
0
10
31860
20
11975
0
VERTEX
8
0
10
31860
20
10909
0
VERTEX
8
0
10
32253
20
7796
0
VERTEX
8
0
10
36936
20
19042
0
VERTEX
8
0
10
36375
20
23360
0
VERTEX
8
0
10
36207
20
23949
0
VERTEX
8
0
10
36207
20
23332
0
VERTEX
8
0
10
36179
20
19855
0
VERTEX
8
0
10
36235
20
19462
0
VERTEX
8
0
10
36151
20
19182
0
VERTEX
8
0
10
35871
20
18986
0
VERTEX
8
0
10
35338
20
19434
0
VERTEX
8
0
10
35282
20
19518
0
VERTEX
8
0
10
35198
20
19715
0
VERTEX
8
0
10
34833
20
20191
0
VERTEX
8
0
10
34805
20
20220
0
VERTEX
8
0
10
33010
20
21622
0
VERTEX
8
0
10
30627
20
22351
0
VERTEX
8
0
10
30010
20
22743
0
VERTEX
8
0
10
30038
20
22771
0
VERTEX
8
0
10
29533
20
23220
0
VERTEX
8
0
10
29196
20
23753
0
VERTEX
8
0
10
29421
20
24061
0
VERTEX
8
0
10
29701
20
23949
0
VERTEX
8
0
10
29785
20
24258
0
VERTEX
8
0
10
29897
20
24398
0
VERTEX
8
0
10
30150
20
24454
0
VERTEX
8
0
10
30823
20
24875
0
VERTEX
8
0
10
30851
20
24959
0
VERTEX
8
0
10
30683
20
25632
0
VERTEX
8
0
10
31412
20
26277
0
VERTEX
8
0
10
31720
20
26221
0
VERTEX
8
0
10
32225
20
26361
0
VERTEX
8
0
10
32786
20
26529
0
VERTEX
8
0
10
33403
20
26669
0
VERTEX
8
0
10
34300
20
26782
0
VERTEX
8
0
10
34889
20
26641
0
VERTEX
8
0
10
34945
20
26557
0
VERTEX
8
0
10
35282
20
26193
0
VERTEX
8
0
10
35226
20
26277
0
VERTEX
8
0
10
35001
20
26698
0
VERTEX
8
0
10
34889
20
26922
0
SEQEND
0
POLYLINE
8
0
62
94
66
1
40
1
41
1
0
VERTEX
8
0
10
21176
20
24538
0
VERTEX
8
0
10
19634
20
24566
0
VERTEX
8
0
10
18231
20
23893
0
VERTEX
8
0
10
17474
20
22659
0
VERTEX
8
0
10
17194
20
21481
0
VERTEX
8
0
10
17110
20
21257
0
VERTEX
8
0
10
17362
20
20949
0
VERTEX
8
0
10
17418
20
20949
0
VERTEX
8
0
10
17558
20
21033
0
VERTEX
8
0
10
21176
20
24538
0
SEQEND
0
POLYLINE
8
0
62
94
66
1
40
1
41
1
0
VERTEX
8
0
10
15848
20
9339
0
VERTEX
8
0
10
15427
20
8946
0
VERTEX
8
0
10
15960
20
7544
0
VERTEX
8
0
10
17110
20
6394
0
VERTEX
8
0
10
18568
20
5609
0
VERTEX
8
0
10
18596
20
5609
0
VERTEX
8
0
10
18736
20
5553
0
VERTEX
8
0
10
19269
20
5833
0
VERTEX
8
0
10
18961
20
6226
0
VERTEX
8
0
10
15848
20
9339
0
SEQEND
0
POLYLINE
8
0
62
94
66
1
40
1
41
1
0
VERTEX
8
0
10
21905
20
10853
0
VERTEX
8
0
10
21905
20
11891
0
VERTEX
8
0
10
18316
20
12031
0
VERTEX
8
0
10
17923
20
11806
0
VERTEX
8
0
10
15876
20
10853
0
VERTEX
8
0
10
21905
20
10853
0
SEQEND
0
POLYLINE
8
0
62
94
66
1
40
1
41
1
0
VERTEX
8
0
10
31580
20
16265
0
VERTEX
8
0
10
30458
20
15929
0
VERTEX
8
0
10
28972
20
14695
0
VERTEX
8
0
10
28944
20
10909
0
VERTEX
8
0
10
31860
20
10909
0
VERTEX
8
0
10
31860
20
11975
0
VERTEX
8
0
10
32085
20
12900
0
VERTEX
8
0
10
32674
20
13882
0
VERTEX
8
0
10
33010
20
14835
0
VERTEX
8
0
10
32730
20
15901
0
VERTEX
8
0
10
31580
20
16265
0
SEQEND
0
POLYLINE
8
0
62
94
66
1
40
1
41
1
0
VERTEX
8
0
10
34945
20
26557
0
VERTEX
8
0
10
34889
20
26641
0
VERTEX
8
0
10
34300
20
26782
0
VERTEX
8
0
10
33403
20
26669
0
VERTEX
8
0
10
32786
20
26529
0
VERTEX
8
0
10
32225
20
26361
0
VERTEX
8
0
10
31720
20
26221
0
VERTEX
8
0
10
31412
20
26277
0
VERTEX
8
0
10
30683
20
25632
0
VERTEX
8
0
10
30851
20
24959
0
VERTEX
8
0
10
30823
20
24875
0
VERTEX
8
0
10
30150
20
24454
0
VERTEX
8
0
10
29897
20
24398
0
VERTEX
8
0
10
29785
20
24258
0
VERTEX
8
0
10
29701
20
23949
0
VERTEX
8
0
10
29421
20
24061
0
VERTEX
8
0
10
29196
20
23753
0
VERTEX
8
0
10
29533
20
23220
0
VERTEX
8
0
10
30038
20
22771
0
VERTEX
8
0
10
30010
20
22743
0
VERTEX
8
0
10
30627
20
22351
0
VERTEX
8
0
10
33010
20
21622
0
VERTEX
8
0
10
34805
20
20220
0
VERTEX
8
0
10
34833
20
20191
0
VERTEX
8
0
10
35198
20
19715
0
VERTEX
8
0
10
35282
20
19518
0
VERTEX
8
0
10
35338
20
19434
0
VERTEX
8
0
10
35871
20
18986
0
VERTEX
8
0
10
36151
20
19182
0
VERTEX
8
0
10
36235
20
19462
0
VERTEX
8
0
10
36179
20
19855
0
VERTEX
8
0
10
36207
20
23332
0
VERTEX
8
0
10
36207
20
23949
0
VERTEX
8
0
10
35282
20
26193
0
VERTEX
8
0
10
34945
20
26557
0
SEQEND
0
POLYLINE
8
0
62
156
66
1
40
1
41
1
0
VERTEX
8
0
10
32562
20
30007
0
VERTEX
8
0
10
32449
20
30119
0
VERTEX
8
0
10
32870
20
29670
0
VERTEX
8
0
10
32562
20
30007
0
SEQEND
0
POLYLINE
8
0
62
156
66
1
40
1
41
1
0
VERTEX
8
0
10
18091
20
34718
0
VERTEX
8
0
10
17334
20
34578
0
VERTEX
8
0
10
17194
20
34522
0
VERTEX
8
0
10
18091
20
34718
0
SEQEND
0
POLYLINE
8
0
62
94
66
1
40
1
41
1
0
VERTEX
8
0
10
17278
20
30960
0
VERTEX
8
0
10
17026
20
32278
0
VERTEX
8
0
10
16773
20
33512
0
VERTEX
8
0
10
17026
20
34494
0
VERTEX
8
0
10
16633
20
34381
0
VERTEX
8
0
10
11922
20
32138
0
VERTEX
8
0
10
11669
20
31942
0
VERTEX
8
0
10
11417
20
31745
0
VERTEX
8
0
10
11305
20
31689
0
VERTEX
8
0
10
11221
20
31605
0
VERTEX
8
0
10
11136
20
31549
0
VERTEX
8
0
10
11108
20
31521
0
VERTEX
8
0
10
11080
20
31493
0
VERTEX
8
0
10
10435
20
30960
0
VERTEX
8
0
10
10211
20
30736
0
VERTEX
8
0
10
9959
20
30511
0
VERTEX
8
0
10
9790
20
30371
0
VERTEX
8
0
10
9734
20
30315
0
VERTEX
8
0
10
7098
20
26866
0
VERTEX
8
0
10
7519
20
25716
0
VERTEX
8
0
10
8416
20
24678
0
VERTEX
8
0
10
9201
20
24482
0
VERTEX
8
0
10
9454
20
24454
0
VERTEX
8
0
10
11136
20
24510
0
VERTEX
8
0
10
11164
20
24510
0
VERTEX
8
0
10
11809
20
24510
0
VERTEX
8
0
10
12791
20
24510
0
VERTEX
8
0
10
12987
20
24538
0
VERTEX
8
0
10
14810
20
25548
0
VERTEX
8
0
10
16661
20
27034
0
VERTEX
8
0
10
17642
20
28156
0
VERTEX
8
0
10
17530
20
29249
0
VERTEX
8
0
10
17278
20
30960
0
SEQEND
0
POLYLINE
8
0
62
156
66
1
40
1
41
1
0
VERTEX
8
0
10
7098
20
26866
0
VERTEX
8
0
10
6874
20
26445
0
VERTEX
8
0
10
7098
20
26866
0
SEQEND
0
POLYLINE
8
0
62
7
66
1
40
1
41
1
0
VERTEX
8
0
10
11136
20
31549
0
VERTEX
8
0
10
11669
20
31942
0
VERTEX
8
0
10
11922
20
32138
0
VERTEX
8
0
10
16633
20
34381
0
VERTEX
8
0
10
17026
20
34494
0
VERTEX
8
0
10
17194
20
34522
0
VERTEX
8
0
10
18091
20
34718
0
VERTEX
8
0
10
18820
20
34830
0
VERTEX
8
0
10
21008
20
34970
0
VERTEX
8
0
10
32253
20
30315
0
VERTEX
8
0
10
32449
20
30119
0
VERTEX
8
0
10
32870
20
29670
0
VERTEX
8
0
10
34048
20
28212
0
SEQEND
0
POLYLINE
8
0
62
7
66
1
40
1
41
1
0
VERTEX
8
0
10
34104
20
28128
0
VERTEX
8
0
10
34889
20
26922
0
VERTEX
8
0
10
35282
20
26193
0
VERTEX
8
0
10
36207
20
23949
0
VERTEX
8
0
10
36375
20
23360
0
VERTEX
8
0
10
36936
20
19042
0
VERTEX
8
0
10
32253
20
7796
0
VERTEX
8
0
10
21008
20
3113
0
VERTEX
8
0
10
9734
20
7796
0
VERTEX
8
0
10
5079
20
19042
0
VERTEX
8
0
10
5668
20
23416
0
VERTEX
8
0
10
6874
20
26445
0
VERTEX
8
0
10
7098
20
26866
0
VERTEX
8
0
10
9734
20
30315
0
VERTEX
8
0
10
9790
20
30371
0
VERTEX
8
0
10
10435
20
30960
0
VERTEX
8
0
10
11080
20
31493
0
VERTEX
8
0
10
11108
20
31521
0
SEQEND
0
POLYLINE
8
0
62
255
66
1
40
1
41
1
0
VERTEX
8
0
10
36936
20
19042
0
VERTEX
8
0
10
34917
20
26866
0
VERTEX
8
0
10
31272
20
20528
0
VERTEX
8
0
10
21569
20
16490
0
VERTEX
8
0
10
11866
20
20528
0
VERTEX
8
0
10
7996
20
28240
0
VERTEX
8
0
10
5668
20
23416
0
VERTEX
8
0
10
5079
20
19042
0
VERTEX
8
0
10
9734
20
7796
0
VERTEX
8
0
10
21008
20
3113
0
VERTEX
8
0
10
32253
20
7796
0
VERTEX
8
0
10
36936
20
19042
0
SEQEND
0
POLYLINE
8
0
62
255
66
1
40
1
41
1
0
VERTEX
8
0
10
11866
20
20528
0
VERTEX
8
0
10
21569
20
16490
0
VERTEX
8
0
10
31272
20
20528
0
VERTEX
8
0
10
34917
20
26866
0
VERTEX
8
0
10
32253
20
30315
0
VERTEX
8
0
10
21008
20
34970
0
VERTEX
8
0
10
18820
20
34830
0
VERTEX
8
0
10
9734
20
30315
0
VERTEX
8
0
10
7996
20
28240
0
VERTEX
8
0
10
11866
20
20528
0
SEQEND
0
POLYLINE
8
0
62
7
66
1
40
1
41
1
0
VERTEX
8
0
10
35590
20
25548
0
VERTEX
8
0
10
34721
20
27202
0
VERTEX
8
0
10
32253
20
30315
0
VERTEX
8
0
10
21008
20
34970
0
VERTEX
8
0
10
18820
20
34830
0
VERTEX
8
0
10
9734
20
30315
0
VERTEX
8
0
10
5668
20
23416
0
VERTEX
8
0
10
5079
20
19042
0
VERTEX
8
0
10
9734
20
7796
0
VERTEX
8
0
10
21008
20
3113
0
VERTEX
8
0
10
32253
20
7796
0
VERTEX
8
0
10
36936
20
19042
0
VERTEX
8
0
10
35590
20
25548
0
SEQEND
0
POLYLINE
8
0
62
53
66
1
40
1
41
1
0
VERTEX
8
0
10
35029
20
26669
0
VERTEX
8
0
10
35254
20
26277
0
VERTEX
8
0
10
35478
20
25828
0
VERTEX
8
0
10
36095
20
26277
0
VERTEX
8
0
10
36235
20
26641
0
VERTEX
8
0
10
36207
20
26726
0
VERTEX
8
0
10
35029
20
26669
0
SEQEND
0
POLYLINE
8
0
62
53
66
1
40
1
41
1
0
VERTEX
8
0
10
34889
20
26641
0
VERTEX
8
0
10
35029
20
26669
0
VERTEX
8
0
10
34637
20
26585
0
VERTEX
8
0
10
34861
20
26641
0
VERTEX
8
0
10
34889
20
26641
0
SEQEND
0
POLYLINE
8
0
62
53
66
1
40
1
41
1
0
VERTEX
8
0
10
34637
20
26585
0
VERTEX
8
0
10
35029
20
26669
0
VERTEX
8
0
10
36207
20
26726
0
VERTEX
8
0
10
36039
20
27062
0
VERTEX
8
0
10
30851
20
32643
0
VERTEX
8
0
10
22242
20
25968
0
VERTEX
8
0
10
21989
20
25604
0
VERTEX
8
0
10
21905
20
25492
0
VERTEX
8
0
10
21905
20
15284
0
VERTEX
8
0
10
21905
20
10853
0
VERTEX
8
0
10
15876
20
10853
0
VERTEX
8
0
10
14333
20
10853
0
VERTEX
8
0
10
14726
20
10460
0
VERTEX
8
0
10
25186
20
0
0
VERTEX
8
0
10
36095
20
10909
0
VERTEX
8
0
10
28944
20
10909
0
VERTEX
8
0
10
29028
20
20921
0
VERTEX
8
0
10
33655
20
26305
0
VERTEX
8
0
10
34637
20
26585
0
SEQEND
0
POLYLINE
8
0
62
53
66
1
40
1
41
1
0
VERTEX
8
0
10
21905
20
25492
0
VERTEX
8
0
10
21176
20
24538
0
VERTEX
8
0
10
17418
20
20949
0
VERTEX
8
0
10
16324
20
20191
0
VERTEX
8
0
10
5135
20
17527
0
VERTEX
8
0
10
3705
20
17640
0
VERTEX
8
0
10
6397
20
9451
0
VERTEX
8
0
10
14726
20
10460
0
VERTEX
8
0
10
14333
20
10853
0
VERTEX
8
0
10
15876
20
10853
0
VERTEX
8
0
10
17923
20
11806
0
VERTEX
8
0
10
18316
20
12031
0
VERTEX
8
0
10
21905
20
15284
0
VERTEX
8
0
10
21905
20
25492
0
SEQEND
0
POLYLINE
8
0
62
53
66
1
40
1
41
1
0
VERTEX
8
0
10
3705
20
17640
0
VERTEX
8
0
10
5135
20
17527
0
VERTEX
8
0
10
5079
20
18172
0
VERTEX
8
0
10
3705
20
17640
0
SEQEND
0
POLYLINE
8
0
62
7
66
1
40
1
41
1
0
VERTEX
8
0
10
35029
20
26669
0
VERTEX
8
0
10
34889
20
26641
0
VERTEX
8
0
10
34861
20
26641
0
VERTEX
8
0
10
34637
20
26585
0
SEQEND
0
POLYLINE
8
0
62
7
66
1
40
1
41
1
0
VERTEX
8
0
10
34637
20
26585
0
VERTEX
8
0
10
35029
20
26669
0
SEQEND
0
POLYLINE
8
0
62
7
66
1
40
1
41
1
0
VERTEX
8
0
10
36207
20
26726
0
VERTEX
8
0
10
36039
20
27062
0
VERTEX
8
0
10
30851
20
32643
0
VERTEX
8
0
10
22242
20
25968
0
VERTEX
8
0
10
21989
20
25604
0
VERTEX
8
0
10
21905
20
25492
0
SEQEND
0
POLYLINE
8
0
62
7
66
1
40
1
41
1
0
VERTEX
8
0
10
36207
20
26726
0
VERTEX
8
0
10
36235
20
26641
0
VERTEX
8
0
10
36095
20
26277
0
VERTEX
8
0
10
35478
20
25828
0
VERTEX
8
0
10
35590
20
25548
0
SEQEND
0
POLYLINE
8
0
62
7
66
1
40
1
41
1
0
VERTEX
8
0
10
35029
20
26669
0
VERTEX
8
0
10
36207
20
26726
0
SEQEND
0
POLYLINE
8
0
62
7
66
1
40
1
41
1
0
VERTEX
8
0
10
21905
20
25492
0
VERTEX
8
0
10
21176
20
24538
0
VERTEX
8
0
10
17418
20
20949
0
VERTEX
8
0
10
16324
20
20191
0
VERTEX
8
0
10
5135
20
17527
0
SEQEND
0
POLYLINE
8
0
62
7
66
1
40
1
41
1
0
VERTEX
8
0
10
21905
20
15284
0
VERTEX
8
0
10
21905
20
10853
0
VERTEX
8
0
10
15876
20
10853
0
SEQEND
0
POLYLINE
8
0
62
7
66
1
40
1
41
1
0
VERTEX
8
0
10
21905
20
15284
0
VERTEX
8
0
10
18316
20
12031
0
VERTEX
8
0
10
17923
20
11806
0
VERTEX
8
0
10
15876
20
10853
0
SEQEND
0
POLYLINE
8
0
62
7
66
1
40
1
41
1
0
VERTEX
8
0
10
15876
20
10853
0
VERTEX
8
0
10
14333
20
10853
0
VERTEX
8
0
10
14726
20
10460
0
SEQEND
0
POLYLINE
8
0
62
7
66
1
40
1
41
1
0
VERTEX
8
0
10
14726
20
10460
0
VERTEX
8
0
10
25186
20
0
0
VERTEX
8
0
10
36095
20
10909
0
VERTEX
8
0
10
28944
20
10909
0
VERTEX
8
0
10
29028
20
20921
0
VERTEX
8
0
10
33655
20
26305
0
VERTEX
8
0
10
34637
20
26585
0
SEQEND
0
POLYLINE
8
0
62
7
66
1
40
1
41
1
0
VERTEX
8
0
10
21905
20
25492
0
VERTEX
8
0
10
21905
20
15284
0
SEQEND
0
POLYLINE
8
0
62
7
66
1
40
1
41
1
0
VERTEX
8
0
10
5135
20
17527
0
VERTEX
8
0
10
3705
20
17640
0
SEQEND
0
POLYLINE
8
0
62
7
66
1
40
1
41
1
0
VERTEX
8
0
10
5135
20
17527
0
VERTEX
8
0
10
5079
20
18172
0
VERTEX
8
0
10
3705
20
17640
0
SEQEND
0
POLYLINE
8
0
62
7
66
1
40
1
41
1
0
VERTEX
8
0
10
3705
20
17640
0
VERTEX
8
0
10
6397
20
9451
0
VERTEX
8
0
10
14726
20
10460
0
SEQEND
0
POLYLINE
8
0
62
255
66
1
40
1
41
1
0
VERTEX
8
0
10
34889
20
26641
0
VERTEX
8
0
10
36235
20
26641
0
VERTEX
8
0
10
30851
20
32643
0
VERTEX
8
0
10
22242
20
25968
0
VERTEX
8
0
10
21961
20
25492
0
VERTEX
8
0
10
21961
20
15284
0
VERTEX
8
0
10
21905
20
15200
0
VERTEX
8
0
10
21905
20
10853
0
VERTEX
8
0
10
15932
20
10853
0
VERTEX
8
0
10
14389
20
10853
0
VERTEX
8
0
10
14782
20
10460
0
VERTEX
8
0
10
14754
20
10432
0
VERTEX
8
0
10
25186
20
0
0
VERTEX
8
0
10
36095
20
10909
0
VERTEX
8
0
10
28944
20
10909
0
VERTEX
8
0
10
29028
20
20921
0
VERTEX
8
0
10
29000
20
24286
0
VERTEX
8
0
10
30935
20
24903
0
VERTEX
8
0
10
34889
20
26641
0
SEQEND
0
POLYLINE
8
0
62
255
66
1
40
1
41
1
0
VERTEX
8
0
10
21961
20
25492
0
VERTEX
8
0
10
21905
20
25408
0
VERTEX
8
0
10
21316
20
24650
0
VERTEX
8
0
10
21232
20
24538
0
VERTEX
8
0
10
17671
20
21089
0
VERTEX
8
0
10
17474
20
20949
0
VERTEX
8
0
10
16997
20
20612
0
VERTEX
8
0
10
16381
20
20191
0
VERTEX
8
0
10
13941
20
18930
0
VERTEX
8
0
10
13660
20
18845
0
VERTEX
8
0
10
5752
20
17499
0
VERTEX
8
0
10
4742
20
17555
0
VERTEX
8
0
10
4406
20
17583
0
VERTEX
8
0
10
4350
20
17583
0
VERTEX
8
0
10
3761
20
17640
0
VERTEX
8
0
10
3789
20
17135
0
VERTEX
8
0
10
6453
20
9451
0
VERTEX
8
0
10
13829
20
10180
0
VERTEX
8
0
10
14754
20
10432
0
VERTEX
8
0
10
14782
20
10460
0
VERTEX
8
0
10
14389
20
10853
0
VERTEX
8
0
10
15932
20
10853
0
VERTEX
8
0
10
16268
20
10965
0
VERTEX
8
0
10
16997
20
11302
0
VERTEX
8
0
10
17979
20
11806
0
VERTEX
8
0
10
18372
20
12031
0
VERTEX
8
0
10
19549
20
12844
0
VERTEX
8
0
10
21905
20
15200
0
VERTEX
8
0
10
21961
20
15284
0
VERTEX
8
0
10
21961
20
25492
0
SEQEND
0
POLYLINE
8
0
62
255
66
1
40
1
41
1
0
VERTEX
8
0
10
34889
20
26641
0
VERTEX
8
0
10
36235
20
26641
0
VERTEX
8
0
10
30851
20
32643
0
VERTEX
8
0
10
22242
20
25968
0
VERTEX
8
0
10
21961
20
25492
0
VERTEX
8
0
10
21961
20
15284
0
VERTEX
8
0
10
21905
20
15200
0
VERTEX
8
0
10
21905
20
10853
0
VERTEX
8
0
10
14389
20
10853
0
VERTEX
8
0
10
14782
20
10460
0
VERTEX
8
0
10
14754
20
10432
0
VERTEX
8
0
10
25186
20
0
0
VERTEX
8
0
10
36095
20
10909
0
VERTEX
8
0
10
28944
20
10909
0
VERTEX
8
0
10
29028
20
20921
0
VERTEX
8
0
10
29561
20
22856
0
VERTEX
8
0
10
30010
20
22743
0
VERTEX
8
0
10
34889
20
26641
0
SEQEND
0
ENDSEC
0
EOF
