<?xml version="1.0" encoding="UTF-8" standalone="no"?>
<svg
   xmlns:dc="http://purl.org/dc/elements/1.1/"
   xmlns:cc="http://creativecommons.org/ns#"
   xmlns:rdf="http://www.w3.org/1999/02/22-rdf-syntax-ns#"
   xmlns:svg="http://www.w3.org/2000/svg"
   xmlns="http://www.w3.org/2000/svg"
   xmlns:sodipodi="http://sodipodi.sourceforge.net/DTD/sodipodi-0.dtd"
   xmlns:inkscape="http://www.inkscape.org/namespaces/inkscape"
   enable-background="new 0 0 50 50"
   style="fill:#000000"
   viewBox="0 0 38 47"
   id="svg2"
   version="1.1"
   inkscape:version="0.91 r13725"
   sodipodi:docname="widthLocked.svg"
   width="38"
   height="47">
  <metadata
     id="metadata10">
    <rdf:RDF>
      <cc:Work
         rdf:about="">
        <dc:format>image/svg+xml</dc:format>
        <dc:type
           rdf:resource="http://purl.org/dc/dcmitype/StillImage" />
        <dc:title />
      </cc:Work>
    </rdf:RDF>
  </metadata>
  <defs
     id="defs8" />
  <sodipodi:namedview
     pagecolor="#ffffff"
     bordercolor="#666666"
     borderopacity="1"
     objecttolerance="10"
     gridtolerance="10"
     guidetolerance="10"
     inkscape:pageopacity="0"
     inkscape:pageshadow="2"
     inkscape:window-width="1070"
     inkscape:window-height="722"
     id="namedview6"
     showgrid="false"
     fit-margin-top="0"
     fit-margin-left="0"
     fit-margin-right="0"
     fit-margin-bottom="0"
     inkscape:zoom="4.72"
     inkscape:cx="-15.533898"
     inkscape:cy="25"
     inkscape:window-x="0"
     inkscape:window-y="0"
     inkscape:window-maximized="0"
     inkscape:current-layer="svg2" />
  <path
     d="M 19,0 C 12.364481,0 7,5.3644809 7,12 l 0,5 -4,0 c -1.7,0 -3,1.3 -3,3 l 0,24 c 0,1.7 1.3,3 3,3 l 32,0 c 1.7,0 3,-1.3 3,-3 l 0,-24 c 0,-1.7 -1.3,-3 -3,-3 l -4,0 0,-5 C 31,5.3644809 25.635519,0 19,0 Z m 0,2 c 5.564481,0 10,4.4355191 10,10 l 0,5 -20,0 0,-5 C 9,6.4355191 13.435519,2 19,2 Z m 0,25 c 1.7,0 3,1.3 3,3 0,0.9 -0.4,1.6875 -1,2.1875 L 21,35 c 0,1.1 -0.9,2 -2,2 -1.1,0 -2,-0.9 -2,-2 l 0,-2.8125 C 16.4,31.6875 16,30.9 16,30 c 0,-1.7 1.3,-3 3,-3 z"
     overflow="visible"
     style="color:#000000;line-height:normal;font-family:'Bitstream Vera Sans';-inkscape-font-specification:'Bitstream Vera Sans';text-indent:0;text-align:start;text-transform:none;block-progression:tb;overflow:visible;fill:#000000;fill-opacity:0.36263737;enable-background:accumulate"
     id="path4"
     inkscape:connector-curvature="0" />
</svg>
